<?xml version="1.0" encoding="utf-8" ?>
<svg baseProfile="full" height="300mm" version="1.1" viewBox="0,0,200,300" width="200mm" xmlns="http://www.w3.org/2000/svg" xmlns:ev="http://www.w3.org/2001/xml-events" xmlns:xlink="http://www.w3.org/1999/xlink"><defs /><rect fill="#222222" height="300" width="200" x="0" y="0" /><text fill="#FFFFFF" style="font-size:12px; font-family:Arial; font-weight:bold;" x="10" y="20">Over 10km Runs</text><text fill="#FFFFFF" style="font-size:4px; font-family:Arial" x="10" y="280">ATHLETE</text><text fill="#FFFFFF" style="font-size:9px; font-family:Arial" x="10" y="290">wzso</text><text fill="#FFFFFF" style="font-size:4px; font-family:Arial" x="120" y="280">STATISTICS</text><text fill="#FFFFFF" style="font-size:3px; font-family:Arial" x="120" y="285">Number: 2</text><text fill="#FFFFFF" style="font-size:3px; font-family:Arial" x="120" y="290">Weekly: 1.0</text><text fill="#FFFFFF" style="font-size:3px; font-family:Arial" x="141" y="285">Total: 20.4 km</text><text fill="#FFFFFF" style="font-size:3px; font-family:Arial" x="141" y="290">Avg: 10.2 km</text><text fill="#FFFFFF" style="font-size:3px; font-family:Arial" x="167" y="285">Min: 10.2 km</text><text fill="#FFFFFF" style="font-size:3px; font-family:Arial" x="167" y="290">Max: 10.2 km</text><polyline fill="none" points="128.72340425476432,112.34501101356 132.33434650488198,122.71297417348251 143.16717325150967,129.1482502645813 148.41945288702846,129.50576534727588 149.73252279683948,123.42800528137013 147.4346504546702,118.06526935007423 138.24316109344363,110.19991236133501 132.6626139804721,110.55742887035012 132.9908814597875,101.61950805783272 125.11246200464666,99.11688721412793 120.18844984844327,89.46390874916688 111.32522796280682,81.95602304162458 106.40121580474079,83.3860974246636 96.22492401115596,89.82142682047561 88.67477203533053,84.8161713774316 83.7507598772645,84.8161713774316 80.13981762900949,89.82142682047561 65.69604863226414,84.10113445529714 67.00911854021251,73.01804838469252 70.94832826592028,68.3702949131839 57.16109422408044,58.35973352007568 64.38297872245312,55.142048590350896 69.30699088051915,55.85708987340331 64.05471124500036,52.28188237687573 54.863221883773804,52.63940324774012 46.984802432358265,56.2146104760468 46.32826747559011,58.717253933660686 54.534954408183694,62.29245658451691 56.50455926917493,64.79509683838114 57.4893617015332,70.51541246427223 52.89361702091992,81.95602304162458 63.06990881450474,94.82667698664591 58.80243160948157,101.97702521272004 67.99392097070813,112.34501101356 68.9787234030664,119.13781702052802 81.1246200595051,117.35023743472993 95.89665653370321,121.64042731048539 122.15805471129715,127.36067444738 135.945288753137,128.790735155344 142.8389057740569,126.6456439322792 147.10638297908008,129.1482502645813 148.7477203644812,126.6456439322792 148.0911854095757,124.14303628122434 132.33434650488198,111.98749463865533 133.3191489353776,101.97702521272004 130.03647416457534,99.47440455853939 122.81458966620266,98.40185244567692 120.84498480334878,90.89398087095469 117.23404255323112,87.31879975879565 108.69908814691007,86.24624489992857 96.55319149047136,91.96653467975557 89.00303951278329,85.53120819246396 82.76595744490623,85.88872655900195 80.79635258205235,90.17894486431032 69.6352583579719,84.45865292986855 67.33738601766527,81.95602304162458 67.00911854021251,74.80564466211945 61.10030394978821,70.15789294056594 60.7720364741981,66.58269621198997 55.19148936122656,59.78981501189992 63.72644376941025,55.142048590350896 69.30699088051915,56.2146104760468 60.4437689948827,48.34915102040395 57.81762917898595,51.924361479468644 48.95440729521215,54.42700719833374 46.0,57.28717211866751 49.28267477080226,62.29245658451691 54.534954408183694,63.00749679142609 56.83282674662769,65.51013666857034 59.13069908879697,72.30300968512893 55.19148936122656,75.87820210587233 54.534954408183694,81.95602304162458 64.05471124500036,88.748872527387 64.38297872245312,92.32405256293714 59.45896656438708,101.26199087500572 68.32218845002353,110.91494535282254 70.29179331287742,119.49533285712823 87.0334346499294,122.71297417348251 92.9422492403537,126.6456439322792 121.50151975639164,126.6456439322792 137.91489361599088,131.2933403570205 143.16717325150967,130.22079543164 149.73252279683948,131.2933403570205 152.35866261273623,128.07570485537872 143.49544072896242,112.34501101356 131.3495440725237,109.84239582438022 128.39513677731156,98.75936984363943 122.15805471129715,96.61426505213603 118.5471124611795,90.53646288160235 113.29483282752335,86.60376321291551 100.82066869176924,91.96653467975557 92.28571428358555,86.60376321291551 78.82674771919847,88.3913543750532 72.2613981757313,84.8161713774316 67.33738601766527,93.0390882473439 63.39817629009485,94.4691592915915 61.75683890469372,87.31879975879565 54.863221883773804,76.95075930655003 55.84802431426942,73.01804838469252 59.45896656438708,70.87293196283281 66.68085106275976,73.37556769419461 68.9787234030664,78.7383541027084 77.51367781125009,86.96128149935976 60.11550151929259,99.11688721412793 71.93313069827855,118.42278526723385 107.7142857145518,126.28812863491476 126.09726443700492,126.28812863491476 138.5714285708964,130.93582540983334 149.40425531752408,129.86328040342778 154.0,125.93061330914497 142.18237082101405,112.7025273614563 134.96048632264137,110.55742887035012 133.3191489353776,100.90447366517037 124.12765957415104,98.75936984363943 116.90577507577837,87.31879975879565 110.99696048535407,85.17368979845196 95.89665653370321,90.17894486431032 89.98784194514155,84.8161713774316 85.72036474011838,84.45865292986855 78.49848024174571,88.748872527387 68.32218845002353,81.24098568735644 66.352583585307,74.44812546018511 56.176291793584824,74.09060623124242 57.4893617015332,66.58269621198997 54.206686928868294,58.35973352007568 60.11550151929259,55.49956924607977 54.534954408183694,63.00749679142609 58.14589665643871,71.23045143391937 54.863221883773804,80.52594822691754 56.50455926917493,84.45865292986855 63.39817629009485,87.31879975879565 66.02431610971689,91.60901677096263 66.352583585307,95.89922990696505 62.41337385959923,102.33454234199598 68.9787234030664,111.98749463865533 69.96352583542466,119.13781702052802 76.85714285634458,122.35545857949182 89.98784194514155,121.64042731048539 108.04255319200456,126.28812863491476 118.87537993863225,125.21558257937431 137.91489361599088,129.50576534727588 142.51063829660416,127.36067444738 149.07598784193397,128.43322001956403 151.70212765969336,125.57309795729816 148.7477203644812,117.35023743472993 134.30395136773586,111.62997823720798 133.3191489353776,105.19467840110883 122.15805471129715,97.6868175691925 119.86018237099051,88.748872527387 116.90577507577837,86.60376321291551 107.38601823709905,86.60376321291551 96.88145896606147,89.46390874916688 86.70516717247665,84.8161713774316 79.81155015155673,90.89398087095469 67.00911854021251,84.10113445529714 64.38297872245312,73.7330869762227 60.11550151929259,70.15789294056594 55.519756838679314,60.147335316985846 62.41337385959923,54.06948646204546 53.87841945141554,51.56684055412188 46.984802432358265,57.644692613277584 51.908814588561654,61.577416270039976 56.176291793584824,61.21989607159048 58.80243160948157,64.43757688254118 58.14589665643871,73.37556769419461 53.87841945141554,76.23572119884193 53.550151973962784,79.45339183323085 64.05471124500036,90.89398087095469 59.78723404183984,98.75936984363943 60.4437689948827,101.61950805783272 68.9787234030664,109.84239582438022 73.90273556113243,119.13781702052802 85.72036474011838,118.42278526723385 100.82066869176924,123.0704897409305 122.81458966620266,124.14303628122434 126.75379939191043,127.71818966465071 134.96048632264137,127.00315920310095 141.52583586610854,130.22079543164 149.40425531752408,129.50576534727588 151.70212765969336,126.6456439322792 145.46504559367895,119.85284866672009 133.3191489353776,114.13259248435497 132.9908814597875,105.55219528824091 130.36474164016545,99.8319218759425 123.47112461924553,99.11688721412793 120.18844984844327,90.89398087095469 114.60790273547173,85.53120819246396 97.86626139655709,91.25149883469567 89.00303951278329,86.24624489992857 76.85714285634458,87.31879975879565 67.00911854021251,81.95602304162458 65.03951367735863,72.66052904771641 58.14589665643871,70.87293196283281 59.13069908879697,63.36501685529947 56.176291793584824,60.50485559552908 50.924012158066034,61.21989607159048 49.610942248255014,57.644692613277584 51.252279633656144,55.49956924607977 57.4893617015332,65.15261676721275 55.519756838679314,80.88346697064117 64.71124619990587,91.60901677096263 60.4437689948827,102.69205944333225 63.72644376941025,103.04957651812583 66.68085106275976,107.69729604106396 71.93313069827855,121.28291163500398 87.68996960297227,120.56788020487875 96.55319149047136,123.78552079526708 107.0577507596463,121.99794295849279 118.5471124611795,122.71297417348251 119.86018237099051,124.85806717304513 129.70820668525994,128.43322001956403 143.16717325150967,128.790735155344 149.73252279683948,132.0083701731637 152.35866261273623,129.86328040342778 148.41945288702846,121.99794295849279 140.54103343561292,113.77507624449208 133.3191489353776,112.34501101356 131.3495440725237,106.26722897961736 122.48632218874991,97.6868175691925 117.89057750813663,88.03383619664237 110.99696048535407,86.24624489992857 97.86626139655709,91.60901677096263 92.28571428358555,85.53120819246396 88.01823708228767,84.8161713774316 79.48328267410398,89.82142682047561 67.33738601766527,84.10113445529714 61.10030394978821,71.94549029506743 59.13069908879697,71.58797087706625 56.176291793584824,75.5206829844974 60.4437689948827,79.09587298193946 60.11550151929259,85.53120819246396 63.39817629009485,91.96653467975557 68.32218845002353,93.75412382371724 77.18541033193469,86.96128149935976 84.73556230776012,91.25149883469567 84.07902735471725,96.97178258514032 78.82674771919847,100.54695642972365 72.2613981757313,111.98749463865533 66.352583585307,115.56265717605129 67.99392097070813,119.13781702052802 73.24620060622692,121.28291163500398 91.95744680799544,120.9253959339112 97.86626139655709,124.85806717304513 110.3404255323112,122.35545857949182 125.76899695955217,128.43322001956403 149.40425531752408,127.71818966465071 147.10638297908008,117.35023743472993 134.96048632264137,112.7025273614563 129.70820668525994,100.90447366517037 123.79939209856093,98.75936984363943 116.90577507577837,88.03383619664237 108.04255319200456,86.24624489992857 97.53799391910434,90.53646288160235 83.42249240167439,82.31354167731479 84.73556230776012,89.10639065178111 80.79635258205235,91.25149883469567 71.93313069827855,86.60376321291551 65.36778115481138,73.7330869762227 54.863221883773804,72.66052904771641 52.23708206601441,60.147335316985846 61.10030394978821,55.142048590350896 62.74164133705199,50.494277618359774 66.68085106275976,57.28717211866751 62.41337385959923,55.49956924607977 58.14589665643871,56.92965159844607 51.580547112971544,53.711965698283166 47.969604862853885,57.644692613277584 50.267477203160524,63.00749679142609 58.14589665643871,60.86237584706396 60.11550151929259,63.722536891233176 55.19148936122656,82.67106028739363 64.38297872245312,91.60901677096263 58.80243160948157,101.61950805783272 65.36778115481138,109.12736267130822 68.65045592561364,118.78030115738511 93.92705167084932,120.56788020487875 114.27963525801897,125.21558257937431 123.14285714179277,124.85806717304513 137.91489361599088,129.86328040342778 145.1367781162262,125.93061330914497 146.44984802231193,117.70775340590626 136.27355623058975,113.77507624449208 129.05167173221707,114.13259248435497 127.41033434681594,103.40709356637672 122.48632218874991,100.18943916540593 118.5471124611795,88.748872527387 112.96656534820795,83.74361595371738 109.35562309995294,83.3860974246636 96.88145896606147,89.82142682047561 82.76595744490623,82.67106028739363 84.07902735471725,87.67631799122319 81.45288753695786,88.748872527387 73.90273556113243,84.8161713774316 67.00911854021251,73.7330869762227 56.176291793584824,71.58797087706625 55.519756838679314,60.147335316985846 65.03951367735863,55.142048590350896 69.30699088051915,56.2146104760468 58.80243160948157,47.99162982637063 55.84802431426942,54.06948646204546 46.656534953042865,56.92965159844607 57.4893617015332,63.722536891233176 60.11550151929259,70.15789294056594 55.19148936122656,78.02331626508385 65.03951367735863,91.25149883469567 63.72644376941025,96.97178258514032 59.45896656438708,100.54695642972365 65.03951367735863,106.98226256435737 68.65045592561364,118.06526935007423 77.51367781125009,118.06526935007423 82.76595744490623,120.9253959339112 107.38601823709905,122.35545857949182 128.72340425476432,128.790735155344 138.24316109344363,130.22079543164 149.40425531752408,129.50576534727588 151.04559270478785,126.6456439322792 141.85410334169865,114.49010869767517 133.64741641283035,112.34501101356 133.64741641283035,103.40709356637672 128.0668692998588,98.0443350202404 122.81458966620266,97.32930009113625 115.26443769037724,83.74361595371738 111.65349544025958,83.74361595371738 96.88145896606147,90.53646288160235 89.98784194514155,85.17368979845196 83.09422492235899,84.10113445529714 78.1702127661556,88.03383619664237 73.90273556113243,86.60376321291551 63.39817629009485,92.32405256293714 59.45896656438708,98.75936984363943 67.99392097070813,108.41232940973714 67.99392097070813,115.92017328133807 96.22492401115596,119.85284866672009" stroke="#4dd2ff" stroke-linecap="round" stroke-linejoin="round" stroke-width="0.5"><title>2024-01-16 10.2km</title><desc>10569480991</desc></polyline><polyline fill="none" points="134.57317073270679,248.9090191158466 139.18292682990432,252.8536736718379 153.6707317084074,249.26762421010062 147.41463414765894,238.15085372002795 134.57317073270679,228.82709071785212 131.93902439251542,218.78609476378188 126.01219512335956,218.4274873738177 121.73170731775463,209.10368575714529 116.13414634205401,204.08316963305697 107.24390244111419,205.1589949624613 99.3414634168148,210.53811796335503 95.39024390466511,210.89672594657168 88.80487805046141,203.72456113621593 80.57317073270679,186.15271169738844 62.46341463550925,165.7119072987698 58.84146341495216,173.24274017987773 52.2560975626111,176.11162576405331 50.280487805604935,179.33911997964606 53.573170732706785,182.56661200895905 59.1707317084074,182.20800189115107 62.79268292710185,192.24907497037202 58.18292682990432,200.13847468001768 66.41463414765894,213.4069810793735 62.79268292710185,222.372167177964 67.73170731775463,232.7717619081959 66.74390243925154,239.5852771764621 77.93902439065278,242.4541227943264 90.1219512205571,241.01970020169392 118.10975609719753,247.47459846641868 126.6707317084074,246.7573879803531 151.03658536821604,254.28809270076454 153.01219512149692,250.7020443188958 151.36585365980864,243.52993945544586 135.56097561120987,231.33733639819548 135.89024390280247,222.7307742703706 127.00000000186265,218.4274873738177 118.43902439065278,204.08316963305697 114.81707317195833,203.0073440610431 100.65853658691049,211.25533390417695 95.39024390466511,210.89672594657168 84.52439024485648,203.0073440610431 84.52439024485648,194.7593399323523 79.2560975626111,193.68351225322112 75.96341463364661,186.86993131041527 61.146341463550925,175.75301515962929 56.865853659808636,170.0152418310754 49.292682928964496,176.11162576405331 52.914634147658944,181.84939174633473 58.84146341495216,184.3596621900797 61.146341463550925,190.09741823608056 56.865853659808636,202.648735483177 65.4268292710185,215.20001964922994 62.46341463550925,222.01356005761772 68.06097561120987,232.05454920744523 65.4268292710185,232.7717619081959 65.4268292710185,239.22667135298252 75.96341463364661,238.5094596245326 83.86585365980864,241.73691155202687 90.45121951401234,239.5852771764621 101.64634146541357,244.6057558739558 114.48780487850308,244.6057558739558 140.50000000186265,250.7020443188958 149.7195121962577,252.1364639964886 154.0,250.34343933174387 149.7195121962577,242.09551718644798 135.56097561120987,230.9787299539894 117.78048780746758,203.72456113621593 113.82926829345524,203.0073440610431 101.97560975700617,209.462293848861 94.73170731775463,209.462293848861 88.80487805046141,203.36595261190087 87.15853658504784,195.83516736794263 75.63414634205401,187.945760528557 68.39024390466511,174.31857247650623 59.82926829345524,165.7119072987698 46.0,176.11162576405331 49.621951220557094,179.69773031352088 56.865853659808636,182.20800189115107 61.804878048598766,192.24907497037202 56.865853659808636,200.49708344694227 65.09756097756326,212.6897654621862 62.13414634205401,214.84141198918223 70.36585365980864,228.46848408458754 68.71951219625771,238.8680655020289 76.6219512205571,236.71642983099446 84.52439024485648,238.5094596245326 94.40243902429938,236.71642983099446 109.87804878130555,244.6057558739558 120.0853658542037,246.04017738625407 128.97560975700617,244.2471504281275 142.4756097588688,249.98483431898057 150.37804878130555,251.41925421124324 153.01219512149692,248.19180884538218 150.37804878130555,240.6610944857821 135.89024390280247,230.26151698408648 135.89024390280247,220.57913130847737 125.35365853831172,216.27584246732295 117.78048780746758,201.93151824595407 111.85365853831172,203.36595261190087 100.65853658691049,211.25533390417695 95.06097561120987,204.80038654617965 78.92682926915586,195.83516736794263 66.41463414765894,180.41495089931414 58.18292682990432,177.18745741154999 51.59756097570062,170.73246387625113 46.987804878503084,176.828846889548 51.92682926915586,182.20800189115107 59.82926829345524,187.2285410775803 60.48780488036573,194.7593399323523 56.53658536635339,201.93151824595407 65.7560975626111,211.9725497364998 60.48780488036573,221.6549529111944 68.71951219625771,229.90291045745835 68.06097561120987,241.37830588966608 75.63414634205401,239.5852771764621 84.52439024485648,243.1713339285925 90.78048780560493,242.4541227943264 96.37804878130555,245.32296668412164 113.82926829345524,246.39878269750625 139.84146341495216,252.8536736718379 148.73170731961727,251.77785911690444 152.02439024485648,246.39878269750625 150.37804878130555,239.5852771764621 143.13414634391665,233.1303682178259 135.23170731775463,230.9787299539894 133.25609756074846,223.08938133670017 125.68292682990432,215.9172348883003 120.41463414765894,206.95203663781285 115.80487805046141,204.44177810335532 111.19512195326388,204.80038654617965 102.63414634205401,213.04837328428403 100.65853658691049,212.6897654621862 94.40243902429938,205.1589949624613 87.48780487850308,203.36595261190087 82.21951219625771,189.02158950362355 67.40243902616203,170.73246387625113 55.548780489712954,170.73246387625113 48.30487805046141,172.88412935985252 46.658536586910486,176.11162576405331 50.60975609719753,181.49078157544136 55.87804878130555,183.28383216261864 61.146341463550925,192.24907497037202 54.89024390466511,198.70403934037313 64.76829268410802,211.9725497364998 63.780487805604935,216.63445001840591 59.82926829345524,222.372167177964 69.7073170747608,230.26151698408648 69.7073170747608,240.30248874332756 85.18292682990432,239.5852771764621 95.39024390466511,238.5094596245326 105.26829268410802,243.88854495575652 124.36585365980864,242.09551718644798 130.9512195121497,243.88854495575652 136.87804878130555,248.9090191158466 147.0853658542037,251.06064927950501 151.69512195140123,248.19180884538218 149.06097560934722,243.88854495575652 134.90243902616203,232.7717619081959 130.9512195121497,221.6549529111944 123.37804878130555,217.71027251286432 121.40243902616203,208.02786131901667 113.5,204.08316963305697 99.6707317084074,211.9725497364998 94.73170731775463,210.89672594657168 93.74390244111419,205.1589949624613 85.51219512335956,200.8556921868585 78.92682926915586,188.3043702142313 71.35365853644907,182.92522209882736 67.07317073270679,172.16690764017403 60.48780488036573,167.50496382638812 56.865853659808636,171.44968581199646 46.32926829345524,175.03579387255013 50.939024390652776,181.1321713766083 57.195121951401234,183.28383216261864 61.804878048598766,190.09741823608056 54.231707317754626,201.57290958613157 64.43902439065278,211.25533390417695 64.76829268410802,215.9172348883003 58.51219512335956,221.2963457372971 68.06097561120987,223.44798837555572 67.73170731775463,237.43364182906225 77.28048780560493,237.79224778804928 90.1219512205571,242.81272837519646 106.58536585606635,247.83320366963744 119.7560975626111,246.7573879803531 138.52439024485648,254.28809270076454 150.0487804878503,252.49506884766743 152.68292682990432,248.9090191158466 151.69512195140123,243.52993945544586 139.84146341495216,232.41315557109192 136.87804878130555,232.05454920744523 134.57317073270679,221.2963457372971 127.00000000186265,216.27584246732295 118.76829268410802,203.72456113621593 115.80487805046141,203.36595261190087 99.3414634168148,211.9725497364998 88.14634146355093,206.59342835657299 86.1707317084074,196.55238552344963 65.4268292710185,170.0152418310754 56.53658536635339,171.09107485739514 47.31707317195833,176.47023634100333 54.231707317754626,180.05634061992168 59.500000001862645,190.45602775830775 55.548780489712954,202.29012687737122 66.41463414765894,212.6897654621862 66.08536585606635,215.55862728133798 59.1707317084074,221.2963457372971 68.39024390466511,232.41315557109192 68.39024390466511,240.6610944857821 96.7073170747608,243.52993945544586 118.10975609719753,246.7573879803531 124.03658536635339,249.26762421010062 131.60975609906018,249.26762421010062 135.89024390280247,251.77785911690444 148.73170731961727,251.77785911690444 152.02439024485648,247.1159932371229 150.37804878130555,241.73691155202687 141.1585365869105,233.1303682178259 134.57317073270679,230.9787299539894 136.54878048971295,222.372167177964 125.68292682990432,216.27584246732295 122.06097561120987,207.66925311880186 117.45121951214969,203.36595261190087 113.82926829345524,203.36595261190087 102.30487804859877,211.25533390417695 95.06097561120987,209.8209019144997 88.80487805046141,201.93151824595407 87.15853658504784,195.83516736794263 78.92682926915586,187.58715081680566 69.37804878130555,171.44968581199646 66.41463414765894,170.0152418310754 53.90243902616203,174.31857247650623 49.292682928964496,173.9599617375061 47.64634146541357,177.18745741154999 57.52439024485648,184.3596621900797 56.53658536635339,201.93151824595407 67.07317073270679,213.04837328428403 62.46341463550925,222.01356005761772 68.06097561120987,228.46848408458754 67.73170731775463,240.6610944857821 73.00000000186265,238.8680655020289 82.21951219625771,242.4541227943264 89.13414634205401,241.01970020169392 100.98780488036573,245.32296668412164 108.23170731775463,244.2471504281275 125.68292682990432,247.83320366963744 140.1707317084074,253.92948798369616 145.43902439065278,251.06064927950501 150.37804878130555,251.77785911690444 154.0,249.62622927781194 143.13414634391665,233.1303682178259 135.23170731775463,231.69594281725585 134.90243902616203,222.7307742703706 131.28048780560493,218.78609476378188 127.32926829345524,217.71027251286432 123.37804878130555,208.7450776384212 118.10975609719753,203.72456113621593 108.56097561120987,205.8762117130682 100.65853658691049,211.25533390417695 87.81707317195833,204.80038654617965 85.18292682990432,191.89046558225527 79.2560975626111,186.86993131041527 66.41463414765894,168.22218624921516 61.804878048598766,166.42912999074906 59.500000001862645,171.80829674005508 54.231707317754626,174.6771831875667 48.96341463550925,173.9599617375061 47.64634146541357,176.11162576405331 51.268292685970664,180.77356115123257 55.21951219625771,178.98050962015986 60.81707317195833,184.0010522082448 60.81707317195833,191.17324672453105 56.865853659808636,201.57290958613157 65.7560975626111,210.89672594657168 64.43902439065278,215.9172348883003 60.158536586910486,218.4274873738177 69.04878048785031,229.54430390521884 67.07317073270679,238.8680655020289 77.93902439065278,238.8680655020289 86.82926829345524,244.6057558739558 98.35365853831172,242.81272837519646 106.9146341457963,246.39878269750625 120.74390243925154,246.39878269750625 139.51219512335956,252.8536736718379 149.7195121962577,252.49506884766743 154.0,248.9090191158466 141.1585365869105,232.41315557109192 136.2195121962577,233.1303682178259 135.23170731775463,223.44798837555572 124.69512195326388,216.27584246732295 120.0853658542037,205.51760335173458 112.18292683176696,202.648735483177 100.0,211.61394183384255 95.06097561120987,207.66925311880186 90.1219512205571,208.02786131901667 79.5853658542037,186.5113215171732 69.04878048785031,177.90467837639153 66.74390243925154,172.52551851375028 57.85365853831172,169.29801968019456 53.573170732706785,170.37385286716744 48.30487805046141,175.3944045305252 55.548780489712954,178.62189923226833 58.84146341495216,182.56661200895905 59.82926829345524,191.17324672453105 55.87804878130555,202.648735483177 64.43902439065278,214.84141198918223 60.81707317195833,222.7307742703706 69.04878048785031,231.69594281725585 66.74390243925154,239.22667135298252 73.65853658691049,240.30248874332756" stroke="#4dd2ff" stroke-linecap="round" stroke-linejoin="round" stroke-width="0.5"><title>2023-10-24 10.2km</title><desc>10096212910</desc></polyline></svg>