<?xml version="1.0" encoding="utf-8" ?>
<svg baseProfile="full" height="300mm" version="1.1" viewBox="0,0,200,300" width="200mm" xmlns="http://www.w3.org/2000/svg" xmlns:ev="http://www.w3.org/2001/xml-events" xmlns:xlink="http://www.w3.org/1999/xlink"><defs /><rect fill="#222222" height="300" width="200" x="0" y="0" /><text fill="#FFFFFF" style="font-size:12px; font-family:Arial; font-weight:bold;" x="10" y="20">Over 10km Runs</text><text fill="#FFFFFF" style="font-size:4px; font-family:Arial" x="10" y="280">ATHLETE</text><text fill="#FFFFFF" style="font-size:9px; font-family:Arial" x="10" y="290">wzso</text><text fill="#FFFFFF" style="font-size:4px; font-family:Arial" x="120" y="280">STATISTICS</text><text fill="#FFFFFF" style="font-size:3px; font-family:Arial" x="120" y="285">Number: 7</text><text fill="#FFFFFF" style="font-size:3px; font-family:Arial" x="120" y="290">Weekly: 1.0</text><text fill="#FFFFFF" style="font-size:3px; font-family:Arial" x="141" y="285">Total: 95.3 km</text><text fill="#FFFFFF" style="font-size:3px; font-family:Arial" x="141" y="290">Avg: 13.6 km</text><text fill="#FFFFFF" style="font-size:3px; font-family:Arial" x="167" y="285">Min: 10.0 km</text><text fill="#FFFFFF" style="font-size:3px; font-family:Arial" x="167" y="290">Max: 20.9 km</text><polyline fill="none" points="49.44537983078044,86.67062081789481 49.44537983078044,86.90777389060531 49.49387985555222,86.84189806884388 49.63937992998399,86.84189806884388 50.12438017805107,87.0 50.476005357922986,86.93412421245012 52.222006250871345,82.01972154296527 52.137131207447965,81.63763091793226 52.052256164024584,81.51905090161017 50.37900530832121,81.16331037739292 48.52387935947627,80.42547590662434 48.28137923544273,80.29371942844591 48.196504192077555,80.00385483223363 48.60875440289965,78.59405209308898 50.0031301160343,74.85209146073612 50.476005357922986,73.37636698754795 51.11863068654202,71.75569115312828 54.610632472496945,65.41778420274204 55.71400803682627,63.296313640865264 56.35663336556172,61.9786172923632 57.81163410964655,58.55256098708196 57.617634010443,58.46032009505143 57.30238384916447,58.473497368293465 57.13263376237592,58.56573825345549 56.768883576383814,58.499851911794394 55.85950811125804,58.51302918206784 53.15563172835391,58.433965545671526 52.73125651135342,58.381256435168325 52.331131306651514,58.473497368293465 51.57938092225231,58.48667464051687 50.985255618346855,58.68433360676863 50.548755395109765,58.63162457064027 50.221380227652844,58.72386537361308 49.82125502306735,58.64480183113483 49.44537983078044,58.65797909066896 49.08162964473013,58.44714282081986 49.00887960754335,58.236306300459546 48.924004564178176,58.18359713121026 47.10525363392662,57.696036573310266 46.25650319986744,57.353425649926066 45.89275301375892,57.30071621836396 44.91062751156278,56.94492714575608 41.661125849583186,55.9697978815675 41.406500719313044,55.74578094211756 41.05487553955754,55.62718362439773 40.8002504092874,55.61400613973092 39.75749987596646,55.35045624127088 39.029999503924046,55.37681124875962 37.902373927179724,55.2713911953615 36.85962339391699,55.297746214608196 33.37974661414046,55.13961604058568 30.74862026842311,55.284568705479614 30.457620119617786,55.16597107939015 30.372745076136198,54.98148572567152 30.493995138211176,54.441206085990416 30.3969950886094,52.64904720634513 31.11237045447342,49.736750407275395 30.700120243651327,48.840649464182206 30.55462016921956,48.20810489608266 30.372745076136198,48.089502538437955 30.22724500176264,47.79958533022727 29.80286978476215,47.891831766057294 29.378494567703456,47.79958533022727 29.051119400304742,47.812763395442744 28.08111890417058,47.522845734871225 27.389993550721556,47.0220777503273 27.098993401858024,46.6135554525099 26.432118060823996,46.23138858008315 26.21386794920545,46.191854029064416 25.619742645299993,46.37634852519841 25.29236747790128,46.21821039740462 24.916492285614368,45.8623990942142 24.043491839140188,45.2430221598479 23.53424157865811,45.08488302146725 23.109866361657623,45.26937866922526 22.309615952370223,44.729069444409106 22.188365890353452,44.55775154160801 23.109866361657623,43.806586475519 23.703991665446665,43.67480280251766 23.910116770945024,43.45077033364214 24.055616845318582,43.094953477804665 24.358742000360508,42.831384976161644 24.4072420251905,41.94842764119676 24.916492285614368,41.52671512386587 25.061992360046133,41.24996573930548 24.940742298029363,40.459250831918325 25.328742496436462,39.6948897363327 25.498492583283223,38.970061515661655 25.57124262052821,38.82509551596013 26.153242918138858,38.36383927382121 26.432118060823996,37.75761495922052 26.432118060823996,37.072315411889576 26.77161823445931,36.70330686618399 26.868618284061085,36.50562340076431 27.098993401858024,35.82031901407754 27.147493426688015,35.517202767310664 27.062618383264635,34.897789694950916 27.2081184576964,34.71328325505601 27.826493773958646,34.39698605419835 28.04474388557719,34.225658168128575 28.093243910348974,33.44809106565663 28.43274408398429,33.2635831169755 28.71161922661122,33.2635831169755 29.64524470415199,33.03953749254288 29.911994840600528,33.645777940459084 30.130244952160865,33.83028549137816 30.86987033043988,34.10704645766236 31.11237045447342,33.94889738697384 31.37912059086375,33.962076481606346 31.439745621930342,34.383806991929305 31.645870727312285,34.541955674649216 32.94324639084516,34.60785091746948 33.51312168233562,34.541955674649216 33.75562180636916,34.59467187084374 33.80412183114095,34.686925176531076 33.48887166992063,36.08389793783135 33.42824663891224,37.00642108506872 33.29487157071708,37.57311149549787 32.846246341301594,37.375428999905125 32.482496155193076,36.914168986375444 32.17937100015115,36.75602241973684 31.54887067771051,36.84827460073575 30.324245051422622,36.82191683963174 30.03324490255909,36.70330686618399 29.87561982194893,36.82191683963174 29.68161972274538,37.256819396759965 29.31786953669507,37.82350900681922 28.990494369296357,38.1793364409823 28.869244307279587,38.508805650664726 28.84499429486459,38.996418957423884 28.95411935064476,39.23363575691474 29.087494418839924,39.312707952893106 29.36636956152506,39.33906534372363 29.536119648371823,39.470852239071974 29.633119697973598,40.09024933508772 29.742244753753766,40.261571554117836 30.142369958397467,40.28792880389665 30.251495014177635,40.34064329168177 30.287870032829233,40.564679689967306 30.263620020414237,41.10500160358788 30.687995237414725,41.47400098867365 30.942620367684867,41.98796313829371 31.439745621930342,42.55463762782165 31.560995683947112,42.936812423839 31.70649575837888,43.96472675385303 31.924745869939215,44.04379684012383 32.17937100015115,44.570929847686784 32.33699608081952,44.742247737784055 32.11874596920097,45.163952608272666 31.718620764557272,46.48177386538009 31.282120541261975,47.127502706687665 30.50612014438957,47.61509231461969 29.887744828185532,47.79958533022727 29.11174443125492,47.78640726406593 28.505494121229276,47.641448471476906 28.12961892900057,47.522845734871225 27.620368668518495,47.21974949208379 27.12324341427302,46.57402098667808 26.52911811042577,46.24456676180125 26.25024296779884,46.191854029064416 25.825867750740144,46.36317035325919 25.583367626706604,46.36317035325919 24.164741901156958,45.26937866922526 23.69186665932648,45.11123955428775 23.09774135547923,45.2430221598479 22.345990970963612,44.742247737784055 22.188365890353452,44.570929847686784 22.321740958606824,44.39961179209058 23.158366386429407,43.75387301806768 23.606991615903098,43.661624429834774 23.873741752351634,43.68798117421102 23.982866808131803,43.52984064909106 24.031366832961794,43.1213103064365 24.322366981825326,42.80502810445614 24.358742000360508,42.053855613819906 24.443617043783888,41.81664258726232 24.613367130572442,41.658500393270515 24.467867056140676,41.36857267130108 24.116241876385175,41.118180166289676 23.9707418018952,40.472429442597786 24.322366981825326,39.773961726605194 24.273866956995334,39.10184868526994 24.37086700659711,38.68012939773325 24.904367279435974,38.1661576598417 25.146867403469514,37.54675384215079 25.268117465486284,36.9932422167476 24.989242322801147,36.479265588728595 25.049867353809532,36.25522402815113 25.510617589461617,36.018003243603744 26.0077428437653,36.29476079471351 26.77161823445931,36.29476079471351 26.892868296417873,36.22886617886252 27.12324341427302,35.76760318232118 27.111118408094626,34.88461066990567 27.31724351347657,34.660567094091675 27.76586874295026,34.489239462753176 28.020493873162195,34.29155352849921 28.03261887934059,33.474449328379706 28.117493922822177,33.342657975663315 28.372119052975904,33.25040397046541 28.772244257677812,33.2240456744039 29.572494666907005,33.0 29.851369809533935,33.606240583147155 30.08174492738908,33.83028549137816 30.457620119617786,33.988434667888214 30.881995336676482,34.054330116458004 31.14874547306681,33.86982279873337 31.35487057850696,33.90936009727011 31.403370603278745,34.27837445840123 31.597370702540502,34.47606040732353 32.85837134747999,34.59467187084374 33.5858717195224,34.51559757067298 33.73137179395417,34.60785091746948 33.45249665132724,36.22886617886252 33.41612163267564,36.808737957602716 33.2221215335303,37.54675384215079 32.80987132265,37.26999824549421 32.47037114907289,36.88781123505032 32.21574601880275,36.72966464491037 31.5852456963039,36.82191683963174 30.760745274601504,36.795559074613266 30.687995237414725,36.87463235789619 30.700120243651327,37.889403030014364 30.603120194049552,38.13980009467923 30.045369908795692,38.601056919651455 29.87561982194893,39.11502739685238 29.536119648371823,39.36542273061059 29.00261937547475,39.24681445871829 28.84499429486459,39.03595511273306 28.941994344466366,38.29794542698073 29.378494567703456,37.69172088704363 29.269369511923287,37.520396184918354 29.31786953669507,37.256819396759965 29.24511949950829,37.23046169639565 29.148119449906517,37.32271363053587 29.135994443669915,37.533575014051166 28.88136931345798,38.08708495252358 28.650994195602834,38.864631709468085 28.60249417083105,39.52356696977222 28.67524420801783,39.33906534372363 28.869244307279587,39.24681445871829 29.390619573940057,39.378601422620704 29.56036966072861,39.58946036110865 29.633119697973598,40.18249978128006 29.75436975993216,40.28792880389665 30.057494914974086,40.274750179523835 30.202994989347644,40.406536379407044 30.11811994598247,40.94685877491429 30.202994989347644,41.170894407245214 30.57887018157635,41.46082245242724 30.86987033043988,42.001141635351814 31.39124559710035,42.56781608275196 31.536745671532117,42.91045556780591 31.694370752142277,43.977905103995 31.888370851345826,44.07015352770395 32.009620913362596,44.267828559794 32.3976211118279,44.570929847686784 32.05812093819259,45.163952608272666 31.997495907184202,45.55930001362867 31.54887067771051,46.71898065172718 31.330620566150174,46.969365248660324 30.894120342854876,47.20657138283423 30.324245051422622,47.72051691848901 30.3848700823728,48.089502538437955 30.651620218821336,48.77475951024098 30.95474537392147,49.26234458957333 30.978995386278257,49.644504930998664 30.34849506377941,52.05604947260872 30.190869983227458,54.731112438690616 30.06961992115248,55.21868114521203 30.142369958397467,55.297746214608196 30.43337010720279,55.37681124875962 31.209370504075196,55.32410122989677 32.288496055989526,55.44269875026657 32.51887117384467,55.587651167516015 32.83412133506499,55.54811870184494 33.10087147151353,55.42952125193551 38.69049933028873,55.574473679909715 38.92087444808567,55.70624851167668 40.0,55.798490835673874 40.497125254245475,56.40465348587895 40.44862522947369,56.7340888401377 40.024250012414996,57.81463250803063 39.64837482018629,58.56573825345549 39.187624584534205,59.738511041068705 38.67837432405213,60.71361959127535 38.49649923108518,60.88492189126555 38.508624237263575,61.08257818574202 38.144874051213264,61.80731604828907 37.671998809382785,63.309490554907825 37.13849853654392,64.06057303929992 36.811123369087,64.81165234454966 36.53224822640186,65.85261665168218 36.60499826364685,66.32697810801619 36.30187310860492,68.39570630303933 35.913872910197824,70.02958923434198 35.93812292261282,70.80699599305808 35.75624782952946,72.26956558086385 35.29549759393558,73.3500146533188 34.99237243889365,74.41728106055234 34.56799722183496,75.12878843359067 34.21637204196304,75.61630109822727 34.3861221288098,75.68218108532892 35.162122525740415,75.68218108532892 35.38037263730075,75.84029295468645 35.74412282335106,75.90617285866756 36.32612312101992,75.97205273820146 36.98087345587555,75.98522871117166 37.550748747366015,76.15651627084299 37.81749888375634,76.15651627084299 38.09637402638327,76.27509986919176 38.629874299280345,76.3146277177002 40.63050032244064,76.78896121321304 40.836625427939,76.78896121321304 41.52775078138802,77.19741404097294 42.43712624639738,77.59269007619878 43.01912654412445,77.98796523133933 43.67387687898008,78.33053632048541 45.65025288978359,79.63493557082256 46.19587816885905,80.16196285247861 46.48687831766438,80.35959767975146 47.129503646399826,80.60993481178593 47.77212897501886,80.70216419249482 47.90550404321402,80.86027159084915 48.13587916106917,80.8339203675423 50.76700550672831,81.58492869824113 51.04588064935524,81.74303531044279 51.33688079821877,81.74303531044279 51.91888109582942,81.88796624791576 52.028006151667796,82.05924811241857 51.979506126837805,82.335933852155 51.300505779567175,84.41765083005885 51.16713071137201,84.58893025420548 51.215630736143794,84.69433289465087 51.13075569277862,84.99736513735843 50.754880500549916,85.73518060924835 50.52450538263656,86.51251859350305 50.29413026489783,86.80237256405235 49.978880103619304,86.84189806884388 49.33625477500027,86.64427045696357 49.033129619958345,86.63109527502093 48.148004167247564,86.26218978360703 48.0146290990524,86.38076663231186 47.94187906180741,86.6969711749698 48.06312912382418,86.77602222266432 48.160129173484165,86.73649670321902" stroke="#ff0000" stroke-linecap="round" stroke-linejoin="round" stroke-width="0.5"><title>2024-12-18 20.9km</title><desc>13140733940</desc></polyline><polyline fill="none" points="157.11716022272594,70.72542897611856 157.3678419427015,70.99780910764821 157.3678419427015,70.04447829385754 157.86920538218692,68.4782898077392 158.1198871016968,66.77590798796155 158.55858011124656,65.41400025918847 159.56130699045025,60.374924095056485 160.25068171950988,57.99156762572238 160.68937472905964,55.8124934383668 161.6921016080305,53.56531776522752 162.44414676725864,52.20339043746935 164.38693009549752,48.185693048057146 167.83380374172702,41.78457952383906 168.585848901188,40.15024551312672 169.1498827706091,38.2435188224772 169.77658706973307,36.94966631260468 170.46596179925837,35.17912834312301 171.21800695825368,33.74907595140394 171.21800695825368,33.40858695842326 170.90465480880812,33.6128803693573 170.59130265912972,34.29385807766812 169.65124621009454,36.745373644225765 169.2125532005448,38.37971371749882 167.45778116211295,42.94223102083197 166.89374729269184,44.031784037302714 165.38965697446838,46.41517675179057 165.32698654429987,46.891854552028235 164.9509639646858,47.709015919594094 163.13352149678394,50.569074977131095 162.63215805706568,51.25004010583507 161.8174424681347,53.224836122768465 160.5640338694211,55.40391645242926 160.06267042993568,56.629646864836104 158.9972731207963,61.12397770752432 157.8065349520184,65.34590481966734 157.55585323250853,67.25257521565072 156.99181936308742,69.49971738422755 156.36511506373063,71.6106641080114 155.4877290443983,75.01540666026995 155.2370473248884,79.57774188462645 154.79835431510583,82.16532492137048 153.85829786630347,85.84240405977471 154.23432044568472,84.00386633141898 155.4250586144626,80.19059115764685 155.61306990450248,79.37345870269928 155.61306990450248,77.46681347960839 155.86375162401237,76.30920551944291 156.61579678347334,73.72160597797483 157.30517151253298,70.11257338477299 157.99454624182545,67.6611469280324 158.18255753163248,66.2311451388523 159.1226139809005,62.48589180066483 159.31062527070753,61.46445642033359 159.6239774201531,60.57921150448965 159.9373295698315,58.74062318273354 160.5013634392526,56.69774295081152 161.00272687873803,55.40391645242926 162.13079461758025,53.42912512348266 162.88283977704123,51.726715395459905 163.63488493626937,49.75191615574295 164.51227095536888,48.45807986729778 166.58039514301345,44.57656006037723 168.39783761114813,39.94595355715137 169.90192792983726,36.94966631260468 171.34334781812504,33.34048914472805 171.155336528318,33.27239132579416 170.90465480880812,33.74907595140394 170.27795050945133,36.26869057462318 169.58857578015886,37.834934016282205 168.52317847125232,40.831218371284194 167.14442901243456,43.759395904431585 165.8283499837853,45.59801423258614 165.2643161143642,46.6875640967628 163.88556665577926,49.82001275190851 163.38420321629383,50.569074977131095 161.6921016080305,53.701510386832524 160.43869300931692,55.608204968157224 159.9373295698315,56.76583903172286 159.81198870996013,57.58299160952447 159.37329570041038,58.87681503663771 159.18528441060334,60.170636640221346 158.30789839173667,63.166848089545965 156.86647850321606,69.90828809671802 155.4877290443983,75.62825897883158 155.1743768947199,79.03298663184978 154.86102474527434,81.41628847643733 154.6103430252988,82.8462666136329 154.04630915587768,84.75290066510206 154.1089795860462,84.82099466514774 154.17165001598187,84.54861863458063 154.17165001598187,84.00386633141898 154.35966130555607,83.86767820495879 154.6730134554673,83.18673727026908 154.73568388540298,82.50579583045328 155.61306990450248,79.57774188462645 155.86375162401237,76.78586779744364 156.30244463379495,74.3344591599307 156.86647850321606,72.01923388108844 157.11716022272594,70.4530487638549 157.93187581188977,67.52495637751417 158.245227961801,65.75447738077492 158.4959096815437,64.93733207677724 159.49863656051457,60.374924095056485 159.81198870996013,59.285390476870816 160.12534085987136,57.65108762483578 160.62670429958962,55.8124934383668 162.19346504774876,52.748161611147225 163.76022579614073,49.13904656219529 164.38693009549752,47.98140288039576 165.6403386942111,46.278983049152885 166.89374729269184,43.89558998087887 169.33789406041615,38.039226442168 170.8419843786396,34.838639880530536 171.46868867822923,33.680978162854444 171.40601824806072,33.544782570854295 171.155336528318,33.6128803693573 170.4032913693227,35.3834213600494 168.52317847125232,40.354537423467264 166.76840643282048,44.44036608503666 165.8283499837853,45.529917322972324 165.32698654429987,46.34707990306197 164.57494138530456,47.57282240880886 163.69755536597222,49.6157229479868 163.1961919264868,50.36478534003254 161.12806773884222,54.24628067133017 159.99999999976717,56.152974121214356 155.5503994745668,75.49206961004529 155.1743768947199,81.48438272398198 154.35966130555607,83.73149005841697 153.7956274363678,86.11477970640408 153.4822752866894,86.45524915109854 153.4822752866894,86.65953075740254 153.60761614656076,86.79571846954059 153.92096829600632,86.2509674995672 153.983638725942,85.7743101354572 154.04630915587768,85.4338404382579 153.85829786630347,84.82099466514774 154.04630915587768,84.14005443744827 154.1089795860462,83.39101960370317 155.5503994745668,80.46296848106431 155.8010811940767,78.01156966167036 155.73841076437384,77.53490801999578 155.8010811940767,76.10492161026923 156.49045592336915,73.65351115452358 157.17983065289445,69.90828809671802 157.43051237263717,69.15924165170873 157.86920538218692,66.84400332137011 158.68392097135074,63.847803873359226 159.49863656051457,61.39636068791151 159.6866478503216,59.62586987146642 159.99999999976717,58.67252724838909 160.18801128980704,58.46823941456387 160.31335214944556,58.19585556554375 160.68937472905964,56.629646864836104 161.25340859871358,55.335820270411205 162.00545375794172,54.04199185251491 163.50954407616518,50.84146108926507 164.88829353475012,48.52617655968061 166.07903170376085,46.278983049152885 166.58039514301345,44.98514186567627 167.20709944260307,43.96368701168103 167.64579245192,43.01032812218182 168.2724967515096,41.98887107055634 169.0872123404406,39.877856228267774 169.65124621009454,37.90303149673855 170.08993921941146,37.08586139936233 170.46596179925837,35.928202516108286 171.02999566844665,34.90673758322373 171.40601824806072,34.56624901946634 171.53135910839774,34.15766257641371 171.34334781812504,34.021467055077665 171.02999566844665,34.225760329689365 168.96187148080207,39.4011747855111 167.83380374172702,41.92077389342012 167.45778116211295,42.94223102083197 159.9373295698315,56.0167818631744 159.56130699045025,58.332047500123736 158.8092618312221,61.328264950367156 158.1198871016968,64.66495014709653 156.99181936308742,68.68257541395724 156.67846721340902,70.52114382450236 155.86375162401237,73.65351115452358 155.61306990450248,75.90063765575178 155.61306990450248,78.48823105590418 155.4877290443983,79.57774188462645 154.86102474527434,82.8462666136329 153.73295700619929,87.0 154.04630915587768,85.63812227168819 154.35966130555607,85.09337061480619 154.79835431510583,82.9824548913748 155.2997177548241,81.82485388556961 155.61306990450248,80.73534572351491 155.92642205418088,76.44539476709906 156.30244463379495,74.74302772071678 156.49045592336915,73.44922665436752 157.24250108283013,70.99780910764821 157.3678419427015,70.24876355146989 157.55585323250853,69.90828809671802 158.55858011124656,65.61828654719284 158.68392097135074,65.34590481966734 158.9972731207963,64.05209050996928 159.24795484053902,63.43923046375858 160.25068171950988,58.53633536410052 160.87738601886667,55.94868572667474 162.19346504774876,53.42912512348266 162.44414676725864,52.543872458918486 164.26158923539333,49.6157229479868 166.89374729269184,44.50846307526808 167.64579245192,42.533648306212854 168.2724967515096,41.3078990711947 168.64851933089085,39.877856228267774 169.1498827706091,38.7202008664608 169.83925749990158,37.69873904058477 170.71664351876825,35.928202516108286 171.34334781812504,34.15766257641371 171.40601824806072,33.74907595140394 171.09266609861515,33.88527151331073 170.8419843786396,34.838639880530536 169.83925749990158,37.22205646621296 169.52590535022318,38.1754213674576 168.96187148080207,39.12878527841531 167.14442901243456,43.555104751721956 166.26704299356788,44.917044910776895 164.6376118150074,48.11759633052861 162.0681241878774,52.81625798501773 161.0653973086737,54.24628067133017 160.43869300931692,55.335820270411205 159.6866478503216,56.97012724442175 158.9972731207963,59.96634913980961 158.8092618312221,61.328264950367156 158.4959096815437,62.69017874042038 157.24250108283013,67.11638460442191 156.86647850321606,69.29543195990846 155.86375162401237,73.51732149295276 155.4250586144626,76.78586779744364 155.4250586144626,77.94347515655681 155.2997177548241,80.46296848106431 153.60761614656076,86.931906161597 154.79835431510583,82.64198415889405 155.67574033420533,81.41628847643733 155.73841076437384,81.07581716316054 156.0517629138194,80.05440246564103 156.1144333439879,76.10492161026923 157.11716022272594,72.49589838634711 157.43051237263717,70.38495369796874 157.8065349520184,69.43162224785192 158.30789839173667,66.91209864959819 158.30789839173667,66.02685898705386 158.93460269109346,63.643517191230785 159.1226139809005,62.009222097927704 159.74931828025728,60.170636640221346 160.5640338694211,56.49345467763487 161.12806773884222,55.19962789141573 162.38147633732297,53.29293246130692 162.6948284872342,52.27148685202701 166.1417021334637,46.41517675179057 167.20709944260307,44.37226908962475 168.39783761114813,41.44409351161448 168.77386019099504,40.08214819943532 170.08993921941146,37.56254404451465 171.21800695825368,34.838639880530536 171.59402953786775,34.29385807766812 171.8447112578433,33.544782570854295 171.7820408276748,33.34048914472805 171.2806773884222,33.06809783913195 170.71664351876825,33.0 170.08993921941146,33.204293501970824 169.1498827706091,33.88527151331073 167.83380374172702,36.26869057462318 167.5831220219843,36.3367881711456 166.45505428337492,35.99630013795104 166.01636127359234,36.13249536638614 165.6403386942111,37.971128971956205 165.13897525449283,38.92449309525546 164.32425966556184,40.01405088073807 163.69755536597222,40.28644012490986 162.38147633732297,40.15024551312672 160.5013634392526,39.469272149784956 158.55858011124656,38.584006022138055 157.49318280234002,37.90303149673855 156.36511506373063,37.35825151269091 156.1144333439879,37.15395893523237 155.4250586144626,37.01776385848643 154.48500216566026,36.54108093038667 153.60761614656076,36.3367881711456 152.10352582787164,35.65581197856227 150.2860833602026,35.17912834312301 149.40869734063745,35.65581197856227 149.2206860508304,35.72390962037025 148.71932261134498,35.65581197856227 148.1552887421567,35.31532369280467" stroke="#4dd2ff" stroke-linecap="round" stroke-linejoin="round" stroke-width="0.5"><title>2024-12-08 10.3km</title><desc>13069926368</desc></polyline><polyline fill="none" points="48.63706383254612,146.2609124086157 48.54324643861037,146.23542657289363 48.554973612888716,146.57948503631633 48.56670078710886,146.51577055804955 48.82469862047583,146.63045660190983 49.99741604516748,147.0 50.12641496188007,147.0 50.20850518159568,146.9362856777734 50.407867143745534,146.32462698144082 50.75968237122288,145.58553648355883 50.93558998487424,145.05033103397 50.90040846215561,144.97387297647947 51.04113455308834,144.79547070982517 51.20531499263598,144.18380438875465 51.5571302199387,143.4192184236599 51.81512805336388,142.65462905436289 51.93239979585633,142.1449009168573 51.80340087914374,141.91552276130824 51.85030957608251,141.72437406436075 51.791673704923596,141.64791452596546 51.14667912130244,141.50773861719063 50.27886822709115,141.22738645636127 49.739418211742304,141.0999535046576 49.258604067668784,140.90880389980157 49.03578775690403,140.7558840627171 48.41424752189778,140.59022075217217 48.17970403697109,140.47553067433182 48.03897794598015,140.3226104513742 48.00379642326152,140.18243346069357 48.27352143090684,139.2266782013903 49.293785590387415,136.4103551015287 49.657327992026694,135.582015986045 50.243686704314314,133.9253257650853 50.61895628023194,132.71465741626162 50.98249868187122,132.0392282059329 51.21704216679791,131.44026045648206 53.86738354654517,126.6611875895469 54.35992486483883,125.88377915315505 55.00491944845999,124.57109789877723 55.075282493955456,124.53286431371816 55.2980988046038,124.16327255226497 55.34500750154257,123.97210408748651 56.318362964026164,121.84374746284448 56.68190536566544,120.8369108804036 56.95163037336897,120.36535247505526 57.37380864622537,119.40948686693446 57.27999125228962,119.34576230376842 56.8812673278735,119.34576230376842 56.634996668668464,119.42223177675623 56.341817312524654,119.35850721829047 55.368461850099266,119.44772159350396 53.32793353119632,119.42223177675623 53.105117220489774,119.26929279670003 52.811937864287756,119.25654787555686 51.873763924639206,119.35850721829047 51.35776825778885,119.43497668561758 50.72450084844604,119.53693592234049 50.38441279530525,119.63889509849832 50.10296061338158,119.60066041456594 50.04432474216446,119.66438488307176 49.504874726815615,119.53693592234049 49.223422544891946,119.52419102106069 49.141332325176336,119.25654787555686 49.16478667361662,119.09086381433008 48.81297144625569,118.9379245388991 48.33215730212396,118.84870989862247 47.53470945334993,118.59381067081995 47.39398336247541,118.67028047892381 47.25325727154268,118.67028047892381 46.74898877891246,118.46636091491382 46.115721369569656,118.24969611263077 45.89290505886311,118.21146111910639 45.75217896793038,118.12224610112025 42.961111497250386,117.29381871885562 42.738295186602045,117.15362291998463 42.15193647425622,117.00068191782339 41.88221146655269,116.87323097858462 41.43657884525601,116.69479950457753 40.87367448140867,116.56734833809605 40.029317935637664,116.24872000767209 39.54850379150594,116.21048456830613 39.06768964743242,116.31244572110882 38.82141898822738,116.24872000767209 37.378976555890404,116.18499427063216 35.42053845676128,116.18499427063216 33.90773297898704,116.12126850985806 32.96955903922208,116.13401366390462 32.46529054665007,116.07028788421303 32.41838184965309,116.17224912036909 31.5271166068851,116.21048456830613 31.09321115980856,116.17224912036909 30.88212202338036,116.07028788421303 30.823486152105033,115.81538452878885 30.940757894597482,115.31832189645502 30.917303546040785,114.97420076893468 30.717941583890934,114.693805265837 30.671032886952162,113.82712535891915 30.729668758169282,113.68692672731413 30.811758977884892,113.62320003866625 30.88212202338036,113.27907551110548 31.046302462753374,112.96044107378111 31.17530137952417,112.31042498664465 31.14011985680554,112.10649786349677 31.222210076462943,111.97904328844743 31.210482902242802,111.78786124837643 31.36293616745388,111.07411308272276 31.26911877351813,110.51330886926735 31.116665508248843,110.24565166654065 30.940757894597482,109.71033600818191 30.835213326383382,109.57013401208678 30.788304629386403,109.36620363137627 30.577215492958203,109.1240359894291 30.553761144459713,109.00932488180115 30.717941583890934,108.83088522855542 31.5505709554418,108.3592938228976 31.937567705579568,107.8622095863393 32.16038401622791,107.47983611642849 32.54738076636568,106.47291523453896 32.65292533457978,106.3199647100264 32.805378599790856,105.84836640083813 32.73501555429539,105.72090717576793 32.21901988744503,105.42775059863925 32.06656662223395,105.28754510200815 31.90238618280273,104.0894207291276 31.76166009181179,103.82175350205216 31.39811769023072,103.45211712068703 31.151847030967474,102.94227252888959 30.659305712673813,102.52164959959919 30.635851364175323,102.29221847606823 30.706214409612585,102.0372946455027 30.659305712673813,101.84610152391542 30.600669841456693,101.79511665549944 30.272308962536044,101.74413177193492 30.131582871603314,101.66765441812458 30.026038303331006,101.14505825442029 29.908766560896765,100.91562528925715 29.768040469964035,100.82640127543709 29.463133939541876,100.80090869156993 29.334135022829287,100.73717721522553 29.275499151612166,100.40577315658447 29.322407848550938,99.8449340598163 29.779767644184176,99.33507874385396 29.932220909395255,98.92719339960604 30.131582871603314,98.73599681048654 30.401307879248634,98.08592681294249 30.577215492958203,97.93296880829439 30.88212202338036,97.80550370020501 31.187028553744312,97.55057319978368 31.40984486450907,97.62705238968192 31.60920682665892,97.97120832224027 31.60920682665892,98.13691278416081 31.48020790994633,98.35360299274907 31.49193508416647,98.43008182451013 31.73820574337151,98.46832122761407 32.3949275011546,98.37909594045777 32.617743811861146,98.40458888436842 32.817105774069205,98.54480000822514 33.168921001430135,99.00367197552987 33.532463403069414,99.169375439742 33.720098190999124,98.32811004125688 33.802188410714734,97.46134743509174 34.04845906991977,96.35239477085997 33.954641675925814,96.25042175198905 33.473827531852294,96.25042175198905 33.262738395365886,96.18668858443561 32.09002097073244,96.14844867252395 31.91411335702287,95.99548893954488 31.91411335702287,95.68956906427047 31.79684161458863,95.57484897035465 31.421572038671002,95.77879575094266 30.929030720319133,95.70231573664933 30.342672008031514,95.19244810285454 30.178491568542086,94.82279312025639 30.084674174548127,94.73356593606877 29.25204480305547,94.96300717296253 29.052682840905618,94.96300717296253 28.994046969688497,94.7972996437893 29.123045886401087,94.46588410495315 29.00577414390864,93.99425319522561 28.74777631048346,93.85403835024044 28.3373252118472,93.73931702815753 27.92687411326915,93.29317782365251 27.645421931287274,93.12746868059912 27.293606703926343,93.0 27.270152355369646,93.02549374372757 27.879965416213963,93.34416522005631 28.2317806436331,93.72657020985207 28.91195674991468,93.98150639586675 29.076137189404108,94.4148970421229 29.029228492407128,94.66983220465772 28.935411098471377,94.82279312025639 28.70086761348648,95.02674079540884 28.16141759819584,95.07772767629649 27.92687411326915,95.29442175090662 27.56333171162987,95.56210228848795 27.363969749421813,95.65132904148777 27.105971915996633,95.6768223909894 26.894882779568434,95.93175567722938 26.460977332433686,96.00823558919365 26.308524067222606,96.14844867252395 26.03879905951908,97.10444391203055 26.06225340801757,97.53782666481857 26.003617536800448,97.63979891802592 25.651802309439518,97.79275718420104 25.58143926394405,97.90747579427261 25.58143926394405,98.12416629277868 25.792528400372248,98.53205354712554 25.66352948365966,99.30958593825926 25.40553165023448,99.78120222824509 24.98335337737808,100.12535383748764 24.842627286387142,100.44401211911463 24.924717506102752,101.05583435998415 24.901263157604262,101.27252088022942 24.737082718173042,101.5146996082185 24.549447930243332,101.93532500717265 24.57290227874182,102.22848755396262 24.701901195396204,102.57263425202109 25.0419892485952,102.78931885576458 25.20616968802642,103.08247994272097 25.03026207437506,103.35014832360321 24.97162620309973,103.50310149652069 24.98335337737808,104.17864304533578 24.69017402123427,104.47180175746325 24.537720755964983,104.82868994811724 24.432176187750883,104.94340385167743 24.221087051322684,105.04537170153344 23.822363126964774,105.13459352044447 23.458820725325495,105.38951274729334 23.200822891900316,105.63168566186505 22.8020989674842,105.88660414988408 22.708281573548447,105.88660414988408 22.62619135377463,105.79738272215764 22.62619135377463,105.64443159523944 22.931097884196788,105.09635560373135 23.02491527813254,105.07086365454597 23.247731588897295,105.26205318122811 23.165641369181685,105.23656125665002 23.013188103970606,105.05811767850537 22.872462012979668,105.07086365454597 22.825553315982688,105.28754510200815 22.62619135377463,105.66992345922336 22.64964570227312,105.82287456338236 23.705091384472325,106.58762803842546 23.810635952686425,106.61311976221623 24.150724005885422,106.46016936270462 24.549447930243332,106.53664457950799 25.80425557459239,107.51807350179297 26.179525150510017,107.70926030067494 26.331978415721096,107.70926030067494 26.836246908293106,107.53081929498876 27.234970832709223,107.63278560667823 27.844783893495332,108.16810774852638 28.09105455270037,108.49949680866848 28.45459695433965,108.69068251368299 29.580405682034325,109.06030760575959 30.061219826107845,109.06030760575959 30.389580704970285,108.99657919842866 30.530306795961224,109.08579896207084 31.011120940034743,110.2329060750344 31.3394818190136,110.74272899635253 31.09321115980856,111.57118801200704 31.022848114313092,112.03002512986131 31.081483985530213,112.33591585997783 30.917303546040785,112.7820055304037 30.776577455108054,113.52123728767037 30.753123106609564,114.08203166835301 30.706214409612585,114.41340930442675 30.624124189896975,114.80851257247559 30.624124189896975,115.70067789530731 30.600669841456693,115.87911040315521 30.506852447462734,116.03205240504758 30.565488318738062,116.32519086095272 30.835213326383382,116.3889165459841 31.26911877351813,116.3889165459841 31.65611552359769,116.31244572110882 32.840560122567695,116.42715194562334 34.62309060798725,116.42715194562334 38.8800548594445,116.52911296967068 39.912046193145216,116.6310739331384 40.005863587139174,116.68205439217854 40.36940598877845,116.72028972650878 40.47495055699255,116.96244664599362 40.60394947370514,117.07715243595885 40.510132079711184,117.29381871885562 40.58049512520665,117.54871987788647 40.55704077670816,117.67617031538975 40.322497291781474,118.09675608747057 40.134862503851764,118.69577040737204 40.052772284136154,118.82321999288979 39.958954890142195,118.84870989862247 39.93550054170191,119.07811887990101 39.489867920288816,120.23790403496241 38.95041790493997,121.44866039420594 38.8800548594445,121.79276853735792 38.72760159423342,121.996684148442 38.38751354115084,122.77411019281135 37.74251895752968,123.93387036895729 37.12097872252343,125.28478992328746 36.92161676031537,126.24062280704675 36.75743632088415,126.71216506889323 36.675346101110335,127.62975710838509 36.440802616183646,128.4326461188466 36.464256964682136,128.57283270382322 36.382166744966526,128.9933917717426 36.440802616183646,129.0698569461092 36.464256964682136,129.45218230700993 36.20625913125696,130.2168304740335 36.20625913125696,130.65012959005253 36.26489500247408,130.8030584287044 35.99516999477055,132.65093779293238 35.66680911590811,133.54301036677498 35.56126454769401,133.88709426356945 35.51435585075524,134.21843366051326 34.86936126713408,135.55652856525558 35.19772214605473,135.6075034030364 35.08045040362049,135.83688998571597 35.1625406233361,135.964326843663 37.63697438931558,136.34663684993575 38.352332018374,136.49956061405828 38.75105594279012,136.66522787149006 39.13805269286968,136.69071512768278 39.736138579493854,136.84363858534198 40.099680981074926,136.85638220066903 41.41312449669931,137.30240814106946 41.65939515590435,137.46807462383003 42.703113663883414,137.99056017621479 44.40355392958736,139.02278305756045 44.89609524793923,139.41782967888867 45.482453960285056,139.76190180204867 45.76390614215052,139.95305268363154 46.150902892288286,140.37358387415588 46.338537680276204,140.48827402011375 46.79589747590944,140.60296408944123 47.12425835477188,140.78137071167293 47.300165968423244,140.71765408216743 47.4995279306313,140.78137071167293 47.66370837012073,140.76862738768978 48.12106816569576,140.99800707524992 48.43770187033806,141.08721020433586 51.1349519470823,141.74986056954367 51.75649218214676,141.97923894636915 51.81512805336388,142.09392801987997 51.733037833706476,142.27233309307485 51.791673704923596,142.3870219708042 51.58058456843719,143.02418100791692 51.32258673501201,143.5466496542358 51.19358781835763,144.06911671099078 50.478230189241,146.08251147900592 50.06777909066295,146.8598284598702 49.89187147695338,146.89805707307823 49.69250951480353,146.79611408560595 49.246876893390436,146.73239968769485 49.03578775690403,146.61771371190844 48.73088122654008,146.49028476010426 47.92170620354591,146.2481694912276 47.88652468082728,146.2991411551484" stroke="#4dd2ff" stroke-linecap="round" stroke-linejoin="round" stroke-width="0.5"><title>2024-11-29 17.0km</title><desc>13006688394</desc></polyline><polyline fill="none" points="174.12724700308172,146.89812921275734 174.1506849906873,146.97453230884275 174.03349505289225,146.9490646139311 174.08037102798698,147.0 174.08037102798698,146.93633076503465 174.11552800936624,146.9490646139311 174.34990788495634,146.49064545921283 174.607725748152,145.72661081372644 174.86554361134768,145.31912427875795 175.02960952423746,144.88616877522145 175.11164248076966,144.60602051450405 175.17023744963808,144.08392480829207 175.9436910392251,141.76631005985837 175.97884802054614,141.5370937135449 175.95541003299877,141.3588141213695 175.7679061324452,141.15506578930945 175.2288324185065,140.98952009133063 173.2951984446845,140.64569390066026 172.04126611014362,140.32733570244454 171.8186052282108,140.36553871740762 171.68969629664207,140.1872579080955 171.70141529047396,139.86889885939308 171.45531642099377,139.76702383907104 171.4318784335046,139.67788314662175 171.045151638682,139.60147680201044 170.48263993719593,139.5760080129112 169.12323665857548,139.2067101460416 169.04120370210148,139.15577244687302 169.04120370210148,139.01569369618664 168.98260873317486,138.96475594028016 168.34978306904668,138.79920812921773 168.04508923069807,138.65912908743485 167.92789929296123,138.49358098153607 167.91618029912934,138.27709475586016 168.46697300689993,136.50699125198298 168.7951048327377,135.71744279257837 169.28730257152347,134.27841770624218 169.54512043466093,133.73082091895049 169.75606232276186,133.0176689942018 170.69358182523865,130.41973334061913 170.79905276931822,130.27964745704958 171.18577956402441,129.45186490076594 173.28347945091082,125.70769082571496 174.56084977299906,123.49171256588306 174.66632071707863,123.21152936770523 174.80694864242105,123.02049510648067 175.63899720087647,121.33938443213992 177.19762337382417,117.62050529869157 177.11559041735018,117.55682515914668 176.86949154786998,117.54408912840881 176.6937066411483,117.55682515914668 176.5413597220322,117.6332413237833 176.34213682776317,117.58229721779935 176.06088097696193,117.56956118892413 175.6975921698031,117.6332413237833 174.08037102798698,117.60776927265397 173.27176045713713,117.67144939329592 173.01394259394147,117.53135309669597 172.84987668099348,117.5058810304763 172.11158007284394,117.53135309669597 171.78344824688975,117.62050529869157 171.68969629664207,117.59503324571415 171.52563038369408,117.65871337107092 171.2795315143303,117.6332413237833 170.59982987504918,117.84975360528915 169.08807967725443,117.76060152248829 169.06464168970706,117.31484041313524 168.67791489488445,117.14927170597366 168.34978306904668,117.11106352007482 168.05680822452996,117.00917498272611 167.0138177779736,116.75445337448036 166.42786808894016,116.56341191999672 166.22864519467112,116.4487869450968 165.94738934392808,116.35963413389982 165.51378657401074,116.27048127634043 165.12705977924634,116.07943928262102 164.58798606530763,115.96481398420292 164.41220115858596,116.00302242551697 164.21297826431692,115.97755013224378 162.72466605412774,115.49357584118843 162.61919511010638,115.37895015113463 162.5254431598005,115.34074157074792 162.24418730905745,115.28979678364703 161.52932868839707,115.04780883823696 161.40041975682834,114.94591907486029 161.2832298190333,114.94591907486029 160.99025497451657,114.78034808019584 160.77931308647385,114.79308431621757 159.99414050305495,114.56383192286012 159.68944666482275,114.52562316082185 159.12693496327847,114.56383192286012 157.4745568401995,114.42373308711103 155.8573356983834,114.41099682361528 155.306542990671,114.42373308711103 154.5448083949159,114.34731549210846 153.5955698986072,114.34731549210846 152.5994554272038,114.3091066818015 152.41195152670844,114.25816158822272 152.2947615889134,114.29637040982198 151.5916219620849,114.25816158822272 150.98223428544588,114.3091066818015 150.78301139117684,114.19448019987612 150.7361354160239,114.15627135556133 150.8064493787242,113.58313766864012 150.8064493787242,113.1118929796794 150.7361354160239,112.75527451621019 150.71269742847653,111.82551574848185 150.8767633413663,111.08679970828234 151.08770522946725,110.44997298087401 151.18145717971493,110.34808048493869 151.45099403668428,109.11262915303814 151.33380409888923,109.01073586227722 151.2869281237363,108.85789581251447 151.08770522946725,108.55221530419658 150.75957340362947,107.77527489217755 150.67754044709727,107.3294878199813 150.51347453414928,107.22759346925886 150.00955780158984,107.31675102942972 149.90408685756847,107.30401423799049 149.37673213740345,107.22759346925886 148.66187351674307,107.01106777289533 148.35717967845267,106.88369958843396 147.97045288368827,106.61622609305778 147.6423210577923,106.29780472099083 147.46653615112882,106.08127785012766 147.04465237498516,105.8010661994631 146.72823954292107,105.71190785092767 146.5524546361994,105.73738166950352 146.30635576677741,105.87748760417162 146.0016619284288,105.86475070573215 145.73212507145945,105.69917094017728 145.19305135757895,105.21516763146792 144.57194468716625,104.75663692035596 144.3141268240288,104.6420040509256 144.0797469483805,104.61653006952838 143.72817713487893,104.82032181468094 143.41176430287305,104.65474104021268 142.80237662623404,104.18347180650744 142.89612857648171,104.03062745243369 143.02503750805045,103.94146818295121 143.16566543345107,103.90325705325813 143.31801235256717,103.69946421771601 143.6695821660105,103.40651159206755 143.8336480789585,103.31735199794639 144.26725084887585,103.24092945174198 144.36100279906532,103.17724397055281 144.48991173069226,103.02439871917886 144.59538267471362,102.693233540238 144.86491953168297,102.42575350549305 144.90007651300402,101.85258059676562 144.97039047570433,101.57236203263164 145.09929940727307,101.4067781202757 145.41571223945357,101.2284568049945 145.5329021771904,101.05013530416181 145.56805915856967,100.71896631037816 145.4625882144901,100.18399966089055 145.48602620209567,99.98020240275946 145.65009211504366,99.81461695209146 145.79072004038608,99.53439505572896 146.083694884961,98.5663522517134 146.2360418040771,98.40076543491159 146.49385966727277,98.24791592358088 146.92746243719012,97.53461640122987 146.91574344341643,96.97416469363088 146.96261941851117,96.82131390974973 147.1735613065539,96.68120057146007 147.3259082257282,96.40097355117905 147.36106520704925,96.13348369521555 147.54856910760282,95.73861695420055 147.59544508269755,95.50933907410945 147.59544508269755,95.1526839841681 147.4899741386762,94.82150359312072 147.50169313239167,94.74507725809235 147.61888307030313,94.5922244858375 148.1696757779573,94.35020731757686 148.42749364115298,94.13366535089153 148.43921263492666,93.45856216893299 148.81422043591738,93.2420190754201 149.15407125558704,93.22928123785823 149.28298018715577,93.15285419266729 149.4939220752567,93.12737850336998 149.82205390109448,93.01273785458761 149.93924383888952,93.0 150.20878069591708,93.49677562761644 150.47831755282823,93.7387940013432 150.68925944092916,93.86617195546569 151.07598623563536,93.92986089702754 151.36896108021028,93.81522078519629 151.47443202423165,93.71331839915365 151.72053089365363,93.76426959974924 151.6736549185589,94.14640312123811 151.93147278175456,94.40115832876472 152.37679454538738,94.49032256192004 152.74008335266262,94.47758481718483 153.00962020957377,94.52853579049406 153.8533877618611,94.49032256192004 153.86510675563477,94.54127353146032 153.79479279293446,95.42017537121137 153.6776028550812,95.90420634348993 153.64244587376015,96.63025023824594 153.50181794835953,97.35629105674161 153.2205620976165,97.25439077650663 152.92758725309977,97.02511492460326 152.69320737750968,96.74488846671011 152.4471085080295,96.61751265254861 152.31819957646076,96.61751265254861 151.8963158003753,96.71941331146809 151.26349013618892,96.65572540674475 150.68925944092916,96.71941331146809 150.3611276150914,96.63025023824594 150.25565667101182,96.4901367436978 150.4314415777335,96.20990941095806 150.93535831029294,95.96789452749363 151.06426724191988,95.8150428460358 151.22833315486787,95.8023051997734 151.24005214858335,95.68766634071653 151.06426724191988,95.63671571202576 150.91192032280378,95.91694398215623 150.44316057150718,96.19717179404688 150.30253264616476,96.324547920638 150.00955780158984,97.06332758790813 149.79861591360532,97.29260338871973 149.68142597575206,97.64925402472727 149.32985616230872,98.08232879909337 149.22438521828735,98.36255306987732 149.20094723073998,98.7064640486642 149.2712611933821,98.91026282150415 149.36501314362977,99.0376369314472 149.7283019508468,99.1140613519965 149.85721088247374,99.19048573846521 150.0329957891372,99.96746506610361 149.95096283272142,100.01841440712451 149.69314496952575,99.96746506610361 149.52907905657776,100.01841440712451 149.5056410690304,100.43874589272309 149.66970698192017,100.52790698441095 150.13846673315857,100.54064427941921 150.23221868346445,100.61706802969275 150.30253264616476,100.80812725627038 150.53691252175486,101.03739804703218 150.74785440979758,101.13929607778846 150.85332535381895,101.07560981567076 150.93535831029294,101.11382157579646 151.2048951672623,101.6360481101583 151.72053089365363,102.20922174304724 151.84943982522236,102.62954785551119 151.94319177547004,103.54661943203246 152.3650755516137,103.82683476833336 152.38851353916107,104.05610152093868 152.57601743965643,104.43821209370799 152.57601743965643,104.52737110483577 152.42367052054033,104.69295200238412 152.30648058268707,104.96042849896185 152.31819957646076,105.04958723839081 152.11897668219171,105.49538023993955 152.0486627194914,105.83927690608834 151.76740686874837,106.43791019757919 151.22833315486787,106.89643641113071 150.72441642225021,107.1893830721092 150.6658214533236,107.30401423799049 151.13458120456198,108.60316209343728 151.32208510511555,108.90884251090756 151.14630019833567,109.4947284541413 151.15801919216756,109.97871967958054 151.1228622108465,110.2461879284674 150.77129239734495,111.36700271892187 150.60722648439696,112.94632021388679 150.5017555404338,113.23925653686456 150.5720695030759,113.50671969894029 150.49003654666012,113.95249070857244 150.63066447200254,114.33457922296657 150.79473038495053,114.42373308711103 151.25177114241524,114.43646934964636 151.4392750429106,114.53835941574653 152.6814883836778,114.6275131739967 152.77524033392547,114.74213936641172 152.9158682593261,114.71666688582627 153.11509115359513,114.75487560530019 153.31431404786417,114.67845815786859 154.615122357558,114.69119440147188 157.29877193347784,114.79308431621757 158.68161319964565,114.80582055132254 158.78708414366702,114.8312930186512 158.91599307523575,114.94591907486029 159.15037295088405,114.9586552985711 159.8066366026178,114.92044662452827 159.9707025155658,114.97139152139425 160.08789245336084,115.07328126965149 160.1113304409664,115.03507262113271 160.52149522327818,115.30253298183379 161.1191639060853,115.35347776513663 161.23635384388035,115.44263109953317 161.41213875066023,115.40442253333458 161.69339460140327,115.51904820634809 161.79886554536643,115.49357584118843 162.94732693594415,115.72282699144853 164.40048216481227,116.14311997083132 164.65830002800794,116.2959535260743 164.93955587875098,116.38510637039144 165.95910833770176,116.60162022789882 166.43958708271384,116.77992555235687 166.72084293345688,116.84360598040803 166.89662784023676,116.95823069135076 167.45913954166463,117.12379958300153 167.77555237378692,117.16200776606274 168.30290709389374,117.41672876890516 168.59588193846866,117.5058810304763 168.7130718762055,117.95164164314338 168.6427579135634,118.53749668608361 168.60760093224235,119.40353960492939 168.53728696954204,119.54363437200664 168.54900596331572,119.77288010760094 168.47869200067362,120.16769148937601 168.34978306904668,120.57523776874586 168.12712218723027,121.0209904028743 167.11928872199496,122.65116159809986 166.8497518650256,123.351621024005 166.3927111076191,124.47235015500337 165.25596871087328,127.03216990859073 164.447358139907,129.1080155876989 164.16610228916397,129.7193027788162 163.96687939489493,130.33058779157 163.04107888619183,132.45733325932815 162.47856718470575,133.998252126461 161.93949347076705,135.2717283481179 162.0449644147884,135.41181015544862 162.02152642729925,135.71744279257837 162.11527837748872,135.8575242359948 162.97076492349152,136.32870643357455 164.01375537004787,136.9781716659927 164.21297826431692,137.06731376092648 165.59581953054294,137.93326313018042 165.87707538122777,138.0606082570739 166.0880172692705,138.2006877874519 166.27552116976585,138.37897066079313 166.43958708271384,138.48084650521923 166.59193400188815,138.671863550524 166.66224796458846,138.68459801263816 167.0138177779736,138.93928705668077 167.27163564116927,138.95202149894612 167.7169574048603,139.13030359162076 168.03337023692438,139.1685068730585 169.27558357774979,139.46139841512195 170.79905276931822,139.9071019764233 171.46703541482566,140.07264871861844 171.57250635884702,140.05991435948818 171.72485327796312,140.1490548534348 171.77172925317427,140.30186702107312 171.76001025934238,140.49288203923788 171.44359742722008,141.4097511666332 171.18577956402441,142.33934958618192 170.963118682208,142.75957735601696 170.93968069471885,143.001526211272 170.61154886882287,143.54909341357416 170.5060779247433,143.95658415120852 170.21310308022657,144.52961636401596 170.0373181735631,145.02624273413676 169.9670042108628,145.07717869084445 169.83809527929407,145.06444470307906 169.20526961504947,144.83523276183405 168.37322105659405,144.6187545362627 167.89274231158197,144.42774411046412 167.7872713675606,144.44047814546502 167.81070935510797,144.6187545362627 167.74039539240766,144.72062667645514 167.7872713675606,144.84796676662518" stroke="#4dd2ff" stroke-linecap="round" stroke-linejoin="round" stroke-width="0.5"><title>2024-11-23 16.7km</title><desc>12962933938</desc></polyline><polyline fill="none" points="46.19745857664384,158.45145947585115 46.43355223699473,158.77213249204215 46.315505407052115,159.0928053893149 44.83992003137246,161.08097469731 44.24968588119373,161.78645303007215 43.895545391133055,164.35182393231662 43.36433465592563,165.8910428195959 42.892147335689515,166.7247852392611 42.06581952562556,167.75092865212355 40.76730439532548,170.1880143758026 40.05902341497131,171.15002000733512 39.468789264792576,171.7272228722577 39.114648774499074,172.432692517119 38.81953169940971,174.03603047854267 37.34394632396288,176.08829873014474 37.16687607904896,178.26882840995677 36.22250143880956,181.92440994642675 35.86836094874889,185.32344557816396 35.632267288398,185.96477155730827 35.21910338359885,186.413699459692 35.0420331384521,188.85073257685872 34.510822403244674,190.51817233103793 34.33375215809792,192.37800518609583 34.03863508300856,193.66064620373072 33.74351800791919,195.26394480018644 33.86156483809464,196.86724042356946 33.56644776277244,199.04771770071238 33.03523702756502,201.2923209189903 31.736721897032112,203.1521306001814 32.090862387325615,205.3967231642455 31.38258140697144,207.0 31.854768727440387,206.03803425526712 31.913792142178863,204.30649321794044 32.44500287738629,203.28039318928495 32.917190197855234,202.70321138820145 33.094260442536324,201.22818947926862 33.33035410288721,200.00969122198876 33.8025414228905,198.72705962246982 33.920588253065944,197.95747974945698 33.8025414228905,195.7769997229916 33.920588253065944,194.4302299010451 34.156681913184,193.2117220640066 34.510822403244674,192.63453354191734 34.687892648391426,190.64643679431174 34.98300972324796,189.4920559398015 35.33715021354146,188.4659383308026 35.514220458455384,187.18328960728832 36.45859509892762,183.976659473381 36.98980583390221,180.83415040397085 37.698086814256385,179.03842580731725 37.93418047437444,176.08829873014474 39.0556253597606,174.1001639351598 39.17367218947038,173.58709614910185 39.76390633988194,173.00989452580689 40.82632781006396,171.15002000733512 41.23949171532877,170.1880143758026 41.18046830012463,169.8032118236879 42.59703026083298,167.4302589665167 42.77410050597973,166.7247852392611 43.83652197592892,165.63450652873144 44.072615636046976,164.67249475984136 44.83992003137246,163.77461614314234 45.19406052143313,162.74846801051171 45.66624784190208,162.10712480911752 46.19745857664384,160.9527058476233 46.25648199184798,160.2472268344718 46.7876927270554,159.2852090706001 47.61402053735219,156.71982313279295 48.20425468776375,155.50126214540796 48.79448883770965,154.73164379462833 48.85351225268096,154.154429581773 48.6174185925629,154.154429581773 48.38132493244484,154.475104192039 48.20425468776375,155.1164530555834 46.84671614202671,157.55357439769432 46.37452882202342,159.0928053893149 45.72527125664055,160.3754957888159 45.01699027651921,162.36366214684676 44.24968588119373,163.58221346104983 43.36433465592563,165.4421042604954 42.301913185510784,167.045455186686 41.77070245053619,168.1357321179239 41.59363220538944,168.84120469354093 39.881953169824556,170.82935158227338 39.291719019645825,173.33056214189855 38.701484869467095,174.35669771413086 38.05222730431706,174.93389843805926 37.34394632396288,176.40896520449314 37.107852664077654,178.71776030829642 36.34054826875217,180.83415040397085 36.34054826875217,181.4113468035357 36.104454608634114,181.92440994642675 35.57324387342669,184.4255884080194 35.86836094874889,185.64410862704972 35.16007996839471,186.86262712907046 34.92398630827665,189.04312963574193 34.03863508300856,191.60841966234148 33.86156483809464,193.91717417893233 33.507424348033965,194.87915340811014 33.44840093282983,198.72705962246982 33.2123072729446,200.07382275199052 32.681096537737176,201.42058378399815 32.326956047676504,201.74124086339725 32.090862387325615,202.63908005302073 32.14988580252975,203.3445244768518 31.146487747086212,204.37062442931347 31.028440917143598,204.6271492271917 30.96941750217229,205.71737876924453 31.264534577028826,206.29455855843844 31.500628237379715,206.16629641636973 32.326956047676504,204.691280414816 32.79914336767979,201.74124086339725 33.38937751785852,199.4325072375359 34.03863508300856,197.50855784059968 33.86156483809464,195.13568102178397 34.156681913184,193.66064620373072 34.33375215809792,192.8269297586521 34.687892648391426,192.1856088693603 34.92398630827665,190.51817233103793 35.632267288398,187.76048176834593 35.86836094874889,187.31155456521083 36.16347802360542,185.45171081187436 36.45859509892762,184.81038445216836 36.694688758812845,181.92440994642675 37.521016569109634,179.29495812079404 38.46539120958187,174.99803182808682 40.17707024491392,172.24029176210752 42.18386635533534,167.62266079208348 43.01019416563213,166.08344498783117 43.12824099580757,165.4421042604954 44.36773271113634,164.03115298587363 44.83992003137246,163.0050051578437 45.37113076657988,161.27337793604238 46.61062248190865,159.02867081941804 47.495973707176745,156.4632841203129 48.79448883770965,153.89788980799494 48.67644200776704,153.44894502061652 48.85351225268096,153.76961989264237 48.79448883770965,154.02615970443003 48.086207857355475,155.2447227712837 46.492575651966035,158.83626708108932 46.315505407052115,159.54174724582117 45.5482010114938,160.9527058476233 45.43015418155119,161.85058739542728 43.24628782598302,165.8910428195959 41.475585375446826,168.77707084681606 41.12144488515332,169.99561312119476 40.05902341497131,171.53482196002733 39.17367218947038,173.00989452580689 38.93757852958515,174.1001639351598 37.93418047437444,175.38283206825145 37.107852664077654,177.4992303273757 36.81273558875546,178.39709469035733 36.75371217378415,180.19282061903505 36.34054826875217,180.96241630380973 35.80933753354475,183.27119924785802 35.455197043251246,183.9125267493655 35.278126798337325,184.68211912323022 35.39617362851277,185.32344557816396 35.101056553190574,187.24742208857788 34.39277557330206,189.42792362498585 34.39277557330206,190.00511428766185 34.03863508300856,191.35189100221032 33.8025414228905,193.33998612774303 33.38937751785852,195.00741722452221 33.38937751785852,197.0596356985625 33.03523702756502,198.0216114317882 33.03523702756502,198.7911912475829 32.681096537737176,199.94555968727218 32.62207312253304,201.16405803494854 32.326956047676504,202.51081736886408 32.44500287738629,202.9597366808448 32.14988580252975,205.71737876924453 31.441604822175577,206.7434759059688 31.677698482293636,206.55108278570697 31.79574531223625,205.78150987596018 31.38258140697144,204.2423620018526 31.441604822175577,203.85757460532477 33.03523702756502,201.03579513181467 33.38937751785852,199.4966388104367 34.156681913184,197.8292163707083 34.097658497979864,194.23783404083224 34.74691606336273,192.50626937352354 34.687892648391426,191.48015534167644 34.80593947810121,190.64643679431174 35.101056553190574,189.81271744292462 35.16007996839471,188.2735411436297 36.16347802360542,185.1310476915678 37.75711022922769,177.56336352712242 37.93418047437444,175.6393654664862 38.111250719288364,175.25456534064142 38.64246145426296,174.67736483056797 39.40976584982127,173.39469565084437 41.06242147018202,169.6749442681903 42.124842940596864,167.94333040638594 43.18726441077888,165.82690875406843 44.78089661640115,163.58221346104983 45.076013691490516,162.74846801051171 45.78429467184469,161.5940499054268 46.72866931185126,159.02867081941804 47.20085663208738,157.16876622167183 48.79448883770965,153.51308000466088 48.79448883770965,153.0 48.67644200776704,153.06413501722272 48.44034834741615,153.57721498369938 48.086207857355475,155.05231819080655 46.61062248190865,157.61770907707978 46.13843516190536,159.2852090706001 45.66624784190208,159.7341508269892 45.43015418155119,160.8244369791355 44.72187320119701,162.2353934874409 44.36773271113634,163.26154222898185 44.072615636046976,163.64634769316763 43.77749856119044,164.35182393231662 42.41996001568623,165.76277468365151 41.94777269545011,167.4302589665167 41.65265562036075,167.8791964931297 41.12144488515332,168.19986601214623 41.00339805497788,168.71293699543457 39.52781267976388,170.82935158227338 39.114648774499074,171.8554901232128 37.521016569109634,173.97189701721072 37.40296973916702,175.70349880418507 37.58003998408094,176.4730984850903 37.40296973916702,177.43509712297237 36.45859509892762,180.25695361889666 36.04543119366281,183.0146681141341 35.33715021354146,185.83650639944244 34.98300972324796,188.85073257685872 34.510822403244674,189.9409820107394 34.03863508300856,192.12147675425513 33.684494592947885,192.7627976911608 33.56644776277244,193.98130616085837 33.684494592947885,194.49436184484512 33.38937751785852,195.52047229965683 33.684494592947885,196.8031086557312 33.507424348033965,197.70095297292573 33.56644776277244,198.47053307428723 33.2123072729446,199.3683756600367 33.094260442536324,200.9075322096469 32.74011995247565,201.48471520951716 32.681096537737176,202.3184233068023 32.326956047676504,202.76734271843452 32.267932632472366,204.30649321794044 32.03183897235431,204.75541159760905 31.79574531223625,206.03803425526712 31.264534577028826,206.87173796253046 31.264534577028826,206.55108278570697 31.500628237379715,206.2304274898488 31.55965165235102,205.52498542045942 31.854768727440387,204.691280414816 31.854768727440387,203.79344335582573 32.681096537737176,202.76734271843452 33.271330687683076,200.9716636731173 33.920588253065944,198.47053307428723 34.21570532815531,196.8031086557312 34.274728742893785,195.45634043193422 34.687892648391426,193.27585409820313 34.864962893305346,190.32577560038771 35.9864077786915,185.83650639944244 35.86836094874889,185.0027824100107 36.34054826875217,183.84839402069338 36.81273558875546,182.1168085465324 36.9307824189309,180.96241630380973 37.34394632396288,179.29495812079404 37.34394632396288,178.4612278235727 37.875157059170306,176.15243203466525 38.40636779461056,174.86976504337508 39.17367218947038,174.1001639351598 40.0,172.432692517119 40.17707024491392,171.8554901232128 40.76730439532548,171.15002000733512 41.23949171532877,170.31628185522277 41.475585375446826,169.35427529620938 41.41656196047552,169.0336062051938 41.59363220538944,168.5846692781197 42.715077090775594,166.9813212066656 43.305311240954325,165.76277468365151 44.9579668615479,163.58221346104983 45.902341501554474,159.92655436549103 46.37452882202342,158.83626708108932 46.96476297220215,158.19492097728653 47.318903462262824,157.16876622167183 48.02718444238417,155.7578014432802 48.20425468776375,154.73164379462833 48.73546542250551,153.83375485264696 48.73546542250551,153.25654004036915 48.38132493244484,153.57721498369938 48.02718444238417,154.92404844646808 46.315505407052115,158.00251705327537 45.78429467184469,159.34934362157946 45.5482010114938,160.63203364040237 44.83992003137246,162.42779646930285 44.072615636046976,163.83875036099926 44.072615636046976,164.67249475984136 43.36433465592563,165.31383605807787 42.24288977053948,167.62266079208348 40.472187320003286,170.12388062907849 40.295117075089365,170.82935158227338 40.0,171.27828734379727 39.291719019645825,172.88162744621513 38.701484869467095,173.77949660463491 38.34734437940642,174.1001639351598 37.99320388911292,174.61323141684989 37.284922908758745,176.02416542114224 37.04882924910635,178.33296155248536 36.45859509892762,179.9362885717419 36.45859509892762,180.25695361889666 35.514220458455384,184.16905761667294 35.39617362851277,185.06691505329218 35.455197043251246,185.83650639944244 34.98300972324796,187.24742208857788 34.687892648391426,189.62032055534655 34.03863508300856,191.28775882528862 34.097658497979864,192.24974097980885 33.8025414228905,193.27585409820313 33.094260442536324,195.26394480018644 33.271330687683076,196.29005434166174 32.917190197855234,197.95747974945698 32.917190197855234,198.72705962246982 32.681096537737176,199.24011249060277 32.44500287738629,200.7792692684452 32.14988580252975,201.5488466300303 32.14988580252975,202.63908005302073 32.38597946241498,203.28039318928495 32.14988580252975,204.11409955535783 31.323557992232963,205.20432974415598 31.028440917143598,206.7434759059688 31.20551116205752,206.80760693666525 31.500628237379715,206.80760693666525 31.736721897032112,206.42282068158966 31.854768727440387,204.75541159760905 32.20890921750106,203.98583708988735 32.20890921750106,203.53691831073957 32.62207312253304,203.02386799192755 32.97621361259371,202.0618978239363 33.2123072729446,201.35645235382253 33.271330687683076,200.39448033098597 34.03863508300856,198.34226977155777 34.097658497979864,197.63682126696222 33.74351800791919,196.09765889536357 33.86156483809464,194.81502149283187 34.39277557330206,192.891061821545 34.510822403244674,191.4160231743008 34.98300972324796,189.9409820107394 35.691290703602135,186.54196453187615 36.104454608634114,185.70824122271733 36.104454608634114,185.0027824100107 36.45859509892762,183.84839402069338 37.16687607904896,179.6156234057853 37.2258994942531,178.0764289535 37.75711022922769,176.66549829836003 38.878555114613846,174.74149823951302 39.0556253597606,173.77949660463491 39.76390633988194,172.8174938990851 40.0,172.1120245680795 41.06242147018202,170.95761896664044 41.35753854527138,169.5466766935424 41.82972586527467,169.09774003288476 42.301913185510784,167.94333040638594 42.83312392048538,167.30199105886277 43.12824099580757,166.33998114569113 43.482381485868245,166.0193109366228 44.0135922213085,165.12143371859565 44.308709296397865,164.2235555680818 44.78089661640115,163.5180792241008 45.135037106694654,162.49193078710232 45.5482010114938,162.0429904628545 45.78429467184469,161.08097469731 46.19745857664384,160.50376472400967 46.55159906670451,159.22107451484771 47.318903462262824,158.06665169948246 47.67304395255633,156.65568838675972 47.67304395255633,156.0784754587803 49.03058249759488,153.44894502061652 48.85351225268096,153.25654004036915 48.55839517735876,153.44894502061652 48.02718444238417,154.60337400296703 47.85011419723742,155.3088576219743 47.14183321711607,156.27087981096702 46.25648199184798,158.38732485834043 46.02038833172992,158.38732485834043 45.843318086816,158.00251705327537 45.72527125664055,157.93838240246987 45.43015418155119,158.19492097728653 45.43015418155119,158.38732485834043 45.843318086816,158.5797286966117 46.13843516190536,158.38732485834043 46.25648199184798,157.61770907707978" stroke="#4dd2ff" stroke-linecap="round" stroke-linejoin="round" stroke-width="0.5"><title>2024-08-13 10.0km</title><desc>12136939266</desc></polyline><polyline fill="none" points="174.36170212738216,191.17250550678 176.167173252441,196.35648708674125 181.58358662575483,199.57412513229065 184.20972644351423,199.75288267363794 184.86626139841974,196.71400264068507 183.7173252273351,194.03263467503712 179.12158054672182,190.0999561806675 176.33130699023604,190.27871443517506 176.49544072989374,185.80975402891636 172.55623100232333,184.55844360706396 170.09422492422163,179.73195437458344 165.6626139814034,175.9780115208123 163.2006079023704,176.6930487123318 158.11246200557798,179.9107134102378 154.33738601766527,177.4080856887158 151.87537993863225,177.4080856887158 150.06990881450474,179.9107134102378 142.84802431613207,177.05056722764857 143.50455927010626,171.50902419234626 145.47416413296014,169.18514745659195 138.58054711204022,164.17986676003784 142.19148936122656,162.57102429517545 144.65349544025958,162.92854493670166 142.02735562250018,161.14094118843786 137.4316109418869,161.31970162387006 133.49240121617913,163.1073052380234 133.16413373779505,164.35862696683034 137.26747720409185,166.14622829225846 138.25227963458747,167.39754841919057 138.7446808507666,170.25770623213612 136.44680851045996,175.9780115208123 141.53495440725237,182.41333849332295 139.4012158047408,185.98851260636002 143.99696048535407,191.17250550678 144.4893617015332,194.568908510264 150.56231002975255,193.67511871736497 157.9483282668516,195.8202136552427 171.07902735564858,198.68033722369 177.9726443765685,199.395367577672 181.41945288702846,198.3228219661396 183.55319148954004,199.57412513229065 184.3738601822406,198.3228219661396 184.04559270478785,197.07151814061217 176.167173252441,190.99374731932767 176.6595744676888,185.98851260636002 175.01823708228767,184.7372022792697 171.40729483310133,184.20092622283846 170.4224924016744,180.44699043547735 168.61702127661556,178.65939987939782 164.34954407345504,178.12312244996428 158.27659574523568,180.98326733987778 154.50151975639164,177.76560409623198 151.38297872245312,177.94436327950098 150.39817629102618,180.08947243215516 144.81762917898595,177.22932646493427 143.66869300883263,175.9780115208123 143.50455927010626,172.40282233105972 140.5501519748941,170.07894647028297 140.38601823709905,168.29134810599498 137.59574468061328,164.89490750594996 141.86322188470513,162.57102429517545 144.65349544025958,163.1073052380234 140.22188449744135,159.17457551020198 138.90881458949298,160.96218073973432 134.47720364760607,162.21350359916687 133.0,163.64358605933376 134.64133738540113,166.14622829225846 137.26747720409185,166.50374839571305 138.41641337331384,167.75506833428517 139.5653495443985,171.15150484256446 137.59574468061328,172.93910105293617 137.26747720409185,175.9780115208123 142.02735562250018,179.3744362636935 142.19148936122656,181.16202628146857 139.72948328219354,185.63099543750286 144.16109422501177,190.45747267641127 145.1458966564387,194.74766642856412 153.5167173249647,196.35648708674125 156.47112462017685,198.3228219661396 170.75075987819582,198.3228219661396 178.95744680799544,200.64667017851025 181.58358662575483,200.11039771582 184.86626139841974,200.64667017851025 186.1793313063681,199.03785242768936 181.7477203644812,191.17250550678 175.67477203626186,189.9211979121901 174.19756838865578,184.37968492181972 171.07902735564858,183.30713252606802 169.27355623058975,180.26823144080117 166.64741641376168,178.30188160645775 160.41033434588462,180.98326733987778 156.14285714179277,178.30188160645775 149.41337385959923,179.1956771875266 146.13069908786565,177.4080856887158 143.66869300883263,181.51954412367195 141.69908814504743,182.23457964579575 140.87841945234686,178.65939987939782 137.4316109418869,173.475379653275 137.9240121571347,171.50902419234626 139.72948328219354,170.4364659814164 143.34042553137988,171.6877838470973 144.4893617015332,174.3691770513542 148.75683890562505,178.48064074967988 140.0577507596463,184.55844360706396 145.96656534913927,194.21139263361692 163.8571428572759,198.14406431745738 173.04863221850246,198.14406431745738 179.2857142854482,200.46791270491667 184.70212765876204,199.9316402017139 187.0,197.9653066545725 181.09118541050702,191.35126368072815 177.4802431613207,190.27871443517506 176.6595744676888,185.45223683258519 172.06382978707552,184.37968492181972 168.45288753788918,178.65939987939782 165.49848024267703,177.58684489922598 157.9483282668516,180.08947243215516 154.99392097257078,177.4080856887158 152.8601823700592,177.22932646493427 149.24924012087286,179.3744362636935 144.16109422501177,175.62049284367822 143.1762917926535,172.22406273009256 138.0881458967924,172.0453031156212 138.7446808507666,168.29134810599498 137.10334346443415,164.17986676003784 140.0577507596463,162.7497846230399 137.26747720409185,166.50374839571305 139.07294832821935,170.61522571695969 137.4316109418869,175.26297411345877 138.25227963458747,177.22932646493427 141.69908814504743,178.65939987939782 143.01215805485845,180.8045083854813 143.1762917926535,182.94961495348252 141.20668692979962,186.167271170998 144.4893617015332,190.99374731932767 144.98176291771233,194.568908510264 148.4285714281723,196.1777292897459 154.99392097257078,195.8202136552427 164.02127659600228,198.14406431745738 169.43768996931612,197.60779128968716 178.95744680799544,199.75288267363794 181.25531914830208,198.68033722369 184.53799392096698,199.21661000978202 185.85106382984668,197.78654897864908 184.3738601822406,193.67511871736497 177.15197568386793,190.814989118604 176.6595744676888,187.59733920055442 171.07902735564858,183.84340878459625 169.93009118549526,179.3744362636935 168.45288753788918,178.30188160645775 163.69300911854953,178.30188160645775 158.44072948303074,179.73195437458344 153.35258358623832,177.4080856887158 149.90577507577837,180.44699043547735 143.50455927010626,177.05056722764857 142.19148936122656,171.86654348811135 140.0577507596463,170.07894647028297 137.75987841933966,165.07366765849292 141.20668692979962,162.03474323102273 136.93920972570777,160.78342027706094 133.49240121617913,163.8223463066388 135.95440729428083,165.78870813502 138.0881458967924,165.60994803579524 139.4012158047408,167.2187884412706 139.07294832821935,171.6877838470973 136.93920972570777,173.11786059942096 136.7750759869814,174.72669591661543 142.02735562250018,180.44699043547735 139.89361702091992,184.37968492181972 140.22188449744135,185.80975402891636 144.4893617015332,189.9211979121901 146.95136778056622,194.568908510264 152.8601823700592,194.21139263361692 160.41033434588462,196.53524487046525 171.40729483310133,197.07151814061217 173.37689969595522,198.85909483232535 177.4802431613207,198.50157960155047 180.76291793305427,200.11039771582 184.70212765876204,199.75288267363794 185.85106382984668,198.3228219661396 182.73252279683948,194.92642433336005 176.6595744676888,192.0662962421775 176.49544072989374,187.77609764412045 175.18237082008272,184.91596093797125 171.73556230962276,184.55844360706396 170.09422492422163,180.44699043547735 167.30395136773586,177.76560409623198 158.93313069827855,180.62574941734783 154.50151975639164,178.12312244996428 148.4285714281723,178.65939987939782 143.50455927010626,175.9780115208123 142.5197568386793,171.3302645238582 139.07294832821935,170.4364659814164 139.5653495443985,166.68250842764974 138.0881458967924,165.25242779776454 135.46200607903302,165.60994803579524 134.8054711241275,163.8223463066388 135.62613981682807,162.7497846230399 138.7446808507666,167.57630838360637 137.75987841933966,175.44173348532058 142.35562309995294,180.8045083854813 140.22188449744135,186.34602972166613 141.86322188470513,186.52478825906292 143.34042553137988,188.84864802053198 145.96656534913927,195.641455817502 153.84498480148613,195.28394010243937 158.27659574523568,196.89276039763354 163.52887537982315,195.9989714792464 169.27355623058975,196.35648708674125 169.93009118549526,197.42903358652256 174.85410334262997,199.21661000978202 181.58358662575483,199.395367577672 184.86626139841974,201.00418508658186 186.1793313063681,199.9316402017139 184.20972644351423,195.9989714792464 180.27051671780646,191.88753812224604 176.6595744676888,191.17250550678 175.67477203626186,188.13361448980868 171.24316109437495,183.84340878459625 168.94528875406832,179.01691809832118 165.49848024267703,178.12312244996428 158.93313069827855,180.8045083854813 156.14285714179277,177.76560409623198 154.00911854114383,177.4080856887158 149.741641337052,179.9107134102378 143.66869300883263,177.05056722764857 140.5501519748941,170.97274514753371 139.5653495443985,170.79398543853313 138.0881458967924,172.7603414922487 140.22188449744135,174.54793649096973 140.0577507596463,177.76560409623198 141.69908814504743,180.98326733987778 144.16109422501177,181.87706191185862 148.59270516596735,178.48064074967988 152.36778115388006,180.62574941734783 152.03951367735863,183.48589129257016 149.41337385959923,185.27347821486183 146.13069908786565,190.99374731932767 143.1762917926535,192.78132858802564 143.99696048535407,194.568908510264 146.62310030311346,195.641455817502 155.97872340399772,195.4626979669556 158.93313069827855,197.42903358652256 165.1702127661556,196.1777292897459 172.88449847977608,199.21661000978202 184.70212765876204,198.85909483232535 183.55319148954004,193.67511871736497 177.4802431613207,191.35126368072815 174.85410334262997,185.45223683258519 171.89969604928046,184.37968492181972 168.45288753788918,179.01691809832118 164.02127659600228,178.12312244996428 158.76899695955217,180.26823144080117 151.7112462008372,176.1567708386574 152.36778115388006,179.55319532589056 150.39817629102618,180.62574941734783 145.96656534913927,178.30188160645775 142.6838905774057,171.86654348811135 137.4316109418869,171.3302645238582 136.1185410330072,165.07366765849292 140.5501519748941,162.57102429517545 141.370820668526,160.2471388091799 143.34042553137988,163.64358605933376 141.20668692979962,162.7497846230399 139.07294832821935,163.46482579922304 135.79027355648577,161.85598284914158 133.98480243142694,163.8223463066388 135.13373860158026,166.50374839571305 139.07294832821935,165.43118792353198 140.0577507596463,166.8612684456166 137.59574468061328,176.33553014369681 142.19148936122656,180.8045083854813 139.4012158047408,185.80975402891636 142.6838905774057,189.5636813356541 144.32522796280682,194.39015057869256 156.96352583542466,195.28394010243937 167.13981762900949,197.60779128968716 171.5714285708964,197.42903358652256 178.95744680799544,199.9316402017139 182.5683890581131,197.9653066545725 183.22492401115596,193.85387670295313 178.13677811529487,191.88753812224604 174.52583586610854,192.0662962421775 173.70516717340797,186.70354678318836 171.24316109437495,185.09471958270296 169.27355623058975,179.3744362636935 166.48328267410398,176.8718079768587 164.67781154997647,176.6930487123318 158.44072948303074,179.9107134102378 151.38297872245312,176.33553014369681 152.03951367735863,178.8381589956116 150.72644376847893,179.3744362636935 146.95136778056622,177.4080856887158 143.50455927010626,171.86654348811135 138.0881458967924,170.79398543853313 137.75987841933966,165.07366765849292 142.5197568386793,162.57102429517545 144.65349544025958,163.1073052380234 139.4012158047408,158.9958149131853 137.9240121571347,162.03474323102273 133.32826747652143,163.46482579922304 138.7446808507666,166.8612684456166 140.0577507596463,170.07894647028297 137.59574468061328,174.01165813254192 142.5197568386793,180.62574941734783 141.86322188470513,183.48589129257016 139.72948328219354,185.27347821486183 142.5197568386793,188.49113128217869 144.32522796280682,194.03263467503712 148.75683890562505,194.03263467503712 151.38297872245312,195.4626979669556 163.69300911854953,196.1777292897459 174.36170212738216,199.395367577672 179.12158054672182,200.11039771582 184.70212765876204,199.75288267363794 185.52279635239393,198.3228219661396 180.92705167084932,192.24505434883758 176.82370820641518,191.17250550678 176.82370820641518,186.70354678318836 174.0334346499294,184.0221675101202 171.40729483310133,183.66465004556812 167.63221884518862,176.8718079768587 165.8267477201298,176.8718079768587 158.44072948303074,180.26823144080117 154.99392097257078,177.58684489922598 151.5471124611795,177.05056722764857 149.0851063830778,179.01691809832118 146.95136778056622,178.30188160645775 141.69908814504743,181.16202628146857 139.72948328219354,184.37968492181972 143.99696048535407,189.20616470486857 143.99696048535407,192.96008664066903 158.11246200557798,194.92642433336005" stroke="#4dd2ff" stroke-linecap="round" stroke-linejoin="round" stroke-width="0.5"><title>2024-01-16 10.2km</title><desc>10569480991</desc></polyline><polyline fill="none" points="57.28658536635339,259.4545095579233 59.59146341495216,261.42683683591895 66.8353658542037,259.6338121050503 63.70731707382947,254.07542686001398 57.28658536635339,249.41354535892606 55.96951219625771,244.39304738189094 53.00609756167978,244.21374368690886 50.86585365887731,239.55184287857264 48.067073171027005,237.04158481652848 43.621951220557094,237.57949748123065 39.6707317084074,240.26905898167752 37.695121952332556,240.44836297328584 34.402439025230706,236.86228056810796 30.286585366353393,228.07635584869422 21.231707317754626,217.8559536493849 19.42073170747608,221.62137008993886 16.12804878130555,223.05581288202666 15.140243902802467,224.66955998982303 16.786585366353393,226.28330600447953 19.5853658542037,226.10400094557554 21.396341463550925,231.124537485186 19.09146341495216,235.06923734000884 23.207317073829472,241.70349053968675 21.396341463550925,246.186083588982 23.865853658877313,251.38588095409796 23.37195121962577,254.79263858823106 28.969512195326388,256.2270613971632 35.06097561027855,255.50985010084696 49.054878048598766,258.73729923320934 53.3353658542037,258.37869399017654 65.51829268410802,262.14404635038227 66.50609756074846,260.3510221594479 65.68292682990432,256.7649697277229 57.780487805604935,250.66866819909774 57.945121951401234,246.3653871351853 53.50000000093132,244.21374368690886 49.21951219532639,237.04158481652848 47.408536585979164,236.50367203052156 40.32926829345524,240.62766695208848 37.695121952332556,240.44836297328584 32.26219512242824,236.50367203052156 32.26219512242824,232.37966996617615 29.62804878130555,231.84175612661056 27.981707316823304,228.43496565520763 20.573170731775463,222.87650757981464 18.432926829904318,220.0076209155377 14.646341464482248,223.05581288202666 16.457317073829472,225.92469587316737 19.42073170747608,227.17983109503984 20.573170731775463,230.04870911804028 18.432926829904318,236.3243677415885 22.713414635509253,242.60000982461497 21.231707317754626,246.00678002880886 24.030487805604935,251.02727460372262 22.713414635509253,251.38588095409796 22.713414635509253,254.61333567649126 27.981707316823304,254.2547298122663 31.932926829904318,255.86845577601343 35.22560975700617,254.79263858823106 40.823170732706785,257.3028779369779 47.24390243925154,257.3028779369779 60.25000000093132,260.3510221594479 64.85975609812886,261.0682319982443 67.0,260.17171966587193 64.85975609812886,256.047758593224 57.780487805604935,250.4893649769947 48.89024390373379,236.86228056810796 46.91463414672762,236.50367203052156 40.987804878503084,239.7311469244305 37.36585365887731,239.7311469244305 34.402439025230706,236.68297630595043 33.57926829252392,232.91758368397132 27.817073171027005,228.9728802642785 24.195121952332556,222.15928623825312 19.91463414672762,217.8559536493849 13.0,223.05581288202666 14.810975610278547,224.84886515676044 18.432926829904318,226.10400094557554 20.902439024299383,231.124537485186 18.432926829904318,235.24854172347113 22.54878048878163,241.3448827310931 21.067073171027005,242.42070599459112 25.182926829904318,249.23424204229377 24.359756098128855,254.43403275101446 28.310975610278547,253.35821491549723 32.26219512242824,254.2547298122663 37.20121951214969,253.35821491549723 44.939024390652776,257.3028779369779 50.04268292710185,258.02008869312704 54.487804878503084,257.12357521406375 61.23780487943441,259.9924171594903 65.18902439065278,260.7096271056216 66.50609756074846,259.0959044226911 65.18902439065278,255.33054724289104 57.945121951401234,250.13075849204324 57.945121951401234,245.2895656542387 52.67682926915586,243.13792123366147 48.89024390373379,235.96575912297703 45.92682926915586,236.68297630595043 40.32926829345524,240.62766695208848 37.530487805604935,237.40019327308983 29.46341463457793,232.91758368397132 23.207317073829472,225.20747544965707 19.09146341495216,223.593728705775 15.798780487850308,220.36623193812557 13.493902439251542,223.414423444774 15.96341463457793,226.10400094557554 19.91463414672762,228.61427053879015 20.243902440182865,232.37966996617615 18.268292683176696,235.96575912297703 22.87804878130555,240.9862748682499 20.243902440182865,245.8274764555972 24.359756098128855,249.95145522872917 24.030487805604935,255.68915294483304 27.817073171027005,254.79263858823106 32.26219512242824,256.58566696429625 35.39024390280247,256.2270613971632 38.189024390652776,257.6614833420608 46.91463414672762,258.1993913487531 59.92073170747608,261.42683683591895 64.36585365980864,260.8889295584522 66.01219512242824,258.1993913487531 65.18902439065278,254.79263858823106 61.56707317195833,251.56518410891294 57.61585365887731,250.4893649769947 56.62804878037423,246.54469066835009 52.84146341495216,242.95861744415015 50.20731707382947,238.47601831890643 47.902439025230706,237.22088905167766 45.59756097663194,237.40019327308983 41.317073171027005,241.524186642142 40.32926829345524,241.3448827310931 37.20121951214969,237.57949748123065 33.74390243925154,236.68297630595043 31.109756098128855,229.51079475181177 23.701219513081014,220.36623193812557 17.774390244856477,220.36623193812557 14.152439025230706,221.44206467992626 13.329268293455243,223.05581288202666 15.304878048598766,225.74539078772068 17.939024390652776,226.64191608130932 20.573170731775463,231.124537485186 17.445121952332556,234.35201967018656 22.38414634205401,240.9862748682499 21.890243902802467,243.31722500920296 19.91463414672762,246.186083588982 24.853658537380397,250.13075849204324 24.853658537380397,255.15124437166378 32.59146341495216,254.79263858823106 37.695121952332556,254.2547298122663 42.63414634205401,256.94427247787826 52.18292682990432,256.047758593224 55.475609756074846,256.94427247787826 58.439024390652776,259.4545095579233 63.54268292710185,260.5303246397525 65.84756097570062,259.0959044226911 64.53048780467361,256.94427247787826 57.451219513081014,251.38588095409796 55.475609756074846,245.8274764555972 51.689024390652776,243.85513625643216 50.701219513081014,239.01393065950833 46.75,237.04158481652848 39.8353658542037,240.9862748682499 37.36585365887731,240.44836297328584 36.871951220557094,237.57949748123065 32.75609756167978,235.42784609342925 29.46341463457793,229.15218510711566 25.676829268224537,226.46261104941368 23.536585366353393,221.08345382008702 20.243902440182865,218.75248191319406 18.432926829904318,220.72484290599823 13.164634146727622,222.51789693627506 15.469512195326388,225.56608568830416 18.597560975700617,226.64191608130932 20.902439024299383,230.04870911804028 17.115853658877313,235.7864547930658 22.219512195326388,240.62766695208848 22.38414634205401,242.95861744415015 19.25609756167978,245.64817286864854 24.030487805604935,246.72399418777786 23.865853658877313,253.71682091453113 28.640243902802467,253.89612389402464 35.06097561027855,256.40636418759823 43.29268292803317,258.9166018348187 49.87804878130555,258.37869399017654 59.26219512242824,262.14404635038227 65.02439024392515,261.2475344238337 66.34146341495216,259.4545095579233 65.84756097570062,256.7649697277229 59.92073170747608,251.20657778554596 58.439024390652776,251.02727460372262 57.28658536635339,245.64817286864854 53.50000000093132,243.13792123366147 49.38414634205401,236.86228056810796 47.902439025230706,236.68297630595043 39.6707317084074,240.9862748682499 34.07317073177546,238.2967141782865 33.0853658542037,233.27619276172481 22.713414635509253,220.0076209155377 18.268292683176696,220.54553742869757 13.658536585979164,223.23511817050166 17.115853658877313,225.02817030996084 19.750000000931323,230.22801387915388 17.774390244856477,236.1450634386856 23.207317073829472,241.3448827310931 23.042682928033173,242.779313640669 19.5853658542037,245.64817286864854 24.195121952332556,251.20657778554596 24.195121952332556,255.33054724289104 38.3536585373804,256.7649697277229 49.054878048598766,258.37869399017654 52.018292683176696,259.6338121050503 55.80487804953009,259.6338121050503 57.945121951401234,260.8889295584522 64.36585365980864,260.8889295584522 66.01219512242824,258.55799661856145 65.18902439065278,255.86845577601343 60.57926829345524,251.56518410891294 57.28658536635339,250.4893649769947 58.27439024485648,246.186083588982 52.84146341495216,243.13792123366147 51.030487805604935,238.83462655940093 48.725609756074846,236.68297630595043 46.91463414672762,236.68297630595043 41.15243902429938,240.62766695208848 37.530487805604935,239.91045095724985 34.402439025230706,235.96575912297703 33.57926829252392,232.91758368397132 29.46341463457793,228.79357540840283 24.689024390652776,220.72484290599823 23.207317073829472,220.0076209155377 16.951219513081014,222.15928623825312 14.646341464482248,221.97998086875305 13.823170732706785,223.593728705775 18.76219512242824,227.17983109503984 18.268292683176696,235.96575912297703 23.536585366353393,241.524186642142 21.231707317754626,246.00678002880886 24.030487805604935,249.23424204229377 23.865853658877313,255.33054724289104 26.500000000931323,254.43403275101446 31.109756098128855,256.2270613971632 34.567073171027005,255.50985010084696 40.493902440182865,257.6614833420608 44.11585365887731,257.12357521406375 52.84146341495216,258.9166018348187 60.0853658542037,261.9647439918481 62.71951219532639,260.5303246397525 65.18902439065278,260.8889295584522 67.0,259.813114638906 61.56707317195833,251.56518410891294 57.61585365887731,250.84797140862793 57.451219513081014,246.3653871351853 55.64024390280247,244.39304738189094 53.66463414672762,243.85513625643216 51.689024390652776,239.3725388192106 49.054878048598766,236.86228056810796 44.280487805604935,237.9381058565341 40.32926829345524,240.62766695208848 33.908536585979164,237.40019327308983 32.59146341495216,230.94523279112764 29.62804878130555,228.43496565520763 23.207317073829472,219.11109312460758 20.902439024299383,218.21456499537453 19.750000000931323,220.90414837002754 17.115853658877313,222.33859159378335 14.481707317754626,221.97998086875305 13.823170732706785,223.05581288202666 15.634146342985332,225.38678057561629 17.609756098128855,224.49025481007993 20.408536585979164,227.0005261041224 20.408536585979164,230.58662336226553 18.432926829904318,235.7864547930658 22.87804878130555,240.44836297328584 22.219512195326388,242.95861744415015 20.079268293455243,244.21374368690886 24.524390243925154,249.77215195260942 23.536585366353393,254.43403275101446 28.969512195326388,254.43403275101446 33.41463414672762,257.3028779369779 39.17682926915586,256.40636418759823 43.45731707289815,258.1993913487531 50.37195121962577,258.1993913487531 59.75609756167978,261.42683683591895 64.85975609812886,261.2475344238337 67.0,259.4545095579233 60.57926829345524,251.20657778554596 58.109756098128855,251.56518410891294 57.61585365887731,246.72399418777786 52.34756097663194,243.13792123366147 50.04268292710185,237.7588016758673 46.09146341588348,236.3243677415885 40.0,240.80697091692127 37.530487805604935,238.83462655940093 35.06097561027855,239.01393065950833 29.79268292710185,228.2556607585866 24.524390243925154,223.95233918819577 23.37195121962577,221.26275925687514 18.92682926915586,219.64900984009728 16.786585366353393,220.18692643358372 14.152439025230706,222.6972022652626 17.774390244856477,224.31094961613417 19.42073170747608,226.28330600447953 19.91463414672762,230.58662336226553 17.939024390652776,236.3243677415885 22.219512195326388,242.42070599459112 20.408536585979164,246.3653871351853 24.524390243925154,250.84797140862793 23.37195121962577,254.61333567649126 26.829268293455243,255.15124437166378" stroke="#4dd2ff" stroke-linecap="round" stroke-linejoin="round" stroke-width="0.5"><title>2023-10-24 10.2km</title><desc>10096212910</desc></polyline></svg>