<?xml version="1.0" encoding="utf-8" ?>
<svg baseProfile="full" height="300mm" version="1.1" viewBox="0,0,200,300" width="200mm" xmlns="http://www.w3.org/2000/svg" xmlns:ev="http://www.w3.org/2001/xml-events" xmlns:xlink="http://www.w3.org/1999/xlink"><defs /><rect fill="#222222" height="300" width="200" x="0" y="0" /><text fill="#FFFFFF" style="font-size:12px; font-family:Arial; font-weight:bold;" x="10" y="20">Over 10km Runs</text><text fill="#FFFFFF" style="font-size:4px; font-family:Arial" x="10" y="280">ATHLETE</text><text fill="#FFFFFF" style="font-size:9px; font-family:Arial" x="10" y="290">wzso</text><text fill="#FFFFFF" style="font-size:4px; font-family:Arial" x="120" y="280">STATISTICS</text><text fill="#FFFFFF" style="font-size:3px; font-family:Arial" x="120" y="285">Number: 3</text><text fill="#FFFFFF" style="font-size:3px; font-family:Arial" x="120" y="290">Weekly: 1.0</text><text fill="#FFFFFF" style="font-size:3px; font-family:Arial" x="141" y="285">Total: 30.4 km</text><text fill="#FFFFFF" style="font-size:3px; font-family:Arial" x="141" y="290">Avg: 10.1 km</text><text fill="#FFFFFF" style="font-size:3px; font-family:Arial" x="167" y="285">Min: 10.0 km</text><text fill="#FFFFFF" style="font-size:3px; font-family:Arial" x="167" y="290">Max: 10.2 km</text><polyline fill="none" points="64.29618786508217,42.67718921368942 64.65032835537568,43.15819873812143 64.47325811069459,43.639208083972335 62.25988004729152,46.621462045935914 61.37452882202342,47.67967954510823 60.84331808658317,51.527735898504034 60.04650198388845,53.836564229335636 59.3382210037671,55.08717785892077 58.098729288205504,56.62639297824353 56.15095659298822,60.282021563733 55.088535122573376,61.72503001103178 54.20318389730528,62.59083430841565 53.671973161865026,63.649038775707595 53.22929754899815,66.054045717814 51.01591948606074,69.13244809524622 50.75031411834061,72.40324261493515 49.33375215809792,77.88661491964012 48.80254142312333,82.98516836715862 48.44840093282983,83.9471573359333 47.82865507528186,84.62054918950889 47.56304970756173,88.27609886531718 46.76623360486701,90.77725849649869 46.500628237146884,93.56700777914375 46.057952624280006,95.49096930562519 45.61527701187879,97.89591720036697 45.79234725702554,100.30086063535418 45.34967164415866,103.57157655106857 44.55285554146394,106.93848137848545 42.605082845781,109.7281959002139 43.13629358075559,113.09508474636823 42.073872110340744,115.5 42.78215309139341,114.05705138284247 42.870688213501126,111.45973982696887 43.667504316195846,109.92058978392743 44.37578529678285,109.05481708224397 44.64139066403732,106.84228421887383 44.99553115433082,105.01453683304135 45.703812134452164,103.09058943367563 45.880882379598916,101.93621962412726 45.703812134452164,98.66549958451651 45.880882379598916,96.64534485153854 46.23502286942676,94.81758309598081 46.76623360486701,93.9518003128469 47.03183897258714,90.96965519152582 47.474514584988356,89.23808390973136 48.00572531996295,87.6989074961748 48.271330687683076,85.77493441093247 49.687892648391426,80.96498921012972 50.484708750620484,76.25122560595628 51.54713022150099,73.55763871094678 51.901270711794496,69.13244809524622 53.58343803929165,66.1502459027106 53.7605082844384,65.38064422365278 54.64585951017216,64.51484178868122 56.23949171509594,61.72503001103178 56.85923757310957,60.282021563733 56.77070245007053,59.70481773559004 58.895545391365886,56.145388449775055 59.16115075862035,55.08717785892077 60.75478296400979,53.45175979309715 61.108923454303294,52.00874213979114 62.25988004729152,50.661924214684404 62.79109078180045,49.122702015796676 63.499371762853116,48.16068721364718 64.29618786508217,46.42905877146404 64.38472298765555,45.3708402516786 65.18153909081593,43.92781360598747 66.42103080591187,40.079734699218534 67.30638203164563,38.25189321814105 68.19173325644806,37.09746569197159 68.28026837902144,36.231644372688606 67.92612788872793,36.231644372688606 67.57198739890009,36.7126562880585 67.30638203164563,37.67467958340421 65.27007421292365,41.33036159654148 64.5617932328023,43.639208083972335 63.58790688496083,45.56324368319474 62.52548541454598,48.54549322021194 61.37452882202342,50.373320191632956 60.04650198388845,53.1631563907722 58.45286977849901,55.56818277994171 57.65605367580429,57.203598176827654 57.39044830808416,58.261807040311396 54.82292975485325,61.24402737338096 53.93757852958515,64.99584321293514 53.05222730431706,66.53504657116719 52.078340956475586,67.40084765711799 51.01591948606074,69.61344780679792 50.6617789962329,73.07664046238642 49.510822403244674,76.25122560595628 49.510822403244674,77.11702020524535 49.15668191295117,77.88661491964012 48.35986581025645,81.63838261202909 48.80254142312333,83.46616294060368 47.74011995270848,85.29394069360569 47.38597946241498,88.5646944536129 46.057952624280006,92.41262949351221 45.79234725702554,95.8757612684276 45.26113652205095,97.31873011216521 45.17260139901191,103.09058943367563 44.81846090964973,105.11073412804399 44.02164480648935,107.13087567605544 43.490434071514755,107.61186129518319 43.13629358075559,108.9586200795602 43.22482870379463,110.0167867152486 41.719731620978564,111.5559366439702 41.54266137536615,111.94072384072933 41.45412625325844,113.5760681538377 41.896801865659654,114.44183783768676 42.25094235595316,114.2494446245255 43.490434071514755,112.03692062222399 44.1987150516361,107.61186129518319 45.084066276904196,104.14876085624564 46.057952624280006,101.26283676095773 45.79234725702554,97.70352153258864 46.23502286942676,95.49096930562519 46.500628237146884,94.24039463803638 47.03183897258714,93.27841330401134 47.38597946241498,90.77725849649869 48.44840093282983,86.64072265243158 48.80254142312333,85.96733184775803 49.24521703552455,83.17756621784065 49.687892648391426,82.21557667828165 50.04203313821927,77.88661491964012 51.281524853780866,73.94243718124926 52.698086814023554,67.49704774213023 55.265605367254466,63.36043764313217 58.275799533352256,56.43399118806701 59.51529124844819,54.125167481717654 59.692361493594944,53.1631563907722 61.55159906670451,51.04672947875224 62.25988004729152,49.50750773679465 63.05669614998624,46.910066904034466 64.9159337230958,43.543006229097955 66.24396056076512,39.694926180527546 68.19173325644806,35.84683471196331 68.01466301176697,35.173417530953884 68.28026837902144,35.654429838992655 68.19173325644806,36.03923955664504 67.12931178603321,37.86708415695466 64.73886347794905,43.25440062163398 64.47325811069459,44.31262086867355 63.3223015172407,46.42905877146404 63.14523127255961,47.775881093228236 59.869431738741696,53.836564229335636 57.21337806293741,58.165606270194985 56.682167327962816,59.99341968179215 55.088535122573376,62.30223293998279 53.7605082844384,64.51484178868122 53.4063677941449,66.1502459027106 51.901270711794496,68.07424810237717 50.6617789962329,71.24884549109265 50.21910338336602,72.5956420354778 50.13056826079264,75.28923092852347 49.510822403244674,76.4436244557146 48.71400630008429,79.90679887181614 48.1827955651097,80.86879012407735 47.91719019738957,82.02317868487444 48.094260442536324,82.98516836715862 47.651584829669446,85.87113313283771 46.58916336018592,89.14188543753698 46.58916336018592,90.00767143152189 46.057952624280006,92.02783650334459 45.703812134452164,95.00997919158544 45.084066276904196,97.51112583687063 45.084066276904196,100.58945354784373 44.55285554146394,102.03241714765318 44.55285554146394,103.18678687140346 44.02164480648935,104.91833953093737 43.93310968391597,106.7460870523937 43.490434071514755,108.76622605323792 43.667504316195846,109.4396050212672 43.22482870379463,113.5760681538377 42.16240723337978,115.115213858895 42.51654772320762,114.82662417856045 42.693617968354374,113.67226481391117 42.073872110340744,111.36354300286621 42.16240723337978,110.78636190795805 44.55285554146394,106.5536926977802 45.084066276904196,104.24495821562596 46.23502286942676,101.74382455612067 46.14648774685338,96.35675106127746 47.12037409469485,93.75940406031441 47.03183897258714,92.22023301245645 47.20890921726823,90.96965519152582 47.651584829669446,89.71907616429962 47.74011995270848,87.41031171544455 49.24521703552455,82.69657153740991 51.63566534360871,71.34504529065453 51.901270711794496,68.45904819970019 52.16687607904896,67.88184801093303 52.96369218127802,67.01604724582285 54.114648774731904,65.09204347617924 56.59363220538944,59.512416402227245 58.18726441077888,56.91499560966622 59.78089661616832,53.74036313116085 62.17134492471814,50.373320191632956 62.61402053711936,49.122702015796676 63.676442007534206,47.3910748581402 65.0930039677769,43.543006229097955 65.8012849483639,40.75314933247864 68.19173325644806,35.269620006904006 68.19173325644806,34.5 68.01466301176697,34.59620252577588 67.66052252147347,35.36582247551996 67.12931178603321,37.57847728615161 64.9159337230958,41.42656361556146 64.20765274297446,43.92781360598747 63.499371762853116,44.601226240512915 63.14523127255961,46.23665546870325 62.082809802144766,48.353090231190436 61.55159906670451,49.89231334347278 61.108923454303294,50.46952153975144 60.66624784190208,51.527735898504034 58.62994002364576,53.64416202553548 57.92165904305875,56.145388449775055 57.478983430657536,56.818794739665464 56.682167327962816,57.29979901819024 56.505097082816064,58.069405493093655 54.291719019412994,61.24402737338096 53.671973161865026,62.78323518484831 51.281524853780866,65.95784552581608 51.104454608634114,68.55524820636492 51.37005997588858,69.70964772766456 51.104454608634114,71.15264568442944 49.687892648391426,75.38543042831589 49.06814679084346,79.52200217125937 48.00572531996295,83.75475959922187 47.474514584988356,88.27609886531718 46.76623360486701,89.91147301613819 46.057952624280006,93.18221513135359 45.52674188930541,94.14419653674122 45.34967164415866,95.97195924131665 45.52674188930541,96.74154276726767 45.084066276904196,98.28070844954345 45.52674188930541,100.20466298353858 45.26113652205095,101.5514294593595 45.34967164415866,102.70579961140174 44.81846090964973,104.05256349011324 44.64139066403732,106.36129831441212 44.11017992859706,107.22707281424664 44.02164480648935,108.47763496020343 43.490434071514755,109.15101407770999 43.40189894847572,111.45973982696887 43.04775845864788,112.13311739638448 42.693617968354374,114.05705138284247 41.896801865659654,115.30760694376659 41.896801865659654,114.82662417856045 42.25094235595316,114.34564123477321 42.33947747852653,113.28747813066002 42.78215309139341,112.03692062222399 42.78215309139341,110.6901650337968 44.02164480648935,109.15101407770999 44.90699603129178,106.45749550964683 45.880882379598916,102.70579961140174 46.323557992465794,100.20466298353858 46.41209311457351,98.18451064790133 47.03183897258714,94.9137811473338 47.297444340307266,90.48866340052336 48.97961166780442,83.75475959922187 48.80254142312333,82.50417361501604 49.510822403244674,80.77259103104006 50.21910338336602,78.17521281982772 50.39617362851277,76.4436244557146 51.01591948606074,73.94243718124926 51.01591948606074,72.69184173538815 51.81273558875546,69.22864805196878 52.60955169191584,67.30464756500442 53.7605082844384,66.1502459027106 55.0,63.649038775707595 55.265605367254466,62.78323518484831 56.15095659298822,61.72503001103178 56.85923757310957,60.474422782775946 57.21337806293741,59.03141294431407 57.124842940829694,58.55040930781979 57.39044830808416,57.877003917237744 59.072615636046976,55.471981810056604 59.95796686131507,53.64416202553548 62.43695029243827,50.373320191632956 63.85351225268096,44.88983154820744 64.5617932328023,43.25440062163398 65.4471444580704,42.29238146590069 65.97835519351065,40.75314933247864 67.04077666345984,38.63670216500759 67.30638203164563,37.09746569197159 68.10319813387468,35.75063227897044 68.10319813387468,34.88481006049551 67.57198739890009,35.36582247551996 67.04077666345984,37.38607266964391 64.47325811069459,42.00377557997126 63.676442007534206,44.02401543234009 63.3223015172407,45.948050460545346 62.25988004729152,48.64169470395427 61.108923454303294,50.758125541498885 61.108923454303294,52.00874213979114 60.04650198388845,52.9707540870877 58.36433465592563,56.43399118806701 55.708280980121344,60.18582094355952 55.44267561240122,61.24402737338096 55.0,61.91743101575412 53.93757852958515,64.3224411692936 53.05222730431706,65.66924490698148 52.5210165688768,66.1502459027106 51.98980583390221,66.91984712530393 50.92738436348736,69.03624813177157 50.57324387365952,72.49944232869893 49.687892648391426,74.90443285764195 49.687892648391426,75.38543042831589 48.271330687683076,81.25358642498031 48.094260442536324,82.60037257999647 48.1827955651097,83.75475959922187 47.474514584988356,85.87113313283771 47.03183897258714,89.43048083304893 46.057952624280006,91.93163823802024 46.14648774685338,93.37461146968417 45.703812134452164,94.9137811473338 44.64139066403732,97.89591720036697 44.90699603129178,99.43508151255082 44.37578529678285,101.93621962412726 44.37578529678285,103.09058943367563 44.02164480648935,103.86016873584595 43.667504316195846,106.16890390275512 43.22482870379463,107.32326994510368 43.22482870379463,108.9586200795602 43.57896919362247,109.92058978392743 43.22482870379463,111.17114933300763 41.98533698823303,112.80649461620487 41.54266137536615,115.115213858895 41.80826674308628,115.21141040499788 42.25094235595316,115.21141040499788 42.605082845781,114.63423102232628 42.78215309139341,112.13311739638448 43.313363826368004,110.97875563486014 43.313363826368004,110.30537746613845 43.93310968391597,109.53580198786221 44.464320418890566,108.09284673596267 44.81846090964973,107.0346785307629 44.90699603129178,105.59172049642075 46.057952624280006,102.51340465724934 46.14648774685338,101.45523190044332 45.61527701187879,99.14648834301624 45.79234725702554,97.22253223927692 46.58916336018592,94.33659273234662 46.76623360486701,92.12403476145118 47.474514584988356,89.91147301613819 48.5369360554032,84.81294679781422 49.15668191295117,83.5623618341051 49.15668191295117,82.50417361501604 49.687892648391426,80.77259103104006 50.75031411834061,74.42343510861974 50.83884924137965,72.1146434302209 51.63566534360871,69.99824744754005 53.317832672037184,67.11224735924043 53.58343803929165,65.66924490698148 54.64585951017216,64.22624084865674 55.0,63.16803685214836 56.59363220538944,61.43642845004797 57.03630781779066,59.320015040342696 57.744588797912,58.64661004929803 58.45286977849901,56.91499560966622 59.249685880728066,55.95298658835236 59.692361493594944,54.50997171853669 60.2235722290352,54.028966404963285 61.02038833172992,52.68215057789348 61.4630639445968,51.335333352093585 62.17134492471814,50.27711883618031 62.702555660158396,48.73789618071169 63.3223015172407,48.06448569428176 63.676442007534206,46.621462045935914 64.29618786508217,45.75564708607271 64.82739860005677,43.831611772300676 65.97835519351065,42.09997754916549 66.50956592848524,39.98353258008137 66.50956592848524,39.117713188170455 68.54587374674156,35.173417530953884 68.28026837902144,34.88481006049551 67.83759276615456,35.173417530953884 67.04077666345984,36.905061004450545 66.77517129573971,37.96328643290326 65.71274982579052,39.40631971647963 64.38472298765555,42.58098728756886 64.03058249782771,42.58098728756886 63.76497713010758,42.00377557997126 63.58790688496083,41.9075736036757 63.14523127255961,42.29238146590069 63.14523127255961,42.58098728756886 63.76497713010758,42.86959304497577 64.20765274297446,42.58098728756886 64.38472298765555,41.42656361556146" stroke="#4dd2ff" stroke-linecap="round" stroke-linejoin="round" stroke-width="0.5"><title>2024-08-13 10.0km</title><desc>12136939266</desc></polyline><polyline fill="none" points="166.54255319107324,91.75875826017 169.25075987819582,99.53473063046113 177.37537993956357,104.36118769855238 181.31458966620266,104.62932401080616 182.2993920976296,100.07100396114402 180.57598784100264,96.04895201302134 173.68237082008272,90.14993427111767 169.49696048535407,90.41807165322825 169.74316109437495,83.71463104360737 163.83434650395066,81.83766541094519 160.14133738540113,74.5979315622244 153.49392097257078,68.96701728133485 149.80091185308993,70.03957306873053 142.16869300883263,74.86607011570595 136.5060790264979,71.11212853319012 132.8130699088797,71.11212853319012 130.1048632217571,74.86607011570595 119.2720364741981,70.57585084158927 120.25683890469372,62.263536288868636 123.21124619990587,58.77772118500434 112.870820668526,51.26980014028959 118.28723404183984,48.85653644311242 121.98024316132069,49.392817405518144 118.0410334346816,46.71141178277321 111.14741641283035,46.979552436154336 105.2386018242687,49.66095785726793 104.74620060715824,51.537940450478345 110.90121580567211,54.21934243873693 112.37841945234686,56.0963226291351 113.11702127661556,60.38655934855342 109.6702127661556,68.96701728133485 117.30243161134422,78.62000774010085 114.1018237080425,83.98276891000569 120.99544072896242,91.75875826017 121.7340425522998,96.85336276586168 130.8434650450945,95.51267807628028 141.92249240074307,98.73032048321329 161.6185410330072,103.020505835535 171.95896656438708,104.09305136674084 177.12917933054268,102.48423294932581 180.32978723477572,104.36118769855238 181.5607902733609,102.48423294932581 181.06838905718178,100.60727721103467 169.25075987819582,91.49062097934075 169.98936170246452,83.98276891000569 167.52735562250018,82.10580341913737 162.11094224918634,81.30138933449052 160.63373860158026,75.67048565344885 157.925531915389,72.98909981921315 151.5243161097169,72.18468367517926 142.4148936169222,76.4749010100495 136.7522796355188,71.64840614469722 132.07446808367968,71.91654491960071 130.59726443700492,75.13420864846557 122.22644376847893,70.84398969751783 120.50303951371461,68.96701728133485 120.25683890469372,63.60423349682242 115.82522796280682,60.11841970565729 115.57902735564858,57.43702215910889 111.39361702091992,52.342361259274185 117.79483282659203,48.85653644311242 121.98024316132069,49.66095785726793 115.33282674662769,43.76186326565221 113.3632218837738,46.44327110983431 106.71580547187477,48.32025539921597 104.5,50.46537908911705 106.9620060781017,54.21934243873693 110.90121580567211,54.755622593918815 112.62462006043643,56.632602501660585 114.34802431613207,61.727257264079526 111.39361702091992,64.40865157963708 110.90121580567211,68.96701728133485 118.0410334346816,74.06165439565666 118.28723404183984,76.74303942266852 114.59422492329031,83.44649315648712 121.24164133705199,90.6862090146169 122.71884498465806,97.12149964296259 135.27507598791271,99.53473063046113 139.70668693073094,102.48423294932581 161.12613981682807,102.48423294932581 173.43617021292448,105.9700052679982 177.37537993956357,105.16559657384641 182.2993920976296,105.9700052679982 184.2689969604835,103.55677864165045 177.62158054672182,91.75875826017 168.51215805392712,89.881796868518 166.29635258298367,81.5695273829624 161.6185410330072,79.96069878945127 158.91033434588462,75.40234716143459 154.97112462017685,72.45282241003588 145.6155015192926,76.4749010100495 139.21428571362048,72.45282241003588 129.12006078939885,73.79351578140631 124.19604863226414,71.11212853319012 120.50303951371461,77.27931618550792 117.54863221850246,78.35186946904287 116.31762917898595,72.98909981921315 111.14741641283035,65.21306948037818 111.88601823616773,62.263536288868636 114.59422492329031,60.65469897235744 120.01063829753548,62.53167577087879 121.7340425522998,66.55376557726413 128.1352583579719,72.72096112463623 115.08662614040077,81.83766541094519 123.94984802417457,96.31708895065822 150.7857142854482,102.2160964764189 164.57294832728803,102.2160964764189 173.9285714291036,105.70186905749142 182.05319148860872,104.89746030280367 185.5,101.94795998232439 176.63677811529487,92.02689552144147 171.22036474198103,90.41807165322825 169.98936170246452,83.17835524934344 163.09574467968196,81.5695273829624 157.6793313063681,72.98909981921315 153.2477203635499,71.3802673490718 141.92249240074307,75.13420864846557 137.49088145885617,71.11212853319012 134.29027355555445,70.84398969751783 128.8738601822406,74.06165439565666 121.24164133705199,68.43073926586658 119.76443768944591,63.336094095371664 112.13221884518862,63.067954673664644 113.11702127661556,57.43702215910889 110.65501519758254,51.26980014028959 115.08662614040077,49.124676934909075 110.90121580567211,54.755622593918815 113.60942249279469,60.92283857567236 111.14741641283035,67.89446117030457 112.37841945234686,70.84398969751783 117.54863221850246,72.98909981921315 119.51823708228767,76.20676257833838 119.76443768944591,79.42442243057303 116.81003039423376,84.2509067566134 121.7340425522998,91.49062097934075 122.4726443765685,96.85336276586168 127.6428571427241,99.26659393473528 137.49088145885617,98.73032048321329 151.03191489353776,102.2160964764189 159.1565349539742,101.41168693453074 173.43617021292448,104.62932401080616 176.88297872338444,103.020505835535 181.80699088145047,103.82491501490586 183.77659574523568,101.67982346843928 181.5607902733609,95.51267807628028 170.7279635258019,91.22248367825523 169.98936170246452,86.39600880118087 161.6185410330072,80.76511317724362 159.8951367782429,74.06165439565666 157.6793313063681,72.45282241003588 150.53951367735863,72.45282241003588 142.66109422501177,74.5979315622244 135.02887537889183,71.11212853319012 129.85866261366755,75.67048565344885 120.25683890469372,70.57585084158927 118.28723404183984,62.79981523239985 115.08662614040077,60.11841970565729 111.63981762900949,52.610501488205045 116.81003039423376,48.05211484665051 110.40881458856165,46.17513041594066 105.2386018242687,50.733519460074604 108.9316109418869,53.68306220276281 112.13221884518862,53.414922054158524 114.1018237080425,55.828182662138715 113.60942249279469,62.53167577087879 110.40881458856165,64.67679089959711 110.16261398140341,67.0900438753888 118.0410334346816,75.67048565344885 114.84042553137988,81.5695273829624 115.33282674662769,83.71463104360737 121.7340425522998,89.881796868518 125.42705167178065,96.85336276586168 134.29027355555445,96.31708895065822 145.6155015192926,99.8028673059307 162.11094224918634,100.60727721103467 165.06534954346716,103.28864224883728 171.22036474198103,102.75236940267496 176.14437690004706,105.16559657384641 182.05319148860872,104.62932401080616 183.77659574523568,102.48423294932581 179.0987841952592,97.3896365002729 169.98936170246452,93.09944436349906 169.74316109437495,86.66414646641351 167.77355623058975,82.37394140707329 162.60334346443415,81.83766541094519 160.14133738540113,75.67048565344885 155.9559270516038,71.64840614469722 143.39969604741782,75.938624126371 136.7522796355188,72.18468367517926 127.6428571427241,72.98909981921315 120.25683890469372,68.96701728133485 118.77963525801897,61.99539678613655 113.60942249279469,60.65469897235744 114.34802431613207,55.023762641940266 112.13221884518862,52.87864169687964 108.19300911854953,53.414922054158524 107.20820668712258,50.733519460074604 108.43920972570777,49.124676934909075 113.11702127661556,56.36446257564239 111.63981762900949,68.16260022833012 118.53343465086073,76.20676257833838 115.33282674662769,84.51904458273202 117.79483282659203,84.78718238906004 120.01063829753548,88.27297203079797 123.94984802417457,98.46218372671865 135.76747720316052,97.92591015412472 142.4148936169222,100.33914059656672 150.29331306926906,98.998457218986 158.91033434588462,99.53473063046113 159.8951367782429,101.14355037990026 167.28115501441061,103.82491501490586 177.37537993956357,104.09305136674084 182.2993920976296,106.50627763010561 184.2689969604835,104.89746030280367 181.31458966620266,98.998457218986 175.4057750767097,92.83130718348548 169.98936170246452,91.75875826017 168.51215805392712,87.20042173494585 161.86474164109677,80.76511317724362 158.4179331306368,73.52537714759819 153.2477203635499,72.18468367517926 143.39969604741782,76.20676257833838 139.21428571362048,71.64840614469722 136.0136778112501,71.11212853319012 129.61246200557798,74.86607011570595 120.50303951371461,70.57585084158927 115.82522796280682,61.45911772130057 114.34802431613207,61.19097815803252 112.13221884518862,64.14051223848946 115.33282674662769,66.82190473657101 115.08662614040077,71.64840614469722 117.54863221850246,76.4749010100495 121.24164133705199,77.81559286825359 127.88905774988234,72.72096112463623 133.55167173128575,75.938624126371 133.05927051603794,80.22883693920448 129.12006078939885,82.91021732240915 124.19604863226414,91.49062097934075 119.76443768944591,94.17199288238771 120.99544072896242,96.85336276586168 124.93465045560151,98.46218372671865 138.96808510553092,98.19404695066623 143.39969604741782,101.14355037990026 152.75531914830208,99.26659393473528 164.3267477201298,103.82491501490586 182.05319148860872,103.28864224883728 180.32978723477572,95.51267807628028 171.22036474198103,92.02689552144147 167.28115501441061,83.17835524934344 162.84954407345504,81.5695273829624 157.6793313063681,73.52537714759819 151.03191489353776,72.18468367517926 143.15349544025958,75.40234716143459 132.56686930079013,69.23515625833534 133.55167173128575,74.32979298895225 130.59726443700492,75.938624126371 123.94984802417457,72.45282241003588 119.02583586610854,62.79981523239985 111.14741641283035,61.99539678613655 109.17781154997647,52.610501488205045 115.82522796280682,48.85653644311242 117.05623100325465,45.37070821411908 120.01063829753548,50.46537908911705 116.81003039423376,49.124676934909075 113.60942249279469,50.197238699067384 108.68541033472866,47.78397427406162 105.97720364667475,50.733519460074604 107.7006079023704,54.755622593918815 113.60942249279469,53.14678188529797 115.08662614040077,55.2919026685413 111.39361702091992,69.50329521554522 118.28723404183984,76.20676257833838 114.1018237080425,83.71463104360737 119.02583586610854,89.345522003714 121.48784194514155,96.58522586827166 140.445288753137,97.92591015412472 155.70972644351423,101.41168693453074 162.35714285634458,101.14355037990026 173.43617021292448,104.89746030280367 178.85258358716965,101.94795998232439 179.83738601766527,95.78081505489536 172.20516717247665,92.83130718348548 166.7887537991628,93.09944436349906 165.55775076057762,85.05532017489895 161.86474164109677,82.64207937428728 158.91033434588462,74.06165439565666 154.72492401115596,70.30771196563728 152.0167173249647,70.03957306873053 142.66109422501177,74.86607011570595 132.07446808367968,69.50329521554522 133.05927051603794,73.2572384935338 131.08966565318406,74.06165439565666 125.42705167178065,71.11212853319012 120.25683890469372,62.79981523239985 112.13221884518862,61.19097815803252 111.63981762900949,52.610501488205045 118.77963525801897,48.85653644311242 121.98024316132069,49.66095785726793 114.1018237080425,43.493722369894385 111.88601823616773,48.05211484665051 104.99240121524781,50.197238699067384 113.11702127661556,55.2919026685413 115.08662614040077,60.11841970565729 111.39361702091992,66.01748719927855 118.77963525801897,75.938624126371 117.79483282659203,80.22883693920448 114.59422492329031,82.91021732240915 118.77963525801897,87.73669692361727 121.48784194514155,96.04895201302134 128.1352583579719,96.04895201302134 132.07446808367968,98.19404695066623 150.53951367735863,99.26659393473528 166.54255319107324,104.09305136674084 173.68237082008272,105.16559657384641 182.05319148860872,104.62932401080616 183.28419452905655,102.48423294932581 176.3905775072053,93.3675815234892 170.23556230962276,91.75875826017 170.23556230962276,85.05532017489895 166.0501519748941,81.03325126552954 162.11094224918634,80.4969750684686 156.44832826778293,70.30771196563728 153.74012157972902,70.30771196563728 142.66109422501177,75.40234716143459 137.49088145885617,71.3802673490718 132.32066869270056,70.57585084158927 128.62765957415104,73.52537714759819 125.42705167178065,72.45282241003588 117.54863221850246,76.74303942266852 114.59422492329031,81.5695273829624 120.99544072896242,88.8092470576521 120.99544072896242,94.44012996111996 142.16869300883263,97.3896365002729" stroke="#4dd2ff" stroke-linecap="round" stroke-linejoin="round" stroke-width="0.5"><title>2024-01-16 10.2km</title><desc>10569480991</desc></polyline><polyline fill="none" points="80.92987804953009,254.18176433676854 84.38719512242824,257.140255253762 95.25304878130555,254.45071815745905 90.56097561027855,246.11314028990455 80.92987804953009,239.1203180383891 78.95426829438657,231.58957107272 74.50914634205401,231.32061553024687 71.29878048878163,224.32776431785896 67.10060975700617,220.5623772246763 60.43292682990432,221.36924622184597 54.50609756167978,225.40358847239986 51.54268292803317,225.67254446004517 46.6036585373804,220.29342085216194 40.42987804953009,207.11453377315775 26.84756097663194,191.78393047419377 24.13109756167978,197.43205513479188 19.192073171027005,199.58371932292357 17.7103658542037,202.00433998485096 20.17987804953009,204.4249590067193 24.37804878037423,204.1560014183633 27.094512195326388,211.68680622777902 23.63719512242824,217.60385600989684 29.810975610278547,227.55523580964655 27.094512195326388,234.2791253833566 30.79878048878163,242.07882143114693 30.057926829904318,247.18895788211375 38.45426829252392,249.34059209562838 47.59146341495216,248.26477515138686 68.58231707289815,253.105948849814 75.00304878037423,252.56804098538123 93.2774390252307,258.2160695255734 94.75914634205401,255.52653323905542 93.52439024485648,250.1474545917008 81.6707317084074,241.00300229876302 81.91768292710185,234.54808070277795 75.25000000093132,231.32061553024687 68.82926829345524,220.5623772246763 66.11280487850308,219.75550804566592 55.49390243925154,225.9415004281327 51.54268292803317,225.67254446004517 43.393292683176696,219.75550804566592 43.393292683176696,213.5695049490314 39.44207317195833,212.76263419003226 36.97256097570062,207.65244848281145 25.859756098128855,199.31476136972196 22.649390244856477,195.01143137319013 16.96951219625771,199.58371932292357 19.68597561120987,203.88704380975105 24.13109756167978,205.76974664232694 25.859756098128855,210.073063676944 22.649390244856477,219.48655161214992 29.07012195326388,228.90001473692246 26.84756097663194,234.0101700432133 31.045731708407402,241.54091190570034 29.07012195326388,242.07882143114693 29.07012195326388,246.92000351450406 36.97256097570062,246.38209471828304 42.89939024485648,248.80268366402015 47.83841463550925,247.18895788211375 56.234756098128855,250.954316905234 65.86585365887731,250.954316905234 85.37500000093132,255.52653323905542 92.28963414765894,256.60234799725004 95.5,255.25757949892431 92.28963414765894,249.07163788983598 81.6707317084074,240.73404746549204 68.33536585513502,220.29342085216194 65.3719512205571,219.75550804566592 56.481707317754626,224.59672038652934 51.04878048785031,224.59672038652934 46.6036585373804,220.02446445869282 45.36890243925154,214.37637552595697 36.725609756074846,208.45932039618492 31.292682928033173,198.23892935737967 24.871951220557094,191.78393047419377 14.5,199.58371932292357 17.21646341588348,202.27329773525707 22.649390244856477,204.1560014183633 26.353658536449075,211.68680622777902 22.649390244856477,217.8728125852067 28.823170732706785,227.01732409675606 26.60060975700617,228.63105899188668 32.774390243925154,238.85136306332424 31.53963414672762,246.65104912640527 37.46646341495216,245.03732237312943 43.393292683176696,246.38209471828304 50.80182926822454,245.03732237312943 62.408536585979164,250.954316905234 70.06402439065278,252.03013303945772 76.73170731775463,250.6853628209792 86.85670731868595,254.98862573923543 92.78353658597916,256.06444065854885 94.75914634205401,253.64385663392022 92.78353658597916,247.99582086433657 81.91768292710185,240.19613773794845 81.91768292710185,232.93434848147444 74.01524390373379,229.7068818504922 68.33536585513502,218.94863868434913 63.89024390280247,220.02446445869282 55.49390243925154,225.9415004281327 51.2957317084074,221.1002899094019 39.195121951401234,214.37637552595697 29.810975610278547,202.8112131743692 23.63719512242824,200.3905930586625 18.698170731775463,195.54934790707193 15.240853658877313,200.121635167161 18.945121952332556,204.1560014183633 24.871951220557094,207.9214058080688 25.365853659808636,213.5695049490314 22.402439025230706,218.94863868434913 29.317073171027005,226.47941230237484 25.365853659808636,233.74121468351223 31.53963414672762,239.92718284321018 31.045731708407402,248.53372941724956 36.725609756074846,247.18895788211375 43.393292683176696,249.87850044644438 48.0853658542037,249.34059209562838 52.283536585979164,251.49222501320764 65.3719512205571,252.2990870231297 84.88109756074846,257.140255253762 91.54878048878163,256.3333943376783 94.0182926831767,252.2990870231297 92.78353658597916,247.18895788211375 87.35060975700617,242.34777616336942 81.42378048785031,240.73404746549204 79.942073171027,234.8170360024087 74.26219512149692,229.4379261659924 70.31097561027855,222.7140274781268 66.8536585373804,220.83133357740007 63.39634146448225,221.1002899094019 56.97560975700617,227.2862799630966 55.49390243925154,227.01732409675606 50.80182926822454,221.36924622184597 45.61585365887731,220.02446445869282 41.66463414672762,209.26619212771766 30.55182926915586,195.54934790707193 21.661585366353393,195.54934790707193 16.228658537380397,197.16309701977298 14.993902439251542,199.58371932292357 17.95731707289815,203.61808618158102 21.908536585979164,204.96287412196398 25.859756098128855,211.68680622777902 21.167682928033173,216.52802950539626 28.57621951214969,226.47941230237484 27.8353658542037,229.97583751380444 24.871951220557094,234.2791253833566 32.280487805604935,240.19613773794845 32.280487805604935,247.72686655749567 43.887195121496916,247.18895788211375 51.54268292803317,246.38209471828304 58.951219513081014,250.41640871670097 73.27439024485648,249.07163788983598 78.21341463457793,250.41640871670097 82.65853658597916,254.18176433676854 90.31402439065278,255.79548695939593 93.77134146355093,253.64385663392022 91.79573170747608,250.41640871670097 81.17682926915586,242.07882143114693 78.21341463457793,233.74121468351223 72.53353658597916,230.78270438453183 71.05182926915586,223.52089598914608 65.125,220.5623772246763 54.75304878130555,226.47941230237484 51.04878048785031,225.67254446004517 50.30792682990432,221.36924622184597 44.13414634205401,218.1417691402603 39.195121951401234,208.72827766067348 33.51524390280247,204.6939165738877 30.30487804953009,196.6251807298977 25.365853659808636,193.1287228697911 22.649390244856477,196.08726435876451 14.746951220557094,198.7768454044126 18.204268293455243,203.34912853245623 22.896341463550925,204.96287412196398 26.353658536449075,210.073063676944 20.67378048878163,218.67968218959868 28.329268293455243,225.9415004281327 28.57621951214969,229.4379261659924 23.88414634205401,233.4722593028564 31.045731708407402,235.08599128155038 30.79878048878163,245.57523137168027 37.9603658542037,245.84418584103696 47.59146341495216,249.6095462811645 59.9390243915841,253.37490275199525 69.81707317195833,252.56804098538123 83.8932926831767,258.2160695255734 92.53658536542207,256.87130163563415 94.51219512242824,254.18176433676854 93.77134146355093,250.1474545917008 84.88109756074846,241.80986667820252 82.65853658597916,241.54091190570034 80.92987804953009,233.4722593028564 75.25000000093132,229.7068818504922 69.07621951308101,220.29342085216194 66.8536585373804,220.02446445869282 54.50609756167978,226.47941230237484 46.10975609719753,222.44507126742974 44.62804878130555,214.9142891424708 29.07012195326388,195.01143137319013 22.402439025230706,195.81830614316277 15.487804879434407,199.85267725563608 20.67378048878163,202.54225546494126 24.625000000931323,210.34202081873082 21.661585366353393,219.217595157912 29.810975610278547,227.01732409675606 29.5640243915841,229.16897046100348 24.37804878037423,233.4722593028564 31.292682928033173,241.80986667820252 31.292682928033173,247.99582086433657 52.53048780653626,250.1474545917008 68.58231707289815,252.56804098538123 73.0274390252307,254.45071815745905 78.70731707382947,254.45071815745905 81.91768292710185,256.3333943376783 91.54878048878163,256.3333943376783 94.0182926831767,252.83699492784217 92.78353658597916,248.80268366402015 85.86890244018286,242.34777616336942 80.92987804953009,240.73404746549204 82.41158536728472,234.2791253833566 74.26219512149692,229.7068818504922 71.54573170747608,223.25193983898498 68.08841463457793,220.02446445869282 65.3719512205571,220.02446445869282 56.728658536449075,225.9415004281327 51.2957317084074,224.86567643564194 46.6036585373804,218.94863868434913 45.36890243925154,214.37637552595697 39.195121951401234,208.19036311237141 32.03353658504784,196.08726435876451 29.810975610278547,195.01143137319013 20.42682926915586,198.23892935737967 16.96951219625771,197.96997130312957 15.734756098128855,200.3905930586625 23.14329268410802,205.76974664232694 22.402439025230706,218.94863868434913 30.30487804953009,227.2862799630966 26.84756097663194,234.0101700432133 31.045731708407402,238.85136306332424 30.79878048878163,247.99582086433657 34.75000000093132,246.65104912640527 41.66463414672762,249.34059209562838 46.850609756074846,248.26477515138686 55.740853659808636,251.49222501320764 61.17378048878163,250.6853628209792 74.26219512149692,253.37490275199525 85.12804878130555,257.9471159875393 89.07926829252392,255.79548695939593 92.78353658597916,256.3333943376783 95.5,254.71967195835896 87.35060975700617,242.34777616336942 81.42378048785031,241.27195711270906 81.17682926915586,234.54808070277795 78.4603658542037,231.58957107272 75.49695121962577,230.78270438453183 72.53353658597916,224.0588082286995 68.58231707289815,220.29342085216194 61.42073170747608,221.90715878480114 55.49390243925154,225.9415004281327 45.86280487943441,221.1002899094019 43.887195121496916,211.41784918657504 39.44207317195833,207.65244848281145 29.810975610278547,193.66663968679495 26.353658536449075,192.3218474930618 24.625000000931323,196.3562225550413 20.67378048878163,198.5078873904422 16.72256097663194,197.96997130312957 15.734756098128855,199.58371932292357 18.451219514012337,203.080170863308 21.414634147658944,201.7353822151199 25.612804878503084,205.50078915595077 25.612804878503084,210.8799350433983 22.649390244856477,218.67968218959868 29.317073171027005,225.67254446004517 28.329268293455243,229.4379261659924 25.118902439251542,231.32061553024687 31.786585366353393,239.65822792891413 30.30487804953009,246.65104912640527 38.45426829252392,246.65104912640527 45.12195121962577,250.954316905234 53.76524390280247,249.6095462811645 60.185975609347224,252.2990870231297 70.55792682990432,252.2990870231297 84.63414634298533,257.140255253762 92.28963414765894,256.87130163563415 95.5,254.18176433676854 85.86890244018286,241.80986667820252 82.16463414672762,242.34777616336942 81.42378048785031,235.08599128155038 73.52134146448225,229.7068818504922 70.06402439065278,221.6382025135681 64.13719512335956,219.48655161214992 55.0,226.21045637549832 51.2957317084074,223.25193983898498 47.59146341495216,223.52089598914608 39.68902438972145,207.38349113776349 31.786585366353393,200.92850878229365 30.057926829904318,196.89413888542913 23.390243902802467,194.47351476014592 20.17987804953009,195.28038965025917 16.228658537380397,199.04580339766107 21.661585366353393,201.46642442396842 24.13109756167978,204.4249590067193 24.871951220557094,210.8799350433983 21.908536585979164,219.48655161214992 28.329268293455243,228.63105899188668 25.612804878503084,234.54808070277795 31.786585366353393,241.27195711270906 30.057926829904318,246.92000351450406 35.243902440182865,247.72686655749567" stroke="#4dd2ff" stroke-linecap="round" stroke-linejoin="round" stroke-width="0.5"><title>2023-10-24 10.2km</title><desc>10096212910</desc></polyline></svg>