<?xml version="1.0" encoding="utf-8" ?>
<svg baseProfile="full" height="300mm" version="1.1" viewBox="0,0,200,300" width="200mm" xmlns="http://www.w3.org/2000/svg" xmlns:ev="http://www.w3.org/2001/xml-events" xmlns:xlink="http://www.w3.org/1999/xlink"><defs /><rect fill="#222222" height="300" width="200" x="0" y="0" /><text fill="#FFFFFF" style="font-size:12px; font-family:Arial; font-weight:bold;" x="10" y="20">Over 10km Runs</text><text fill="#FFFFFF" style="font-size:4px; font-family:Arial" x="10" y="280">ATHLETE</text><text fill="#FFFFFF" style="font-size:9px; font-family:Arial" x="10" y="290">wzso</text><text fill="#FFFFFF" style="font-size:4px; font-family:Arial" x="120" y="280">STATISTICS</text><text fill="#FFFFFF" style="font-size:3px; font-family:Arial" x="120" y="285">Number: 4</text><text fill="#FFFFFF" style="font-size:3px; font-family:Arial" x="120" y="290">Weekly: 1.0</text><text fill="#FFFFFF" style="font-size:3px; font-family:Arial" x="141" y="285">Total: 47.1 km</text><text fill="#FFFFFF" style="font-size:3px; font-family:Arial" x="141" y="290">Avg: 11.8 km</text><text fill="#FFFFFF" style="font-size:3px; font-family:Arial" x="167" y="285">Min: 10.0 km</text><text fill="#FFFFFF" style="font-size:3px; font-family:Arial" x="167" y="290">Max: 16.7 km</text><polyline fill="none" points="76.19087050465168,115.34719381913601 76.22602748603094,115.46179846324958 76.05024257930927,115.42359692086757 76.12055654195137,115.5 76.12055654195137,115.4044961475447 76.17329201399116,115.42359692086757 76.5248618274345,114.73596818881924 76.91158862225711,113.58991622058966 77.2983154169633,112.97868641810783 77.54441428638529,112.3292531628249 77.66746372112539,111.90903077175608 77.75535617442802,111.12588721243083 78.91553655877942,107.64946508976573 78.96827203081921,107.30564057031006 78.93311504943995,107.03822118205426 78.65185919869691,106.73259868394234 77.84324862778885,106.4842801369814 74.94279766693944,105.96854085096857 73.06189916515723,105.49100355365954 72.7279078423162,105.54830807610415 72.534544444934,105.2808868621214 72.55212293565273,104.80334828906052 72.18297463149065,104.65053575858474 72.14781765022781,104.51682471991808 71.567727458023,104.40221520299383 70.72395990579389,104.36401201934495 68.68485498789232,103.81006521904783 68.56180555315223,103.73365867030225 68.56180555315223,103.52354054426542 68.47391309979139,103.44713391040568 67.52467460354092,103.19881219381932 67.067633846018,102.98869363113772 66.89184893941274,102.74037147228955 66.874270448694,102.41564213378297 67.7004595103208,99.76048687795992 68.19265724910656,98.57616418886755 68.9309538572561,96.41762655934144 69.3176806520205,95.59623137842573 69.6340934841428,94.52650349128817 71.04037273785798,90.6296000108996 71.19857915391913,90.41947118556709 71.77866934606573,89.17779735114891 74.92521917633712,83.56153623855789 76.8412746594986,80.23756884881004 76.99948107555974,79.81729405153601 77.21042296366068,79.53074265969917 78.45849580131471,77.00907664820261 80.79643506067805,71.4307579480228 80.67338562599616,71.33523773870547 80.30423732183408,71.31613369259867 80.04055996169336,71.33523773870547 79.81203958304832,71.44986198564584 79.51320524164476,71.37344582668447 79.09132146544289,71.35434178337164 78.54638825467555,71.44986198564584 76.12055654195137,71.41165390897368 74.9076406856766,71.50717408991477 74.52091389085399,71.29702964503667 74.27481502149021,71.25882154570718 73.1673701092368,71.29702964503667 72.67517237033462,71.4307579480228 72.534544444934,71.39254986855667 72.28844557557022,71.4880700565991 71.91929727146635,71.44986198564584 70.89974481251556,71.77463040790462 68.63211951585254,71.64090228371788 68.59696253453149,70.97226061970287 68.01687234232668,70.72390755894594 67.52467460354092,70.66659528011223 67.08521233673673,70.51376247408916 65.5207266669604,70.13168006170599 64.64180213341024,69.84511787997326 64.34296779200668,69.67318041762337 63.921084015863016,69.53945120083517 63.270679861016106,69.40572191450337 62.69058966886951,69.11915892391698 61.88197909796145,68.94722097628983 61.61830173787894,69.00453363824636 61.31946739641717,68.96632519835839 59.0869990811334,68.2403637617681 58.92879266513046,68.06842522669467 58.78816473972984,68.01111235610733 58.36628096358618,67.93469517547055 57.29399303259561,67.57171325734816 57.10062963521341,67.4188786122686 56.92484472854994,67.4188786122686 56.48538246174576,67.17052212027193 56.16896962968167,67.18962647431181 54.99121075461153,66.84574788427562 54.53416999720503,66.78843474123278 53.69040244491771,66.84574788427562 51.21183526027016,66.635599630652 48.78600354754599,66.61649523541564 47.95981448603561,66.635599630652 46.81721259234473,66.52097323814814 45.393354847910814,66.52097323814814 43.899183140776586,66.46366002269497 43.61792729003355,66.38724238231953 43.44214238337008,66.44455561472569 42.38743294309825,66.38724238231953 41.47335142811062,66.46366002269497 41.174517086707056,66.29172029979236 41.10420312406495,66.23440703332017 41.209674068086315,65.37470650294563 41.209674068086315,64.6678394695191 41.10420312406495,64.13291177431529 41.06904614268569,62.7382736227155 41.31514501204947,61.63019956240896 41.631557844171766,60.674959471289185 41.77218576951418,60.52212072740076 42.176491054997314,58.66894372955721 42.00070614833385,58.51610379340127 41.93039218557533,58.286843718757154 41.631557844171766,57.82832295628032 41.139360105386004,56.662912338244496 41.01631067064591,55.99423172995739 40.77021180122392,55.84139020387374 40.01433670235565,55.975126544130035 39.85613028635271,55.9560213569639 39.065098206105176,55.84139020387374 37.99281027511461,55.516601659328444 37.535769517649896,55.32554938264366 36.955679325561505,54.92433913957211 36.463481586717535,54.446707081471686 36.199804226635024,54.121916775169666 35.56697856244864,53.70159929918009 35.0923593143234,53.56786177637696 34.8286819542991,53.606072504248004 34.45953365013702,53.816231406250154 34.00249289267231,53.79712605859095 33.598187607189175,53.54875641025137 32.789577036339324,52.82275144718005 31.857917030749377,52.134955380519386 31.471190235984977,51.96300607637386 31.11962042254163,51.92479510427802 30.5922657023184,52.230482722006855 30.11764645425137,51.98211156031175 29.20356493932195,51.275207709753886 29.344192864664365,51.04594117862871 29.537556262046564,50.912202274412266 29.748498150147498,50.854885579872644 29.97701852885075,50.549196326566744 30.50437324901577,50.10976738810132 30.750472118379548,49.97602799690503 31.40087627322646,49.86139417759841 31.54150419862708,49.76586595582194 31.734867596067488,49.536598078746465 31.89307401201222,49.03985031034972 32.297379297495354,48.63863025822502 32.35011476953514,47.7788708951266 32.4555857135565,47.358543048932916 32.6489491109387,47.11016718040628 33.123568359122146,46.84268520747719 33.29935326578561,46.57520295622817 33.3520887378254,46.078449465552694 33.19388232170604,45.27599949132127 33.2290393030853,44.970303604131914 33.475138172565494,44.72192542812263 33.68608006060822,44.301592583578895 34.125542327412404,42.849528377555544 34.35406270605745,42.60114815236011 34.740789500880055,42.37187388536404 35.391193655726966,41.30192460183753 35.37361516506644,40.46124704043905 35.44392912776675,40.2319708646246 35.76034195983084,40.021800857182825 35.9888623385923,39.60146032675402 36.041597810573876,39.20022554280877 36.32285366137512,38.60792543129355 36.393167624017224,38.26400861114962 36.393167624017224,37.72902597623761 36.23496120801428,37.23225538965198 36.2525396986166,37.117615887123975 36.42832460539648,36.88833672873443 37.25451366690686,36.52531097634346 37.64124046172947,36.200498026330024 37.658818952331785,35.187843253384926 38.221330653876066,34.86302861312288 38.73110688338056,34.84392185678007 38.92447028076276,34.72928128899366 39.24088311288506,34.6910677550477 39.73308085167082,34.51910678188142 39.90886575833429,34.5 40.31317104381742,35.24516344141739 40.717476329242345,35.60819100200024 41.03388916136464,35.799257933176705 41.61397935345303,35.89479134553403 42.053441620315425,35.722831177772605 42.21164803637657,35.569977598730475 42.58079634048045,35.64640439960931 42.510482377780136,36.21960468184261 42.89720917260274,36.60173749313981 43.56519181811018,36.73548384287278 44.11012502893573,36.7163772257627 44.51443031436065,36.792803685733816 45.78008164273342,36.73548384287278 45.79766013339395,36.81191029716865 45.692189189372584,38.13026305680978 45.51640428265091,38.856309515220346 45.463668810611125,39.94537535736163 45.25272692251019,41.03443658510514 44.83084314642474,40.88158616475994 44.39138087967876,40.53767238688306 44.039811066235416,40.117332700043335 43.670662762073334,39.92626897880109 43.477299364691135,39.92626897880109 42.84447370056296,40.079119967194856 41.895235204312485,39.98358811010257 41.03388916136464,40.079119967194856 40.54169142257888,39.94537535736163 40.38348500651773,39.73520511553215 40.647162366542034,39.31486411642982 41.403037465468515,38.95184179121861 41.59640086290892,38.722564269046416 41.8424997322727,38.703457799652824 41.86007822287502,38.53149951106752 41.59640086290892,38.45507356802409 41.36788048414746,38.87541597323434 40.66474085720256,39.29575769107032 40.453798969159834,39.48682188094244 40.01433670235565,40.59499138184765 39.69792387034977,40.93890508307959 39.52213896356989,41.47388103707635 38.994784243404865,42.12349319861096 38.836577827401925,42.54382960480871 38.80142084608087,43.05969607298903 38.90689179004403,43.36539423224167 39.04751971544465,43.55645539716352 39.5924529262702,43.67109202798747 39.785816323710606,43.78572860767599 40.04949368373491,44.95119759913359 39.92644424905302,45.02762161065766 39.53971745428862,44.95119759913359 39.29361858480843,45.02762161065766 39.258461603545584,45.658118839070085 39.50456047285115,45.79186047660187 40.20770009973785,45.81096641912882 40.34832802513847,45.92560204453184 40.453798969159834,46.212190884383745 40.80536878260318,46.55609707052645 41.12178161466727,46.70894411666086 41.27998803072842,46.61341472349886 41.403037465468515,46.67073236366559 41.80734275089344,47.45407216523017 42.58079634048045,48.313832614556304 42.77415973780444,48.94432178325951 42.91478766314685,50.31992914802686 43.54761332744965,50.740252152478206 43.5827703087125,51.084152281386196 43.86402615951374,51.65731814055471 43.86402615951374,51.791056657239096 43.63550578075228,52.03942800355435 43.45972087403061,52.440642748435494 43.477299364691135,52.574380857578944 43.17846502328757,53.24307035989477 43.072994079208,53.75891535912524 42.65111030312255,54.6568652963615 41.8424997322727,55.34465461669606 41.086624633404426,55.78407460816379 40.99873217998538,55.9560213569639 41.70187180687208,57.90474314014136 41.983127657615114,58.363263766339514 41.7194502975326,59.24209268120467 41.73702878825134,59.96807951935625 41.68429331621155,60.369281892693834 41.15693859598832,62.05050407836097 40.910839726624545,64.41948032082291 40.752633310621604,64.85888480528956 40.85810425458476,65.26007954840316 40.73505481996108,65.92873606285139 40.945996707945596,66.50186883444258 41.19209557742579,66.635599630652 41.87765671359375,66.65470402444771 42.15891256433679,66.80753912361979 44.02223257551668,66.94126976099506 44.162860500917304,67.11320904959575 44.37380238896003,67.0750003287394 44.67263673036359,67.132313407943 44.971471071767155,67.01768723678833 46.922683536307886,67.03679160217871 50.94815790018765,67.18962647431181 53.02241979946848,67.20873082698381 53.18062621547142,67.24693952796224 53.37398961285362,67.4188786122686 53.725559426355176,67.43798294785665 54.7099549039267,67.38066993678513 54.95605377329048,67.45708728207683 55.13183868001215,67.6099219044554 55.16699566139141,67.55260893169907 55.78224283485906,67.95379947272886 56.67874585912796,68.0302166476904 56.85453076584963,68.16394664927793 57.11820812593214,68.10663379998005 57.54009190201759,68.27857230951486 57.698298318020534,68.2403637617681 59.42099040391622,68.58424048715096 61.60072324721841,69.21467995623243 61.98745004204102,69.4439302890969 62.40933381812647,69.57765955557988 63.93866250658175,69.90243034184095 64.65938062407076,70.16988832851348 65.08126440021442,70.26540897059022 65.34494176029693,70.4373460370116 66.18870931252604,70.68569937448774 66.66332856065128,70.74301164908684 67.4543606408406,71.12509315332863 67.893822907703,71.25882154570718 68.06960781430826,71.92746246470779 67.9641368703451,72.80624502911814 67.91140139830532,74.10530940738681 67.80593045428395,74.3154515579954 67.82350894494448,74.65932016138686 67.71803800098132,75.25153723404219 67.52467460354092,75.86285665309697 67.1906832808163,76.5314856042969 65.67893308302155,78.97674239714979 65.27462779753841,80.02743153598567 64.58906666142866,81.7085252324905 62.883953066251706,85.54825486287882 61.671037209860515,88.66202338154835 61.249153433775064,89.57895416821702 60.9503190923715,90.49588168734044 59.561618329258636,93.68599988898495 58.717850777029525,95.99737818968424 57.90924020612147,97.90759252216958 58.067446622182615,98.11771523316565 58.03228964091977,98.57616418886755 58.172917566262186,98.78628635397763 59.45614738523727,99.49305965035455 61.020633055013604,100.46725749898178 61.31946739641717,100.60097064137517 63.3937292957562,101.89989469526336 63.815613071783446,102.09091238559631 64.13202590390574,102.30103168117057 64.41328175464878,102.5684559911897 64.65938062407076,102.72126975782157 64.88790100283222,103.00779532578599 64.99337194685359,103.02689701894997 65.5207266669604,103.4089305850066 65.907453461783,103.42803224839736 66.57543610723224,103.69545538742386 67.05005535541568,103.75276030958048 68.91337536659557,104.19209762265382 71.19857915391913,104.86065296462039 72.20055312220939,105.10897307792038 72.35875953827053,105.08987153921044 72.58727991697378,105.22358228013036 72.6575938797323,105.45280053159513 72.64001538901357,105.739323058835 72.16539614083013,107.114626749928 71.77866934606573,108.50902437925106 71.44467802334111,109.13936603402544 71.40952104202006,109.50228931689344 70.91732330317609,110.32364012033213 70.75911688711494,110.9348762268055 70.31965462036896,111.7944245460094 70.05597726028645,112.53936410117603 69.95050631626509,112.61576803625212 69.75714291888289,112.59666705460404 68.80790442257421,112.25284914273652 67.55983158486197,111.92813180437952 66.83911346737295,111.64161616568163 66.6809070513118,111.66071721818298 66.71606403269107,111.92813180437952 66.6105930886115,112.08094001466816 66.6809070513118,112.27195014992321" stroke="#4dd2ff" stroke-linecap="round" stroke-linejoin="round" stroke-width="0.5"><title>2024-11-23 16.7km</title><desc>12962933938</desc></polyline><polyline fill="none" points="154.29618786508217,42.67718921368942 154.65032835537568,43.15819873812143 154.4732581106946,43.639208083972335 152.25988004729152,46.621462045935914 151.37452882202342,47.67967954510823 150.84331808658317,51.527735898504034 150.04650198388845,53.836564229335636 149.3382210037671,55.08717785892077 148.0987292882055,56.62639297824353 146.15095659298822,60.282021563733 145.08853512257338,61.72503001103178 144.20318389730528,62.59083430841565 143.67197316186503,63.649038775707595 143.22929754899815,66.054045717814 141.01591948606074,69.13244809524622 140.7503141183406,72.40324261493515 139.33375215809792,77.88661491964012 138.80254142312333,82.98516836715862 138.44840093282983,83.9471573359333 137.82865507528186,84.62054918950889 137.56304970756173,88.27609886531718 136.766233604867,90.77725849649869 136.50062823714688,93.56700777914375 136.05795262428,95.49096930562519 135.6152770118788,97.89591720036697 135.79234725702554,100.30086063535418 135.34967164415866,103.57157655106857 134.55285554146394,106.93848137848545 132.605082845781,109.7281959002139 133.1362935807556,113.09508474636823 132.07387211034074,115.5 132.7821530913934,114.05705138284247 132.87068821350113,111.45973982696887 133.66750431619585,109.92058978392743 134.37578529678285,109.05481708224397 134.64139066403732,106.84228421887383 134.99553115433082,105.01453683304135 135.70381213445216,103.09058943367563 135.88088237959892,101.93621962412726 135.70381213445216,98.66549958451651 135.88088237959892,96.64534485153854 136.23502286942676,94.81758309598081 136.766233604867,93.9518003128469 137.03183897258714,90.96965519152582 137.47451458498836,89.23808390973136 138.00572531996295,87.6989074961748 138.27133068768308,85.77493441093247 139.68789264839143,80.96498921012972 140.48470875062048,76.25122560595628 141.547130221501,73.55763871094678 141.9012707117945,69.13244809524622 143.58343803929165,66.1502459027106 143.7605082844384,65.38064422365278 144.64585951017216,64.51484178868122 146.23949171509594,61.72503001103178 146.85923757310957,60.282021563733 146.77070245007053,59.70481773559004 148.89554539136589,56.145388449775055 149.16115075862035,55.08717785892077 150.7547829640098,53.45175979309715 151.1089234543033,52.00874213979114 152.25988004729152,50.661924214684404 152.79109078180045,49.122702015796676 153.49937176285312,48.16068721364718 154.29618786508217,46.42905877146404 154.38472298765555,45.3708402516786 155.18153909081593,43.92781360598747 156.42103080591187,40.079734699218534 157.30638203164563,38.25189321814105 158.19173325644806,37.09746569197159 158.28026837902144,36.231644372688606 157.92612788872793,36.231644372688606 157.5719873989001,36.7126562880585 157.30638203164563,37.67467958340421 155.27007421292365,41.33036159654148 154.5617932328023,43.639208083972335 153.58790688496083,45.56324368319474 152.52548541454598,48.54549322021194 151.37452882202342,50.373320191632956 150.04650198388845,53.1631563907722 148.452869778499,55.56818277994171 147.6560536758043,57.203598176827654 147.39044830808416,58.261807040311396 144.82292975485325,61.24402737338096 143.93757852958515,64.99584321293514 143.05222730431706,66.53504657116719 142.07834095647559,67.40084765711799 141.01591948606074,69.61344780679792 140.6617789962329,73.07664046238642 139.51082240324467,76.25122560595628 139.51082240324467,77.11702020524535 139.15668191295117,77.88661491964012 138.35986581025645,81.63838261202909 138.80254142312333,83.46616294060368 137.74011995270848,85.29394069360569 137.38597946241498,88.5646944536129 136.05795262428,92.41262949351221 135.79234725702554,95.8757612684276 135.26113652205095,97.31873011216521 135.1726013990119,103.09058943367563 134.81846090964973,105.11073412804399 134.02164480648935,107.13087567605544 133.49043407151476,107.61186129518319 133.1362935807556,108.9586200795602 133.22482870379463,110.0167867152486 131.71973162097856,111.5559366439702 131.54266137536615,111.94072384072933 131.45412625325844,113.5760681538377 131.89680186565965,114.44183783768676 132.25094235595316,114.2494446245255 133.49043407151476,112.03692062222399 134.1987150516361,107.61186129518319 135.0840662769042,104.14876085624564 136.05795262428,101.26283676095773 135.79234725702554,97.70352153258864 136.23502286942676,95.49096930562519 136.50062823714688,94.24039463803638 137.03183897258714,93.27841330401134 137.38597946241498,90.77725849649869 138.44840093282983,86.64072265243158 138.80254142312333,85.96733184775803 139.24521703552455,83.17756621784065 139.68789264839143,82.21557667828165 140.04203313821927,77.88661491964012 141.28152485378087,73.94243718124926 142.69808681402355,67.49704774213023 145.26560536725447,63.36043764313217 148.27579953335226,56.43399118806701 149.5152912484482,54.125167481717654 149.69236149359494,53.1631563907722 151.5515990667045,51.04672947875224 152.25988004729152,49.50750773679465 153.05669614998624,46.910066904034466 154.9159337230958,43.543006229097955 156.24396056076512,39.694926180527546 158.19173325644806,35.84683471196331 158.01466301176697,35.173417530953884 158.28026837902144,35.654429838992655 158.19173325644806,36.03923955664504 157.1293117860332,37.86708415695466 154.73886347794905,43.25440062163398 154.4732581106946,44.31262086867355 153.3223015172407,46.42905877146404 153.1452312725596,47.775881093228236 149.8694317387417,53.836564229335636 147.2133780629374,58.165606270194985 146.68216732796282,59.99341968179215 145.08853512257338,62.30223293998279 143.7605082844384,64.51484178868122 143.4063677941449,66.1502459027106 141.9012707117945,68.07424810237717 140.6617789962329,71.24884549109265 140.21910338336602,72.5956420354778 140.13056826079264,75.28923092852347 139.51082240324467,76.4436244557146 138.7140063000843,79.90679887181614 138.1827955651097,80.86879012407735 137.91719019738957,82.02317868487444 138.09426044253632,82.98516836715862 137.65158482966945,85.87113313283771 136.58916336018592,89.14188543753698 136.58916336018592,90.00767143152189 136.05795262428,92.02783650334459 135.70381213445216,95.00997919158544 135.0840662769042,97.51112583687063 135.0840662769042,100.58945354784373 134.55285554146394,102.03241714765318 134.55285554146394,103.18678687140346 134.02164480648935,104.91833953093737 133.93310968391597,106.7460870523937 133.49043407151476,108.76622605323792 133.66750431619585,109.4396050212672 133.22482870379463,113.5760681538377 132.16240723337978,115.115213858895 132.51654772320762,114.82662417856045 132.69361796835437,113.67226481391117 132.07387211034074,111.36354300286621 132.16240723337978,110.78636190795805 134.55285554146394,106.5536926977802 135.0840662769042,104.24495821562596 136.23502286942676,101.74382455612067 136.14648774685338,96.35675106127746 137.12037409469485,93.75940406031441 137.03183897258714,92.22023301245645 137.20890921726823,90.96965519152582 137.65158482966945,89.71907616429962 137.74011995270848,87.41031171544455 139.24521703552455,82.69657153740991 141.6356653436087,71.34504529065453 141.9012707117945,68.45904819970019 142.16687607904896,67.88184801093303 142.96369218127802,67.01604724582285 144.1146487747319,65.09204347617924 146.59363220538944,59.512416402227245 148.18726441077888,56.91499560966622 149.78089661616832,53.74036313116085 152.17134492471814,50.373320191632956 152.61402053711936,49.122702015796676 153.6764420075342,47.3910748581402 155.0930039677769,43.543006229097955 155.8012849483639,40.75314933247864 158.19173325644806,35.269620006904006 158.19173325644806,34.5 158.01466301176697,34.59620252577588 157.66052252147347,35.36582247551996 157.1293117860332,37.57847728615161 154.9159337230958,41.42656361556146 154.20765274297446,43.92781360598747 153.49937176285312,44.601226240512915 153.1452312725596,46.23665546870325 152.08280980214477,48.353090231190436 151.5515990667045,49.89231334347278 151.1089234543033,50.46952153975144 150.66624784190208,51.527735898504034 148.62994002364576,53.64416202553548 147.92165904305875,56.145388449775055 147.47898343065754,56.818794739665464 146.68216732796282,57.29979901819024 146.50509708281606,58.069405493093655 144.291719019413,61.24402737338096 143.67197316186503,62.78323518484831 141.28152485378087,65.95784552581608 141.10445460863411,68.55524820636492 141.37005997588858,69.70964772766456 141.10445460863411,71.15264568442944 139.68789264839143,75.38543042831589 139.06814679084346,79.52200217125937 138.00572531996295,83.75475959922187 137.47451458498836,88.27609886531718 136.766233604867,89.91147301613819 136.05795262428,93.18221513135359 135.5267418893054,94.14419653674122 135.34967164415866,95.97195924131665 135.5267418893054,96.74154276726767 135.0840662769042,98.28070844954345 135.5267418893054,100.20466298353858 135.26113652205095,101.5514294593595 135.34967164415866,102.70579961140174 134.81846090964973,104.05256349011324 134.64139066403732,106.36129831441212 134.11017992859706,107.22707281424664 134.02164480648935,108.47763496020343 133.49043407151476,109.15101407770999 133.40189894847572,111.45973982696887 133.04775845864788,112.13311739638448 132.69361796835437,114.05705138284247 131.89680186565965,115.30760694376659 131.89680186565965,114.82662417856045 132.25094235595316,114.34564123477321 132.33947747852653,113.28747813066002 132.7821530913934,112.03692062222399 132.7821530913934,110.6901650337968 134.02164480648935,109.15101407770999 134.90699603129178,106.45749550964683 135.88088237959892,102.70579961140174 136.3235579924658,100.20466298353858 136.4120931145735,98.18451064790133 137.03183897258714,94.9137811473338 137.29744434030727,90.48866340052336 138.97961166780442,83.75475959922187 138.80254142312333,82.50417361501604 139.51082240324467,80.77259103104006 140.21910338336602,78.17521281982772 140.39617362851277,76.4436244557146 141.01591948606074,73.94243718124926 141.01591948606074,72.69184173538815 141.81273558875546,69.22864805196878 142.60955169191584,67.30464756500442 143.7605082844384,66.1502459027106 145.0,63.649038775707595 145.26560536725447,62.78323518484831 146.15095659298822,61.72503001103178 146.85923757310957,60.474422782775946 147.2133780629374,59.03141294431407 147.1248429408297,58.55040930781979 147.39044830808416,57.877003917237744 149.07261563604698,55.471981810056604 149.95796686131507,53.64416202553548 152.43695029243827,50.373320191632956 153.85351225268096,44.88983154820744 154.5617932328023,43.25440062163398 155.4471444580704,42.29238146590069 155.97835519351065,40.75314933247864 157.04077666345984,38.63670216500759 157.30638203164563,37.09746569197159 158.10319813387468,35.75063227897044 158.10319813387468,34.88481006049551 157.5719873989001,35.36582247551996 157.04077666345984,37.38607266964391 154.4732581106946,42.00377557997126 153.6764420075342,44.02401543234009 153.3223015172407,45.948050460545346 152.25988004729152,48.64169470395427 151.1089234543033,50.758125541498885 151.1089234543033,52.00874213979114 150.04650198388845,52.9707540870877 148.36433465592563,56.43399118806701 145.70828098012134,60.18582094355952 145.44267561240122,61.24402737338096 145.0,61.91743101575412 143.93757852958515,64.3224411692936 143.05222730431706,65.66924490698148 142.5210165688768,66.1502459027106 141.9898058339022,66.91984712530393 140.92738436348736,69.03624813177157 140.57324387365952,72.49944232869893 139.68789264839143,74.90443285764195 139.68789264839143,75.38543042831589 138.27133068768308,81.25358642498031 138.09426044253632,82.60037257999647 138.1827955651097,83.75475959922187 137.47451458498836,85.87113313283771 137.03183897258714,89.43048083304893 136.05795262428,91.93163823802024 136.14648774685338,93.37461146968417 135.70381213445216,94.9137811473338 134.64139066403732,97.89591720036697 134.90699603129178,99.43508151255082 134.37578529678285,101.93621962412726 134.37578529678285,103.09058943367563 134.02164480648935,103.86016873584595 133.66750431619585,106.16890390275512 133.22482870379463,107.32326994510368 133.22482870379463,108.9586200795602 133.57896919362247,109.92058978392743 133.22482870379463,111.17114933300763 131.98533698823303,112.80649461620487 131.54266137536615,115.115213858895 131.80826674308628,115.21141040499788 132.25094235595316,115.21141040499788 132.605082845781,114.63423102232628 132.7821530913934,112.13311739638448 133.313363826368,110.97875563486014 133.313363826368,110.30537746613845 133.93310968391597,109.53580198786221 134.46432041889057,108.09284673596267 134.81846090964973,107.0346785307629 134.90699603129178,105.59172049642075 136.05795262428,102.51340465724934 136.14648774685338,101.45523190044332 135.6152770118788,99.14648834301624 135.79234725702554,97.22253223927692 136.58916336018592,94.33659273234662 136.766233604867,92.12403476145118 137.47451458498836,89.91147301613819 138.5369360554032,84.81294679781422 139.15668191295117,83.5623618341051 139.15668191295117,82.50417361501604 139.68789264839143,80.77259103104006 140.7503141183406,74.42343510861974 140.83884924137965,72.1146434302209 141.6356653436087,69.99824744754005 143.31783267203718,67.11224735924043 143.58343803929165,65.66924490698148 144.64585951017216,64.22624084865674 145.0,63.16803685214836 146.59363220538944,61.43642845004797 147.03630781779066,59.320015040342696 147.744588797912,58.64661004929803 148.452869778499,56.91499560966622 149.24968588072807,55.95298658835236 149.69236149359494,54.50997171853669 150.2235722290352,54.028966404963285 151.02038833172992,52.68215057789348 151.4630639445968,51.335333352093585 152.17134492471814,50.27711883618031 152.7025556601584,48.73789618071169 153.3223015172407,48.06448569428176 153.6764420075342,46.621462045935914 154.29618786508217,45.75564708607271 154.82739860005677,43.831611772300676 155.97835519351065,42.09997754916549 156.50956592848524,39.98353258008137 156.50956592848524,39.117713188170455 158.54587374674156,35.173417530953884 158.28026837902144,34.88481006049551 157.83759276615456,35.173417530953884 157.04077666345984,36.905061004450545 156.7751712957397,37.96328643290326 155.71274982579052,39.40631971647963 154.38472298765555,42.58098728756886 154.0305824978277,42.58098728756886 153.76497713010758,42.00377557997126 153.58790688496083,41.9075736036757 153.1452312725596,42.29238146590069 153.1452312725596,42.58098728756886 153.76497713010758,42.86959304497577 154.20765274297446,42.58098728756886 154.38472298765555,41.42656361556146" stroke="#4dd2ff" stroke-linecap="round" stroke-linejoin="round" stroke-width="0.5"><title>2024-08-13 10.0km</title><desc>12136939266</desc></polyline><polyline fill="none" points="76.54255319107324,241.75875826017 79.25075987819582,249.53473063046113 87.37537993956357,254.36118769855238 91.31458966620266,254.62932401080616 92.2993920976296,250.07100396114402 90.57598784100264,246.04895201302134 83.68237082008272,240.14993427111767 79.49696048535407,240.41807165322825 79.74316109437495,233.71463104360737 73.83434650395066,231.8376654109452 70.14133738540113,224.5979315622244 63.49392097257078,218.96701728133485 59.80091185308993,220.03957306873053 52.16869300883263,224.86607011570595 46.5060790264979,221.11212853319012 42.8130699088797,221.11212853319012 40.104863221757114,224.86607011570595 29.272036474198103,220.57585084158927 30.256838904693723,212.26353628886864 33.21124619990587,208.77772118500434 22.870820668525994,201.2698001402896 28.287234041839838,198.85653644311242 31.980243161320686,199.39281740551814 28.041033434681594,196.7114117827732 21.147416412830353,196.97955243615434 15.238601824268699,199.66095785726793 14.746200607158244,201.53794045047835 20.90121580567211,204.21934243873693 22.37841945234686,206.0963226291351 23.11702127661556,210.38655934855342 19.6702127661556,218.96701728133485 27.30243161134422,228.62000774010085 24.101823708042502,233.9827689100057 30.99544072896242,241.75875826017 31.734042552299798,246.85336276586168 40.84346504509449,245.51267807628028 51.92249240074307,248.7303204832133 71.6185410330072,253.020505835535 81.95896656438708,254.09305136674084 87.12917933054268,252.48423294932581 90.32978723477572,254.36118769855238 91.56079027336091,252.48423294932581 91.06838905718178,250.60727721103467 79.25075987819582,241.49062097934075 79.98936170246452,233.9827689100057 77.52735562250018,232.10580341913737 72.11094224918634,231.30138933449052 70.63373860158026,225.67048565344885 67.925531915389,222.98909981921315 61.52431610971689,222.18468367517926 52.4148936169222,226.4749010100495 46.75227963551879,221.64840614469722 42.074468083679676,221.9165449196007 40.597264437004924,225.13420864846557 32.22644376847893,220.84398969751783 30.50303951371461,218.96701728133485 30.256838904693723,213.60423349682242 25.82522796280682,210.1184197056573 25.579027355648577,207.4370221591089 21.39361702091992,202.34236125927418 27.794832826592028,198.85653644311242 31.980243161320686,199.66095785726793 25.33282674662769,193.7618632656522 23.363221883773804,196.4432711098343 16.715805471874774,198.32025539921597 14.5,200.46537908911705 16.962006078101695,204.21934243873693 20.90121580567211,204.75562259391882 22.624620060436428,206.63260250166059 24.34802431613207,211.72725726407953 21.39361702091992,214.40865157963708 20.90121580567211,218.96701728133485 28.041033434681594,224.06165439565666 28.287234041839838,226.74303942266852 24.594224923290312,233.44649315648712 31.241641337051988,240.6862090146169 32.71884498465806,247.1214996429626 45.275075987912714,249.53473063046113 49.70668693073094,252.48423294932581 71.12613981682807,252.48423294932581 83.43617021292448,255.9700052679982 87.37537993956357,255.16559657384641 92.2993920976296,255.9700052679982 94.26899696048349,253.55677864165045 87.62158054672182,241.75875826017 78.51215805392712,239.881796868518 76.29635258298367,231.5695273829624 71.6185410330072,229.96069878945127 68.91033434588462,225.4023471614346 64.97112462017685,222.45282241003588 55.61550151929259,226.4749010100495 49.214285713620484,222.45282241003588 39.12006078939885,223.7935157814063 34.19604863226414,221.11212853319012 30.50303951371461,227.27931618550792 27.548632218502462,228.35186946904287 26.317629178985953,222.98909981921315 21.147416412830353,215.21306948037818 21.88601823616773,212.26353628886864 24.594224923290312,210.65469897235744 30.01063829753548,212.5316757708788 31.734042552299798,216.55376557726413 38.13525835797191,222.72096112463623 25.086626140400767,231.8376654109452 33.94984802417457,246.31708895065822 60.78571428544819,252.2160964764189 74.57294832728803,252.2160964764189 83.92857142910361,255.70186905749142 92.05319148860872,254.89746030280367 95.5,251.9479599823244 86.63677811529487,242.02689552144147 81.22036474198103,240.41807165322825 79.98936170246452,233.17835524934344 73.09574467968196,231.5695273829624 67.67933130636811,222.98909981921315 63.24772036354989,221.3802673490718 51.92249240074307,225.13420864846557 47.490881458856165,221.11212853319012 44.29027355555445,220.84398969751783 38.873860182240605,224.06165439565666 31.241641337051988,218.43073926586658 29.764437689445913,213.33609409537166 22.132218845188618,213.06795467366464 23.11702127661556,207.4370221591089 20.655015197582543,201.2698001402896 25.086626140400767,199.12467693490908 20.90121580567211,204.75562259391882 23.609422492794693,210.92283857567236 21.147416412830353,217.89446117030457 22.37841945234686,220.84398969751783 27.548632218502462,222.98909981921315 29.51823708228767,226.20676257833838 29.764437689445913,229.42442243057303 26.810030394233763,234.2509067566134 31.734042552299798,241.49062097934075 32.472644376568496,246.85336276586168 37.6428571427241,249.26659393473528 47.490881458856165,248.7303204832133 61.03191489353776,252.2160964764189 69.15653495397419,251.41168693453074 83.43617021292448,254.62932401080616 86.88297872338444,253.020505835535 91.80699088145047,253.82491501490586 93.77659574523568,251.67982346843928 91.56079027336091,245.51267807628028 80.7279635258019,241.22248367825523 79.98936170246452,236.39600880118087 71.6185410330072,230.76511317724362 69.89513677824289,224.06165439565666 67.67933130636811,222.45282241003588 60.53951367735863,222.45282241003588 52.661094225011766,224.5979315622244 45.028875378891826,221.11212853319012 39.85866261366755,225.67048565344885 30.256838904693723,220.57585084158927 28.287234041839838,212.79981523239985 25.086626140400767,210.1184197056573 21.639817629009485,202.61050148820505 26.810030394233763,198.0521148466505 20.408814588561654,196.17513041594066 15.238601824268699,200.7335194600746 18.931610941886902,203.6830622027628 22.132218845188618,203.41492205415852 24.101823708042502,205.82818266213872 23.609422492794693,212.5316757708788 20.408814588561654,214.6767908995971 20.16261398140341,217.0900438753888 28.041033434681594,225.67048565344885 24.84042553137988,231.5695273829624 25.33282674662769,233.71463104360737 31.734042552299798,239.881796868518 35.427051671780646,246.85336276586168 44.29027355555445,246.31708895065822 55.61550151929259,249.8028673059307 72.11094224918634,250.60727721103467 75.06534954346716,253.28864224883728 81.22036474198103,252.75236940267496 86.14437690004706,255.16559657384641 92.05319148860872,254.62932401080616 93.77659574523568,252.48423294932581 89.09878419525921,247.3896365002729 79.98936170246452,243.09944436349906 79.74316109437495,236.6641464664135 77.77355623058975,232.3739414070733 72.60334346443415,231.8376654109452 70.14133738540113,225.67048565344885 65.9559270516038,221.64840614469722 53.39969604741782,225.938624126371 46.75227963551879,222.18468367517926 37.6428571427241,222.98909981921315 30.256838904693723,218.96701728133485 28.77963525801897,211.99539678613655 23.609422492794693,210.65469897235744 24.34802431613207,205.02376264194027 22.132218845188618,202.87864169687964 18.193009118549526,203.41492205415852 17.208206687122583,200.7335194600746 18.43920972570777,199.12467693490908 23.11702127661556,206.3644625756424 21.639817629009485,218.16260022833012 28.533434650860727,226.20676257833838 25.33282674662769,234.51904458273202 27.794832826592028,234.78718238906004 30.01063829753548,238.27297203079797 33.94984802417457,248.46218372671865 45.767477203160524,247.92591015412472 52.4148936169222,250.33914059656672 60.29331306926906,248.998457218986 68.91033434588462,249.53473063046113 69.89513677824289,251.14355037990026 77.28115501441061,253.82491501490586 87.37537993956357,254.09305136674084 92.2993920976296,256.5062776301056 94.26899696048349,254.89746030280367 91.31458966620266,248.998457218986 85.40577507670969,242.83130718348548 79.98936170246452,241.75875826017 78.51215805392712,237.20042173494585 71.86474164109677,230.76511317724362 68.41793313063681,223.5253771475982 63.24772036354989,222.18468367517926 53.39969604741782,226.20676257833838 49.214285713620484,221.64840614469722 46.01367781125009,221.11212853319012 39.61246200557798,224.86607011570595 30.50303951371461,220.57585084158927 25.82522796280682,211.45911772130057 24.34802431613207,211.19097815803252 22.132218845188618,214.14051223848946 25.33282674662769,216.821904736571 25.086626140400767,221.64840614469722 27.548632218502462,226.4749010100495 31.241641337051988,227.8155928682536 37.88905774988234,222.72096112463623 43.55167173128575,225.938624126371 43.05927051603794,230.22883693920448 39.12006078939885,232.91021732240915 34.19604863226414,241.49062097934075 29.764437689445913,244.1719928823877 30.99544072896242,246.85336276586168 34.93465045560151,248.46218372671865 48.96808510553092,248.19404695066623 53.39969604741782,251.14355037990026 62.75531914830208,249.26659393473528 74.32674772012979,253.82491501490586 92.05319148860872,253.28864224883728 90.32978723477572,245.51267807628028 81.22036474198103,242.02689552144147 77.28115501441061,233.17835524934344 72.84954407345504,231.5695273829624 67.67933130636811,223.5253771475982 61.03191489353776,222.18468367517926 53.153495440259576,225.4023471614346 42.56686930079013,219.23515625833534 43.55167173128575,224.32979298895225 40.597264437004924,225.938624126371 33.94984802417457,222.45282241003588 29.025835866108537,212.79981523239985 21.147416412830353,211.99539678613655 19.177811549976468,202.61050148820505 25.82522796280682,198.85653644311242 27.056231003254652,195.37070821411908 30.01063829753548,200.46537908911705 26.810030394233763,199.12467693490908 23.609422492794693,200.19723869906738 18.685410334728658,197.78397427406162 15.977203646674752,200.7335194600746 17.700607902370393,204.75562259391882 23.609422492794693,203.14678188529797 25.086626140400767,205.2919026685413 21.39361702091992,219.50329521554522 28.287234041839838,226.20676257833838 24.101823708042502,233.71463104360737 29.025835866108537,239.345522003714 31.487841945141554,246.58522586827166 50.44528875313699,247.92591015412472 65.70972644351423,251.41168693453074 72.35714285634458,251.14355037990026 83.43617021292448,254.89746030280367 88.85258358716965,251.9479599823244 89.83738601766527,245.78081505489536 82.20516717247665,242.83130718348548 76.7887537991628,243.09944436349906 75.55775076057762,235.05532017489895 71.86474164109677,232.64207937428728 68.91033434588462,224.06165439565666 64.72492401115596,220.30771196563728 62.0167173249647,220.03957306873053 52.661094225011766,224.86607011570595 42.074468083679676,219.50329521554522 43.05927051603794,223.2572384935338 41.089665653184056,224.06165439565666 35.427051671780646,221.11212853319012 30.256838904693723,212.79981523239985 22.132218845188618,211.19097815803252 21.639817629009485,202.61050148820505 28.77963525801897,198.85653644311242 31.980243161320686,199.66095785726793 24.101823708042502,193.49372236989439 21.88601823616773,198.0521148466505 14.99240121524781,200.19723869906738 23.11702127661556,205.2919026685413 25.086626140400767,210.1184197056573 21.39361702091992,216.01748719927855 28.77963525801897,225.938624126371 27.794832826592028,230.22883693920448 24.594224923290312,232.91021732240915 28.77963525801897,237.73669692361727 31.487841945141554,246.04895201302134 38.13525835797191,246.04895201302134 42.074468083679676,248.19404695066623 60.53951367735863,249.26659393473528 76.54255319107324,254.09305136674084 83.68237082008272,255.16559657384641 92.05319148860872,254.62932401080616 93.28419452905655,252.48423294932581 86.39057750720531,243.3675815234892 80.23556230962276,241.75875826017 80.23556230962276,235.05532017489895 76.0501519748941,231.03325126552954 72.11094224918634,230.4969750684686 66.44832826778293,220.30771196563728 63.74012157972902,220.30771196563728 52.661094225011766,225.4023471614346 47.490881458856165,221.3802673490718 42.320668692700565,220.57585084158927 38.62765957415104,223.5253771475982 35.427051671780646,222.45282241003588 27.548632218502462,226.74303942266852 24.594224923290312,231.5695273829624 30.99544072896242,238.8092470576521 30.99544072896242,244.44012996111996 52.16869300883263,247.3896365002729" stroke="#4dd2ff" stroke-linecap="round" stroke-linejoin="round" stroke-width="0.5"><title>2024-01-16 10.2km</title><desc>10569480991</desc></polyline><polyline fill="none" points="170.9298780495301,254.18176433676854 174.38719512242824,257.140255253762 185.25304878130555,254.45071815745905 180.56097561027855,246.11314028990455 170.9298780495301,239.1203180383891 168.95426829438657,231.58957107272 164.509146342054,231.32061553024687 161.29878048878163,224.32776431785896 157.10060975700617,220.5623772246763 150.43292682990432,221.36924622184597 144.50609756167978,225.40358847239986 141.54268292803317,225.67254446004517 136.6036585373804,220.29342085216194 130.4298780495301,207.11453377315775 116.84756097663194,191.78393047419377 114.13109756167978,197.43205513479188 109.192073171027,199.58371932292357 107.7103658542037,202.00433998485096 110.17987804953009,204.4249590067193 114.37804878037423,204.1560014183633 117.09451219532639,211.68680622777902 113.63719512242824,217.60385600989684 119.81097561027855,227.55523580964655 117.09451219532639,234.2791253833566 120.79878048878163,242.07882143114693 120.05792682990432,247.18895788211375 128.45426829252392,249.34059209562838 137.59146341495216,248.26477515138686 158.58231707289815,253.105948849814 165.00304878037423,252.56804098538123 183.2774390252307,258.2160695255734 184.759146342054,255.52653323905542 183.52439024485648,250.1474545917008 171.6707317084074,241.00300229876302 171.91768292710185,234.54808070277795 165.25000000093132,231.32061553024687 158.82926829345524,220.5623772246763 156.11280487850308,219.75550804566592 145.49390243925154,225.9415004281327 141.54268292803317,225.67254446004517 133.3932926831767,219.75550804566592 133.3932926831767,213.5695049490314 129.44207317195833,212.76263419003226 126.97256097570062,207.65244848281145 115.85975609812886,199.31476136972196 112.64939024485648,195.01143137319013 106.96951219625771,199.58371932292357 109.68597561120987,203.88704380975105 114.13109756167978,205.76974664232694 115.85975609812886,210.073063676944 112.64939024485648,219.48655161214992 119.07012195326388,228.90001473692246 116.84756097663194,234.0101700432133 121.0457317084074,241.54091190570034 119.07012195326388,242.07882143114693 119.07012195326388,246.92000351450406 126.97256097570062,246.38209471828304 132.89939024485648,248.80268366402015 137.83841463550925,247.18895788211375 146.23475609812886,250.954316905234 155.8658536588773,250.954316905234 175.37500000093132,255.52653323905542 182.28963414765894,256.60234799725004 185.5,255.25757949892431 182.28963414765894,249.07163788983598 171.6707317084074,240.73404746549204 158.33536585513502,220.29342085216194 155.3719512205571,219.75550804566592 146.48170731775463,224.59672038652934 141.0487804878503,224.59672038652934 136.6036585373804,220.02446445869282 135.36890243925154,214.37637552595697 126.72560975607485,208.45932039618492 121.29268292803317,198.23892935737967 114.8719512205571,191.78393047419377 104.5,199.58371932292357 107.21646341588348,202.27329773525707 112.64939024485648,204.1560014183633 116.35365853644907,211.68680622777902 112.64939024485648,217.8728125852067 118.82317073270679,227.01732409675606 116.60060975700617,228.63105899188668 122.77439024392515,238.85136306332424 121.53963414672762,246.65104912640527 127.46646341495216,245.03732237312943 133.3932926831767,246.38209471828304 140.80182926822454,245.03732237312943 152.40853658597916,250.954316905234 160.06402439065278,252.03013303945772 166.73170731775463,250.6853628209792 176.85670731868595,254.98862573923543 182.78353658597916,256.06444065854885 184.759146342054,253.64385663392022 182.78353658597916,247.99582086433657 171.91768292710185,240.19613773794845 171.91768292710185,232.93434848147444 164.0152439037338,229.7068818504922 158.33536585513502,218.94863868434913 153.89024390280247,220.02446445869282 145.49390243925154,225.9415004281327 141.2957317084074,221.1002899094019 129.19512195140123,214.37637552595697 119.81097561027855,202.8112131743692 113.63719512242824,200.3905930586625 108.69817073177546,195.54934790707193 105.24085365887731,200.121635167161 108.94512195233256,204.1560014183633 114.8719512205571,207.9214058080688 115.36585365980864,213.5695049490314 112.4024390252307,218.94863868434913 119.317073171027,226.47941230237484 115.36585365980864,233.74121468351223 121.53963414672762,239.92718284321018 121.0457317084074,248.53372941724956 126.72560975607485,247.18895788211375 133.3932926831767,249.87850044644438 138.0853658542037,249.34059209562838 142.28353658597916,251.49222501320764 155.3719512205571,252.2990870231297 174.88109756074846,257.140255253762 181.54878048878163,256.3333943376783 184.0182926831767,252.2990870231297 182.78353658597916,247.18895788211375 177.35060975700617,242.34777616336942 171.4237804878503,240.73404746549204 169.942073171027,234.8170360024087 164.26219512149692,229.4379261659924 160.31097561027855,222.7140274781268 156.8536585373804,220.83133357740007 153.39634146448225,221.1002899094019 146.97560975700617,227.2862799630966 145.49390243925154,227.01732409675606 140.80182926822454,221.36924622184597 135.6158536588773,220.02446445869282 131.66463414672762,209.26619212771766 120.55182926915586,195.54934790707193 111.66158536635339,195.54934790707193 106.2286585373804,197.16309701977298 104.99390243925154,199.58371932292357 107.95731707289815,203.61808618158102 111.90853658597916,204.96287412196398 115.85975609812886,211.68680622777902 111.16768292803317,216.52802950539626 118.57621951214969,226.47941230237484 117.8353658542037,229.97583751380444 114.8719512205571,234.2791253833566 122.28048780560493,240.19613773794845 122.28048780560493,247.72686655749567 133.88719512149692,247.18895788211375 141.54268292803317,246.38209471828304 148.951219513081,250.41640871670097 163.27439024485648,249.07163788983598 168.21341463457793,250.41640871670097 172.65853658597916,254.18176433676854 180.31402439065278,255.79548695939593 183.77134146355093,253.64385663392022 181.79573170747608,250.41640871670097 171.17682926915586,242.07882143114693 168.21341463457793,233.74121468351223 162.53353658597916,230.78270438453183 161.05182926915586,223.52089598914608 155.125,220.5623772246763 144.75304878130555,226.47941230237484 141.0487804878503,225.67254446004517 140.30792682990432,221.36924622184597 134.134146342054,218.1417691402603 129.19512195140123,208.72827766067348 123.51524390280247,204.6939165738877 120.30487804953009,196.6251807298977 115.36585365980864,193.1287228697911 112.64939024485648,196.08726435876451 104.7469512205571,198.7768454044126 108.20426829345524,203.34912853245623 112.89634146355093,204.96287412196398 116.35365853644907,210.073063676944 110.67378048878163,218.67968218959868 118.32926829345524,225.9415004281327 118.57621951214969,229.4379261659924 113.88414634205401,233.4722593028564 121.0457317084074,235.08599128155038 120.79878048878163,245.57523137168027 127.9603658542037,245.84418584103696 137.59146341495216,249.6095462811645 149.9390243915841,253.37490275199525 159.81707317195833,252.56804098538123 173.8932926831767,258.2160695255734 182.53658536542207,256.87130163563415 184.51219512242824,254.18176433676854 183.77134146355093,250.1474545917008 174.88109756074846,241.80986667820252 172.65853658597916,241.54091190570034 170.9298780495301,233.4722593028564 165.25000000093132,229.7068818504922 159.076219513081,220.29342085216194 156.8536585373804,220.02446445869282 144.50609756167978,226.47941230237484 136.10975609719753,222.44507126742974 134.62804878130555,214.9142891424708 119.07012195326388,195.01143137319013 112.4024390252307,195.81830614316277 105.4878048794344,199.85267725563608 110.67378048878163,202.54225546494126 114.62500000093132,210.34202081873082 111.66158536635339,219.217595157912 119.81097561027855,227.01732409675606 119.5640243915841,229.16897046100348 114.37804878037423,233.4722593028564 121.29268292803317,241.80986667820252 121.29268292803317,247.99582086433657 142.53048780653626,250.1474545917008 158.58231707289815,252.56804098538123 163.0274390252307,254.45071815745905 168.70731707382947,254.45071815745905 171.91768292710185,256.3333943376783 181.54878048878163,256.3333943376783 184.0182926831767,252.83699492784217 182.78353658597916,248.80268366402015 175.86890244018286,242.34777616336942 170.9298780495301,240.73404746549204 172.41158536728472,234.2791253833566 164.26219512149692,229.7068818504922 161.54573170747608,223.25193983898498 158.08841463457793,220.02446445869282 155.3719512205571,220.02446445869282 146.72865853644907,225.9415004281327 141.2957317084074,224.86567643564194 136.6036585373804,218.94863868434913 135.36890243925154,214.37637552595697 129.19512195140123,208.19036311237141 122.03353658504784,196.08726435876451 119.81097561027855,195.01143137319013 110.42682926915586,198.23892935737967 106.96951219625771,197.96997130312957 105.73475609812886,200.3905930586625 113.14329268410802,205.76974664232694 112.4024390252307,218.94863868434913 120.30487804953009,227.2862799630966 116.84756097663194,234.0101700432133 121.0457317084074,238.85136306332424 120.79878048878163,247.99582086433657 124.75000000093132,246.65104912640527 131.66463414672762,249.34059209562838 136.85060975607485,248.26477515138686 145.74085365980864,251.49222501320764 151.17378048878163,250.6853628209792 164.26219512149692,253.37490275199525 175.12804878130555,257.9471159875393 179.07926829252392,255.79548695939593 182.78353658597916,256.3333943376783 185.5,254.71967195835896 177.35060975700617,242.34777616336942 171.4237804878503,241.27195711270906 171.17682926915586,234.54808070277795 168.4603658542037,231.58957107272 165.49695121962577,230.78270438453183 162.53353658597916,224.0588082286995 158.58231707289815,220.29342085216194 151.42073170747608,221.90715878480114 145.49390243925154,225.9415004281327 135.8628048794344,221.1002899094019 133.88719512149692,211.41784918657504 129.44207317195833,207.65244848281145 119.81097561027855,193.66663968679495 116.35365853644907,192.3218474930618 114.62500000093132,196.3562225550413 110.67378048878163,198.5078873904422 106.72256097663194,197.96997130312957 105.73475609812886,199.58371932292357 108.45121951401234,203.080170863308 111.41463414765894,201.7353822151199 115.61280487850308,205.50078915595077 115.61280487850308,210.8799350433983 112.64939024485648,218.67968218959868 119.317073171027,225.67254446004517 118.32926829345524,229.4379261659924 115.11890243925154,231.32061553024687 121.78658536635339,239.65822792891413 120.30487804953009,246.65104912640527 128.45426829252392,246.65104912640527 135.12195121962577,250.954316905234 143.76524390280247,249.6095462811645 150.18597560934722,252.2990870231297 160.55792682990432,252.2990870231297 174.63414634298533,257.140255253762 182.28963414765894,256.87130163563415 185.5,254.18176433676854 175.86890244018286,241.80986667820252 172.16463414672762,242.34777616336942 171.4237804878503,235.08599128155038 163.52134146448225,229.7068818504922 160.06402439065278,221.6382025135681 154.13719512335956,219.48655161214992 145.0,226.21045637549832 141.2957317084074,223.25193983898498 137.59146341495216,223.52089598914608 129.68902438972145,207.38349113776349 121.78658536635339,200.92850878229365 120.05792682990432,196.89413888542913 113.39024390280247,194.47351476014592 110.17987804953009,195.28038965025917 106.2286585373804,199.04580339766107 111.66158536635339,201.46642442396842 114.13109756167978,204.4249590067193 114.8719512205571,210.8799350433983 111.90853658597916,219.48655161214992 118.32926829345524,228.63105899188668 115.61280487850308,234.54808070277795 121.78658536635339,241.27195711270906 120.05792682990432,246.92000351450406 125.24390244018286,247.72686655749567" stroke="#4dd2ff" stroke-linecap="round" stroke-linejoin="round" stroke-width="0.5"><title>2023-10-24 10.2km</title><desc>10096212910</desc></polyline></svg>