<?xml version="1.0" encoding="utf-8" ?>
<svg baseProfile="full" height="300mm" version="1.1" viewBox="0,0,200,300" width="200mm" xmlns="http://www.w3.org/2000/svg" xmlns:ev="http://www.w3.org/2001/xml-events" xmlns:xlink="http://www.w3.org/1999/xlink"><defs /><rect fill="#222222" height="300" width="200" x="0" y="0" /><text fill="#FFFFFF" style="font-size:12px; font-family:Arial; font-weight:bold;" x="10" y="20">Over 10km Runs</text><text fill="#FFFFFF" style="font-size:4px; font-family:Arial" x="10" y="280">ATHLETE</text><text fill="#FFFFFF" style="font-size:9px; font-family:Arial" x="10" y="290">wzso</text><text fill="#FFFFFF" style="font-size:4px; font-family:Arial" x="120" y="280">STATISTICS</text><text fill="#FFFFFF" style="font-size:3px; font-family:Arial" x="120" y="285">Number: 5</text><text fill="#FFFFFF" style="font-size:3px; font-family:Arial" x="120" y="290">Weekly: 1.0</text><text fill="#FFFFFF" style="font-size:3px; font-family:Arial" x="141" y="285">Total: 64.1 km</text><text fill="#FFFFFF" style="font-size:3px; font-family:Arial" x="141" y="290">Avg: 12.8 km</text><text fill="#FFFFFF" style="font-size:3px; font-family:Arial" x="167" y="285">Min: 10.0 km</text><text fill="#FFFFFF" style="font-size:3px; font-family:Arial" x="167" y="290">Max: 17.0 km</text><polyline fill="none" points="61.516085110022686,105.01454987814941 61.39099525142228,104.98056876385817 61.406631483812816,105.43931338175025 61.422267716086935,105.35436074406607 61.7662648272817,105.5072754691937 63.3298880601651,106.0 63.501886615820695,106.0 63.61134024208877,105.91504757035 63.87715619162191,105.09950264191139 64.3462431615917,104.11404864474025 64.58078664646018,103.40044137861696 64.5338779494632,103.29849730196293 64.72151273739291,103.06062761310022 64.94041999010369,102.24507251832983 65.40950695989886,101.22562456487503 65.75350407109363,100.20617207247415 65.9098663944751,99.52653455581458 65.73786783881951,99.2206970150728 65.80041276809061,98.96583208579978 65.72223160648718,98.86388603462547 64.86223882838385,98.67698482291598 63.70515763602452,98.30318194181018 62.98589094891213,98.13327133953862 62.344805423519574,97.87840519973543 62.04771700920537,97.67451208361308 61.2189966958249,97.45362766955805 60.90627204923658,97.30070756576606 60.71863726124866,97.09681393516075 60.67172856425168,96.90991128091991 61.03136190783698,95.63557093519194 62.391714120458346,91.88047346870007 62.87643732270226,90.77602131472668 63.658248939027544,88.56710102010402 64.15860837360378,86.95287655500579 64.64333157578949,86.05230427456263 64.95605622237781,85.25368060864275 68.48984472866869,78.8815834527195 69.14656648645177,77.84503887085884 70.00655926455511,76.09479719835508 70.10037665854907,76.0438190849527 70.39746507274685,75.55103006967693 70.46001000201795,75.29613878330565 71.75781728536822,72.4583299504593 72.24254048749572,71.1158811738569 72.60217383108102,70.48713663339731 73.16507819492836,69.21264915590291 73.03998833632795,69.12768307169608 72.50835643708706,69.12768307169608 72.17999555822462,69.22964236899861 71.78908975003287,69.14467629104911 70.49128246674081,69.26362879133376 67.77057804155629,69.22964236899861 67.47348962724209,69.02572372891882 67.08258381899213,69.00873050073278 65.83168523275526,69.14467629104911 65.14369101030752,69.24663558081375 64.29933446459472,69.38258122977277 63.84588372701546,69.51852679798321 63.47061415115604,69.4675472194067 63.39243298949441,69.55251317743387 62.67316630232381,69.38258122977277 62.29789672646439,69.36558802808577 62.1884431001381,69.00873050073278 62.219715564802755,68.78781841910677 61.75062859500758,68.58389938519394 61.109543069440406,68.46494653150148 60.046279271133244,68.12508089443145 59.858644483203534,68.22704063855053 59.67100969533203,68.22704063855053 58.99865170515841,67.95514788653236 58.1542951593874,67.66626148349314 57.8572067450732,67.615281492137 57.6695719572017,67.4963281348173 53.94814866298111,66.39175829180749 53.651060248783324,66.20483055997465 52.869248632283416,66.00090922375966 52.509615288698114,65.83097463809827 51.91543846030254,65.59306600608397 51.164899308467284,65.4231311174517 50.039090580830816,64.99829334356764 49.398005055321846,64.94731275773665 48.756919529871084,65.08326096147357 48.428558650950436,64.99829334356764 46.50530207453994,64.91332569417136 43.8940512756235,64.91332569417136 41.87697730521904,64.82835801312467 40.626078718923964,64.84535155187768 39.95372072880855,64.76038384561252 39.89117579947924,64.89633216048242 38.70282214251347,64.94731275773665 38.124281546333805,64.89633216048242 37.842829364468344,64.76038384561252 37.7646482027485,64.42051270503725 37.92101052607177,63.75776252860669 37.88973806134891,63.29893435856502 37.623922111757565,62.925073687772965 37.561377182544675,61.76950047854916 37.6395583441481,61.58256896973762 37.749011970474385,61.49760005155986 37.842829364468344,61.03876734813093 38.06173661694629,60.61392143170815 38.23373517260188,59.747233315516496 38.18682647572132,59.47533048466721 38.29628010193119,59.30539105126809 38.28064386959886,59.050481664482504 38.483914889919106,58.0988174436352 38.3588250313187,57.351078492356464 38.15555401094025,56.99420222204935 37.92101052607177,56.280448010904365 37.78028443513904,56.09351201611571 37.717739505751524,55.82160484182532 37.43628732388606,55.498714652552735 37.40501485922141,55.3457665090682 37.623922111757565,55.10784697141207 38.73409460717812,54.47905843053013 39.25009027402848,53.816279448437854 39.54717868822627,53.30644815524283 40.063174355076626,51.96388697937073 40.203900446067564,51.75995294669701 40.4071714663296,51.131155201102956 40.31335407233564,50.96120956768573 39.6253598498879,50.5703341315093 39.422088829625864,50.3833934693248 39.2031815770315,48.78589430550346 39.01554678904358,48.42900466939318 38.530823586916085,47.936156160911196 38.20246270793723,47.256363371852785 37.54574095015414,46.69553279946558 37.514468485547695,46.389624634743086 37.60828587948345,46.0497261940036 37.54574095015414,45.79480203187268 37.467559788550716,45.72682220731804 37.02974528330378,45.65884236256534 36.84211049543228,45.556872557499446 36.70138440444134,44.86007767256524 36.54502208111808,44.554167052338016 36.357387293246575,44.43520170058764 35.950845252664294,44.40121158875991 35.77884669706691,44.31623628696252 35.70066553540528,43.8743642087793 35.763210464676376,43.126578746407176 36.37302352552069,42.44677165846224 36.57629454584094,41.90292453279835 36.84211049543228,41.647995747305686 37.20174383895937,40.781235750589985 37.43628732388606,40.57729174438282 37.842829364468344,40.40733826694486 38.24937140493421,40.06743093303521 38.54645981924841,40.16940318624256 38.812275768839754,40.62827776298218 38.812275768839754,40.84921704552835 38.64027721318416,41.13813732365088 38.65591344551649,41.24010909933713 38.98427432443714,41.29109497013269 39.85990333481459,41.17212792059581 40.15699174912879,41.20611851247668 40.422807698720135,41.39306667762867 40.891894668515306,42.00489596735861 41.37661787070101,42.225833919656 41.62679758796003,41.104146721670986 41.73625121428631,39.94846324677928 42.06461209320696,38.469859694479965 41.93952223454835,38.333895669318736 41.29843670909759,38.333895669318736 41.01698452711571,38.24891811258567 39.45336129423231,38.19793156335072 39.21881780936383,37.99398525271681 39.21881780936383,37.58609208569396 39.06245548604056,37.43313196046802 38.56209605152253,37.705061001252034 37.90537429373944,37.603087648851215 37.12356267729774,36.92326413713454 36.90465542470338,36.43039082700852 36.77956556604477,36.31142124807229 35.669393070740625,36.61734289728338 35.40357712114928,36.61734289728338 35.32539595954586,36.39639952503785 35.49739451514324,35.95451213994238 35.34103219181998,35.32567092696263 34.997035080567,35.13871780032059 34.4497669491102,34.98575603753852 33.90249881759519,34.390903764855466 33.52722924167756,34.16995824078913 33.05814227188239,34.0 33.02686980715953,34.03399165830342 33.83995388826588,34.45888696007023 34.30904085811926,34.96876027979306 35.215942333161365,35.30867519447929 35.434849585813936,35.88652938949235 35.37230465654284,36.22644293954363 35.247214797884226,36.43039082700852 34.934490151295904,36.70232106054027 34.21522346418351,36.77030356838077 33.90249881759519,37.05922900121368 33.41777561546769,37.4161363846506 33.15195966587635,37.53510538865521 32.80796255462337,37.5690965212998 32.526510372699704,37.909007569629466 31.947969776578248,38.010980785576976 31.744698756199796,38.19793156335072 31.385065412672702,39.47259188268799 31.416337877337355,40.05043555307202 31.33815671573393,40.18639855735819 30.869069745822344,40.39034291225835 30.775252351886593,40.54330105902045 30.775252351886593,40.83222172370006 31.05670453381026,41.37607139616739 30.88470597815467,42.41278125101235 30.540708866959903,43.041602970974054 29.977804503112566,43.50047178330715 29.790169715124648,43.92534949215769 29.899623341450933,44.74111247996916 29.86835087678628,45.03002784028649 29.649443624191917,45.35293281094346 29.3992639069329,45.91376667622535 29.430536371597555,46.30465007193561 29.602534927194938,46.76351233602327 30.05598566471599,47.052425141009735 30.274892917310353,47.44330659029947 30.04034943244187,47.800197764794575 29.96216827072203,48.00413532869425 29.977804503112566,48.90485739377618 29.58689869492082,49.29573567661282 29.383627674600575,49.77158659748966 29.242901583609637,49.92453846888384 28.961449401685968,50.06049560203974 28.42981750256149,50.17945802725444 27.945094300375786,50.51935032970505 27.60109718912281,50.84224754913885 27.069465289940126,51.182138866512105 26.944375431339722,51.182138866512105 26.834921805013437,51.063176962867146 26.834921805013437,50.85924212698592 27.24146384553751,50.12847413831332 27.366553704137914,50.094484872723115 27.663642118510325,50.34940424162778 27.55418849218404,50.31541500885214 27.350917471922003,50.077490237992606 27.163282683934085,50.094484872723115 27.10073775454657,50.3833934693248 26.834921805013437,50.89323127895477 26.86619426967809,51.09716608450981 28.273455179238226,52.116837384557584 28.414181270229165,52.15082634962164 28.867632007808425,51.94689248359646 29.3992639069329,52.04885943933914 31.07234076608438,53.35743133570941 31.572700200602412,53.61234706756659 31.775971220922656,53.61234706756659 32.44832921103807,53.37442572665168 32.979961110220756,53.5103808089043 33.7930451912689,54.22414366470184 34.12140607018955,54.66599574487191 34.606129272375256,54.92091001823428 36.10720757598756,55.41374347433157 36.74829310143832,55.41374347433157 37.18610760662705,55.3287722645764 37.37374239455676,55.447731949418085 38.01482792006573,56.977208100041025 38.45264242525445,57.6569719951367 38.124281546333805,58.76158401599969 38.030464152339846,59.373366839805385 38.10864531400148,59.781221146622556 37.88973806134891,60.37600737386674 37.702103273477405,61.36164971688413 37.670830808754545,62.109375557804015 37.60828587948345,62.551212405902334 37.49883225315716,63.07801676329109 37.49883225315716,64.26757052706671 37.467559788550716,64.50548053754028 37.342469929892104,64.70940320672526 37.42065109155374,65.10025448126544 37.78028443513904,65.18522206129273 38.3588250313187,65.18522206129273 38.87482069811085,65.08326096147357 40.45408016332658,65.23620259415475 42.83078747725813,65.23620259415475 48.50673981255386,65.37215062622272 49.882728257449344,65.50809857751301 50.00781811616616,65.57607252290472 50.49254131829366,65.62705296867352 50.6332674092846,65.94992886131513 50.80526596488198,66.10286991459725 50.68017610622337,66.39175829180749 50.77399350021733,66.73162650383892 50.742721035610884,66.90156042051967 50.42999638902256,67.46234144995105 50.17981667176355,68.26102720982453 50.07036304543726,68.43095999051002 49.94527318683686,68.46494653150148 49.91400072223041,68.7708251731965 49.31982389371842,70.31720537993533 48.60055720654782,71.93154719227459 48.50673981255386,72.39035804980085 48.303468792291824,72.6622455312463 47.85001805477077,73.69881359041028 46.99002527666744,75.2451604919479 46.161304963286966,77.04638656438328 45.89548901375383,78.32083040938596 45.67658176115947,78.94955342517642 45.567128134774975,80.17300947784679 45.254403488186654,81.24352815846214 45.28567595285131,81.43044360508793 45.17622232658323,81.99118902898044 45.254403488186654,82.09314259480743 45.28567595285131,82.60290974266536 44.94167884165654,83.6224406320398 44.94167884165654,84.20017278673186 45.019860003259964,84.40407790492463 44.66022665967466,86.86791705722862 44.22241215448594,88.05734715569997 44.081686063495,88.51612568474957 44.01914113428211,88.95791154734616 43.159148356178775,90.74203808698803 43.5969628613675,90.81000453737215 43.440600538102444,91.11585331428796 43.55005416442873,91.28576912487915 46.84929918573471,91.79551579989493 47.803109357832,91.9994141520583 48.33474125695648,92.22030382863886 48.85073692374863,92.25428683690552 49.64818477263907,92.45818478045112 50.13290797476657,92.47517626755871 51.88416599552147,93.0698775214114 52.21252687450033,93.29076616511156 53.604151551786344,93.98741356827668 55.871405239391606,95.36371074340423 56.528126997174695,95.89043957184185 57.3099386136746,96.34920240272186 57.685208189475816,96.6040702448372 58.201203856326174,97.16477849887451 58.4513835736434,97.31769869347045 59.061196634487715,97.47061878591194 59.49901113967644,97.70849428222573 59.73355462454492,97.62353877622809 59.999370574136265,97.70849428222573 60.218277826788835,97.69150318356697 60.828090887574945,97.99734276699019 61.250269160431344,98.11628027242841 64.84660259605153,98.99981409272004 65.6753229094902,99.30565192848735 65.75350407109363,99.45857069316844 65.64405044488376,99.6964441240998 65.72223160648718,99.84936262773408 65.44077942450531,100.69890801054134 65.09678231331054,101.39553287230956 64.92478375771316,102.09215561464953 63.970973585615866,104.77668197199819 63.42370545415906,105.8131046131457 63.18916196923237,105.8640760974231 62.92334601969924,105.72815211412671 62.32916919112904,105.64319958358828 62.04771700920537,105.49028494919185 61.6411749686813,105.32037968012446 60.5622749379836,104.99755932162225 60.51536624104483,105.065521540193" stroke="#4dd2ff" stroke-linecap="round" stroke-linejoin="round" stroke-width="0.5"><title>2024-11-29 17.0km</title><desc>13006688394</desc></polyline><polyline fill="none" points="168.8363293374423,105.864172283691 168.86757998756366,105.966043078457 168.71132673713146,105.9320861518936 168.77382803731598,106.0 168.77382803731598,105.91510768671287 168.82070401241072,105.9320861518936 169.13321051327512,105.32086061229347 169.47696766420268,104.30214775164495 169.82072481507203,103.75883237166272 170.03947936563054,103.18155836696678 170.1488566410262,102.80802735267207 170.2269832661841,102.11189974439912 171.25825471890857,99.02174674646812 171.30513069406152,98.71612495140289 171.27388004394015,98.47841882849752 171.02387484326027,98.20675438574108 170.305109891342,97.98602678845054 167.72693125950173,97.52759186754702 166.0550214801333,97.1031142699212 165.75814030430047,97.15405162321986 165.5862617288367,96.9163438774558 165.60188705392648,96.4918651458429 165.2737552280305,96.35603178542806 165.24250457796734,96.23717752883385 164.726868851576,96.13530240267573 163.97685324959457,96.10134401721007 162.1643155447673,95.60894686137908 162.05493826948805,95.54102992916887 162.05493826948805,95.35425826157734 161.97681164427195,95.28634125371173 161.13304409204284,95.06561083896668 160.72678564093076,94.87883878324647 160.57053239055676,94.65810797538143 160.55490706546698,94.36945967448992 161.28929734247504,92.00932166930579 161.72680644365028,90.95659039010934 162.38307009532582,89.03789027497987 162.72682724619517,88.30776122528187 163.00808309699642,87.35689199226908 164.2581091003376,83.89297778748733 164.39873702573823,83.70619660940429 164.91437275207136,82.60248653436429 167.71130593452835,77.61025443428662 169.41446636401815,74.6556167545059 169.55509428936057,74.2820391569403 169.74259818991413,74.02732680863119 170.8519962678547,71.7858459095296 172.93016449839342,66.82734039824572 172.82078722311417,66.74243354552891 172.49265539715998,66.7254521712166 172.25827552151168,66.74243354552891 172.05514629604295,66.84432176503469 171.7895157703315,66.77639629039913 171.41450796928257,66.7594149185752 170.9301228930126,66.84432176503469 168.77382803731598,66.81035903020529 167.69568060949678,66.89526585771819 167.35192345856922,66.70847079559462 167.1331689079525,66.67450804063992 166.14877343038097,66.70847079559462 165.71126432920573,66.82734039824572 165.5862617288367,66.79337766095705 165.36750717827817,66.87828449475637 165.0393753524404,66.84432176503469 164.13310650002677,67.13300480703765 162.11743956961436,67.01413536330801 162.0861889196094,66.41978721752821 161.57055319315987,66.19902894130792 161.13304409204284,66.1480846934428 160.74241096602054,66.01223331030633 159.35175703727873,65.67260449929745 158.57049078529235,65.41788255998108 158.3048602595809,65.26504926012421 157.92985245853197,65.14617884519976 157.35171543201432,65.02730836845876 156.8360797056812,64.77258571016137 156.1173147537629,64.61975197894208 155.8829348781146,64.67069656735111 155.61730435240315,64.63673350965837 153.6328880721121,63.99143445491791 153.4922601467697,63.83860020151769 153.36725754640065,63.78765542765905 152.99224974540994,63.71972904486756 152.03910491784336,63.397078450987465 151.8672263424378,63.26122543314705 151.7109730920638,63.26122543314705 151.3203399659833,63.04046410691808 151.03908411524026,63.057445754951914 149.992187337426,62.751775897151674 149.58592888637213,62.7008308811055 148.8359132843325,62.751775897151674 146.63274245359935,62.564977449466824 144.47644759778632,62.54799576483492 143.74205732089467,62.564977449466824 142.72641119320178,62.463087322801584 141.46075986482901,62.463087322801584 140.13260723627172,62.412142242406844 139.88260203559184,62.34421545096848 139.72634878521785,62.39516054642445 138.78882928274106,62.34421545096848 137.9763123805751,62.412142242406844 137.71068185486365,62.259306933163316 137.64818055467913,62.208361807410256 137.74193250498502,61.444183558181976 137.74193250498502,60.815857306239195 137.64818055467913,60.34036602161359 137.61692990461597,59.100687664642464 137.8356844551745,58.11573294438131 138.11694030591752,57.26663064115564 138.24194290622836,57.130773979923106 138.6013253822457,55.48350553739874 138.4450721318717,55.34764781636477 138.38257083162898,55.14386108335748 138.11694030591752,54.736287072257255 137.6794312048005,53.70036652289855 137.57005392946303,53.10598375997506 137.3512993789045,52.970124625673634 136.67941040208098,53.089001372572966 136.53878247673856,53.072018983977614 135.83564284985187,52.970124625673634 134.8824980223435,52.681423697198625 134.47623957123142,52.511599451245274 133.9606038449565,52.154968124072184 133.52309474372305,51.73040629464958 133.28871486813296,51.44170380017022 132.72620316664688,51.06808826595079 132.30431939050322,50.94921046789386 132.06993951491313,50.98317555934773 131.74180768901715,51.16998347223853 131.33554923790507,51.15300094099075 130.97616676194593,50.932227920231526 130.25740181008587,50.28689017528086 129.42925958288833,49.675515893803095 129.08550243201898,49.52267206789111 128.77299593115458,49.48870675936632 128.30423617985798,49.7604290862364 127.88235240383074,49.53965472028358 127.06983550160658,48.91129574201477 127.19483810191741,48.70750326990674 127.36671667738119,48.5886242439301 127.55422057787655,48.53767607100599 127.7573498034617,48.26595229028317 128.2261095547001,47.875348789428244 128.4448641052586,47.756469330590335 129.02300113177625,47.654572602317785 129.1480037320871,47.569658627413446 129.31988230760908,47.36586495890515 129.46051023289328,46.92431138698885 129.81989270891063,46.5676713406574 129.86676868400536,45.80344079568749 129.96052063425304,45.42981604351371 130.13239920971682,45.20903749371064 130.5542829859187,44.97127573999751 130.71053623623447,44.733513738872716 130.75741221138742,44.29195508050907 130.6167842859868,43.57866621451103 130.64803493610816,43.306936537017464 130.86678948672488,43.08615593612194 131.05429338716203,42.71252674097195 131.44492651324254,41.42180300227483 131.64805573876947,41.20102057988697 131.99181288969703,40.99722123144602 132.56994991621468,40.046155201634974 132.5543245911831,39.29888625816966 132.61682589136763,39.095085213004495 132.89808174205245,38.908267428618274 133.1012109676376,38.53463140157692 133.14808694273233,38.17797826028254 133.3980921434122,37.651489272277104 133.46059344359674,37.34578543214593 133.46059344359674,36.87024531222414 133.31996551825432,36.4286714574846 133.3355908432277,36.32676967745647 133.4918440936599,36.12296598110697 134.22623437055154,35.80027642342611 134.5699915215373,35.51155380118871 134.58561684651067,34.61141622523428 135.08562724787043,34.32269210056984 135.53876167413546,34.30570831714431 135.71064024954103,34.203805590223055 135.99189610034227,34.16983800449816 136.4294052014593,34.01698380612652 136.5856584518333,34.0 136.94504092785064,34.66236750349344 137.30442340375157,34.98505866846244 137.58567925455282,35.15489594062092 138.10131498088595,35.23981452937005 138.49194810690824,35.086961046923534 138.63257603230886,34.951091198876384 138.96070785820484,35.01902613299899 138.89820655802032,35.528537494974444 139.24196370894788,35.86821110502933 139.8357260604971,35.98709674923157 140.3201111368253,35.97011308957008 140.67949361272622,36.0380477206636 141.80451701575657,35.98709674923157 141.82014234078815,36.055031375275576 141.72639039054047,37.226900494948495 141.57013714010827,37.87227512465324 141.52326116501354,38.84033365099458 141.33575726445997,39.80838807566033 140.96074946346926,39.67252103534702 140.57011633744696,39.36681989947101 140.25760983664077,38.993184622275294 139.9294780107448,38.82335020339815 139.757599435281,38.82335020339815 139.19508773385314,38.95921774861927 138.35132018162403,38.87430054231663 137.58567925455282,38.95921774861927 137.14817015337758,38.84033365099458 137.00754222803516,38.65351565826859 137.24192210362526,38.2798792146059 137.9138110803906,37.957192703324836 138.08568965591257,37.75339046138106 138.3044442064711,37.73640693303605 138.32006953144446,37.58355512096023 138.08568965591257,37.51562094937253 137.88256043032743,37.88925864288467 137.25754742865684,38.26289572540554 137.07004352816148,38.43273056084581 136.67941040208098,39.417770117201144 136.39815455145435,39.72347118497419 136.24190130096395,40.19900536630303 135.77314154972555,40.776438398781465 135.63251362438314,41.15007075983158 135.60126297426177,41.60861873155227 135.69501492445124,41.880350428662496 135.8200175248203,42.05018257527263 136.30440260109026,42.152081802661996 136.47628117661225,42.253980984620284 136.71066105220234,43.289953421466635 136.60128377692308,43.35788587616116 136.25752662605373,43.289953421466635 136.038772075437,43.35788587616116 136.00752142537385,43.91832785696897 136.22627597587416,44.03720931254793 136.85128897754475,44.05419237256865 136.9762915779138,44.156090706266696 137.07004352816148,44.41083634168899 137.38255002902588,44.716530729376245 137.6638058797107,44.85239477037976 137.80443380511133,44.76747975422768 137.9138110803906,44.81842876771407 138.27319355634972,45.51473081354925 138.96070785820484,46.27896232405328 139.1325864336104,46.83939714067674 139.25758903392125,48.06215924270509 139.82010073552374,48.43577969110629 139.8513513855287,48.74146869458491 140.10135658620857,49.25094945827732 140.10135658620857,49.36982813978102 139.89822736068163,49.59060266983579 139.74197411024943,49.947237998610944 139.757599435281,50.06611631785927 139.49196890956955,50.660506986576365 139.39821695932187,51.11903587478446 139.02320915833116,51.9172135967674 138.3044442064711,52.52858188151731 137.63255522964755,52.91917742948863 137.55442860443145,53.072018983977614 138.17944160610205,54.804216124583036 138.42944680678193,55.211790014538565 138.19506693113362,55.992971272193245 138.2106922562234,56.63829290610738 138.16381628107047,56.994917237971094 137.69505652977386,58.48933695854794 137.47630197921535,60.595093618525425 137.33567405387294,60.98567538248608 137.4294260040624,61.34229293192038 137.32004872884136,61.93665427810629 137.5075526292785,62.44610563061724 137.72630717995344,62.564977449466824 138.33569485653425,62.58195913284726 138.58570005721413,62.7178125543287 140.24198451155098,62.836684231995605 140.36698711192003,62.989519155205926 140.55449101235718,62.95555584777321 140.82012153806863,63.006500807066914 141.0857520637801,62.90461087715812 142.82016314339126,62.92159253529098 146.39836257795105,63.057445754951914 148.24215093284147,63.07442740177794 148.38277885818388,63.108390691530076 148.55465743364766,63.26122543314705 148.86716393451206,63.27820706476632 149.74218213680433,63.22726216603769 149.96093668736285,63.29518869519234 150.11718993779505,63.4310416928638 150.1484405879164,63.38009682818665 150.6953269643127,63.736710642435355 151.49221854144707,63.804637020177324 151.64847179182107,63.92350813270605 151.88285166752758,63.87256337776489 152.25785946846008,64.02539760846412 152.3984873938025,63.99143445491791 153.92976924794493,64.297102655255 155.86730955308303,64.85749329443206 156.2110667040106,65.06127136808936 156.5860745050013,65.18014182719344 157.94547778362175,65.46882697053661 158.58611611032393,65.7065674031328 158.96112391125644,65.79147464052949 159.19550378696295,65.94430758846283 159.94551938888617,66.1650661106687 160.36740316502983,66.21601035475032 161.07054279185832,66.55563835853536 161.46117591793882,66.67450804063992 161.6174291683128,67.26885552419117 161.52367721806513,68.04999558145937 161.4768012429704,69.20471947324404 161.38304929272272,69.391512496004 161.3986746176961,69.6971734767867 161.30492266750662,70.22358865250135 161.13304409204284,70.76698369166115 160.83616291626822,71.36132053715119 159.49238496267935,73.53488213079982 159.13300248672022,74.46882803199696 158.5236148101394,75.96313354000449 157.00795828108676,79.37622654478764 155.92981085320935,82.14402078361309 155.55480305221863,82.95907037175493 155.28917252656538,83.77411705543636 154.05477184825577,86.6097776791139 153.30475624627434,88.66433616861468 152.58599129435606,90.3623044641572 152.72661921975669,90.54908020727453 152.69536856969353,90.95659039010934 152.82037117000436,91.14336564799305 153.96101989794988,91.7716085780994 155.3516738266917,92.6375622213236 155.61730435240315,92.75641834789712 157.46109270735178,93.91101750690723 157.8361005082843,94.08081100943673 158.11735635902733,94.26758371661708 158.367361559649,94.50529421439569 158.58611611032393,94.64112867362564 158.78924533585086,94.89581806736533 158.88299728609854,94.91279735018907 159.35175703727873,95.25238274224102 159.6955141882063,95.26936199859483 160.28927653975552,95.50707145550405 160.71116031589918,95.55800916407316 162.36744477029424,95.94853122015775 164.39873702573823,96.5428026352165 165.28938055306207,96.76353162481973 165.4300084784627,96.74655247930787 165.63313770398963,96.86540647123184 165.69563900417415,97.0691560280975 165.68001367908437,97.323842718979 165.25812990299892,98.54633488884429 164.91437275207136,99.78579944823286 164.61749157629674,100.3461031413608 164.5862409262336,100.66870161502447 164.14873182505835,101.39879121808917 164.00810389965773,101.94211220162106 163.61747077363543,102.70615515201644 163.38309089804534,103.36832364551083 163.28933894779766,103.43623825446412 163.11746037233388,103.41925960411027 162.27369282004656,103.1136436824454 161.164294742106,102.82500604835514 160.52365641546203,102.57032548062853 160.3830284900614,102.58730419396306 160.41427914018277,102.82500604835514 160.32052718987688,102.9608355685923 160.3830284900614,103.13062235550024" stroke="#4dd2ff" stroke-linecap="round" stroke-linejoin="round" stroke-width="0.5"><title>2024-11-23 16.7km</title><desc>12962933938</desc></polyline><polyline fill="none" points="58.263278102036566,121.26861263439059 58.57806964870542,121.6961766560562 58.420673875603825,122.12374051904771 56.45322670834139,124.77463292970788 55.666247841436416,125.71527070668526 55.1940605212003,129.13576524303062 54.485779540613294,131.18805709277513 53.85619644727558,132.29971365234815 52.75442603370175,133.66790486947866 51.0230725267902,136.91735250107013 50.07869788631797,138.20002667640802 49.291719019412994,138.9696304963436 48.81953169917688,139.9102566894726 48.42604226572439,142.0480406380375 46.458595098461956,144.78439830685966 46.22250143811107,147.69177121319808 44.96333525143564,152.5658799285302 44.49114793119952,157.09792743751314 44.176356384065,157.95302874303889 43.62547117797658,158.55159927956993 43.38937751762569,161.80097676912555 42.681096537504345,164.02422977465903 42.445002877153456,166.50400691479445 42.05151344370097,168.21419493830763 41.65802401024848,170.35192640026798 41.81541978381574,172.4896538980538 41.421930350363255,175.39695693424437 40.71364936977625,178.3897612252622 38.98229586239904,180.86950746685034 39.45448318263516,183.8622975522885 38.510108542162925,186.0 39.13969163643196,184.71737900696462 39.21838952274993,182.4086576239206 39.926670502871275,181.04052425239934 40.55625359667465,180.27094851754373 40.79234725655988,178.30425263900543 41.1071388036944,176.679588295985 41.73672189703211,174.96941282990156 41.89411767059937,173.9433063325705 41.73672189703211,171.03599963063607 41.89411767059937,169.240306534688 42.20890921726823,167.61562941863667 42.681096537504345,166.84604472253704 42.91719019738957,164.19524905906292 43.31067963084206,162.6560745863826 43.78286695107818,161.28791777434526 44.018960610963404,159.5777194763068 45.278126798104495,155.30221263115527 45.98640777822584,151.1122005385696 46.93078241869807,148.717901076423 47.24557396583259,144.78439830685966 48.74083381239325,142.1335519135464 48.89822958596051,141.4494615321164 49.68520845286548,140.6798593677231 51.10177041310817,138.20002667640802 51.652655620127916,136.91735250107013 51.57395773334429,136.40428243158385 53.46270701428875,133.24034528865013 53.69880067417398,132.29971365234815 55.11536263441667,130.84600870491704 55.43015418108553,129.56332634645514 56.45322670834139,128.36615485750372 56.925414028111845,126.99795734731015 57.55499712238088,126.14283307880396 58.263278102036566,124.60360779677285 58.341975988820195,123.66296911262907 59.05025696894154,122.38027876080014 60.15202738298103,118.95976417703787 60.939006249886006,117.33501619385788 61.72598511679098,116.30885839281837 61.80468300310895,115.5392394423252 61.48989145644009,115.5392394423252 61.175099909771234,115.96680558938533 60.939006249886006,116.82193740742514 59.12895485572517,120.07143253018148 58.499371762387455,122.12374051904771 57.63369500869885,123.83399438502965 56.68932036822662,126.48488286242355 55.666247841436416,128.10961794806644 54.485779540613294,130.5894723473466 53.069217580370605,132.7272735821898 52.36093660071492,134.18097615719307 52.12484294036403,135.12160625803517 49.84260422643274,137.7724687763257 49.05562535952777,141.10741618921747 48.26864649215713,142.47559695213567 47.40296973893419,143.24519791739294 46.458595098461956,145.21195360599086 46.1438035517931,148.29034707770916 45.120731024537235,151.1122005385696 45.120731024537235,151.8817957380088 44.80593947786838,152.5658799285302 44.097658497747034,155.90078454400646 44.49114793119952,157.52547816938022 43.54677329072729,159.15016950538848 43.23198174405843,162.05750618095044 42.05151344370097,165.47789288312197 41.81541978381574,168.55623223853763 41.343232463579625,169.83887121081352 41.264534576795995,174.96941282990156 40.94974303012714,176.76509700267343 40.241462050005794,178.5607783786254 39.76927472976968,178.98832115117693 39.45448318263516,180.1854400706943 39.53318106988445,181.1260326358024 38.19531699595973,182.49416590569308 38.03792122239247,182.83619896956952 37.9592233360745,184.2898383589927 38.35271276906133,185.05941141123185 38.667504316195846,184.8883952217875 39.76927472976968,182.92170721973525 40.39885782310739,178.98832115117693 41.185836690012366,175.91000964998966 42.05151344370097,173.34474378742743 41.81541978381574,170.18090802896768 42.20890921726823,168.21419493830763 42.445002877153456,167.10257301153615 42.91719019738957,166.2474784924416 43.23198174405843,164.02422977465903 44.176356384065,160.34730902442243 44.49114793119952,159.7487394202035 44.88463736465201,157.26894774916582 45.278126798104495,156.41384593618568 45.59291834477335,152.5658799285302 46.69468875834718,149.0599441610393 47.953854945488274,143.33070910407696 50.236093659419566,139.65372234943788 52.911821806803346,133.4968810560531 54.01359222037718,131.44459331705002 54.170987993944436,130.5894723473466 55.823643614538014,128.70820398110664 56.45322670834139,127.34000687708613 57.161507688462734,125.03117058135103 58.81416330905631,122.03822775924345 59.99463160941377,118.61771216039779 61.72598511679098,115.19718641065992 61.56858934322372,114.59859336080262 61.80468300310895,115.02615985681769 61.72598511679098,115.36821293918183 60.78161047631875,116.99296369502554 58.65676753548905,121.78168944141362 58.420673875603825,122.72232966101728 57.39760134834796,124.60360779677285 57.240205575246364,125.80078319390304 54.328383767511696,131.18805709277513 51.967447166796774,135.0360944623826 51.49525984656066,136.66081749490695 50.07869788631797,138.7130959466449 48.89822958596051,140.6798593677231 48.58343803929165,142.1335519135464 47.24557396583259,143.84377609094372 46.1438035517931,146.66564043646213 45.75031411834061,147.86279292043764 45.67161623155698,150.2570941586746 45.120731024537235,151.28322173835477 44.41245004441589,154.36159899708582 43.940262724179775,155.21670233242912 43.70416906429455,156.2428254975821 43.861564837396145,157.09792743751314 43.46807540394366,159.66322945139837 42.52370076440275,162.57056483329507 42.52370076440275,163.34015238354914 42.05151344370097,165.13585466961376 41.73672189703211,167.78664817032404 41.185836690012366,170.0098896326963 41.185836690012366,172.74618093139725 40.71364936977625,174.02881524234544 40.71364936977625,175.05492166342447 40.241462050005794,176.59407958301017 40.162764163222164,178.21874404657865 39.76927472976968,180.01442315842723 39.926670502871275,180.6129822410876 39.53318106988445,184.2898383589927 38.588806429412216,185.65796787454747 38.90359797608107,185.40144371421775 39.06099374964833,184.37534650124144 38.510108542162925,182.32314933580346 38.588806429412216,181.81009947368875 40.71364936977625,178.04772684240015 41.185836690012366,175.995518413838 42.20890921726823,173.77228849427775 42.13021133001894,168.98377872107085 42.9958880841732,166.6750258313259 42.91719019738957,165.3068737888825 43.07458597049117,164.19524905906292 43.46807540394366,163.08362325717462 43.54677329072729,161.03138819150627 44.88463736465201,156.841396922071 47.0094803054817,146.75115136941895 47.24557396583259,144.18582062190399 47.48166762525216,143.6727537874831 48.1899486053735,142.90315310738515 49.213021132629365,141.19292753440095 51.41656196024269,136.23325902421493 52.83312392048538,133.92444054182852 54.249685880728066,131.10254500538576 56.37452882155776,128.10961794806644 56.76801825501025,126.99795734731015 57.71239289548248,125.45873320719693 58.97155908215791,122.03822775924345 59.601142175961286,119.5583549621515 61.72598511679098,114.68410667282296 61.72598511679098,114.0 61.56858934322372,114.08551335625816 61.25379779655486,114.76961997820763 60.78161047631875,116.73642425436992 58.81416330905631,120.15694543608697 58.1845802157186,122.38027876080014 57.55499712238088,122.97886776924133 57.240205575246364,124.43258263886673 56.29583093477413,126.31385798321571 55.823643614538014,127.68205630528973 55.43015418108553,128.19513025751803 55.0366647480987,129.13576524303062 53.226613353937864,131.01703291153535 52.59703026013449,133.24034528865013 52.20354082714766,133.83892865746748 51.49525984656066,134.26648801617557 51.3378640729934,134.95058266056003 49.370416906196624,137.7724687763257 48.81953169917688,139.14065349759767 46.69468875834718,141.96252935630037 46.537292985245585,144.27133173891343 46.77338664513081,145.29746464674827 46.537292985245585,146.58012949727708 45.278126798104495,150.34260482515674 44.72724159155041,154.01955748553155 43.78286695107818,157.78200853255112 43.31067963084206,161.80097676912555 42.681096537504345,163.25464268098585 42.05151344370097,166.1619690055959 41.579326123930514,167.01706358819501 41.421930350363255,168.64174154779175 41.579326123930514,169.32581579312682 41.185836690012366,170.6939630662091 41.579326123930514,172.40414487425005 41.343232463579625,173.60127063049003 41.421930350363255,174.62737743236357 40.94974303012714,175.82450088002952 40.79234725655988,177.87670961284311 40.32015993632376,178.64628694596468 40.241462050005794,179.75789774232544 39.76927472976968,180.3564569578739 39.69057684298605,182.4086576239206 39.37578529631719,183.00721546343993 39.06099374964833,184.71737900696462 38.35271276906133,185.8289839500212 38.35271276906133,185.40144371421775 38.667504316195846,184.9739033197402 38.746202202979475,184.0333138939459 39.13969163643196,182.92170721973525 39.13969163643196,181.72459114110097 40.241462050005794,180.3564569578739 41.028440916445106,177.96221823076485 41.89411767059937,174.62737743236357 42.28760710405186,172.40414487425005 42.36630499036983,170.60845390922623 42.91719019738957,167.70113879756536 43.15328385774046,163.76770080043934 44.64854370430112,157.78200853255112 44.49114793119952,156.67037654662272 45.120731024537235,155.13119202753296 45.75031411834061,152.82241139531834 45.90770989144221,151.28322173835477 46.458595098461956,149.0599441610393 46.458595098461956,147.948303764686 47.1668760785833,144.86990937951487 47.875157059170306,143.1596867244225 48.89822958596051,142.1335519135464 49.99999999953434,139.9102566894726 50.236093659419566,139.14065349759767 51.0230725267902,138.20002667640802 51.652655620127916,137.0883758069249 51.967447166796774,135.80570039490703 51.888749280478805,135.37814160692506 52.12484294036403,134.77955903747352 53.62010278739035,132.64176160888746 54.407081654295325,131.01703291153535 56.61062248190865,128.10961794806644 57.86978866858408,123.2354058206547 58.499371762387455,121.78168944141362 59.28635062929243,120.9265613030293 59.758537949528545,119.5583549621515 60.70291258953512,117.67706859105965 60.939006249886006,116.30885839281837 61.64728722954169,115.11167313682381 61.64728722954169,114.34205338713946 61.175099909771234,114.76961997820763 60.70291258953512,116.5653979285853 58.420673875603825,120.67002273770049 57.71239289548248,122.46579149540048 57.39760134834796,124.17604485381162 56.45322670834139,126.57039529236499 55.43015418108553,128.4516671479214 55.43015418108553,129.56332634645514 54.485779540613294,130.41844807739835 52.99051969405264,133.4968810560531 50.629583093337715,136.8318408387131 50.393489432986826,137.7724687763257 49.99999999953434,138.3710497916909 49.05562535952777,140.5088365949341 48.26864649215713,141.70599547278835 47.796459172386676,142.1335519135464 47.32427185215056,142.81764188909438 46.379897211678326,144.69888722815085 46.06510566500947,147.77728206990287 45.278126798104495,149.9150514290086 45.278126798104495,150.34260482515674 44.018960610963404,155.55874348885845 43.861564837396145,156.7558867377229 43.940262724179775,157.78200853255112 43.31067963084206,159.66322945139837 42.91719019738957,162.8270940737566 42.05151344370097,165.05034510040423 42.13021133001894,166.33298797300085 41.73672189703211,167.70113879756536 40.79234725655988,170.35192640026798 41.028440916445106,171.7200724555296 40.55625359667465,173.9433063325705 40.55625359667465,174.96941282990156 40.241462050005794,175.6534833207843 39.926670502871275,177.70569235790754 39.53318106988445,178.73179550666828 39.53318106988445,180.1854400706943 39.84797261655331,181.04052425239934 39.53318106988445,182.1521327404189 38.43141065584496,183.60577299218858 38.03792122239247,185.65796787454747 38.27401488274336,185.74347591551486 38.667504316195846,185.74347591551486 38.98229586239904,185.23042757541407 39.13969163643196,183.00721546343993 39.61187895620242,181.9811161198304 39.61187895620242,181.38255774759455 40.162764163222164,180.6984906558646 40.63495148345828,179.415863765229 40.94974303012714,178.4752698051161 41.028440916445106,177.19264044123702 42.05151344370097,174.45635969535215 42.13021133001894,173.51576168928295 41.65802401024848,171.4635451938375 41.81541978381574,169.7533619903843 42.52370076440275,167.18808242864907 42.681096537504345,165.22136423236225 43.31067963084206,163.25464268098585 44.25505427131429,158.72261937579606 44.80593947786838,157.61098829691764 44.80593947786838,156.67037654662272 45.278126798104495,155.13119202753296 46.22250143811107,149.4874978743028 46.30119932536036,147.43523860466667 47.0094803054817,145.5539977310691 48.50474015250802,142.9886643193313 48.74083381239325,141.70599547278835 49.68520845286548,140.42332519876072 49.99999999953434,139.4826994240866 51.41656196024269,137.94349195552059 51.810051393229514,136.06223559135105 52.43963448656723,135.46365337714087 53.069217580370605,133.92444054182852 53.77749856049195,133.06932141177822 54.170987993944436,131.78664152754936 54.64317531418055,131.35908124881098 55.35145629476756,130.1619116247748 55.744945728220046,128.964740757423 56.37452882155776,128.0241056320956 56.84671614179388,126.65590771613643 57.39760134834796,126.05732061713934 57.71239289548248,124.77463292970788 58.263278102036566,124.00501963199349 58.73546542227268,122.29476601973874 59.758537949528545,120.75553559930995 60.23072526976466,118.87425118230749 60.23072526976466,118.1046339449822 62.04077666345984,114.59859336080262 61.80468300310895,114.34205338713946 61.41119356965646,114.59859336080262 60.70291258953512,116.13783200393664 60.46681892964989,117.07847682927968 59.522444289177656,118.36117308126995 58.341975988820195,121.18309981113998 58.02718444215134,121.18309981113998 57.79109078180045,120.67002273770049 57.63369500869885,120.58450986992102 57.240205575246364,120.9265613030293 57.240205575246364,121.18309981113998 57.79109078180045,121.43963826214895 58.1845802157186,121.18309981113998 58.341975988820195,120.15694543608697" stroke="#4dd2ff" stroke-linecap="round" stroke-linejoin="round" stroke-width="0.5"><title>2024-08-13 10.0km</title><desc>12136939266</desc></polyline><polyline fill="none" points="169.14893617015332,164.89667400904 171.55623100232333,171.8086494493764 178.778115500696,176.0988335099537 182.27963525801897,176.33717689849436 183.15501519758254,172.28533685440198 181.62310030311346,168.7101795671042 175.49544072896242,163.46660824096762 171.7750759869814,163.70495258062147 171.99392097257078,157.74633870529942 166.74164133612067,156.07792480965145 163.45896656438708,149.64260583301075 157.5501519748941,144.63734869472682 154.26747720316052,145.59073161659762 147.48328267410398,149.88095121388324 142.44984802324325,146.5441142518539 139.16717325150967,146.5441142518539 136.75987841933966,149.88095121388324 127.13069908786565,146.0674229701981 128.0060790264979,138.6786989234388 130.6322188442573,135.5801966090221 121.44072948303074,128.9064890134614 126.25531914830208,126.76136572728865 129.53799392096698,127.23805991606787 126.03647416364402,124.85458825156093 119.90881458856165,125.09293549880385 114.65653495397419,127.47640698426403 114.21884498372674,129.144835955929 119.68996960483491,131.52830438991077 121.00303951278329,133.1967312260531 121.6595744676888,137.01027497649193 118.59574468061328,144.63734869472682 125.37993920966983,153.21778465784155 122.53495440632105,157.98468347545713 128.6626139804721,164.89667400904 129.3191489353776,169.42521134740673 137.41641337331384,168.2334916233085 147.2644376894459,171.0936182073783 164.7720364741981,174.90711629833095 173.96352583542466,175.8604901037179 178.55927051603794,174.43042928841896 181.40425531938672,176.0988335099537 182.49848024267703,174.43042928841896 182.06079027242959,172.76202418771572 171.55623100232333,164.6583297594916 172.21276595722884,157.98468347545713 170.02431610878557,156.31626970600337 165.20972644351423,155.60123496409506 163.89665653463453,150.59598724753596 161.48936170246452,148.21253317268565 155.79939209669828,147.49749660026282 147.70212765969336,151.31102312006988 142.66869300883263,147.0208054620307 138.51063829660416,147.25915103964508 137.19756838865578,150.1192965763621 129.75683890469372,146.3057686202228 128.22492401115596,144.63734869472682 128.0060790264979,139.87042977497913 124.06686929985881,136.7719286272768 123.84802431520075,134.38846414140426 120.12765957415104,129.85987667483278 125.81762917898595,126.76136572728865 129.53799392096698,127.47640698426403 123.62917933054268,122.23276734724641 121.87841945234686,124.61624098662287 115.96960486285388,126.28467146586627 114.0,128.19144807918929 116.18844984658062,131.52830438991077 119.68996960483491,132.00499786133878 121.22188449744135,133.673424446024 122.75379939191043,138.20200645690784 120.12765957415104,140.5854680708144 119.68996960483491,144.63734869472682 126.03647416364402,149.16591501841322 126.25531914830208,151.54936837567948 122.97264437563717,157.50799391698092 128.88145896606147,163.9432969018817 130.19452887494117,169.6635552381631 141.35562309995294,171.8086494493764 145.29483282659203,174.43042928841896 164.33434650395066,174.43042928841896 175.27659574430436,177.52889357157983 178.778115500696,176.81386362132616 183.15501519758254,177.52889357157983 184.90577507484704,175.38380323699676 178.99696048535407,164.89667400904 170.89969604834914,163.22826388315298 168.93009118456393,155.83957989583723 164.7720364741981,154.4095100350678 162.36474164016545,150.35764192114584 158.8632218837738,147.7358421422541 150.5471124611795,151.31102312006988 144.85714285634458,147.7358421422541 135.88449847977608,148.92756958352402 131.50759878382087,146.5441142518539 128.22492401115596,152.02605883171782 125.59878419339657,152.97943952819332 124.50455927010626,148.21253317268565 119.90881458856165,141.30050620459951 120.56534954346716,138.6786989234388 122.97264437563717,137.24862130894326 127.78723404183984,138.9170451296959 129.3191489353776,142.4922360687051 135.0091185402125,147.97418766631745 123.41033434681594,156.07792480965145 131.28875379823148,168.94852351164445 155.1428571427241,174.19208575692028 167.39817629102618,174.19208575692028 175.71428571362048,177.29055027337745 182.93617021199316,176.5755202693399 186.0,173.9537422065623 178.12158054672182,165.13501824135892 173.30699088145047,163.70495258062147 172.21276595722884,157.26964911050163 166.08510638214648,155.83957989583723 161.27051671687514,148.21253317268565 157.33130699023604,146.7824598660227 147.2644376894459,150.1192965763621 143.32522796373814,146.5441142518539 140.48024316038936,146.3057686202228 135.66565349511802,149.16591501841322 128.88145896606147,144.16065712505952 127.56838905718178,139.63208364020102 120.78419452812523,139.39373748772778 121.6595744676888,134.38846414140426 119.47112461924553,128.9064890134614 123.41033434681594,126.9997128311079 119.68996960483491,132.00499786133878 122.09726443700492,137.48696762276813 119.90881458856165,143.68396548484452 121.00303951278329,146.3057686202228 125.59878419339657,148.21253317268565 127.34954407252371,151.07267784746364 127.56838905718178,153.93281993828714 124.94224923942238,158.22302822815254 129.3191489353776,164.6583297594916 129.97568388935179,169.42521134740673 134.5714285708964,171.57030571997166 143.32522796373814,171.0936182073783 155.36170212738216,174.19208575692028 162.58358662575483,173.47705505299382 175.27659574430436,176.33717689849436 178.34042553137988,174.90711629833095 182.7173252273351,175.62214667978697 184.46808510646224,173.7153986385092 182.49848024267703,168.2334916233085 172.86930091120303,164.41998549178243 172.21276595722884,160.12978560104966 164.7720364741981,155.12454504636116 163.24012158066034,149.16591501841322 161.27051671687514,147.7358421422541 154.9240121571347,147.7358421422541 147.92097264435142,149.64260583301075 141.13677811436355,146.5441142518539 136.54103343375027,150.59598724753596 128.0060790264979,146.0674229701981 126.25531914830208,139.15539131779224 123.41033434681594,136.7719286272768 120.3465045588091,130.0982235451229 124.94224923942238,126.04632430826314 119.25227963365614,124.37789370305836 114.65653495397419,128.4297950756736 117.93920972570777,131.05161084677093 120.78419452812523,130.81326404819265 122.53495440632105,132.95838458859362 122.09726443700492,138.9170451296959 119.25227963365614,140.82381413294934 119.0334346499294,142.968927889131 126.03647416364402,150.59598724753596 123.19148936122656,155.83957989583723 123.62917933054268,157.74633870529942 129.3191489353776,163.22826388315298 132.6018237080425,169.42521134740673 140.48024316038936,168.94852351164445 150.5471124611795,172.04699316085316 165.20972644351423,172.76202418771572 167.83586626127362,175.14545977674425 173.30699088145047,174.66877280245535 177.6838905774057,176.81386362132616 182.93617021199316,176.33717689849436 184.46808510646224,174.43042928841896 180.3100303951651,169.90189911145717 172.21276595722884,166.08839498995803 171.99392097257078,160.36813019239344 170.24316109344363,156.5546145841945 165.64741641283035,156.07792480965145 163.45896656438708,150.59598724753596 159.73860182333738,147.0208054620307 148.5775075973943,150.8343325566966 142.66869300883263,147.49749660026282 134.5714285708964,148.21253317268565 128.0060790264979,144.63734869472682 126.6930091176182,138.44035269878805 122.09726443700492,137.24862130894326 122.75379939191043,132.2433445705101 120.78419452812523,130.33657039725222 117.28267477173358,130.81326404819265 116.40729483217001,128.4297950756736 117.50151975639164,126.9997128311079 121.6595744676888,133.43507784511894 120.3465045588091,143.92231131414883 126.47416413389146,151.07267784746364 123.62917933054268,158.46137296245433 125.81762917898595,158.699717679061 127.78723404183984,161.79819736094214 131.28875379823148,170.85527442372404 141.79331306926906,170.37858680356294 147.70212765969336,172.52368053025566 154.70516717247665,171.33196197240613 162.36474164016545,171.8086494493764 163.24012158066034,173.23871144885197 169.80547112319618,175.62214667978697 178.778115500696,175.8604901037179 183.15501519758254,178.0055801155977 184.90577507484704,176.5755202693399 182.27963525801897,171.33196197240613 177.0273556234315,165.8500508298166 172.21276595722884,164.89667400904 170.89969604834914,160.84481931990013 164.99088145792484,155.12454504636116 161.92705167084932,148.68922413117252 157.33130699023604,147.49749660026282 148.5775075973943,151.07267784746364 144.85714285634458,147.0208054620307 142.01215805392712,146.5441142518539 136.3221884490922,149.88095121388324 128.22492401115596,146.0674229701981 124.06686929985881,137.96366019686684 122.75379939191043,137.72531391843222 120.78419452812523,140.34712198982015 123.62917933054268,142.73058198811486 123.41033434681594,147.0208054620307 125.59878419339657,151.31102312006988 128.88145896606147,152.50274921627715 134.79027355462313,147.97418766631745 139.82370820548385,150.8343325566966 139.38601823616773,154.64785505691543 135.88449847977608,157.03130428656004 131.50759878382087,164.6583297594916 127.56838905718178,167.0417714510113 128.6626139804721,169.42521134740673 132.16413373779505,170.85527442372404 144.63829787168652,170.6169306228403 148.5775075973943,173.23871144885197 156.89361702091992,171.57030571997166 167.1793313063681,175.62214667978697 182.93617021199316,175.14545977674425 181.40425531938672,168.2334916233085 173.30699088145047,165.13501824135892 169.80547112319618,157.26964911050163 165.86626139841974,155.83957989583723 161.27051671687514,148.68922413117252 155.36170212738216,147.49749660026282 148.35866261273623,150.35764192114584 138.9483282668516,144.87569445185363 139.82370820548385,149.40426043467596 137.19756838865578,150.8343325566966 131.28875379823148,147.7358421422541 126.91185410227627,139.15539131779224 119.90881458856165,138.44035269878805 118.15805471036583,130.0982235451229 124.06686929985881,126.76136572728865 125.16109422408044,123.6628517457284 127.78723404183984,128.19144807918929 124.94224923942238,126.9997128311079 122.09726443700492,127.95310106594115 117.7203647410497,125.80797713249922 115.31306990794837,128.4297950756736 116.84498480148613,132.00499786133878 122.09726443700492,130.57491723145358 123.41033434681594,132.48169126105495 120.12765957415104,145.11404019175097 126.25531914830208,151.07267784746364 122.53495440632105,157.74633870529942 126.91185410227627,162.7515751144383 129.10030395071954,169.18686743848957 145.95136778056622,170.37858680356294 159.5197568386793,173.47705505299382 165.42857142724097,173.23871144885197 175.27659574430436,176.5755202693399 180.09118541050702,173.9537422065623 180.96656534820795,168.47183560440317 174.18237082008272,165.8500508298166 169.36778115481138,166.08839498995803 168.27355623058975,158.9380623777397 164.99088145792484,156.792959443992 162.36474164016545,149.16591501841322 158.64437689911574,145.82907730271108 156.2370820660144,145.59073161659762 147.92097264435142,149.88095121388324 138.51063829660416,145.11404019175097 139.38601823616773,148.45087866089307 137.6352583579719,149.16591501841322 132.6018237080425,146.5441142518539 128.0060790264979,139.15539131779224 120.78419452812523,137.72531391843222 120.3465045588091,130.0982235451229 126.6930091176182,126.76136572728865 129.53799392096698,127.47640698426403 122.53495440632105,121.9944198844023 120.56534954346716,126.04632430826314 114.43768996931612,127.95310106594115 121.6595744676888,132.48169126105495 123.41033434681594,136.7719286272768 120.12765957415104,142.015544177033 126.6930091176182,150.8343325566966 125.81762917898595,154.64785505691543 122.97264437563717,157.03130428656004 126.6930091176182,161.32150837639347 129.10030395071954,168.7101795671042 135.0091185402125,168.7101795671042 138.51063829660416,170.6169306228403 154.9240121571347,171.57030571997166 169.14893617015332,175.8604901037179 175.49544072896242,176.81386362132616 182.93617021199316,176.33717689849436 184.0303951362148,174.43042928841896 177.90273556113243,166.32673913193867 172.4316109418869,164.89667400904 172.4316109418869,158.9380623777397 168.71124619990587,155.36289001372643 165.20972644351423,154.8862000608351 160.17629179358482,145.82907730271108 157.76899695955217,145.82907730271108 147.92097264435142,150.35764192114584 143.32522796373814,146.7824598660227 138.72948328219354,146.0674229701981 135.44680851045996,148.68922413117252 132.6018237080425,147.7358421422541 125.59878419339657,151.54936837567948 122.97264437563717,155.83957989583723 128.6626139804721,162.27488627354614 128.6626139804721,167.28011552104726 147.48328267410398,169.90189911145717" stroke="#4dd2ff" stroke-linecap="round" stroke-linejoin="round" stroke-width="0.5"><title>2024-01-16 10.2km</title><desc>10569480991</desc></polyline><polyline fill="none" points="73.04878048878163,255.9393460773863 76.1219512205571,258.56911578122526 85.78048780560493,256.1784161401447 81.60975609812886,248.76723581342958 73.04878048878163,242.55139381205663 71.29268292803317,235.85739650926553 67.34146341495216,235.61832491587847 64.48780487850308,229.4024571715854 60.75609756167978,226.0554464221932 54.82926829345524,226.77266330830753 49.56097561027855,230.35874530882575 46.92682927008718,230.59781729779206 42.53658536635339,225.81637409096584 37.04878048878163,214.1018077984918 24.97560975700617,200.47460486600175 22.560975610278547,205.4951601200737 18.170731708407402,207.4077505094465 16.853658537380397,209.55941331991926 19.04878048785031,211.7110746728722 22.780487805604935,211.472001260845 25.195121951401234,218.16604998055845 22.12195121962577,223.42564978683367 27.609756098128855,232.27132071973756 25.195121951401234,238.24811145220883 28.487804878503084,245.18117460561916 27.829268293455243,249.72351811779663 35.29268292710185,251.63608186296187 43.41463414672762,250.67980013461784 62.07317073177546,254.98306564451195 67.78048780467361,254.5049253203906 84.02439024485648,259.52539513399825 85.34146341495216,257.1346962125972 84.24390243925154,252.35329297045246 73.70731707382947,244.22489093244076 73.92682926915586,238.48718284722418 68.00000000093132,235.61832491587847 62.29268292710185,226.0554464221932 59.87804878130555,225.33822937402874 50.439024390652776,230.8368892695289 46.92682927008718,230.59781729779206 39.68292682990432,225.33822937402874 39.68292682990432,219.83955995482393 36.1707317084074,219.12234150245786 33.975609756074846,214.57995420717634 24.09756097663194,207.16867677331902 21.243902440182865,203.3434945542831 16.195121952332556,207.4077505094465 18.609756098128855,211.23292783112265 22.560975610278547,212.90644146013074 24.09756097663194,216.73161215730943 21.243902440182865,225.09915698878467 26.951219514012337,233.46667976630852 24.97560975700617,238.00904003856704 28.707317074760795,244.7030328051187 26.951219514012337,245.18117460561916 26.951219514012337,249.484447568655 33.975609756074846,249.00630641635507 39.243902440182865,251.15794103499502 43.63414634205401,249.72351811779663 51.09756097663194,253.0705039158929 59.658536585979164,253.0705039158929 77.00000000093132,257.1346962125972 83.14634146448225,258.0909759977367 86.0,256.8956262213178 83.14634146448225,251.39701145794243 73.70731707382947,243.9858199695591 61.8536585373804,225.81637409096584 59.21951219625771,225.33822937402874 51.317073171027005,229.64152923272923 46.487804878503084,229.64152923272923 42.53658536635339,225.57730174134485 41.439024390652776,220.55677824560553 33.75609756167978,215.29717368562706 28.92682926915586,206.21238165115938 23.21951219625771,200.47460486600175 14.0,207.4077505094465 16.414634147658944,209.7984868758358 21.243902440182865,211.472001260845 24.536585366353393,218.16604998055845 21.243902440182865,223.66472229803912 26.731707317754626,231.79317697510123 24.75609756167978,233.22760799294338 30.243902439251542,242.31232272321358 29.146341464482248,249.2453770013526 34.41463414672762,247.81095322058536 39.68292682990432,249.00630641635507 46.268292683176696,247.81095322058536 56.5853658542037,253.0705039158929 63.39024390280247,254.0267849243246 69.31707317195833,252.83143361867405 78.31707317195833,256.65655621280894 83.5853658542037,257.61283614113927 85.34146341495216,255.46120589692146 83.5853658542037,250.4407296574209 73.92682926915586,243.5076779895462 73.92682926915586,237.0527542058844 66.9024390252307,234.18389497837052 61.8536585373804,224.621012164047 57.902439025230706,225.57730174134485 50.439024390652776,230.8368892695289 46.70731707382947,226.53359103086405 35.951219513081014,220.55677824560553 27.609756098128855,210.2766339329537 22.12195121962577,208.1249716077 17.731707317754626,203.82164258416742 14.658536585979164,207.8858979267534 17.951219513081014,211.472001260845 23.21951219625771,214.81902738520876 23.658536586910486,219.83955995482393 21.024390244856477,224.621012164047 27.17073170747608,231.31503315782174 23.658536586910486,237.76996860769577 29.146341464482248,243.26860697194934 28.707317074760795,250.91887059342116 33.75609756167978,249.72351811779663 39.68292682990432,252.11422261944972 43.8536585373804,251.63608186296187 47.5853658542037,253.54864445631392 59.21951219625771,254.26585513167083 76.56097561027855,258.56911578122526 82.4878048794344,257.8519060781691 84.682926828973,254.26585513167083 83.5853658542037,249.72351811779663 78.75609756167978,245.42024547886103 73.48780487850308,243.9858199695591 72.17073170747608,238.7262542245444 67.12195121962577,233.9448232590221 63.609756098128855,227.96802442520857 60.53658536635339,226.2945187354926 57.46341463550925,226.53359103086405 51.75609756167978,232.03224885626696 50.439024390652776,231.79317697510123 46.268292683176696,226.77266330830753 41.658536585979164,225.57730174134485 38.146341463550925,216.0143930024933 28.26829268410802,203.82164258416742 20.365853658877313,203.82164258416742 15.536585367284715,205.2560862400569 14.439024390652776,207.4077505094465 17.073170731775463,210.99385438370518 20.5853658542037,212.1892214419786 24.09756097663194,218.16604998055845 19.92682926915586,222.4693595606368 26.51219512242824,231.31503315782174 25.853658536449075,234.4229666790925 23.21951219625771,238.24811145220883 29.80487804953009,243.5076779895462 29.80487804953009,250.2016591625288 40.12195121962577,249.72351811779663 46.92682927008718,249.00630641635507 53.51219512242824,252.5923633039929 66.24390244018286,251.39701145794243 70.63414634205401,252.5923633039929 74.5853658542037,255.9393460773863 81.39024390280247,257.3737661864143 84.46341463457793,255.46120589692146 82.70731707289815,252.5923633039929 73.2682926831767,245.18117460561916 70.63414634205401,237.76996860769577 65.58536585513502,235.1401816753205 64.26829268410802,228.68524087942205 59.0,226.0554464221932 49.780487805604935,231.31503315782174 46.487804878503084,230.59781729779206 45.82926829345524,226.77266330830753 40.34146341495216,223.90379479154944 35.951219513081014,215.53624680964276 30.902439024299383,211.95014806604013 28.04878048878163,204.7779384269379 23.658536586910486,201.66997588449158 21.243902440182865,204.29979054140858 14.21951219625771,206.6905292486772 17.292682928033173,210.7547809178941 21.46341463457793,212.1892214419786 24.536585366353393,216.73161215730943 19.487804878503084,224.38193972432055 26.29268292710185,230.8368892695289 26.51219512242824,233.9448232590221 22.34146341588348,237.53089715819806 28.707317074760795,238.96532558393665 28.487804878503084,248.2890945528634 34.8536585373804,248.52816519211046 43.41463414672762,251.87515225005336 54.39024390373379,255.22213577991351 63.1707317084074,254.5049253203906 75.68292682990432,259.52539513399825 83.36585365887731,258.3300458986778 85.12195121962577,255.9393460773863 84.46341463457793,252.35329297045246 76.56097561027855,244.9421037142165 74.5853658542037,244.7030328051187 73.04878048878163,237.53089715819806 68.00000000093132,234.18389497837052 62.51219512335956,225.81637409096584 60.53658536635339,225.57730174134485 49.56097561027855,231.31503315782174 42.09756097570062,227.72895223787054 40.780487805604935,221.03492368222214 26.951219514012337,203.3434945542831 21.024390244856477,204.06071657175198 14.878048781305552,207.64682422741316 19.487804878503084,210.03756041335873 23.000000000931323,216.9706851723604 20.365853658877313,224.86008458514698 27.609756098128855,231.79317697510123 27.39024390373379,233.7057515210472 22.780487805604935,237.53089715819806 28.92682926915586,244.9421037142165 28.92682926915586,250.4407296574209 47.80487805046141,252.35329297045246 62.07317073177546,254.5049253203906 66.02439024485648,256.1784161401447 71.07317073270679,256.1784161401447 73.92682926915586,257.8519060781691 82.4878048794344,257.8519060781691 84.682926828973,254.7439954916481 83.5853658542037,251.15794103499502 77.4390243915841,245.42024547886103 73.04878048878163,243.9858199695591 74.36585365980864,238.24811145220883 67.12195121962577,234.18389497837052 64.70731707382947,228.44616874610074 61.63414634205401,225.57730174134485 59.21951219625771,225.57730174134485 51.53658536635339,230.8368892695289 46.70731707382947,229.88060127641074 42.53658536635339,224.621012164047 41.439024390652776,220.55677824560553 35.951219513081014,215.05810054461472 29.5853658542037,204.29979054140858 27.609756098128855,203.3434945542831 19.26829268410802,206.21238165115938 16.195121952332556,205.97330782515928 15.09756097663194,208.1249716077 21.682926829904318,212.90644146013074 21.024390244856477,224.621012164047 28.04878048878163,232.03224885626696 24.97560975700617,238.00904003856704 28.707317074760795,242.31232272321358 28.487804878503084,250.4407296574209 32.00000000093132,249.2453770013526 38.146341463550925,251.63608186296187 42.75609756074846,250.67980013461784 50.658536586910486,253.54864445631392 55.487804878503084,252.83143361867405 67.12195121962577,255.22213577991351 76.78048780560493,259.2863253224641 80.29268292710185,257.3737661864143 83.5853658542037,257.8519060781691 86.0,256.4174861854408 78.75609756167978,245.42024547886103 73.48780487850308,244.4639618783258 73.2682926831767,238.48718284722418 70.8536585373804,235.85739650926553 68.21951219532639,235.1401816753205 65.58536585513502,229.16338509251364 62.07317073177546,225.81637409096584 55.70731707382947,227.25080780894496 50.439024390652776,230.8368892695289 41.87804878130555,226.53359103086405 40.12195121962577,217.92697705491446 36.1707317084074,214.57995420717634 27.609756098128855,202.14812416629866 24.536585366353393,200.95275332732126 23.000000000931323,204.53886449337006 19.487804878503084,206.45145545853302 15.975609757006168,205.97330782515928 15.09756097663194,207.4077505094465 17.51219512335956,210.51570743415505 20.146341464482248,209.32033974700607 23.87804878130555,212.66736813890748 23.87804878130555,217.4488311498426 21.243902440182865,224.38193972432055 27.17073170747608,230.59781729779206 26.29268292710185,233.9448232590221 23.439024390652776,235.61832491587847 29.365853658877313,243.029535937123 28.04878048878163,249.2453770013526 35.29268292710185,249.2453770013526 41.21951219532639,253.0705039158929 48.902439025230706,251.87515225005336 54.609756098128855,254.26585513167083 63.82926829345524,254.26585513167083 76.34146341588348,258.56911578122526 83.14634146448225,258.3300458986778 86.0,255.9393460773863 77.4390243915841,244.9421037142165 74.14634146355093,245.42024547886103 73.48780487850308,238.96532558393665 66.46341463457793,234.18389497837052 63.39024390280247,227.01173556782305 58.121951220557094,225.09915698878467 50.0,231.07596122287214 46.70731707382947,228.44616874610074 43.41463414672762,228.68524087942205 36.39024390280247,214.34088101168163 29.365853658877313,208.60311891767196 27.829268293455243,205.01701234281063 21.902439025230706,202.86534645361826 19.04878048785031,203.58256857818924 15.536585367284715,206.92960302042775 20.365853658877313,209.08126615476795 22.560975610278547,211.7110746728722 23.21951219625771,217.4488311498426 20.5853658542037,225.09915698878467 26.29268292710185,233.22760799294338 23.87804878130555,238.48718284722418 29.365853658877313,244.4639618783258 27.829268293455243,249.484447568655 32.4390243915841,250.2016591625288" stroke="#4dd2ff" stroke-linecap="round" stroke-linejoin="round" stroke-width="0.5"><title>2023-10-24 10.2km</title><desc>10096212910</desc></polyline></svg>