<?xml version="1.0" encoding="utf-8" ?>
<svg baseProfile="full" height="300mm" version="1.1" viewBox="0,0,200,300" width="200mm" xmlns="http://www.w3.org/2000/svg" xmlns:ev="http://www.w3.org/2001/xml-events" xmlns:xlink="http://www.w3.org/1999/xlink"><defs /><rect fill="#222222" height="300" width="200" x="0" y="0" /><text fill="#FFFFFF" style="font-size:12px; font-family:Arial; font-weight:bold;" x="10" y="20">Over 10km Runs</text><text fill="#FFFFFF" style="font-size:4px; font-family:Arial" x="10" y="280">ATHLETE</text><text fill="#FFFFFF" style="font-size:9px; font-family:Arial" x="10" y="290">wzso</text><text fill="#FFFFFF" style="font-size:4px; font-family:Arial" x="120" y="280">STATISTICS</text><text fill="#FFFFFF" style="font-size:3px; font-family:Arial" x="120" y="285">Number: 6</text><text fill="#FFFFFF" style="font-size:3px; font-family:Arial" x="120" y="290">Weekly: 1.0</text><text fill="#FFFFFF" style="font-size:3px; font-family:Arial" x="141" y="285">Total: 74.4 km</text><text fill="#FFFFFF" style="font-size:3px; font-family:Arial" x="141" y="290">Avg: 12.4 km</text><text fill="#FFFFFF" style="font-size:3px; font-family:Arial" x="167" y="285">Min: 10.0 km</text><text fill="#FFFFFF" style="font-size:3px; font-family:Arial" x="167" y="290">Max: 17.0 km</text><polyline fill="none" points="46.15621363045648,84.30057196819689 46.490455923601985,84.66374547686428 46.490455923601985,83.39263772510458 47.15894050942734,81.30438641039655 47.493182802572846,79.03454398398753 48.07810681499541,77.2186670122901 49.41507598711178,70.49989879340865 50.334242292679846,67.32209016766865 50.91916630556807,64.4166579177836 52.25613547768444,61.420423686970025 53.25886235618964,59.604520583408885 55.849240127019584,54.24759073078167 60.44507165579125,45.71277269849088 61.447798534762114,43.533660684130155 62.19984369399026,40.991358430008404 63.03544942615554,39.266221750178374 63.95461573218927,36.90550445753615 64.95734261116013,34.99876793520525 64.95734261116013,34.544782611192204 64.53953974507749,34.81717382592615 64.12173687899485,35.7251441036351 62.868328279815614,38.99383152567316 62.28340426739305,41.172951623331755 59.94370821630582,47.25630802777596 59.191663056612015,48.709045383147895 57.18620929913595,51.88690233568195 57.10264872573316,52.52247273607645 56.60128528624773,53.61202122620307 54.17802866222337,57.425433302880265 53.509544075932354,58.3333868078189 52.42325662402436,60.96644816373009 50.752045159228146,63.87188860331662 50.08356057340279,65.50619581982028 48.66303082788363,71.49863694340456 47.07537993602455,77.12787309288979 46.7411376433447,79.67010028765071 45.989092484116554,82.66628984571435 45.153486751485616,85.48088547738735 43.98363872570917,90.02054221369326 43.649396433029324,96.1036558462074 43.0644724201411,99.5537665617885 41.811063821427524,104.45653874636628 42.312427260912955,102.00515510863625 43.90007815277204,96.9207882102346 44.150759872980416,95.83127827034332 44.150759872980416,93.28908463951666 44.4850021651946,91.74560735921841 45.48772904463112,88.29547463729978 46.40689535019919,83.48343117965851 47.32606165576726,80.21486257074866 47.57674337550998,78.30819351854734 48.830151974223554,73.31452240096405 49.08083369396627,71.95260856044479 49.49863656004891,70.77228200610261 49.91643942613155,68.3208309103502 50.668484585825354,65.59699060104322 51.33696917165071,63.87188860331662 52.841059490107,61.238833497976884 53.84378636907786,58.9689538605744 54.846513248514384,56.33588820765726 56.01636127382517,54.610773156397045 58.773860190529376,49.43541341391392 61.1971168150194,43.261271409573965 63.20257057342678,39.266221750178374 65.12446375750005,34.453985526342876 64.87378203775734,34.363188434392214 64.53953974507749,34.99876793520525 63.70393401244655,38.35825409949757 62.78476770687848,40.44657868845388 61.36423796182498,44.4416244950844 59.525905350223184,48.345861205947585 57.771133311558515,50.797352310153656 57.01908815279603,52.2500854623504 55.18075554119423,56.42668366921134 54.51227095536888,57.425433302880265 52.25613547768444,61.60201384918764 50.58492401242256,64.1442732908763 49.91643942613155,65.68778537563048 49.749318280257285,66.77732214611024 49.16439426736906,68.50242004892789 48.913712547626346,70.22751552029513 47.74386452231556,74.22246411943343 45.82197133777663,83.21105079562403 43.98363872570917,90.83767863851972 43.56583585962653,95.37731550913304 43.14803299354389,98.55505130195525 42.813790700398386,100.46168881817721 42.06174554117024,103.00386755343061 42.14530611457303,103.09465955360793 42.228866687975824,102.73149151273537 42.228866687975824,102.00515510863625 42.47954840771854,101.82357093994506 42.89735127380118,100.9156496936921 42.98091184720397,100.00772777397651 44.150759872980416,96.1036558462074 44.4850021651946,92.381157063297 45.069926178548485,89.11261221324094 45.82197133777663,86.02564517478459 46.15621363045648,83.93739835184533 47.24250108236447,80.0332751700189 47.66030394891277,77.6726365077775 47.99454624205828,76.58310943574179 49.331515414174646,70.49989879340865 49.749318280257285,69.04718730249442 50.16712114633992,66.86811683315318 50.83560573263094,64.4166579177836 52.92462006350979,60.330882148235105 55.01363439485431,55.51872874959372 55.849240127019584,53.97520384052768 57.52045159228146,51.70531073224265 59.191663056612015,48.527453307877295 62.450525413732976,40.718968589557335 64.45597917120904,36.45151984074619 65.29158490430564,34.907970883883536 65.20802433090284,34.72637676121667 64.87378203775734,34.81717382592615 63.87105515925214,37.177895146771334 61.36423796182498,43.806049897917546 59.02454191027209,49.25382144667674 57.771133311558515,50.70655643066857 57.10264872573316,51.79610653745476 56.0999218467623,53.430429878411815 54.930073820985854,56.154297264060006 54.2615892351605,57.15304712008219 51.50409031845629,62.328374228440225 50.0,64.87063216161914 44.06719929911196,90.65609281347133 43.56583585962653,98.64584363205358 42.47954840771854,101.64198674459476 41.72750324849039,104.81970627524424 41.30970038194209,105.27366553479806 41.30970038194209,105.54604100994766 41.47682152874768,105.72762462613173 41.894624394830316,105.00128999946173 41.97818496776745,104.36574684735388 42.06174554117024,103.91178725101054 41.811063821427524,103.09465955360793 42.06174554117024,102.18673924996983 42.14530611457303,101.1880261383485 44.06719929911196,97.28395797475241 44.40144159225747,94.01542621559929 44.31788101885468,93.37987736007199 44.40144159225747,91.47322881373111 45.32060789782554,88.20468153944239 46.23977420385927,83.21105079562403 46.574016496539116,82.2123222022783 47.15894050942734,79.12533776182681 48.24522796180099,75.13040516444016 49.331515414174646,71.86181425058749 49.58219713391736,69.50115982873831 50.0,68.23003633122426 50.250681719742715,67.95765255275182 50.41780286608264,67.59447408746928 50.91916630556807,65.50619581982028 51.671211464796215,63.78109369392041 52.67393834376708,62.05598913668655 54.67939210124314,57.78861478564795 56.51772471284494,54.70156874624081 58.10537560470402,51.70531073224265 58.773860190529376,49.98018915427383 59.609465923625976,48.61824934894685 60.19438993604854,47.34710416290909 61.029995668679476,45.98516142752487 62.11628312058747,43.170474971062504 62.868328279815614,40.53737532906234 63.45325229270384,39.44781519914977 63.95461573218927,37.904270021477714 64.70666089141741,36.54231677763164 65.20802433090284,36.088332025916316 65.37514547770843,35.543550101923756 65.12446375750005,35.361956073436886 64.70666089141741,35.6343471063301 61.949161974247545,42.53489971405361 60.44507165579125,45.894365191226825 59.94370821630582,47.25630802777596 49.91643942613155,64.68904248427134 49.41507598711178,67.77606333349831 48.412349108140916,71.77101993386168 47.493182802572846,76.21993352950085 45.989092484116554,81.57676721864846 45.571289618033916,84.02819176600315 44.4850021651946,88.20468153944239 44.150759872980416,91.20085020770784 44.150759872980416,94.65097474120557 43.98363872570917,96.1036558462074 43.14803299354389,100.46168881817721 41.6439426750876,106.0 42.06174554117024,104.18416302895639 42.47954840771854,103.45782748644706 43.0644724201411,100.64327318849973 43.732957006432116,99.09980518079828 44.150759872980416,97.64712763135321 44.568562739063054,91.92719302279875 45.069926178548485,89.65737029432785 45.32060789782554,87.93230220582336 46.3233347767964,84.66374547686428 46.490455923601985,83.66501806862652 46.7411376433447,83.21105079562403 48.07810681499541,77.49104872962926 48.24522796180099,77.12787309288979 48.66303082788363,75.4027873466257 48.99727312056348,74.58564061834477 50.334242292679846,68.04844715225045 51.169848025310785,64.59824763564393 52.92462006350979,61.238833497976884 53.25886235618964,60.058496611891314 55.68211898067966,56.154297264060006 59.191663056612015,49.34461743372958 60.19438993604854,46.71153107495047 61.029995668679476,45.077198761631735 61.531359107699245,43.170474971062504 62.19984369399026,41.626934488653205 63.11900999955833,40.264985387562774 64.28885802533478,37.904270021477714 65.12446375750005,35.543550101923756 65.20802433090284,34.99876793520525 64.7902214648202,35.18036201770883 64.45597917120904,36.45151984074619 63.11900999955833,39.62940862169489 62.70120713347569,40.9005618232768 61.949161974247545,42.17171370459255 59.525905350223184,48.07347300229594 58.35605732444674,49.88939321436919 56.18348242016509,54.15679510741029 52.75749891716987,60.421677313395776 51.4205297450535,62.328374228440225 50.58492401242256,63.78109369392041 49.58219713391736,65.960169659229 48.66303082788363,69.95513218641281 48.412349108140916,71.77101993386168 47.99454624205828,73.58690498722717 46.3233347767964,79.4885128060123 45.82197133777663,82.39390927995555 44.4850021651946,88.02309532393701 43.90007815277204,92.381157063297 43.90007815277204,93.92463354207575 43.732957006432116,97.28395797475241 41.47682152874768,105.90920821554027 43.0644724201411,100.18931221193634 44.234320445451885,98.55505130195525 44.31788101885468,98.10108955088072 44.735683884937316,96.73920328752138 44.81924445880577,91.47322881373111 46.15621363045648,86.66119784850162 46.574016496539116,83.8466049307026 47.07537993602455,82.57549633050803 47.74386452231556,79.21613153279759 47.74386452231556,78.03581198269967 48.57947025448084,74.85802292171866 48.830151974223554,72.67896279727574 49.66575770685449,70.22751552029513 50.752045159228146,65.3246062368853 51.50409031845629,63.59950385522097 53.17530178325251,61.05724328174256 53.593104649335146,59.69531580270268 58.188936178106815,51.88690233568195 59.609465923625976,49.16302545287181 61.1971168150194,45.258791348780505 61.69848025450483,43.44286426587496 63.45325229270384,40.08339205943048 64.95734261116013,36.45151984074619 65.45870605064556,35.7251441036351 65.79294834379107,34.72637676121667 65.70938777038828,34.453985526342876 65.04090318456292,34.09079711895902 64.28885802533478,34.0 63.45325229270384,34.27239133603871 62.19984369399026,35.18036201770883 60.44507165579125,38.35825409949757 60.110829362645745,38.449050894821994 58.60673904418945,37.995066850678995 58.02181503130123,38.17666048859246 57.52045159228146,40.62817196256947 56.851967005990446,41.899324127007276 55.76567955408245,43.35206784098409 54.930073820985854,43.71525349991862 53.17530178325251,43.533660684130155 50.668484585825354,42.625696199713275 48.07810681499541,41.44534136285074 46.65757706994191,40.53737532906234 45.153486751485616,39.81100201688241 44.81924445880577,39.53861191368196 43.90007815277204,39.35701847798191 42.64666955405846,38.72144124051556 41.47682152874768,38.449050894821994 39.471367770340294,37.541082638083026 37.048111146781594,36.90550445753615 35.87826312100515,37.541082638083026 35.62758140079677,37.631879493827 34.95909681497142,37.541082638083026 34.20705165620893,37.087098257034086" stroke="#4dd2ff" stroke-linecap="round" stroke-linejoin="round" stroke-width="0.5"><title>2024-12-08 10.3km</title><desc>13069926368</desc></polyline><polyline fill="none" points="161.5160851100227,105.01454987814941 161.39099525142228,104.98056876385817 161.40663148381282,105.43931338175025 161.42226771608694,105.35436074406607 161.7662648272817,105.5072754691937 163.3298880601651,106.0 163.5018866158207,106.0 163.61134024208877,105.91504757035 163.8771561916219,105.09950264191139 164.3462431615917,104.11404864474025 164.58078664646018,103.40044137861696 164.5338779494632,103.29849730196293 164.7215127373929,103.06062761310022 164.9404199901037,102.24507251832983 165.40950695989886,101.22562456487503 165.75350407109363,100.20617207247415 165.9098663944751,99.52653455581458 165.7378678388195,99.2206970150728 165.8004127680906,98.96583208579978 165.72223160648718,98.86388603462547 164.86223882838385,98.67698482291598 163.70515763602452,98.30318194181018 162.98589094891213,98.13327133953862 162.34480542351957,97.87840519973543 162.04771700920537,97.67451208361308 161.2189966958249,97.45362766955805 160.90627204923658,97.30070756576606 160.71863726124866,97.09681393516075 160.67172856425168,96.90991128091991 161.03136190783698,95.63557093519194 162.39171412045835,91.88047346870007 162.87643732270226,90.77602131472668 163.65824893902754,88.56710102010402 164.15860837360378,86.95287655500579 164.6433315757895,86.05230427456263 164.9560562223778,85.25368060864275 168.4898447286687,78.8815834527195 169.14656648645177,77.84503887085884 170.0065592645551,76.09479719835508 170.10037665854907,76.0438190849527 170.39746507274685,75.55103006967693 170.46001000201795,75.29613878330565 171.75781728536822,72.4583299504593 172.24254048749572,71.1158811738569 172.60217383108102,70.48713663339731 173.16507819492836,69.21264915590291 173.03998833632795,69.12768307169608 172.50835643708706,69.12768307169608 172.17999555822462,69.22964236899861 171.78908975003287,69.14467629104911 170.4912824667408,69.26362879133376 167.7705780415563,69.22964236899861 167.4734896272421,69.02572372891882 167.08258381899213,69.00873050073278 165.83168523275526,69.14467629104911 165.14369101030752,69.24663558081375 164.29933446459472,69.38258122977277 163.84588372701546,69.51852679798321 163.47061415115604,69.4675472194067 163.3924329894944,69.55251317743387 162.6731663023238,69.38258122977277 162.2978967264644,69.36558802808577 162.1884431001381,69.00873050073278 162.21971556480275,68.78781841910677 161.75062859500758,68.58389938519394 161.1095430694404,68.46494653150148 160.04627927113324,68.12508089443145 159.85864448320353,68.22704063855053 159.67100969533203,68.22704063855053 158.9986517051584,67.95514788653236 158.1542951593874,67.66626148349314 157.8572067450732,67.615281492137 157.6695719572017,67.4963281348173 153.9481486629811,66.39175829180749 153.65106024878332,66.20483055997465 152.86924863228342,66.00090922375966 152.50961528869811,65.83097463809827 151.91543846030254,65.59306600608397 151.16489930846728,65.4231311174517 150.03909058083082,64.99829334356764 149.39800505532185,64.94731275773665 148.75691952987108,65.08326096147357 148.42855865095044,64.99829334356764 146.50530207453994,64.91332569417136 143.8940512756235,64.91332569417136 141.87697730521904,64.82835801312467 140.62607871892396,64.84535155187768 139.95372072880855,64.76038384561252 139.89117579947924,64.89633216048242 138.70282214251347,64.94731275773665 138.1242815463338,64.89633216048242 137.84282936446834,64.76038384561252 137.7646482027485,64.42051270503725 137.92101052607177,63.75776252860669 137.8897380613489,63.29893435856502 137.62392211175757,62.925073687772965 137.56137718254467,61.76950047854916 137.6395583441481,61.58256896973762 137.74901197047438,61.49760005155986 137.84282936446834,61.03876734813093 138.0617366169463,60.61392143170815 138.23373517260188,59.747233315516496 138.18682647572132,59.47533048466721 138.2962801019312,59.30539105126809 138.28064386959886,59.050481664482504 138.4839148899191,58.0988174436352 138.3588250313187,57.351078492356464 138.15555401094025,56.99420222204935 137.92101052607177,56.280448010904365 137.78028443513904,56.09351201611571 137.71773950575152,55.82160484182532 137.43628732388606,55.498714652552735 137.4050148592214,55.3457665090682 137.62392211175757,55.10784697141207 138.73409460717812,54.47905843053013 139.25009027402848,53.816279448437854 139.54717868822627,53.30644815524283 140.06317435507663,51.96388697937073 140.20390044606756,51.75995294669701 140.4071714663296,51.131155201102956 140.31335407233564,50.96120956768573 139.6253598498879,50.5703341315093 139.42208882962586,50.3833934693248 139.2031815770315,48.78589430550346 139.01554678904358,48.42900466939318 138.53082358691609,47.936156160911196 138.20246270793723,47.256363371852785 137.54574095015414,46.69553279946558 137.5144684855477,46.389624634743086 137.60828587948345,46.0497261940036 137.54574095015414,45.79480203187268 137.46755978855072,45.72682220731804 137.02974528330378,45.65884236256534 136.84211049543228,45.556872557499446 136.70138440444134,44.86007767256524 136.54502208111808,44.554167052338016 136.35738729324657,44.43520170058764 135.9508452526643,44.40121158875991 135.7788466970669,44.31623628696252 135.70066553540528,43.8743642087793 135.76321046467638,43.126578746407176 136.3730235255207,42.44677165846224 136.57629454584094,41.90292453279835 136.84211049543228,41.647995747305686 137.20174383895937,40.781235750589985 137.43628732388606,40.57729174438282 137.84282936446834,40.40733826694486 138.2493714049342,40.06743093303521 138.5464598192484,40.16940318624256 138.81227576883975,40.62827776298218 138.81227576883975,40.84921704552835 138.64027721318416,41.13813732365088 138.6559134455165,41.24010909933713 138.98427432443714,41.29109497013269 139.8599033348146,41.17212792059581 140.1569917491288,41.20611851247668 140.42280769872013,41.39306667762867 140.8918946685153,42.00489596735861 141.376617870701,42.225833919656 141.62679758796003,41.104146721670986 141.7362512142863,39.94846324677928 142.06461209320696,38.469859694479965 141.93952223454835,38.333895669318736 141.2984367090976,38.333895669318736 141.0169845271157,38.24891811258567 139.4533612942323,38.19793156335072 139.21881780936383,37.99398525271681 139.21881780936383,37.58609208569396 139.06245548604056,37.43313196046802 138.56209605152253,37.705061001252034 137.90537429373944,37.603087648851215 137.12356267729774,36.92326413713454 136.90465542470338,36.43039082700852 136.77956556604477,36.31142124807229 135.66939307074063,36.61734289728338 135.40357712114928,36.61734289728338 135.32539595954586,36.39639952503785 135.49739451514324,35.95451213994238 135.34103219181998,35.32567092696263 134.997035080567,35.13871780032059 134.4497669491102,34.98575603753852 133.9024988175952,34.390903764855466 133.52722924167756,34.16995824078913 133.0581422718824,34.0 133.02686980715953,34.03399165830342 133.83995388826588,34.45888696007023 134.30904085811926,34.96876027979306 135.21594233316137,35.30867519447929 135.43484958581394,35.88652938949235 135.37230465654284,36.22644293954363 135.24721479788423,36.43039082700852 134.9344901512959,36.70232106054027 134.2152234641835,36.77030356838077 133.9024988175952,37.05922900121368 133.4177756154677,37.4161363846506 133.15195966587635,37.53510538865521 132.80796255462337,37.5690965212998 132.5265103726997,37.909007569629466 131.94796977657825,38.010980785576976 131.7446987561998,38.19793156335072 131.3850654126727,39.47259188268799 131.41633787733736,40.05043555307202 131.33815671573393,40.18639855735819 130.86906974582234,40.39034291225835 130.7752523518866,40.54330105902045 130.7752523518866,40.83222172370006 131.05670453381026,41.37607139616739 130.88470597815467,42.41278125101235 130.5407088669599,43.041602970974054 129.97780450311257,43.50047178330715 129.79016971512465,43.92534949215769 129.89962334145093,44.74111247996916 129.86835087678628,45.03002784028649 129.64944362419192,45.35293281094346 129.3992639069329,45.91376667622535 129.43053637159755,46.30465007193561 129.60253492719494,46.76351233602327 130.055985664716,47.052425141009735 130.27489291731035,47.44330659029947 130.04034943244187,47.800197764794575 129.96216827072203,48.00413532869425 129.97780450311257,48.90485739377618 129.58689869492082,49.29573567661282 129.38362767460058,49.77158659748966 129.24290158360964,49.92453846888384 128.96144940168597,50.06049560203974 128.4298175025615,50.17945802725444 127.94509430037579,50.51935032970505 127.60109718912281,50.84224754913885 127.06946528994013,51.182138866512105 126.94437543133972,51.182138866512105 126.83492180501344,51.063176962867146 126.83492180501344,50.85924212698592 127.24146384553751,50.12847413831332 127.36655370413791,50.094484872723115 127.66364211851032,50.34940424162778 127.55418849218404,50.31541500885214 127.350917471922,50.077490237992606 127.16328268393409,50.094484872723115 127.10073775454657,50.3833934693248 126.83492180501344,50.89323127895477 126.86619426967809,51.09716608450981 128.27345517923823,52.116837384557584 128.41418127022916,52.15082634962164 128.86763200780842,51.94689248359646 129.3992639069329,52.04885943933914 131.07234076608438,53.35743133570941 131.5727002006024,53.61234706756659 131.77597122092266,53.61234706756659 132.44832921103807,53.37442572665168 132.97996111022076,53.5103808089043 133.7930451912689,54.22414366470184 134.12140607018955,54.66599574487191 134.60612927237526,54.92091001823428 136.10720757598756,55.41374347433157 136.74829310143832,55.41374347433157 137.18610760662705,55.3287722645764 137.37374239455676,55.447731949418085 138.01482792006573,56.977208100041025 138.45264242525445,57.6569719951367 138.1242815463338,58.76158401599969 138.03046415233985,59.373366839805385 138.10864531400148,59.781221146622556 137.8897380613489,60.37600737386674 137.7021032734774,61.36164971688413 137.67083080875454,62.109375557804015 137.60828587948345,62.551212405902334 137.49883225315716,63.07801676329109 137.49883225315716,64.26757052706671 137.46755978855072,64.50548053754028 137.3424699298921,64.70940320672526 137.42065109155374,65.10025448126544 137.78028443513904,65.18522206129273 138.3588250313187,65.18522206129273 138.87482069811085,65.08326096147357 140.45408016332658,65.23620259415475 142.83078747725813,65.23620259415475 148.50673981255386,65.37215062622272 149.88272825744934,65.50809857751301 150.00781811616616,65.57607252290472 150.49254131829366,65.62705296867352 150.6332674092846,65.94992886131513 150.80526596488198,66.10286991459725 150.68017610622337,66.39175829180749 150.77399350021733,66.73162650383892 150.74272103561088,66.90156042051967 150.42999638902256,67.46234144995105 150.17981667176355,68.26102720982453 150.07036304543726,68.43095999051002 149.94527318683686,68.46494653150148 149.9140007222304,68.7708251731965 149.31982389371842,70.31720537993533 148.60055720654782,71.93154719227459 148.50673981255386,72.39035804980085 148.30346879229182,72.6622455312463 147.85001805477077,73.69881359041028 146.99002527666744,75.2451604919479 146.16130496328697,77.04638656438328 145.89548901375383,78.32083040938596 145.67658176115947,78.94955342517642 145.56712813477498,80.17300947784679 145.25440348818665,81.24352815846214 145.2856759528513,81.43044360508793 145.17622232658323,81.99118902898044 145.25440348818665,82.09314259480743 145.2856759528513,82.60290974266536 144.94167884165654,83.6224406320398 144.94167884165654,84.20017278673186 145.01986000325996,84.40407790492463 144.66022665967466,86.86791705722862 144.22241215448594,88.05734715569997 144.081686063495,88.51612568474957 144.0191411342821,88.95791154734616 143.15914835617878,90.74203808698803 143.5969628613675,90.81000453737215 143.44060053810244,91.11585331428796 143.55005416442873,91.28576912487915 146.8492991857347,91.79551579989493 147.803109357832,91.9994141520583 148.33474125695648,92.22030382863886 148.85073692374863,92.25428683690552 149.64818477263907,92.45818478045112 150.13290797476657,92.47517626755871 151.88416599552147,93.0698775214114 152.21252687450033,93.29076616511156 153.60415155178634,93.98741356827668 155.8714052393916,95.36371074340423 156.5281269971747,95.89043957184185 157.3099386136746,96.34920240272186 157.68520818947582,96.6040702448372 158.20120385632617,97.16477849887451 158.4513835736434,97.31769869347045 159.06119663448771,97.47061878591194 159.49901113967644,97.70849428222573 159.73355462454492,97.62353877622809 159.99937057413626,97.70849428222573 160.21827782678884,97.69150318356697 160.82809088757494,97.99734276699019 161.25026916043134,98.11628027242841 164.84660259605153,98.99981409272004 165.6753229094902,99.30565192848735 165.75350407109363,99.45857069316844 165.64405044488376,99.6964441240998 165.72223160648718,99.84936262773408 165.4407794245053,100.69890801054134 165.09678231331054,101.39553287230956 164.92478375771316,102.09215561464953 163.97097358561587,104.77668197199819 163.42370545415906,105.8131046131457 163.18916196923237,105.8640760974231 162.92334601969924,105.72815211412671 162.32916919112904,105.64319958358828 162.04771700920537,105.49028494919185 161.6411749686813,105.32037968012446 160.5622749379836,104.99755932162225 160.51536624104483,105.065521540193" stroke="#4dd2ff" stroke-linecap="round" stroke-linejoin="round" stroke-width="0.5"><title>2024-11-29 17.0km</title><desc>13006688394</desc></polyline><polyline fill="none" points="68.8363293374423,185.864172283691 68.86757998756366,185.966043078457 68.71132673713146,185.9320861518936 68.77382803731598,186.0 68.77382803731598,185.91510768671287 68.82070401241072,185.9320861518936 69.13321051327512,185.32086061229347 69.47696766420268,184.30214775164495 69.82072481507203,183.75883237166272 70.03947936563054,183.18155836696678 70.14885664102621,182.80802735267207 70.2269832661841,182.11189974439912 71.25825471890857,179.02174674646812 71.30513069406152,178.7161249514029 71.27388004394015,178.47841882849752 71.02387484326027,178.20675438574108 70.305109891342,177.98602678845054 67.72693125950173,177.52759186754702 66.05502148013329,177.1031142699212 65.75814030430047,177.15405162321986 65.58626172883669,176.9163438774558 65.60188705392648,176.4918651458429 65.2737552280305,176.35603178542806 65.24250457796734,176.23717752883385 64.726868851576,176.13530240267573 63.97685324959457,176.10134401721007 62.164315544767305,175.60894686137908 62.05493826948805,175.54102992916887 62.05493826948805,175.35425826157734 61.97681164427195,175.28634125371173 61.13304409204284,175.06561083896668 60.72678564093076,174.87883878324647 60.570532390556764,174.65810797538143 60.55490706546698,174.36945967448992 61.28929734247504,172.0093216693058 61.726806443650275,170.95659039010934 62.38307009532582,169.03789027497987 62.72682724619517,168.30776122528187 63.008083096996415,167.35689199226908 64.2581091003376,163.89297778748733 64.39873702573823,163.7061966094043 64.91437275207136,162.6024865343643 67.71130593452835,157.61025443428662 69.41446636401815,154.6556167545059 69.55509428936057,154.2820391569403 69.74259818991413,154.0273268086312 70.8519962678547,151.7858459095296 72.93016449839342,146.82734039824572 72.82078722311417,146.7424335455289 72.49265539715998,146.7254521712166 72.25827552151168,146.7424335455289 72.05514629604295,146.8443217650347 71.78951577033149,146.77639629039913 71.41450796928257,146.7594149185752 70.9301228930126,146.8443217650347 68.77382803731598,146.8103590302053 67.69568060949678,146.8952658577182 67.35192345856922,146.70847079559462 67.1331689079525,146.67450804063992 66.14877343038097,146.70847079559462 65.71126432920573,146.82734039824572 65.58626172883669,146.79337766095705 65.36750717827817,146.87828449475637 65.0393753524404,146.8443217650347 64.13310650002677,147.13300480703765 62.11743956961436,147.01413536330801 62.08618891960941,146.4197872175282 61.57055319315987,146.19902894130792 61.13304409204284,146.1480846934428 60.74241096602054,146.01223331030633 59.35175703727873,145.67260449929745 58.57049078529235,145.41788255998108 58.30486025958089,145.26504926012421 57.92985245853197,145.14617884519976 57.351715432014316,145.02730836845876 56.836079705681186,144.77258571016137 56.11731475376291,144.61975197894208 55.88293487811461,144.67069656735111 55.61730435240315,144.63673350965837 53.63288807211211,143.9914344549179 53.492260146769695,143.8386002015177 53.36725754640065,143.78765542765905 52.992249745409936,143.71972904486756 52.03910491784336,143.39707845098746 51.86722634243779,143.26122543314705 51.710973092063796,143.26122543314705 51.320339965983294,143.04046410691808 51.03908411524026,143.0574457549519 49.992187337426,142.75177589715167 49.58592888637213,142.7008308811055 48.83591328433249,142.75177589715167 46.63274245359935,142.56497744946682 44.47644759778632,142.54799576483492 43.74205732089467,142.56497744946682 42.726411193201784,142.46308732280158 41.460759864829015,142.46308732280158 40.132607236271724,142.41214224240684 39.882602035591844,142.34421545096848 39.72634878521785,142.39516054642445 38.78882928274106,142.34421545096848 37.97631238057511,142.41214224240684 37.71068185486365,142.25930693316332 37.64818055467913,142.20836180741026 37.741932504985016,141.44418355818198 37.741932504985016,140.8158573062392 37.64818055467913,140.3403660216136 37.61692990461597,139.10068766464246 37.83568445517449,138.1157329443813 38.116940305917524,137.26663064115564 38.24194290622836,137.1307739799231 38.601325382245705,135.48350553739874 38.44507213187171,135.34764781636477 38.38257083162898,135.14386108335748 38.116940305917524,134.73628707225726 37.679431204800494,133.70036652289855 37.57005392946303,133.10598375997506 37.351299378904514,132.97012462567363 36.679410402080975,133.08900137257297 36.53878247673856,133.0720189839776 35.835642849851865,132.97012462567363 34.8824980223435,132.68142369719862 34.47623957123142,132.51159945124527 33.960603844956495,132.15496812407218 33.52309474372305,131.73040629464958 33.288714868132956,131.44170380017022 32.72620316664688,131.0680882659508 32.304319390503224,130.94921046789386 32.06993951491313,130.98317555934773 31.74180768901715,131.16998347223853 31.33554923790507,131.15300094099075 30.976166761945933,130.93222792023153 30.257401810085867,130.28689017528086 29.429259582888335,129.6755158938031 29.085502432018984,129.5226720678911 28.772995931154583,129.48870675936632 28.30423617985798,129.7604290862364 27.882352403830737,129.53965472028358 27.069835501606576,128.91129574201477 27.194838101917412,128.70750326990674 27.36671667738119,128.5886242439301 27.55422057787655,128.537676071006 27.757349803461693,128.26595229028317 28.226109554700088,127.87534878942824 28.444864105258603,127.75646933059033 29.023001131776255,127.65457260231778 29.14800373208709,127.56965862741345 29.319882307609078,127.36586495890515 29.460510232893284,126.92431138698885 29.81989270891063,126.5676713406574 29.866768684005365,125.8034407956875 29.960520634253044,125.42981604351371 30.132399209716823,125.20903749371064 30.55428298591869,124.97127573999751 30.710536236234475,124.73351373887272 30.757412211387418,124.29195508050907 30.616784285986796,123.57866621451103 30.64803493610816,123.30693653701746 30.866789486724883,123.08615593612194 31.054293387162033,122.71252674097195 31.444926513242535,121.42180300227483 31.64805573876947,121.20102057988697 31.99181288969703,120.99722123144602 32.56994991621468,120.04615520163497 32.554324591183104,119.29888625816966 32.616825891367625,119.0950852130045 32.898081742052455,118.90826742861827 33.1012109676376,118.53463140157692 33.148086942732334,118.17797826028254 33.398092143412214,117.6514892722771 33.460593443596736,117.34578543214593 33.460593443596736,116.87024531222414 33.31996551825432,116.4286714574846 33.33559084322769,116.32676967745647 33.49184409365989,116.12296598110697 34.22623437055154,115.80027642342611 34.569991521537304,115.51155380118871 34.585616846510675,114.61141622523428 35.085627247870434,114.32269210056984 35.53876167413546,114.30570831714431 35.71064024954103,114.20380559022306 35.991896100342274,114.16983800449816 36.4294052014593,114.01698380612652 36.5856584518333,114.0 36.94504092785064,114.66236750349344 37.30442340375157,114.98505866846244 37.585679254552815,115.15489594062092 38.101314980885945,115.23981452937005 38.49194810690824,115.08696104692353 38.63257603230886,114.95109119887638 38.96070785820484,115.01902613299899 38.89820655802032,115.52853749497444 39.24196370894788,115.86821110502933 39.83572606049711,115.98709674923157 40.32011113682529,115.97011308957008 40.67949361272622,116.0380477206636 41.80451701575657,115.98709674923157 41.82014234078815,116.05503137527558 41.72639039054047,117.2269004949485 41.57013714010827,117.87227512465324 41.52326116501354,118.84033365099458 41.33575726445997,119.80838807566033 40.960749463469256,119.67252103534702 40.57011633744696,119.36681989947101 40.25760983664077,118.9931846222753 39.92947801074479,118.82335020339815 39.75759943528101,118.82335020339815 39.19508773385314,118.95921774861927 38.35132018162403,118.87430054231663 37.585679254552815,118.95921774861927 37.14817015337758,118.84033365099458 37.00754222803516,118.65351565826859 37.24192210362526,118.2798792146059 37.91381108039059,117.95719270332484 38.085689655912574,117.75339046138106 38.30444420647109,117.73640693303605 38.32006953144446,117.58355512096023 38.085689655912574,117.51562094937253 37.88256043032743,117.88925864288467 37.257547428656835,118.26289572540554 37.07004352816148,118.43273056084581 36.679410402080975,119.41777011720114 36.398154551454354,119.72347118497419 36.241901300963946,120.19900536630303 35.77314154972555,120.77643839878147 35.63251362438314,121.15007075983158 35.60126297426177,121.60861873155227 35.69501492445124,121.8803504286625 35.82001752482029,122.05018257527263 36.30440260109026,122.152081802662 36.47628117661225,122.25398098462028 36.71066105220234,123.28995342146663 36.60128377692308,123.35788587616116 36.25752662605373,123.28995342146663 36.03877207543701,123.35788587616116 36.00752142537385,123.91832785696897 36.22627597587416,124.03720931254793 36.851288977544755,124.05419237256865 36.9762915779138,124.1560907062667 37.07004352816148,124.41083634168899 37.38255002902588,124.71653072937625 37.66380587971071,124.85239477037976 37.80443380511133,124.76747975422768 37.91381108039059,124.81842876771407 38.273193556349725,125.51473081354925 38.96070785820484,126.27896232405328 39.13258643361041,126.83939714067674 39.25758903392125,128.0621592427051 39.82010073552374,128.4357796911063 39.85135138552869,128.7414686945849 40.10135658620857,129.25094945827732 40.10135658620857,129.36982813978102 39.89822736068163,129.5906026698358 39.74197411024943,129.94723799861094 39.75759943528101,130.06611631785927 39.49196890956955,130.66050698657637 39.39821695932187,131.11903587478446 39.023209158331156,131.9172135967674 38.30444420647109,132.5285818815173 37.63255522964755,132.91917742948863 37.55442860443145,133.0720189839776 38.179441606102046,134.80421612458304 38.429446806781925,135.21179001453856 38.195066931133624,135.99297127219324 38.21069225622341,136.63829290610738 38.16381628107047,136.9949172379711 37.695056529773865,138.48933695854794 37.47630197921535,140.59509361852542 37.335674053872935,140.98567538248608 37.42942600406241,141.34229293192038 37.32004872884136,141.9366542781063 37.50755262927851,142.44610563061724 37.72630717995344,142.56497744946682 38.335694856534246,142.58195913284726 38.585700057214126,142.7178125543287 40.24198451155098,142.8366842319956 40.366987111920025,142.98951915520593 40.554491012357175,142.9555558477732 40.82012153806863,143.0065008070669 41.08575206378009,142.90461087715812 42.820163143391255,142.92159253529098 46.39836257795105,143.0574457549519 48.24215093284147,143.07442740177794 48.38277885818388,143.10839069153008 48.55465743364766,143.26122543314705 48.867163934512064,143.27820706476632 49.74218213680433,143.2272621660377 49.960936687362846,143.29518869519234 50.11718993779505,143.4310416928638 50.14844058791641,143.38009682818665 50.6953269643127,143.73671064243536 51.49221854144707,143.80463702017732 51.648471791821066,143.92350813270605 51.882851667527575,143.8725633777649 52.25785946846008,144.02539760846412 52.3984873938025,143.9914344549179 53.92976924794493,144.297102655255 55.86730955308303,144.85749329443206 56.21106670401059,145.06127136808936 56.58607450500131,145.18014182719344 57.945477783621754,145.4688269705366 58.58611611032393,145.7065674031328 58.961123911256436,145.7914746405295 59.195503786962945,145.94430758846283 59.94551938888617,146.1650661106687 60.36740316502983,146.21601035475032 61.070542791858315,146.55563835853536 61.46117591793882,146.67450804063992 61.61742916831281,147.26885552419117 61.52367721806513,148.04999558145937 61.476801242970396,149.20471947324404 61.38304929272272,149.391512496004 61.39867461769609,149.6971734767867 61.30492266750662,150.22358865250135 61.13304409204284,150.76698369166115 60.83616291626822,151.3613205371512 59.49238496267935,153.53488213079982 59.133002486720216,154.46882803199696 58.52361481013941,155.9631335400045 57.00795828108676,159.37622654478764 55.92981085320935,162.1440207836131 55.55480305221863,162.95907037175493 55.28917252656538,163.77411705543636 54.05477184825577,166.6097776791139 53.30475624627434,168.66433616861468 52.58599129435606,170.3623044641572 52.726619219756685,170.54908020727453 52.69536856969353,170.95659039010934 52.820371170004364,171.14336564799305 53.96101989794988,171.7716085780994 55.351673826691695,172.6375622213236 55.61730435240315,172.75641834789712 57.46109270735178,173.91101750690723 57.83610050828429,174.08081100943673 58.117356359027326,174.26758371661708 58.367361559649,174.5052942143957 58.58611611032393,174.64112867362564 58.789245335850865,174.89581806736533 58.882997286098544,174.91279735018907 59.35175703727873,175.25238274224102 59.69551418820629,175.26936199859483 60.28927653975552,175.50707145550405 60.71116031589918,175.55800916407316 62.36744477029424,175.94853122015775 64.39873702573823,176.5428026352165 65.28938055306207,176.76353162481973 65.4300084784627,176.74655247930787 65.63313770398963,176.86540647123184 65.69563900417415,177.0691560280975 65.68001367908437,177.323842718979 65.25812990299892,178.54633488884429 64.91437275207136,179.78579944823286 64.61749157629674,180.3461031413608 64.58624092623359,180.66870161502447 64.14873182505835,181.39879121808917 64.00810389965773,181.94211220162106 63.61747077363543,182.70615515201644 63.38309089804534,183.36832364551083 63.28933894779766,183.43623825446412 63.11746037233388,183.41925960411027 62.27369282004656,183.1136436824454 61.164294742105994,182.82500604835514 60.52365641546203,182.57032548062853 60.383028490061406,182.58730419396306 60.41427914018277,182.82500604835514 60.320527189876884,182.9608355685923 60.383028490061406,183.13062235550024" stroke="#4dd2ff" stroke-linecap="round" stroke-linejoin="round" stroke-width="0.5"><title>2024-11-23 16.7km</title><desc>12962933938</desc></polyline><polyline fill="none" points="158.26327810203657,121.26861263439059 158.57806964870542,121.6961766560562 158.42067387560382,122.12374051904771 156.4532267083414,124.77463292970788 155.66624784143642,125.71527070668526 155.1940605212003,129.13576524303062 154.4857795406133,131.18805709277513 153.85619644727558,132.29971365234815 152.75442603370175,133.66790486947866 151.0230725267902,136.91735250107013 150.07869788631797,138.20002667640802 149.291719019413,138.9696304963436 148.81953169917688,139.9102566894726 148.4260422657244,142.0480406380375 146.45859509846196,144.78439830685966 146.22250143811107,147.69177121319808 144.96333525143564,152.5658799285302 144.49114793119952,157.09792743751314 144.176356384065,157.95302874303889 143.62547117797658,158.55159927956993 143.3893775176257,161.80097676912555 142.68109653750435,164.02422977465903 142.44500287715346,166.50400691479445 142.05151344370097,168.21419493830763 141.65802401024848,170.35192640026798 141.81541978381574,172.4896538980538 141.42193035036325,175.39695693424437 140.71364936977625,178.3897612252622 138.98229586239904,180.86950746685034 139.45448318263516,183.8622975522885 138.51010854216293,186.0 139.13969163643196,184.71737900696462 139.21838952274993,182.4086576239206 139.92667050287127,181.04052425239934 140.55625359667465,180.27094851754373 140.79234725655988,178.30425263900543 141.1071388036944,176.679588295985 141.7367218970321,174.96941282990156 141.89411767059937,173.9433063325705 141.7367218970321,171.03599963063607 141.89411767059937,169.240306534688 142.20890921726823,167.61562941863667 142.68109653750435,166.84604472253704 142.91719019738957,164.19524905906292 143.31067963084206,162.6560745863826 143.78286695107818,161.28791777434526 144.0189606109634,159.5777194763068 145.2781267981045,155.30221263115527 145.98640777822584,151.1122005385696 146.93078241869807,148.717901076423 147.2455739658326,144.78439830685966 148.74083381239325,142.1335519135464 148.8982295859605,141.4494615321164 149.68520845286548,140.6798593677231 151.10177041310817,138.20002667640802 151.65265562012792,136.91735250107013 151.5739577333443,136.40428243158385 153.46270701428875,133.24034528865013 153.69880067417398,132.29971365234815 155.11536263441667,130.84600870491704 155.43015418108553,129.56332634645514 156.4532267083414,128.36615485750372 156.92541402811185,126.99795734731015 157.55499712238088,126.14283307880396 158.26327810203657,124.60360779677285 158.3419759888202,123.66296911262907 159.05025696894154,122.38027876080014 160.15202738298103,118.95976417703787 160.939006249886,117.33501619385788 161.72598511679098,116.30885839281837 161.80468300310895,115.5392394423252 161.4898914564401,115.5392394423252 161.17509990977123,115.96680558938533 160.939006249886,116.82193740742514 159.12895485572517,120.07143253018148 158.49937176238745,122.12374051904771 157.63369500869885,123.83399438502965 156.68932036822662,126.48488286242355 155.66624784143642,128.10961794806644 154.4857795406133,130.5894723473466 153.0692175803706,132.7272735821898 152.36093660071492,134.18097615719307 152.12484294036403,135.12160625803517 149.84260422643274,137.7724687763257 149.05562535952777,141.10741618921747 148.26864649215713,142.47559695213567 147.4029697389342,143.24519791739294 146.45859509846196,145.21195360599086 146.1438035517931,148.29034707770916 145.12073102453724,151.1122005385696 145.12073102453724,151.8817957380088 144.80593947786838,152.5658799285302 144.09765849774703,155.90078454400646 144.49114793119952,157.52547816938022 143.5467732907273,159.15016950538848 143.23198174405843,162.05750618095044 142.05151344370097,165.47789288312197 141.81541978381574,168.55623223853763 141.34323246357962,169.83887121081352 141.264534576796,174.96941282990156 140.94974303012714,176.76509700267343 140.2414620500058,178.5607783786254 139.76927472976968,178.98832115117693 139.45448318263516,180.1854400706943 139.53318106988445,181.1260326358024 138.19531699595973,182.49416590569308 138.03792122239247,182.83619896956952 137.9592233360745,184.2898383589927 138.35271276906133,185.05941141123185 138.66750431619585,184.8883952217875 139.76927472976968,182.92170721973525 140.3988578231074,178.98832115117693 141.18583669001237,175.91000964998966 142.05151344370097,173.34474378742743 141.81541978381574,170.18090802896768 142.20890921726823,168.21419493830763 142.44500287715346,167.10257301153615 142.91719019738957,166.2474784924416 143.23198174405843,164.02422977465903 144.176356384065,160.34730902442243 144.49114793119952,159.7487394202035 144.884637364652,157.26894774916582 145.2781267981045,156.41384593618568 145.59291834477335,152.5658799285302 146.69468875834718,149.0599441610393 147.95385494548827,143.33070910407696 150.23609365941957,139.65372234943788 152.91182180680335,133.4968810560531 154.01359222037718,131.44459331705002 154.17098799394444,130.5894723473466 155.823643614538,128.70820398110664 156.4532267083414,127.34000687708613 157.16150768846273,125.03117058135103 158.8141633090563,122.03822775924345 159.99463160941377,118.61771216039779 161.72598511679098,115.19718641065992 161.56858934322372,114.59859336080262 161.80468300310895,115.02615985681769 161.72598511679098,115.36821293918183 160.78161047631875,116.99296369502554 158.65676753548905,121.78168944141362 158.42067387560382,122.72232966101728 157.39760134834796,124.60360779677285 157.24020557524636,125.80078319390304 154.3283837675117,131.18805709277513 151.96744716679677,135.0360944623826 151.49525984656066,136.66081749490695 150.07869788631797,138.7130959466449 148.8982295859605,140.6798593677231 148.58343803929165,142.1335519135464 147.2455739658326,143.84377609094372 146.1438035517931,146.66564043646213 145.7503141183406,147.86279292043764 145.67161623155698,150.2570941586746 145.12073102453724,151.28322173835477 144.4124500444159,154.36159899708582 143.94026272417977,155.21670233242912 143.70416906429455,156.2428254975821 143.86156483739614,157.09792743751314 143.46807540394366,159.66322945139837 142.52370076440275,162.57056483329507 142.52370076440275,163.34015238354914 142.05151344370097,165.13585466961376 141.7367218970321,167.78664817032404 141.18583669001237,170.0098896326963 141.18583669001237,172.74618093139725 140.71364936977625,174.02881524234544 140.71364936977625,175.05492166342447 140.2414620500058,176.59407958301017 140.16276416322216,178.21874404657865 139.76927472976968,180.01442315842723 139.92667050287127,180.6129822410876 139.53318106988445,184.2898383589927 138.58880642941222,185.65796787454747 138.90359797608107,185.40144371421775 139.06099374964833,184.37534650124144 138.51010854216293,182.32314933580346 138.58880642941222,181.81009947368875 140.71364936977625,178.04772684240015 141.18583669001237,175.995518413838 142.20890921726823,173.77228849427775 142.13021133001894,168.98377872107085 142.9958880841732,166.6750258313259 142.91719019738957,165.3068737888825 143.07458597049117,164.19524905906292 143.46807540394366,163.08362325717462 143.5467732907273,161.03138819150627 144.884637364652,156.841396922071 147.0094803054817,146.75115136941895 147.2455739658326,144.18582062190399 147.48166762525216,143.6727537874831 148.1899486053735,142.90315310738515 149.21302113262936,141.19292753440095 151.4165619602427,136.23325902421493 152.83312392048538,133.92444054182852 154.24968588072807,131.10254500538576 156.37452882155776,128.10961794806644 156.76801825501025,126.99795734731015 157.71239289548248,125.45873320719693 158.9715590821579,122.03822775924345 159.6011421759613,119.5583549621515 161.72598511679098,114.68410667282296 161.72598511679098,114.0 161.56858934322372,114.08551335625816 161.25379779655486,114.76961997820763 160.78161047631875,116.73642425436992 158.8141633090563,120.15694543608697 158.1845802157186,122.38027876080014 157.55499712238088,122.97886776924133 157.24020557524636,124.43258263886673 156.29583093477413,126.31385798321571 155.823643614538,127.68205630528973 155.43015418108553,128.19513025751803 155.0366647480987,129.13576524303062 153.22661335393786,131.01703291153535 152.5970302601345,133.24034528865013 152.20354082714766,133.83892865746748 151.49525984656066,134.26648801617557 151.3378640729934,134.95058266056003 149.37041690619662,137.7724687763257 148.81953169917688,139.14065349759767 146.69468875834718,141.96252935630037 146.53729298524559,144.27133173891343 146.7733866451308,145.29746464674827 146.53729298524559,146.58012949727708 145.2781267981045,150.34260482515674 144.7272415915504,154.01955748553155 143.78286695107818,157.78200853255112 143.31067963084206,161.80097676912555 142.68109653750435,163.25464268098585 142.05151344370097,166.1619690055959 141.5793261239305,167.01706358819501 141.42193035036325,168.64174154779175 141.5793261239305,169.32581579312682 141.18583669001237,170.6939630662091 141.5793261239305,172.40414487425005 141.34323246357962,173.60127063049003 141.42193035036325,174.62737743236357 140.94974303012714,175.82450088002952 140.79234725655988,177.87670961284311 140.32015993632376,178.64628694596468 140.2414620500058,179.75789774232544 139.76927472976968,180.3564569578739 139.69057684298605,182.4086576239206 139.3757852963172,183.00721546343993 139.06099374964833,184.71737900696462 138.35271276906133,185.8289839500212 138.35271276906133,185.40144371421775 138.66750431619585,184.9739033197402 138.74620220297948,184.0333138939459 139.13969163643196,182.92170721973525 139.13969163643196,181.72459114110097 140.2414620500058,180.3564569578739 141.0284409164451,177.96221823076485 141.89411767059937,174.62737743236357 142.28760710405186,172.40414487425005 142.36630499036983,170.60845390922623 142.91719019738957,167.70113879756536 143.15328385774046,163.76770080043934 144.64854370430112,157.78200853255112 144.49114793119952,156.67037654662272 145.12073102453724,155.13119202753296 145.7503141183406,152.82241139531834 145.9077098914422,151.28322173835477 146.45859509846196,149.0599441610393 146.45859509846196,147.948303764686 147.1668760785833,144.86990937951487 147.8751570591703,143.1596867244225 148.8982295859605,142.1335519135464 149.99999999953434,139.9102566894726 150.23609365941957,139.14065349759767 151.0230725267902,138.20002667640802 151.65265562012792,137.0883758069249 151.96744716679677,135.80570039490703 151.8887492804788,135.37814160692506 152.12484294036403,134.77955903747352 153.62010278739035,132.64176160888746 154.40708165429533,131.01703291153535 156.61062248190865,128.10961794806644 157.86978866858408,123.2354058206547 158.49937176238745,121.78168944141362 159.28635062929243,120.9265613030293 159.75853794952855,119.5583549621515 160.70291258953512,117.67706859105965 160.939006249886,116.30885839281837 161.6472872295417,115.11167313682381 161.6472872295417,114.34205338713946 161.17509990977123,114.76961997820763 160.70291258953512,116.5653979285853 158.42067387560382,120.67002273770049 157.71239289548248,122.46579149540048 157.39760134834796,124.17604485381162 156.4532267083414,126.57039529236499 155.43015418108553,128.4516671479214 155.43015418108553,129.56332634645514 154.4857795406133,130.41844807739835 152.99051969405264,133.4968810560531 150.62958309333771,136.8318408387131 150.39348943298683,137.7724687763257 149.99999999953434,138.3710497916909 149.05562535952777,140.5088365949341 148.26864649215713,141.70599547278835 147.79645917238668,142.1335519135464 147.32427185215056,142.81764188909438 146.37989721167833,144.69888722815085 146.06510566500947,147.77728206990287 145.2781267981045,149.9150514290086 145.2781267981045,150.34260482515674 144.0189606109634,155.55874348885845 143.86156483739614,156.7558867377229 143.94026272417977,157.78200853255112 143.31067963084206,159.66322945139837 142.91719019738957,162.8270940737566 142.05151344370097,165.05034510040423 142.13021133001894,166.33298797300085 141.7367218970321,167.70113879756536 140.79234725655988,170.35192640026798 141.0284409164451,171.7200724555296 140.55625359667465,173.9433063325705 140.55625359667465,174.96941282990156 140.2414620500058,175.6534833207843 139.92667050287127,177.70569235790754 139.53318106988445,178.73179550666828 139.53318106988445,180.1854400706943 139.8479726165533,181.04052425239934 139.53318106988445,182.1521327404189 138.43141065584496,183.60577299218858 138.03792122239247,185.65796787454747 138.27401488274336,185.74347591551486 138.66750431619585,185.74347591551486 138.98229586239904,185.23042757541407 139.13969163643196,183.00721546343993 139.61187895620242,181.9811161198304 139.61187895620242,181.38255774759455 140.16276416322216,180.6984906558646 140.63495148345828,179.415863765229 140.94974303012714,178.4752698051161 141.0284409164451,177.19264044123702 142.05151344370097,174.45635969535215 142.13021133001894,173.51576168928295 141.65802401024848,171.4635451938375 141.81541978381574,169.7533619903843 142.52370076440275,167.18808242864907 142.68109653750435,165.22136423236225 143.31067963084206,163.25464268098585 144.2550542713143,158.72261937579606 144.80593947786838,157.61098829691764 144.80593947786838,156.67037654662272 145.2781267981045,155.13119202753296 146.22250143811107,149.4874978743028 146.30119932536036,147.43523860466667 147.0094803054817,145.5539977310691 148.50474015250802,142.9886643193313 148.74083381239325,141.70599547278835 149.68520845286548,140.42332519876072 149.99999999953434,139.4826994240866 151.4165619602427,137.94349195552059 151.81005139322951,136.06223559135105 152.43963448656723,135.46365337714087 153.0692175803706,133.92444054182852 153.77749856049195,133.06932141177822 154.17098799394444,131.78664152754936 154.64317531418055,131.35908124881098 155.35145629476756,130.1619116247748 155.74494572822005,128.964740757423 156.37452882155776,128.0241056320956 156.84671614179388,126.65590771613643 157.39760134834796,126.05732061713934 157.71239289548248,124.77463292970788 158.26327810203657,124.00501963199349 158.73546542227268,122.29476601973874 159.75853794952855,120.75553559930995 160.23072526976466,118.87425118230749 160.23072526976466,118.1046339449822 162.04077666345984,114.59859336080262 161.80468300310895,114.34205338713946 161.41119356965646,114.59859336080262 160.70291258953512,116.13783200393664 160.4668189296499,117.07847682927968 159.52244428917766,118.36117308126995 158.3419759888202,121.18309981113998 158.02718444215134,121.18309981113998 157.79109078180045,120.67002273770049 157.63369500869885,120.58450986992102 157.24020557524636,120.9265613030293 157.24020557524636,121.18309981113998 157.79109078180045,121.43963826214895 158.1845802157186,121.18309981113998 158.3419759888202,120.15694543608697" stroke="#4dd2ff" stroke-linecap="round" stroke-linejoin="round" stroke-width="0.5"><title>2024-08-13 10.0km</title><desc>12136939266</desc></polyline><polyline fill="none" points="69.14893617015332,244.89667400904 71.55623100232333,251.8086494493764 78.778115500696,256.0988335099537 82.27963525801897,256.33717689849436 83.15501519758254,252.28533685440198 81.62310030311346,248.7101795671042 75.49544072896242,243.46660824096762 71.77507598698139,243.70495258062147 71.99392097257078,237.74633870529942 66.74164133612067,236.07792480965145 63.45896656438708,229.64260583301075 57.550151974894106,224.63734869472682 54.267477203160524,225.59073161659762 47.483282674103975,229.88095121388324 42.44984802324325,226.5441142518539 39.167173251509666,226.5441142518539 36.75987841933966,229.88095121388324 27.13069908786565,226.0674229701981 28.0060790264979,218.6786989234388 30.632218844257295,215.5801966090221 21.440729483030736,208.9064890134614 26.25531914830208,206.76136572728865 29.537993920966983,207.23805991606787 26.036474163644016,204.85458825156093 19.908814588561654,205.09293549880385 14.656534953974187,207.47640698426403 14.21884498372674,209.144835955929 19.689969604834914,211.52830438991077 21.00303951278329,213.1967312260531 21.6595744676888,217.01027497649193 18.59574468061328,224.63734869472682 25.37993920966983,233.21778465784155 22.53495440632105,237.98468347545713 28.662613980472088,244.89667400904 29.319148935377598,249.42521134740673 37.416413373313844,248.2334916233085 47.26443768944591,251.0936182073783 64.7720364741981,254.90711629833095 73.96352583542466,255.8604901037179 78.55927051603794,254.43042928841896 81.40425531938672,256.0988335099537 82.49848024267703,254.43042928841896 82.06079027242959,252.76202418771572 71.55623100232333,244.6583297594916 72.21276595722884,237.98468347545713 70.02431610878557,236.31626970600337 65.20972644351423,235.60123496409506 63.89665653463453,230.59598724753596 61.48936170246452,228.21253317268565 55.799392096698284,227.49749660026282 47.70212765969336,231.31102312006988 42.66869300883263,227.0208054620307 38.51063829660416,227.25915103964508 37.19756838865578,230.1192965763621 29.756838904693723,226.3057686202228 28.224924011155963,224.63734869472682 28.0060790264979,219.87042977497913 24.06686929985881,216.7719286272768 23.848024315200746,214.38846414140426 20.12765957415104,209.85987667483278 25.817629178985953,206.76136572728865 29.537993920966983,207.47640698426403 23.629179330542684,202.2327673472464 21.87841945234686,204.61624098662287 15.969604862853885,206.28467146586627 14.0,208.19144807918929 16.188449846580625,211.52830438991077 19.689969604834914,212.00499786133878 21.22188449744135,213.673424446024 22.753799391910434,218.20200645690784 20.12765957415104,220.5854680708144 19.689969604834914,224.63734869472682 26.036474163644016,229.16591501841322 26.25531914830208,231.54936837567948 22.972644375637174,237.50799391698092 28.881458966061473,243.9432969018817 30.19452887494117,249.6635552381631 41.355623099952936,251.8086494493764 45.29483282659203,254.43042928841896 64.33434650395066,254.43042928841896 75.27659574430436,257.52889357157983 78.778115500696,256.81386362132616 83.15501519758254,257.52889357157983 84.90577507484704,255.38380323699676 78.99696048535407,244.89667400904 70.89969604834914,243.22826388315298 68.93009118456393,235.83957989583723 64.7720364741981,234.4095100350678 62.36474164016545,230.35764192114584 58.863221883773804,227.7358421422541 50.547112461179495,231.31102312006988 44.85714285634458,227.7358421422541 35.884498479776084,228.92756958352402 31.507598783820868,226.5441142518539 28.224924011155963,232.02605883171782 25.59878419339657,232.97943952819332 24.504559270106256,228.21253317268565 19.908814588561654,221.30050620459951 20.565349543467164,218.6786989234388 22.972644375637174,217.24862130894326 27.787234041839838,218.9170451296959 29.319148935377598,222.4922360687051 35.00911854021251,227.97418766631745 23.410334346815944,236.07792480965145 31.288753798231483,248.94852351164445 55.1428571427241,254.19208575692028 67.39817629102618,254.19208575692028 75.71428571362048,257.29055027337745 82.93617021199316,256.5755202693399 86.0,253.9537422065623 78.12158054672182,245.13501824135892 73.30699088145047,243.70495258062147 72.21276595722884,237.26964911050163 66.08510638214648,235.83957989583723 61.270516716875136,228.21253317268565 57.331306990236044,226.7824598660227 47.26443768944591,230.1192965763621 43.32522796373814,226.5441142518539 40.480243160389364,226.3057686202228 35.66565349511802,229.16591501841322 28.881458966061473,224.16065712505952 27.568389057181776,219.63208364020102 20.784194528125226,219.39373748772778 21.6595744676888,214.38846414140426 19.47112461924553,208.9064890134614 23.410334346815944,206.9997128311079 19.689969604834914,212.00499786133878 22.097264437004924,217.48696762276813 19.908814588561654,223.68396548484452 21.00303951278329,226.3057686202228 25.59878419339657,228.21253317268565 27.349544072523713,231.07267784746364 27.568389057181776,233.93281993828714 24.94224923942238,238.22302822815254 29.319148935377598,244.6583297594916 29.975683889351785,249.42521134740673 34.57142857089639,251.57030571997166 43.32522796373814,251.0936182073783 55.36170212738216,254.19208575692028 62.58358662575483,253.47705505299382 75.27659574430436,256.33717689849436 78.34042553137988,254.90711629833095 82.7173252273351,255.62214667978697 84.46808510646224,253.7153986385092 82.49848024267703,248.2334916233085 72.86930091120303,244.41998549178243 72.21276595722884,240.12978560104966 64.7720364741981,235.12454504636116 63.24012158066034,229.16591501841322 61.270516716875136,227.7358421422541 54.92401215713471,227.7358421422541 47.92097264435142,229.64260583301075 41.13677811436355,226.5441142518539 36.54103343375027,230.59598724753596 28.0060790264979,226.0674229701981 26.25531914830208,219.15539131779224 23.410334346815944,216.7719286272768 20.3465045588091,210.0982235451229 24.94224923942238,206.04632430826314 19.252279633656144,204.37789370305836 14.656534953974187,208.4297950756736 17.93920972570777,211.05161084677093 20.784194528125226,210.81326404819265 22.53495440632105,212.95838458859362 22.097264437004924,218.9170451296959 19.252279633656144,220.82381413294934 19.033434649929404,222.968927889131 26.036474163644016,230.59598724753596 23.19148936122656,235.83957989583723 23.629179330542684,237.74633870529942 29.319148935377598,243.22826388315298 32.6018237080425,249.42521134740673 40.480243160389364,248.94852351164445 50.547112461179495,252.04699316085316 65.20972644351423,252.76202418771572 67.83586626127362,255.14545977674425 73.30699088145047,254.66877280245535 77.68389057740569,256.81386362132616 82.93617021199316,256.33717689849436 84.46808510646224,254.43042928841896 80.31003039516509,249.90189911145717 72.21276595722884,246.08839498995803 71.99392097257078,240.36813019239344 70.24316109344363,236.5546145841945 65.64741641283035,236.07792480965145 63.45896656438708,230.59598724753596 59.738601823337376,227.0208054620307 48.57750759739429,230.8343325566966 42.66869300883263,227.49749660026282 34.57142857089639,228.21253317268565 28.0060790264979,224.63734869472682 26.693009117618203,218.44035269878805 22.097264437004924,217.24862130894326 22.753799391910434,212.2433445705101 20.784194528125226,210.33657039725222 17.282674771733582,210.81326404819265 16.40729483217001,208.4297950756736 17.501519756391644,206.9997128311079 21.6595744676888,213.43507784511894 20.3465045588091,223.92231131414883 26.474164133891463,231.07267784746364 23.629179330542684,238.46137296245433 25.817629178985953,238.699717679061 27.787234041839838,241.79819736094214 31.288753798231483,250.85527442372404 41.79331306926906,250.37858680356294 47.70212765969336,252.52368053025566 54.70516717247665,251.33196197240613 62.36474164016545,251.8086494493764 63.24012158066034,253.23871144885197 69.80547112319618,255.62214667978697 78.778115500696,255.8604901037179 83.15501519758254,258.0055801155977 84.90577507484704,256.5755202693399 82.27963525801897,251.33196197240613 77.0273556234315,245.8500508298166 72.21276595722884,244.89667400904 70.89969604834914,240.84481931990013 64.99088145792484,235.12454504636116 61.92705167084932,228.68922413117252 57.331306990236044,227.49749660026282 48.57750759739429,231.07267784746364 44.85714285634458,227.0208054620307 42.01215805392712,226.5441142518539 36.32218844909221,229.88095121388324 28.224924011155963,226.0674229701981 24.06686929985881,217.96366019686684 22.753799391910434,217.72531391843222 20.784194528125226,220.34712198982015 23.629179330542684,222.73058198811486 23.410334346815944,227.0208054620307 25.59878419339657,231.31102312006988 28.881458966061473,232.50274921627715 34.79027355462313,227.97418766631745 39.823708205483854,230.8343325566966 39.38601823616773,234.64785505691543 35.884498479776084,237.03130428656004 31.507598783820868,244.6583297594916 27.568389057181776,247.0417714510113 28.662613980472088,249.42521134740673 32.164133737795055,250.85527442372404 44.63829787168652,250.6169306228403 48.57750759739429,253.23871144885197 56.89361702091992,251.57030571997166 67.17933130636811,255.62214667978697 82.93617021199316,255.14545977674425 81.40425531938672,248.2334916233085 73.30699088145047,245.13501824135892 69.80547112319618,237.26964911050163 65.86626139841974,235.83957989583723 61.270516716875136,228.68922413117252 55.36170212738216,227.49749660026282 48.358662612736225,230.35764192114584 38.948328266851604,224.87569445185363 39.823708205483854,229.40426043467596 37.19756838865578,230.8343325566966 31.288753798231483,227.7358421422541 26.911854102276266,219.15539131779224 19.908814588561654,218.44035269878805 18.158054710365832,210.0982235451229 24.06686929985881,206.76136572728865 25.161094224080443,203.6628517457284 27.787234041839838,208.19144807918929 24.94224923942238,206.9997128311079 22.097264437004924,207.95310106594115 17.720364741049707,205.80797713249922 15.313069907948375,208.4297950756736 16.844984801486135,212.00499786133878 22.097264437004924,210.57491723145358 23.410334346815944,212.48169126105495 20.12765957415104,225.11404019175097 26.25531914830208,231.07267784746364 22.53495440632105,237.74633870529942 26.911854102276266,242.7515751144383 29.100303950719535,249.18686743848957 45.951367780566216,250.37858680356294 59.519756838679314,253.47705505299382 65.42857142724097,253.23871144885197 75.27659574430436,256.5755202693399 80.09118541050702,253.9537422065623 80.96656534820795,248.47183560440317 74.18237082008272,245.8500508298166 69.36778115481138,246.08839498995803 68.27355623058975,238.9380623777397 64.99088145792484,236.792959443992 62.36474164016545,229.16591501841322 58.64437689911574,225.82907730271108 56.23708206601441,225.59073161659762 47.92097264435142,229.88095121388324 38.51063829660416,225.11404019175097 39.38601823616773,228.45087866089307 37.63525835797191,229.16591501841322 32.6018237080425,226.5441142518539 28.0060790264979,219.15539131779224 20.784194528125226,217.72531391843222 20.3465045588091,210.0982235451229 26.693009117618203,206.76136572728865 29.537993920966983,207.47640698426403 22.53495440632105,201.9944198844023 20.565349543467164,206.04632430826314 14.437689969316125,207.95310106594115 21.6595744676888,212.48169126105495 23.410334346815944,216.7719286272768 20.12765957415104,222.015544177033 26.693009117618203,230.8343325566966 25.817629178985953,234.64785505691543 22.972644375637174,237.03130428656004 26.693009117618203,241.32150837639347 29.100303950719535,248.7101795671042 35.00911854021251,248.7101795671042 38.51063829660416,250.6169306228403 54.92401215713471,251.57030571997166 69.14893617015332,255.8604901037179 75.49544072896242,256.81386362132616 82.93617021199316,256.33717689849436 84.03039513621479,254.43042928841896 77.90273556113243,246.32673913193867 72.4316109418869,244.89667400904 72.4316109418869,238.9380623777397 68.71124619990587,235.36289001372643 65.20972644351423,234.8862000608351 60.176291793584824,225.82907730271108 57.76899695955217,225.82907730271108 47.92097264435142,230.35764192114584 43.32522796373814,226.7824598660227 38.72948328219354,226.0674229701981 35.44680851045996,228.68922413117252 32.6018237080425,227.7358421422541 25.59878419339657,231.54936837567948 22.972644375637174,235.83957989583723 28.662613980472088,242.27488627354614 28.662613980472088,247.28011552104726 47.483282674103975,249.90189911145717" stroke="#4dd2ff" stroke-linecap="round" stroke-linejoin="round" stroke-width="0.5"><title>2024-01-16 10.2km</title><desc>10569480991</desc></polyline><polyline fill="none" points="173.04878048878163,255.9393460773863 176.1219512205571,258.56911578122526 185.78048780560493,256.1784161401447 181.60975609812886,248.76723581342958 173.04878048878163,242.55139381205663 171.29268292803317,235.85739650926553 167.34146341495216,235.61832491587847 164.48780487850308,229.4024571715854 160.75609756167978,226.0554464221932 154.82926829345524,226.77266330830753 149.56097561027855,230.35874530882575 146.92682927008718,230.59781729779206 142.5365853663534,225.81637409096584 137.04878048878163,214.1018077984918 124.97560975700617,200.47460486600175 122.56097561027855,205.4951601200737 118.1707317084074,207.4077505094465 116.8536585373804,209.55941331991926 119.04878048785031,211.7110746728722 122.78048780560493,211.472001260845 125.19512195140123,218.16604998055845 122.12195121962577,223.42564978683367 127.60975609812886,232.27132071973756 125.19512195140123,238.24811145220883 128.48780487850308,245.18117460561916 127.82926829345524,249.72351811779663 135.29268292710185,251.63608186296187 143.41463414672762,250.67980013461784 162.07317073177546,254.98306564451195 167.7804878046736,254.5049253203906 184.02439024485648,259.52539513399825 185.34146341495216,257.1346962125972 184.24390243925154,252.35329297045246 173.70731707382947,244.22489093244076 173.92682926915586,238.48718284722418 168.00000000093132,235.61832491587847 162.29268292710185,226.0554464221932 159.87804878130555,225.33822937402874 150.43902439065278,230.8368892695289 146.92682927008718,230.59781729779206 139.68292682990432,225.33822937402874 139.68292682990432,219.83955995482393 136.1707317084074,219.12234150245786 133.97560975607485,214.57995420717634 124.09756097663194,207.16867677331902 121.24390244018286,203.3434945542831 116.19512195233256,207.4077505094465 118.60975609812886,211.23292783112265 122.56097561027855,212.90644146013074 124.09756097663194,216.73161215730943 121.24390244018286,225.09915698878467 126.95121951401234,233.46667976630852 124.97560975700617,238.00904003856704 128.7073170747608,244.7030328051187 126.95121951401234,245.18117460561916 126.95121951401234,249.484447568655 133.97560975607485,249.00630641635507 139.24390244018286,251.15794103499502 143.634146342054,249.72351811779663 151.09756097663194,253.0705039158929 159.65853658597916,253.0705039158929 177.00000000093132,257.1346962125972 183.14634146448225,258.0909759977367 186.0,256.8956262213178 183.14634146448225,251.39701145794243 173.70731707382947,243.9858199695591 161.8536585373804,225.81637409096584 159.2195121962577,225.33822937402874 151.317073171027,229.64152923272923 146.48780487850308,229.64152923272923 142.5365853663534,225.57730174134485 141.43902439065278,220.55677824560553 133.75609756167978,215.29717368562706 128.92682926915586,206.21238165115938 123.21951219625771,200.47460486600175 114.0,207.4077505094465 116.41463414765894,209.7984868758358 121.24390244018286,211.472001260845 124.53658536635339,218.16604998055845 121.24390244018286,223.66472229803912 126.73170731775463,231.79317697510123 124.75609756167978,233.22760799294338 130.24390243925154,242.31232272321358 129.14634146448225,249.2453770013526 134.41463414672762,247.81095322058536 139.68292682990432,249.00630641635507 146.2682926831767,247.81095322058536 156.5853658542037,253.0705039158929 163.39024390280247,254.0267849243246 169.31707317195833,252.83143361867405 178.31707317195833,256.65655621280894 183.5853658542037,257.61283614113927 185.34146341495216,255.46120589692146 183.5853658542037,250.4407296574209 173.92682926915586,243.5076779895462 173.92682926915586,237.0527542058844 166.9024390252307,234.18389497837052 161.8536585373804,224.621012164047 157.9024390252307,225.57730174134485 150.43902439065278,230.8368892695289 146.70731707382947,226.53359103086405 135.951219513081,220.55677824560553 127.60975609812886,210.2766339329537 122.12195121962577,208.1249716077 117.73170731775463,203.82164258416742 114.65853658597916,207.8858979267534 117.95121951308101,211.472001260845 123.21951219625771,214.81902738520876 123.65853658691049,219.83955995482393 121.02439024485648,224.621012164047 127.17073170747608,231.31503315782174 123.65853658691049,237.76996860769577 129.14634146448225,243.26860697194934 128.7073170747608,250.91887059342116 133.75609756167978,249.72351811779663 139.68292682990432,252.11422261944972 143.8536585373804,251.63608186296187 147.5853658542037,253.54864445631392 159.2195121962577,254.26585513167083 176.56097561027855,258.56911578122526 182.4878048794344,257.8519060781691 184.682926828973,254.26585513167083 183.5853658542037,249.72351811779663 178.75609756167978,245.42024547886103 173.48780487850308,243.9858199695591 172.17073170747608,238.7262542245444 167.12195121962577,233.9448232590221 163.60975609812886,227.96802442520857 160.5365853663534,226.2945187354926 157.46341463550925,226.53359103086405 151.75609756167978,232.03224885626696 150.43902439065278,231.79317697510123 146.2682926831767,226.77266330830753 141.65853658597916,225.57730174134485 138.14634146355093,216.0143930024933 128.26829268410802,203.82164258416742 120.36585365887731,203.82164258416742 115.53658536728472,205.2560862400569 114.43902439065278,207.4077505094465 117.07317073177546,210.99385438370518 120.5853658542037,212.1892214419786 124.09756097663194,218.16604998055845 119.92682926915586,222.4693595606368 126.51219512242824,231.31503315782174 125.85365853644907,234.4229666790925 123.21951219625771,238.24811145220883 129.8048780495301,243.5076779895462 129.8048780495301,250.2016591625288 140.12195121962577,249.72351811779663 146.92682927008718,249.00630641635507 153.51219512242824,252.5923633039929 166.24390244018286,251.39701145794243 170.634146342054,252.5923633039929 174.5853658542037,255.9393460773863 181.39024390280247,257.3737661864143 184.46341463457793,255.46120589692146 182.70731707289815,252.5923633039929 173.2682926831767,245.18117460561916 170.634146342054,237.76996860769577 165.58536585513502,235.1401816753205 164.26829268410802,228.68524087942205 159.0,226.0554464221932 149.78048780560493,231.31503315782174 146.48780487850308,230.59781729779206 145.82926829345524,226.77266330830753 140.34146341495216,223.90379479154944 135.951219513081,215.53624680964276 130.90243902429938,211.95014806604013 128.04878048878163,204.7779384269379 123.65853658691049,201.66997588449158 121.24390244018286,204.29979054140858 114.21951219625771,206.6905292486772 117.29268292803317,210.7547809178941 121.46341463457793,212.1892214419786 124.53658536635339,216.73161215730943 119.48780487850308,224.38193972432055 126.29268292710185,230.8368892695289 126.51219512242824,233.9448232590221 122.34146341588348,237.53089715819806 128.7073170747608,238.96532558393665 128.48780487850308,248.2890945528634 134.8536585373804,248.52816519211046 143.41463414672762,251.87515225005336 154.3902439037338,255.22213577991351 163.1707317084074,254.5049253203906 175.68292682990432,259.52539513399825 183.3658536588773,258.3300458986778 185.12195121962577,255.9393460773863 184.46341463457793,252.35329297045246 176.56097561027855,244.9421037142165 174.5853658542037,244.7030328051187 173.04878048878163,237.53089715819806 168.00000000093132,234.18389497837052 162.51219512335956,225.81637409096584 160.5365853663534,225.57730174134485 149.56097561027855,231.31503315782174 142.09756097570062,227.72895223787054 140.78048780560493,221.03492368222214 126.95121951401234,203.3434945542831 121.02439024485648,204.06071657175198 114.87804878130555,207.64682422741316 119.48780487850308,210.03756041335873 123.00000000093132,216.9706851723604 120.36585365887731,224.86008458514698 127.60975609812886,231.79317697510123 127.39024390373379,233.7057515210472 122.78048780560493,237.53089715819806 128.92682926915586,244.9421037142165 128.92682926915586,250.4407296574209 147.8048780504614,252.35329297045246 162.07317073177546,254.5049253203906 166.02439024485648,256.1784161401447 171.07317073270679,256.1784161401447 173.92682926915586,257.8519060781691 182.4878048794344,257.8519060781691 184.682926828973,254.7439954916481 183.5853658542037,251.15794103499502 177.4390243915841,245.42024547886103 173.04878048878163,243.9858199695591 174.36585365980864,238.24811145220883 167.12195121962577,234.18389497837052 164.70731707382947,228.44616874610074 161.634146342054,225.57730174134485 159.2195121962577,225.57730174134485 151.5365853663534,230.8368892695289 146.70731707382947,229.88060127641074 142.5365853663534,224.621012164047 141.43902439065278,220.55677824560553 135.951219513081,215.05810054461472 129.5853658542037,204.29979054140858 127.60975609812886,203.3434945542831 119.26829268410802,206.21238165115938 116.19512195233256,205.97330782515928 115.09756097663194,208.1249716077 121.68292682990432,212.90644146013074 121.02439024485648,224.621012164047 128.04878048878163,232.03224885626696 124.97560975700617,238.00904003856704 128.7073170747608,242.31232272321358 128.48780487850308,250.4407296574209 132.00000000093132,249.2453770013526 138.14634146355093,251.63608186296187 142.75609756074846,250.67980013461784 150.6585365869105,253.54864445631392 155.48780487850308,252.83143361867405 167.12195121962577,255.22213577991351 176.78048780560493,259.2863253224641 180.29268292710185,257.3737661864143 183.5853658542037,257.8519060781691 186.0,256.4174861854408 178.75609756167978,245.42024547886103 173.48780487850308,244.4639618783258 173.2682926831767,238.48718284722418 170.8536585373804,235.85739650926553 168.2195121953264,235.1401816753205 165.58536585513502,229.16338509251364 162.07317073177546,225.81637409096584 155.70731707382947,227.25080780894496 150.43902439065278,230.8368892695289 141.87804878130555,226.53359103086405 140.12195121962577,217.92697705491446 136.1707317084074,214.57995420717634 127.60975609812886,202.14812416629866 124.53658536635339,200.95275332732126 123.00000000093132,204.53886449337006 119.48780487850308,206.45145545853302 115.97560975700617,205.97330782515928 115.09756097663194,207.4077505094465 117.51219512335956,210.51570743415505 120.14634146448225,209.32033974700607 123.87804878130555,212.66736813890748 123.87804878130555,217.4488311498426 121.24390244018286,224.38193972432055 127.17073170747608,230.59781729779206 126.29268292710185,233.9448232590221 123.43902439065278,235.61832491587847 129.3658536588773,243.029535937123 128.04878048878163,249.2453770013526 135.29268292710185,249.2453770013526 141.2195121953264,253.0705039158929 148.9024390252307,251.87515225005336 154.60975609812886,254.26585513167083 163.82926829345524,254.26585513167083 176.34146341588348,258.56911578122526 183.14634146448225,258.3300458986778 186.0,255.9393460773863 177.4390243915841,244.9421037142165 174.14634146355093,245.42024547886103 173.48780487850308,238.96532558393665 166.46341463457793,234.18389497837052 163.39024390280247,227.01173556782305 158.1219512205571,225.09915698878467 150.0,231.07596122287214 146.70731707382947,228.44616874610074 143.41463414672762,228.68524087942205 136.39024390280247,214.34088101168163 129.3658536588773,208.60311891767196 127.82926829345524,205.01701234281063 121.9024390252307,202.86534645361826 119.04878048785031,203.58256857818924 115.53658536728472,206.92960302042775 120.36585365887731,209.08126615476795 122.56097561027855,211.7110746728722 123.21951219625771,217.4488311498426 120.5853658542037,225.09915698878467 126.29268292710185,233.22760799294338 123.87804878130555,238.48718284722418 129.3658536588773,244.4639618783258 127.82926829345524,249.484447568655 132.4390243915841,250.2016591625288" stroke="#4dd2ff" stroke-linecap="round" stroke-linejoin="round" stroke-width="0.5"><title>2023-10-24 10.2km</title><desc>10096212910</desc></polyline></svg>