<?xml version="1.0" encoding="utf-8" ?>
<svg baseProfile="full" height="200mm" version="1.1" viewBox="0,0,200,200" width="200mm" xmlns="http://www.w3.org/2000/svg" xmlns:ev="http://www.w3.org/2001/xml-events" xmlns:xlink="http://www.w3.org/1999/xlink"><defs /><rect fill="#1a1a1a" height="200" width="200" x="0" y="0" /><text alignment-baseline="middle" fill="#e1ed5e" style="dominant-baseline: central; font-size:9.0px; font-family:Arial;" text-anchor="middle" x="100.0" y="100.0">2024</text><line stroke="#e1ed5e" stroke-width="0.3" x1="100.0" x2="100.0" y1="15.0" y2="10.0" /><path d="M 100.0 14.0 a86.0,86.0 0 0,1 42.35913384403234,11.155469271406648" fill="none" id="id13" stroke="none" /><text fill="#e1ed5e" style="font-size:6.75px; font-family:Arial;" text-anchor="middle"><textPath startOffset="22.145653131862478" xlink:href="#id13">January</textPath></text><path d="M 100.36049292484886 79.00309439819443 l 0.4316676230602786 -25.142474950243813 a46.146180297620475,46.146180297620475 0 0,0 0.7919270945596901,0.020397232797061578 l -0.8632080316907101 25.131360000096706" fill="#d8ff1c" stroke="none" /><path d="M 101.08105385017728 79.02784411241856 l 1.2945329068940676 -25.11359255649871 a46.146935132155946,46.146935132155946 0 0,0 0.79077310662301,0.0475709464315916 l -1.7254503656495401 25.087669632242427" fill="#d8ff1c" stroke="none" /><path d="M 105.3480935250658 79.69241777938227 l 9.767149476467345 -37.087457450920986 a59.352010495794495,59.352010495794495 0 0,0 0.9830349115407929,0.2679305365025244 l -10.402365788942832 36.91432642027432" fill="#42ff2d" stroke="none" /><line stroke="#e1ed5e" stroke-width="0.3" x1="143.13028292997686" x2="145.6673583964461" y1="26.7553504044142" y2="22.446841604673864" /><path d="M 143.63769802327073 25.89364864446614 a86.0,86.0 0 0,1 29.32050498858742,28.57503671076993" fill="none" id="id14" stroke="none" /><text fill="#e1ed5e" style="font-size:6.75px; font-family:Arial;" text-anchor="middle"><textPath startOffset="20.669276256404974" xlink:href="#id14">February</textPath></text><line stroke="#e1ed5e" stroke-width="0.3" x1="172.87174338648825" x2="177.1583165268699" y1="56.24261187166439" y2="53.66864786411523" /><path d="M 173.72905801456457 55.72781907015455 a86.0,86.0 0 0,1 12.242430191666344,42.057860355516425" fill="none" id="id15" stroke="none" /><text fill="#e1ed5e" style="font-size:6.75px; font-family:Arial;" text-anchor="middle"><textPath startOffset="22.145653131862474" xlink:href="#id15">March</textPath></text><path d="M 120.05942366710727 93.78553927170692 l 4.118860955824814 -1.2760336528135265 a25.311992283913636,25.311992283913636 0 0,0 0.12502157084415771,0.416156148277959 l -4.140158846672599 1.205139900944844" fill="#ff0701" stroke="none" /><line stroke="#e1ed5e" stroke-width="0.3" x1="184.99686870605535" x2="189.99668451229388" y1="99.2704041080226" y2="99.22748670261217" /><path d="M 185.99683186730306 99.26182062694052 a86.0,86.0 0 0,1 -10.086455211305974,41.156179273409016" fill="none" id="id16" stroke="none" /><text fill="#e1ed5e" style="font-size:6.75px; font-family:Arial;" text-anchor="middle"><textPath startOffset="21.40746469413373" xlink:href="#id16">April</textPath></text><path d="M 119.58574465831526 107.57618678355244 l 3.7076151150110475 1.4341851751304413 a24.975336081090795,24.975336081090795 0 0,0 -0.158107346275551,0.39853379597728067 l -3.682449093769372 -1.4976199883212862" fill="#ff0200" stroke="none" /><line stroke="#e1ed5e" stroke-width="0.3" x1="174.33088141563837" x2="178.70328620479359" y1="141.23008692659167" y2="143.65538615756765" /><path d="M 175.20536237346943 141.71514677278685 a86.0,86.0 0 0,1 -30.301960400862466,31.631185727798858" fill="none" id="id17" stroke="none" /><text fill="#e1ed5e" style="font-size:6.75px; font-family:Arial;" text-anchor="middle"><textPath startOffset="22.145653131862474" xlink:href="#id17">May</textPath></text><line stroke="#e1ed5e" stroke-width="0.3" x1="143.1302829299769" x2="145.66735839644613" y1="173.24464959558577" y2="177.55315839532614" /><path d="M 143.63769802327073 174.10635135553383 a86.0,86.0 0 0,1 -40.68552437913181,11.842963189579606" fill="none" id="id18" stroke="none" /><text fill="#e1ed5e" style="font-size:6.75px; font-family:Arial;" text-anchor="middle"><textPath startOffset="21.407464694133747" xlink:href="#id18">June</textPath></text><path d="M 107.06938296918513 119.77432235084164 l 4.929772745453353 13.78945175412175 a35.64416740552586,35.64416740552586 0 0,0 -0.5779349172305965,0.20103576463324008 l -4.692332056177735 -13.87204595132358" fill="#ff9d0e" stroke="none" /><line stroke="#e1ed5e" stroke-width="0.3" x1="101.45913802915013" x2="101.54496967792366" y1="184.9874750549273" y2="189.98673829345242" /><path d="M 101.47630435890484 185.9873277026323 a86.0,86.0 0 0,1 -42.54439059252881,-10.42667462771756" fill="none" id="id19" stroke="none" /><text fill="#e1ed5e" style="font-size:6.75px; font-family:Arial;" text-anchor="middle"><textPath startOffset="22.145653131862474" xlink:href="#id19">July</textPath></text><path d="M 97.84075906011543 120.88869738790638 l -1.3838369302727662 13.387366984724927 a34.45869976755889,34.45869976755889 0 0,0 -0.5878721430587254,-0.0658722998136796 l 1.613444974932291 -13.361638924404277" fill="#ff8d0d" stroke="none" /><path d="M 92.93061703081489 119.77432235084164 l -6.42543741284534 17.973092022401474 a40.087123481344804,40.087123481344804 0 0,0 -0.6459960697651422,-0.2372187047956829 l 6.733022634264601 -17.860142468597072" fill="#ffd914" stroke="none" /><line stroke="#e1ed5e" stroke-width="0.3" x1="58.13341422392154" x2="55.67067388415222" y1="173.97424548756322" y2="178.32567169271397" /><path d="M 57.64086615596768 174.84453072859336 a86.0,86.0 0 0,1 -31.369924170532247,-30.572349798747897" fill="none" id="id20" stroke="none" /><text fill="#e1ed5e" style="font-size:6.75px; font-family:Arial;" text-anchor="middle"><textPath startOffset="22.145653131862474" xlink:href="#id20">August</textPath></text><path d="M 89.03521579738668 117.91015095944536 l -7.955781094891775 12.995170518344773 a36.237089933143224,36.237089933143224 0 0,0 -0.5277429509442093,-0.3293506330890741 l 8.177688174625697 -12.856684088414152" fill="#ffa50f" stroke="none" /><path d="M 86.13680546590413 115.77377054828092 l -25.00273360375477 28.44852115257013 a58.87420023483741,58.87420023483741 0 0,0 -0.7534074581383106,-0.6737015948082026 l 25.48740608871645 -28.015124027878546" fill="#47ff2c" stroke="none" /><path d="M 85.60350026404147 115.28858382429668 l -10.489735909070543 11.139736024861064 a36.30125086865879,36.30125086865879 0 0,0 -0.45001020945797804,-0.4310996010179733 l 10.679418604393836 -10.958024293537507" fill="#ffa60f" stroke="none" /><line stroke="#e1ed5e" stroke-width="0.3" x1="26.387840678322732" x2="22.057713659400548" y1="142.50000000000003" y2="145.00000000000006" /><path d="M 25.521815274538298 143.00000000000003 a86.0,86.0 0 0,1 -11.493303480769221,-40.785679425670985" fill="none" id="id21" stroke="none" /><text fill="#e1ed5e" style="font-size:6.75px; font-family:Arial;" text-anchor="middle"><textPath startOffset="21.40746469413373" xlink:href="#id21">September</textPath></text><path d="M 79.48165901384964 104.47187691870673 l -18.526172380302558 4.037693043281506 a39.961066113920104,39.961066113920104 0 0,0 -0.14032478538758536,-0.6715048962237388 l 18.592754876514512 -3.7190716957723584" fill="#ffd714" stroke="none" /><line stroke="#e1ed5e" stroke-width="0.3" x1="15.003131293944662" x2="10.003315487706104" y1="100.72959589197737" y2="100.7725132973878" /><path d="M 14.003168132696942 100.73817937305945 a86.0,86.0 0 0,1 10.791469493833604,-42.45332614584628" fill="none" id="id22" stroke="none" /><text fill="#e1ed5e" style="font-size:6.75px; font-family:Arial;" text-anchor="middle"><textPath startOffset="22.145653131862435" xlink:href="#id22">October</textPath></text><path d="M 79.03789590574601 98.7389718711861 l -18.92873328182342 -1.1387055900432432 a39.962953200258795,39.962953200258795 0 0,0 0.047072626777159114,-0.6844256623183828 l 18.906396693881195 1.463474676515951" fill="#ffd714" stroke="none" /><path d="M 79.06263194458094 98.37931529534042 l -22.818700778474046 -1.766311755803754 a43.886960532937145,43.886960532937145 0 0,0 0.06458985528001009,-0.750632024670724 l 22.785017300496293 2.1577648278501584" fill="#f4ff19" stroke="none" /><path d="M 79.34024301695615 96.23510406497455 l -22.728158523269506 -4.1418275977350945 a44.10246579281589,44.10246579281589 0 0,0 0.14212273236662348,-0.7436461910924808 l 22.653709498620724 4.53137635386089" fill="#f1ff19" stroke="none" /><path d="M 80.16572619554312 93.10060997987247 l -19.685864899914904 -6.847765699268094 a41.84286861086483,41.84286861086483 0 0,0 0.24181159140419906,-0.6763900580064095 l 19.56541313846676 7.184690713655425" fill="#fff016" stroke="none" /><path d="M 80.83023694016515 91.42560881287825 l -3.502428852644578 -1.5665918766914222 a24.836823943830726,24.836823943830726 0 0,0 0.1774242588207026,-0.38770402550391286 l 3.4750201289688287 1.6264848844100066" fill="#ff0000" stroke="none" /><path d="M 80.9802524753101 91.09779779509293 l -17.372024195782494 -8.13098448855016 a40.18072296374398,40.18072296374398 0 0,0 0.29775971063453927,-0.6222032745617048 l 17.22988522718805 8.428000265176951" fill="#ffda14" stroke="none" /><line stroke="#e1ed5e" stroke-width="0.3" x1="26.387840678322718" x2="22.05771365940052" y1="57.49999999999999" y2="54.99999999999999" /><path d="M 25.521815274538284 56.99999999999999 a86.0,86.0 0 0,1 29.574782752854787,-30.34633250058573" fill="none" id="id23" stroke="none" /><text fill="#e1ed5e" style="font-size:6.75px; font-family:Arial;" text-anchor="middle"><textPath startOffset="21.40746469413373" xlink:href="#id23">November</textPath></text><path d="M 81.81346652052679 89.5 l -13.225450579543828 -7.635717452253724 a36.271434904507444,36.271434904507444 0 0,0 0.31595233406432227,-0.5365561370190934 l 13.092424535349727 7.86162475756639" fill="#ffa60f" stroke="none" /><path d="M 81.99639281039701 89.18935116829357 l -10.67895063056823 -6.4124030224827875 a33.456279504445135,33.456279504445135 0 0,0 0.29988302823195345,-0.48983638953238307 l 10.567299637880883 6.594776528139714" fill="#ff7f0b" stroke="none" /><path d="M 82.37810715431573 88.57770195909679 l -26.752077987736044 -17.34037374221372 a52.88043660588052,52.88043660588052 0 0,0 0.5002881148947682,-0.7574999701554547 l 26.450465433920545 17.797053590708238" fill="#89ff24" stroke="none" /><path d="M 84.58840730492382 85.73525988315684 l -9.747792679024274 -9.022411377610075 a34.28244590352496,34.28244590352496 0 0,0 0.4034622147765736,-0.4284628905414493 l 9.59147463051143 9.188415728096036" fill="#ff8a0c" stroke="none" /><path d="M 86.40962598614128 83.9905735841838 l -21.423377617291024 -25.23668496485205 a54.10364597062136,54.10364597062136 0 0,0 0.7132037057183622,-0.5949798972790481 l 20.986999577410753 25.60072704604298" fill="#7bff26" stroke="none" /><path d="M 86.96720088162412 83.53348406188908 l -39.09839735512763 -49.399547814332756 a84.0,84.0 0 0,0 1.1383602214590214,-0.8851957935167807 l 38.244627189033366 50.06344465947034" fill="#4dd2ff" stroke="none" /><line stroke="#e1ed5e" stroke-width="0.3" x1="56.869717070023135" x2="54.33264160355391" y1="26.7553504044142" y2="22.446841604673864" /><path d="M 56.362301976729285 25.89364864446614 a86.0,86.0 0 0,1 42.16139366436587,-11.88097634709845" fill="none" id="id24" stroke="none" /><text fill="#e1ed5e" style="font-size:6.75px; font-family:Arial;" text-anchor="middle"><textPath startOffset="22.145653131862474" xlink:href="#id24">December</textPath></text></svg>