<?xml version="1.0" encoding="utf-8" ?>
<svg baseProfile="full" height="200mm" version="1.1" viewBox="0,0,200,200" width="200mm" xmlns="http://www.w3.org/2000/svg" xmlns:ev="http://www.w3.org/2001/xml-events" xmlns:xlink="http://www.w3.org/1999/xlink"><defs /><rect fill="#1a1a1a" height="200" width="200" x="0" y="0" /><text alignment-baseline="middle" fill="#e1ed5e" style="dominant-baseline: central; font-size:9.0px; font-family:Arial;" text-anchor="middle" x="100.0" y="100.0">2025</text><line stroke="#e1ed5e" stroke-width="0.3" x1="100.0" x2="100.0" y1="15.0" y2="10.0" /><path d="M 100.0 14.0 a86.0,86.0 0 0,1 42.46469731375804,11.215312516191453" fill="none" id="id25" stroke="none" /><text fill="#e1ed5e" style="font-size:6.75px; font-family:Arial;" text-anchor="middle"><textPath startOffset="22.20632615414155" xlink:href="#id25">January</textPath></text><path d="M 100.0 79.0 l 0.0 -31.984221183323783 a52.98422118332378,52.98422118332378 0 0,0 0.912036269868073,0.007850184114881092 l -0.5505557905955446 31.97948237581746" fill="#82ff25" stroke="none" /><path d="M 100.72285384407766 79.0124445844662 l 0.4697770739179868 -13.639648530030925 a34.64773616838902,34.64773616838902 0 0,0 0.595873693055687,0.025659574676587343 l -0.7044915993630054 13.629541228830144" fill="#ff9b0e" stroke="none" /><path d="M 101.44485096284872 79.0497635885617 l 0.9976858890544192 -14.466374579448303 a35.500736898727816,35.500736898727816 0 0,0 0.60927685062704,0.04729160985039113 l -1.2465529290438004 14.447057707409448" fill="#ffa60f" stroke="none" /><path d="M 102.88285421437855 79.19881850522331 l 1.9572837878764995 -14.122745127151523 a35.257730876712685,35.257730876712685 0 0,0 0.6004408686290867,0.08848937586527973 l -2.200093636934242 14.086961267125275" fill="#ffa30f" stroke="none" /><path d="M 103.95276090670814 79.375362276772 l 2.774025308129386 -14.474254417498257 a35.73768154604414,35.73768154604414 0 0,0 0.6031730851278515,0.12099084651887124 l -3.0227648027243625 14.424359614902176" fill="#ffaa0f" stroke="none" /><path d="M 109.73455568895987 81.39251694778311 l 3.4033758270899184 -6.5055108878489465 a28.341977862425164,28.341977862425164 0 0,0 0.43033238250567674,0.22986865538034984 l -3.5148532561239065 6.4459635059668425" fill="#ff4306" stroke="none" /><line stroke="#e1ed5e" stroke-width="0.3" x1="143.23703022742887" x2="145.7803849466894" y1="26.81831364943548" y2="22.513508569990506" /><path d="M 143.74570117128098 25.957352633546492 a86.0,86.0 0 0,1 28.547481713284135,27.462654790039103" fill="none" id="id26" stroke="none" /><text fill="#e1ed5e" style="font-size:6.75px; font-family:Arial;" text-anchor="middle"><textPath startOffset="19.985693538727396" xlink:href="#id26">February</textPath></text><path d="M 111.60114157652 82.49532879139004 l 9.439775045710961 -14.243439524335027 a38.087566309952294,38.087566309952294 0 0,0 0.5433740984733932,0.3668886168589451 l -9.683553838590898 14.078838995177412" fill="#ffc912" stroke="none" /><path d="M 113.06298171725822 83.55741782278167 l 21.7533170994586 -27.381245092181747 a55.970550290604876,55.970550290604876 0 0,0 0.7491967365316315,0.6057983244678993 l -22.22141723455472 27.002740670449718" fill="#61ff29" stroke="none" /><line stroke="#e1ed5e" stroke-width="0.3" x1="172.23445277983987" x2="176.4835382374775" y1="55.19839476539836" y2="52.563006222186495" /><path d="M 173.08426987136738 54.67131705675599 a86.0,86.0 0 0,1 12.851231095245387,41.99856678651699" fill="none" id="id27" stroke="none" /><text fill="#e1ed5e" style="font-size:6.75px; font-family:Arial;" text-anchor="middle"><textPath startOffset="22.20632615414155" xlink:href="#id27">March</textPath></text><path d="M 117.84615892207809 88.93136811851018 l 33.99839962791124 -21.0866535305576 a61.006726114204,61.006726114204 0 0,0 0.545819049292295,0.8971830035807293 l -34.35633447548976 20.49830275376979" fill="#30ff32" stroke="none" /><path d="M 119.196687751892 91.48605970444005 l 36.30303946775532 -16.10079377080883 a60.713300475376215,60.713300475376215 0 0,0 0.4154793006868738,0.9589835096501385 l -36.57480947828487 15.473511116572089" fill="#30ff2f" stroke="none" /><path d="M 120.53481517161879 95.60439243477599 l 61.60444551485638 -13.186822695672053 a84.0,84.0 0 0,0 0.2904828163400124,1.4164973753463528 l -61.822307627111385 12.124449664162288" fill="#4dd2ff" stroke="none" /><line stroke="#e1ed5e" stroke-width="0.3" x1="184.98032266829074" x2="189.97916517819016" y1="98.17113171792111" y2="98.06355123074" /><path d="M 185.9800911702706 98.14961562048488 a86.0,86.0 0 0,1 -9.607161424134198,41.387399972396054" fill="none" id="id28" stroke="none" /><text fill="#e1ed5e" style="font-size:6.75px; font-family:Arial;" text-anchor="middle"><textPath startOffset="21.466115282336823" xlink:href="#id28">April</textPath></text><path d="M 120.99513854157772 99.54816195383933 l 14.382791454797452 -0.3095331986689367 a35.38612181351433,35.38612181351433 0 0,0 0.007864132315967706,0.6090857144495797 l -14.385988594231135 0.06191122615889425" fill="#ffa50f" stroke="none" /><path d="M 120.76222939487914 103.15116336523771 l 28.676648394950202 4.352365159892583 a50.005055518868545,50.005055518868545 0 0,0 -0.13648581216228176,0.8498972826204102 l -28.59748082842663 -4.845341672206199" fill="#a3ff21" stroke="none" /><path d="M 120.41448212921028 104.9243191809786 l 8.711337279893355 2.101322237215735 a29.96119145809736,29.96119145809736 0 0,0 -0.12525017239335318,0.5003121782304422 l -8.67387579320494 -2.2509622548435733" fill="#ff5a08" stroke="none" /><path d="M 120.32669344350535 105.2749913415812 l 10.183836892086608 2.6428130861095003 a31.52116889194047,31.52116889194047 0 0,0 -0.14081245189088884,0.5240155170038703 l -10.136836363853941 -2.817719536288919" fill="#ff700a" stroke="none" /><path d="M 120.13307415673323 105.97154293290107 l 20.86809632081197 6.189553176903589 a42.76667206038634,42.76667206038634 0 0,0 -0.2154080444285173,0.7039659526184333 l -20.75846150387732 -6.547846102074079" fill="#faff18" stroke="none" /><path d="M 119.79798401119884 107.00284435728193 l 6.84848286029452 2.422411268088067 a28.264282059467945,28.264282059467945 0 0,0 -0.16618824354521508,0.45727867122592 l -6.8057703557440785 -2.5399377363201183" fill="#ff4106" stroke="none" /><path d="M 119.67450827220406 107.3425965602758 l 2.651478157255676 0.9895410918410168 a23.83011095027136,23.83011095027136 0 0,0 -0.14673188875197626,0.3830706598363356 l -2.634051988910193 -1.0350353185104961" fill="#ff0000" stroke="none" /><path d="M 119.41010516605496 108.01547362559984 l 11.111740027581996 4.588633516595614 a33.0219101639545,33.0219101639545 0 0,0 -0.22148112598803393,0.5235159573687567 l -11.031107920401654 -4.779223999630534" fill="#ff850c" stroke="none" /><path d="M 119.12269723197855 108.67885076344098 l 33.64822315123174 15.271271810764599 a57.95151774898213,57.95151774898213 0 0,0 -0.420080571145339,0.9048161781250434 l -33.38036796324657 -15.848208056168474" fill="#4dff2c" stroke="none" /><line stroke="#e1ed5e" stroke-width="0.3" x1="174.80103733775053" x2="179.2010983576182" y1="140.37084112569926" y2="142.7455964860345" /><path d="M 175.68104954172406 140.8457921977663 a86.0,86.0 0 0,1 -30.038265399797805,32.042727171017184" fill="none" id="id29" stroke="none" /><text fill="#e1ed5e" style="font-size:6.75px; font-family:Arial;" text-anchor="middle"><textPath startOffset="22.206326154141568" xlink:href="#id29">May</textPath></text><line stroke="#e1ed5e" stroke-width="0.3" x1="143.8653032363475" x2="146.44561519142675" y1="172.8068346515853" y2="177.08958963109032" /><path d="M 144.38136562736335 173.6633856474863 a86.0,86.0 0 0,1 -40.68145358897372,12.25698825130547" fill="none" id="id30" stroke="none" /><text fill="#e1ed5e" style="font-size:6.75px; font-family:Arial;" text-anchor="middle"><textPath startOffset="21.466115282336833" xlink:href="#id30">June</textPath></text><line stroke="#e1ed5e" stroke-width="0.3" x1="102.19456741930631" x2="102.32365962044197" y1="184.97166512339345" y2="189.96999836594603" /><path d="M 102.22038585953345 185.97133177190398 a86.0,86.0 0 0,1 -42.740103519485714,-10.115201625700543" fill="none" id="id31" stroke="none" /><text fill="#e1ed5e" style="font-size:6.75px; font-family:Arial;" text-anchor="middle"><textPath startOffset="22.20632615414155" xlink:href="#id31">July</textPath></text><line stroke="#e1ed5e" stroke-width="0.3" x1="58.666819895761336" x2="56.23545636021788" y1="174.27360380694188" y2="178.64263932499728" /><path d="M 58.180547188652646 175.14741091055294 a86.0,86.0 0 0,1 -31.652253787137756,-30.449443065178592" fill="none" id="id32" stroke="none" /><text fill="#e1ed5e" style="font-size:6.75px; font-family:Arial;" text-anchor="middle"><textPath startOffset="22.20632615414155" xlink:href="#id32">August</textPath></text><line stroke="#e1ed5e" stroke-width="0.3" x1="26.63291911575756" x2="22.317208475507996" y1="142.92168965132927" y2="145.44649492493687" /><path d="M 25.769776987707644 143.4266507060508 a86.0,86.0 0 0,1 -11.730757126820373,-40.83630448921669" fill="none" id="id33" stroke="none" /><text fill="#e1ed5e" style="font-size:6.75px; font-family:Arial;" text-anchor="middle"><textPath startOffset="21.46611528233685" xlink:href="#id33">September</textPath></text><line stroke="#e1ed5e" stroke-width="0.3" x1="15.007084014347285" x2="10.007500721073583" y1="101.09737516637583" y2="101.16192664675087" /><path d="M 14.007167355692545 101.11028546245083 a86.0,86.0 0 0,1 10.666146001902534,-42.60595125391555" fill="none" id="id34" stroke="none" /><text fill="#e1ed5e" style="font-size:6.75px; font-family:Arial;" text-anchor="middle"><textPath startOffset="22.20632615414155" xlink:href="#id34">October</textPath></text><line stroke="#e1ed5e" stroke-width="0.3" x1="26.266209847984243" x2="21.928928074336255" y1="57.711370442889674" y2="55.22380399835377" /><path d="M 25.398753493254645 57.213857153982495 a86.0,86.0 0 0,1 29.58750427330803,-30.492523968695096" fill="none" id="id35" stroke="none" /><text fill="#e1ed5e" style="font-size:6.75px; font-family:Arial;" text-anchor="middle"><textPath startOffset="21.46611528233685" xlink:href="#id35">November</textPath></text><line stroke="#e1ed5e" stroke-width="0.3" x1="56.762969772571076" x2="54.21961505331055" y1="26.818313649435495" y2="22.513508569990535" /><path d="M 56.25429882871897 25.957352633546506 a86.0,86.0 0 0,1 42.265352541879196,-11.944610805530505" fill="none" id="id36" stroke="none" /><text fill="#e1ed5e" style="font-size:6.75px; font-family:Arial;" text-anchor="middle"><textPath startOffset="22.20632615414155" xlink:href="#id36">December</textPath></text></svg>