<?xml version="1.0" encoding="utf-8" ?>
<svg baseProfile="full" height="200mm" version="1.1" viewBox="0,0,200,200" width="200mm" xmlns="http://www.w3.org/2000/svg" xmlns:ev="http://www.w3.org/2001/xml-events" xmlns:xlink="http://www.w3.org/1999/xlink"><defs /><rect fill="#1a1a1a" height="200" width="200" x="0" y="0" /><text alignment-baseline="middle" fill="#e1ed5e" style="dominant-baseline: central; font-size:9.0px; font-family:Arial;" text-anchor="middle" x="100.0" y="100.0">2024</text><line stroke="#e1ed5e" stroke-width="0.3" x1="100.0" x2="100.0" y1="15.0" y2="10.0" /><path d="M 100.0 14.0 a86.0,86.0 0 0,1 42.35913384403234,11.155469271406648" fill="none" id="id13" stroke="none" /><text fill="#e1ed5e" style="font-size:6.75px; font-family:Arial;" text-anchor="middle"><textPath startOffset="22.145653131862478" xlink:href="#id13">January</textPath></text><path d="M 100.36049292484886 79.00309439819443 l 0.3453390636644457 -20.114269159147756 a41.117233479669494,41.117233479669494 0 0,0 0.7056239765865546,0.01817437061630861 l -0.6905763543217418 20.1053770711814" fill="#ffee16" stroke="none" /><path d="M 101.08105385017728 79.02784411241856 l 1.0356412157582258 -20.091162911934656 a41.117837355980285,41.117837355980285 0 0,0 0.7045945714594442,0.04238665975633235 l -1.3803801393501323 20.070424274353634" fill="#ffee16" stroke="none" /><path d="M 105.3480935250658 79.69241777938227 l 7.813831926891836 -29.67039255572693 a51.68204953702816,51.68204953702816 0 0,0 0.8559989555615688,0.23330632179658295 l -8.322012283388098 29.531885739786205" fill="#92ff23" stroke="none" /><line stroke="#e1ed5e" stroke-width="0.3" x1="143.13028292997686" x2="145.6673583964461" y1="26.7553504044142" y2="22.446841604673864" /><path d="M 143.63769802327073 25.89364864446614 a86.0,86.0 0 0,1 29.32050498858742,28.57503671076993" fill="none" id="id14" stroke="none" /><text fill="#e1ed5e" style="font-size:6.75px; font-family:Arial;" text-anchor="middle"><textPath startOffset="20.669276256404974" xlink:href="#id14">February</textPath></text><line stroke="#e1ed5e" stroke-width="0.3" x1="172.87174338648825" x2="177.1583165268699" y1="56.24261187166439" y2="53.66864786411523" /><path d="M 173.72905801456457 55.72781907015455 a86.0,86.0 0 0,1 12.242430191666344,42.057860355516425" fill="none" id="id15" stroke="none" /><text fill="#e1ed5e" style="font-size:6.75px; font-family:Arial;" text-anchor="middle"><textPath startOffset="22.145653131862474" xlink:href="#id15">March</textPath></text><path d="M 120.05942366710727 93.78553927170692 l 3.2951361414704934 -1.0208415997078635 a24.449643425416483,24.449643425416483 0 0,0 0.12076223765158647,0.40197821335293366 l -3.3121746991257073 0.9641257827642064" fill="#ff0600" stroke="none" /><line stroke="#e1ed5e" stroke-width="0.3" x1="184.99686870605535" x2="189.99668451229388" y1="99.2704041080226" y2="99.22748670261217" /><path d="M 185.99683186730306 99.26182062694052 a86.0,86.0 0 0,1 -10.086455211305974,41.156179273409016" fill="none" id="id16" stroke="none" /><text fill="#e1ed5e" style="font-size:6.75px; font-family:Arial;" text-anchor="middle"><textPath startOffset="21.40746469413373" xlink:href="#id16">April</textPath></text><path d="M 119.58574465831526 107.57618678355244 l 2.9661347385028867 1.1473646366844021 a24.18031459080191,24.18031459080191 0 0,0 -0.15307443149700764,0.3858475629920825 l -2.9460016320397546 -1.1981132168900488" fill="#ff0200" stroke="none" /><line stroke="#e1ed5e" stroke-width="0.3" x1="174.33088141563837" x2="178.70328620479359" y1="141.23008692659167" y2="143.65538615756765" /><path d="M 175.20536237346943 141.71514677278685 a86.0,86.0 0 0,1 -30.301960400862466,31.631185727798858" fill="none" id="id17" stroke="none" /><text fill="#e1ed5e" style="font-size:6.75px; font-family:Arial;" text-anchor="middle"><textPath startOffset="22.145653131862474" xlink:href="#id17">May</textPath></text><line stroke="#e1ed5e" stroke-width="0.3" x1="143.1302829299769" x2="145.66735839644613" y1="173.24464959558577" y2="177.55315839532614" /><path d="M 143.63769802327073 174.10635135553383 a86.0,86.0 0 0,1 -40.68552437913181,11.842963189579606" fill="none" id="id18" stroke="none" /><text fill="#e1ed5e" style="font-size:6.75px; font-family:Arial;" text-anchor="middle"><textPath startOffset="21.407464694133747" xlink:href="#id18">June</textPath></text><path d="M 107.06938296918513 119.77432235084164 l 3.9438749006098948 11.031720015168892 a32.71550236757855,32.71550236757855 0 0,0 -0.5304495105146628,0.18451787522485683 l -3.75391961805021 -11.097796322962338" fill="#ff7e0b" stroke="none" /><line stroke="#e1ed5e" stroke-width="0.3" x1="101.45913802915013" x2="101.54496967792366" y1="184.9874750549273" y2="189.98673829345242" /><path d="M 101.47630435890484 185.9873277026323 a86.0,86.0 0 0,1 -42.54439059252881,-10.42667462771756" fill="none" id="id19" stroke="none" /><text fill="#e1ed5e" style="font-size:6.75px; font-family:Arial;" text-anchor="middle"><textPath startOffset="22.145653131862474" xlink:href="#id19">July</textPath></text><path d="M 97.84075906011543 120.88869738790638 l -1.1070854616723118 10.710047574709197 a31.76711462147499,31.76711462147499 0 0,0 -0.5419531751717526,-0.06072698368414285 l 1.2907745384448637 -10.689464830518084" fill="#ff700a" stroke="none" /><path d="M 92.93061703081489 119.77432235084164 l -5.1404238382656064 14.378680351721256 a36.26991833291797,36.26991833291797 0 0,0 -0.5844825634513617,-0.21463009322641874 l 5.386495553371088 -14.288319409486117" fill="#ffae10" stroke="none" /><line stroke="#e1ed5e" stroke-width="0.3" x1="58.13341422392154" x2="55.67067388415222" y1="173.97424548756322" y2="178.32567169271397" /><path d="M 57.64086615596768 174.84453072859336 a86.0,86.0 0 0,1 -31.369924170532247,-30.572349798747897" fill="none" id="id20" stroke="none" /><text fill="#e1ed5e" style="font-size:6.75px; font-family:Arial;" text-anchor="middle"><textPath startOffset="22.145653131862474" xlink:href="#id20">August</textPath></text><path d="M 89.03521579738668 117.91015095944536 l -6.364716386536983 10.396285890402119 a33.18984720970803,33.18984720970803 0 0,0 -0.48336408746273246,-0.3016549400300812 l 6.542244602789428 -10.285495153530489" fill="#ff840c" stroke="none" /><path d="M 86.13680546590413 115.77377054828092 l -20.002474474594834 22.75914414849422 a51.29979583229492,51.29979583229492 0 0,0 -0.6564785360456344,-0.5870271549795383 l 20.39021803746384 -22.4124214636313" fill="#96ff23" stroke="none" /><path d="M 85.60350026404147 115.28858382429668 l -8.391909384456854 8.91191695365445 a33.241176696125606,33.241176696125606 0 0,0 -0.4120758522006771,-0.39475934487535624 l 8.543657722522845 -8.76654547847351" fill="#ff850c" stroke="none" /><line stroke="#e1ed5e" stroke-width="0.3" x1="26.387840678322732" x2="22.057713659400548" y1="142.50000000000003" y2="145.00000000000006" /><path d="M 25.521815274538298 143.00000000000003 a86.0,86.0 0 0,1 -11.493303480769221,-40.785679425670985" fill="none" id="id21" stroke="none" /><text fill="#e1ed5e" style="font-size:6.75px; font-family:Arial;" text-anchor="middle"><textPath startOffset="21.40746469413373" xlink:href="#id21">September</textPath></text><path d="M 79.48165901384964 104.47187691870673 l -14.821150999796904 3.230200877809568 a36.1690709890152,36.1690709890152 0 0,0 -0.12700905200409351,-0.6077842916339828 l 14.874417762625365 -2.975300134890176" fill="#ffad10" stroke="none" /><line stroke="#e1ed5e" stroke-width="0.3" x1="15.003131293944662" x2="10.003315487706104" y1="100.72959589197737" y2="100.7725132973878" /><path d="M 14.003168132696942 100.73817937305945 a86.0,86.0 0 0,1 10.791469493833604,-42.45332614584628" fill="none" id="id22" stroke="none" /><text fill="#e1ed5e" style="font-size:6.75px; font-family:Arial;" text-anchor="middle"><textPath startOffset="22.145653131862435" xlink:href="#id22">October</textPath></text><path d="M 79.03789590574601 98.7389718711861 l -15.143204351432495 -0.9109775698885147 a36.17058067979219,36.17058067979219 0 0,0 0.04260556611321592,-0.6194755806497041 l 15.125334824154214 1.170796574692544" fill="#ffad10" stroke="none" /><path d="M 79.06263194458094 98.37931529534042 l -18.255223092738156 -1.4130697214777996 a39.30983168146004,39.30983168146004 0 0,0 0.05785354712549593,-0.6723459129135764 l 18.228275922914914 1.7262366817670567" fill="#ffd614" stroke="none" /><path d="M 79.34024301695615 96.23510406497455 l -18.182788247120754 -3.313509719170355 a39.482238368192014,39.482238368192014 0 0,0 0.1272337837797688,-0.6657409206152403 l 18.123228171058827 3.62515320481891" fill="#ffd914" stroke="none" /><path d="M 80.16572619554312 93.10060997987247 l -15.748918354740885 -5.478291325195192 a37.67453463182716,37.67453463182716 0 0,0 0.21772262459962455,-0.6090089305772234 l 15.652555560097317 5.747835212153337" fill="#ffc111" stroke="none" /><path d="M 80.83023694016515 91.42560881287825 l -2.8019833684740294 -1.2532915209288134 a24.069503287771024,24.069503287771024 0 0,0 0.17194282935181818,-0.3757261128738825 l 2.780056074267164 1.3012066160173674" fill="#ff0000" stroke="none" /><path d="M 80.9802524753101 91.09779779509293 l -13.897819176699944 -6.504881116724244 a36.34479899545655,36.34479899545655 0 0,0 0.2693335518557642,-0.5628035356323737 l 13.784106366884274 6.742497154421704" fill="#ffaf10" stroke="none" /><line stroke="#e1ed5e" stroke-width="0.3" x1="26.387840678322718" x2="22.05771365940052" y1="57.49999999999999" y2="54.99999999999999" /><path d="M 25.521815274538284 56.99999999999999 a86.0,86.0 0 0,1 29.574782752854787,-30.34633250058573" fill="none" id="id23" stroke="none" /><text fill="#e1ed5e" style="font-size:6.75px; font-family:Arial;" text-anchor="middle"><textPath startOffset="21.40746469413373" xlink:href="#id23">November</textPath></text><path d="M 81.81346652052679 89.5 l -10.580512588136097 -6.108661790924602 a33.2173235818492,33.2173235818492 0 0,0 0.2893486553450601,-0.4913772744340861 l 10.474090222661259 6.28939023365226" fill="#ff850c" stroke="none" /><path d="M 81.99639281039701 89.18935116829357 l -8.543283338079537 -5.129996176048718 a30.965166880739222,30.965166880739222 0 0,0 0.27755411394952345,-0.453363786135089 l 8.45396125967462 5.27589707830835" fill="#ff6509" stroke="none" /><path d="M 82.37810715431573 88.57770195909679 l -21.40197010344905 -13.872498449788562 a46.50471598642716,46.50471598642716 0 0,0 0.4399690734016933,-0.6661692533735444 l 21.160676591126627 14.237847581501168" fill="#ceff1d" stroke="none" /><path d="M 84.58840730492382 85.73525988315684 l -7.798346266287634 -7.2180328815261 a31.626109502904356,31.626109502904356 0 0,0 0.3722004031076511,-0.3952639298936809 l 7.673290029443712 7.350838271364292" fill="#ff6e0a" stroke="none" /><path d="M 86.40962598614128 83.9905735841838 l -17.13894851421835 -20.18963825447618 a47.48329754807047,47.48329754807047 0 0,0 0.6259331171396572,-0.5221756684006519 l 16.789841062916782 20.480876106788713" fill="#c2ff1e" stroke="none" /><path d="M 86.96720088162412 83.53348406188908 l -31.279167609739304 -39.520206465117425 a71.40072465157296,71.40072465157296 0 0,0 0.9676160086511809,-0.7524240609002654 l 30.59614165645288 40.0513315776385" fill="#3dffab" stroke="none" /><path d="M 88.72937992617638 82.28071324371311 l -27.544774920562343 -43.30496124063224 a72.32284377815692,72.32284377815692 0 0,0 1.0532819016809118,-0.6573258070415235 l 26.797328890091734 43.7714228445153" fill="#3effb5" stroke="none" /><line stroke="#e1ed5e" stroke-width="0.3" x1="56.869717070023135" x2="54.33264160355391" y1="26.7553504044142" y2="22.446841604673864" /><path d="M 56.362301976729285 25.89364864446614 a86.0,86.0 0 0,1 42.16139366436587,-11.88097634709845" fill="none" id="id24" stroke="none" /><text fill="#e1ed5e" style="font-size:6.75px; font-family:Arial;" text-anchor="middle"><textPath startOffset="22.145653131862474" xlink:href="#id24">December</textPath></text><path d="M 89.97174638481275 81.54914285379989 l -8.769266864761521 -16.134463328049733 a39.36357667312079,39.36357667312079 0 0,0 0.5964728737157255,-0.31758820878539973 l 8.491005175259234 16.28262200455771" fill="#ffd714" stroke="none" /><path d="M 91.5904679813234 80.7573450057729 l -12.470049637897167 -28.53391394551152 a52.139787780610774,52.139787780610774 0 0,0 0.8232249912432326,-0.3513857967778701 l 11.978389571483504 28.743774391948794" fill="#8cff24" stroke="none" /><path d="M 93.27111125876988 80.10723608172694 l -2.16154408665956 -6.390221010995196 a27.745902267891033,27.745902267891033 0 0,0 0.45249241191429046,-0.14874324343754947 l 2.0515289370975087 6.426385175834774" fill="#ff3705" stroke="none" /><path d="M 95.00130118170881 79.60360301121753 l -14.996096454873559 -61.18919096634739 a84.0,84.0 0 0,0 1.4034713850403762,-0.33121542541507143 l 13.943492916093277 61.43760253540869" fill="#4dd2ff" stroke="none" /></svg>