<?xml version="1.0" encoding="utf-8" ?>
<svg baseProfile="full" height="200mm" version="1.1" viewBox="0,0,200,200" width="200mm" xmlns="http://www.w3.org/2000/svg" xmlns:ev="http://www.w3.org/2001/xml-events" xmlns:xlink="http://www.w3.org/1999/xlink"><defs /><rect fill="#1a1a1a" height="200" width="200" x="0" y="0" /><text alignment-baseline="middle" fill="#e1ed5e" style="dominant-baseline: central; font-size:9.0px; font-family:Arial;" text-anchor="middle" x="100.0" y="100.0">2023</text><line stroke="#e1ed5e" stroke-width="0.3" x1="100.0" x2="100.0" y1="15.0" y2="10.0" /><path d="M 100.0 14.0 a86.0,86.0 0 0,1 42.46469731375804,11.215312516191453" fill="none" id="id1" stroke="none" /><text fill="#e1ed5e" style="font-size:6.75px; font-family:Arial;" text-anchor="middle"><textPath startOffset="22.20632615414155" xlink:href="#id1">January</textPath></text><line stroke="#e1ed5e" stroke-width="0.3" x1="143.23703022742887" x2="145.7803849466894" y1="26.81831364943548" y2="22.513508569990506" /><path d="M 143.74570117128098 25.957352633546492 a86.0,86.0 0 0,1 28.547481713284135,27.462654790039103" fill="none" id="id2" stroke="none" /><text fill="#e1ed5e" style="font-size:6.75px; font-family:Arial;" text-anchor="middle"><textPath startOffset="19.985693538727396" xlink:href="#id2">February</textPath></text><line stroke="#e1ed5e" stroke-width="0.3" x1="172.23445277983987" x2="176.4835382374775" y1="55.19839476539836" y2="52.563006222186495" /><path d="M 173.08426987136738 54.67131705675599 a86.0,86.0 0 0,1 12.851231095245387,41.99856678651699" fill="none" id="id3" stroke="none" /><text fill="#e1ed5e" style="font-size:6.75px; font-family:Arial;" text-anchor="middle"><textPath startOffset="22.20632615414155" xlink:href="#id3">March</textPath></text><line stroke="#e1ed5e" stroke-width="0.3" x1="184.98032266829074" x2="189.97916517819016" y1="98.17113171792111" y2="98.06355123074" /><path d="M 185.9800911702706 98.14961562048488 a86.0,86.0 0 0,1 -9.607161424134198,41.387399972396054" fill="none" id="id4" stroke="none" /><text fill="#e1ed5e" style="font-size:6.75px; font-family:Arial;" text-anchor="middle"><textPath startOffset="21.466115282336823" xlink:href="#id4">April</textPath></text><line stroke="#e1ed5e" stroke-width="0.3" x1="174.80103733775053" x2="179.2010983576182" y1="140.37084112569926" y2="142.7455964860345" /><path d="M 175.68104954172406 140.8457921977663 a86.0,86.0 0 0,1 -30.038265399797805,32.042727171017184" fill="none" id="id5" stroke="none" /><text fill="#e1ed5e" style="font-size:6.75px; font-family:Arial;" text-anchor="middle"><textPath startOffset="22.206326154141568" xlink:href="#id5">May</textPath></text><line stroke="#e1ed5e" stroke-width="0.3" x1="143.8653032363475" x2="146.44561519142675" y1="172.8068346515853" y2="177.08958963109032" /><path d="M 144.38136562736335 173.6633856474863 a86.0,86.0 0 0,1 -40.68145358897372,12.25698825130547" fill="none" id="id6" stroke="none" /><text fill="#e1ed5e" style="font-size:6.75px; font-family:Arial;" text-anchor="middle"><textPath startOffset="21.466115282336833" xlink:href="#id6">June</textPath></text><line stroke="#e1ed5e" stroke-width="0.3" x1="102.19456741930631" x2="102.32365962044197" y1="184.97166512339345" y2="189.96999836594603" /><path d="M 102.22038585953345 185.97133177190398 a86.0,86.0 0 0,1 -42.740103519485714,-10.115201625700543" fill="none" id="id7" stroke="none" /><text fill="#e1ed5e" style="font-size:6.75px; font-family:Arial;" text-anchor="middle"><textPath startOffset="22.20632615414155" xlink:href="#id7">July</textPath></text><path d="M 94.46302465271185 120.25689768951611 l -5.448177501573752 19.932032801582846 a41.66321779617175,41.66321779617175 0 0,0 -0.6901588051313013,-0.19504577214007787 l 5.790467474809667 -19.835298236104247" fill="#ffd513" stroke="none" /><path d="M 94.11515582081647 120.15858648285463 l -6.395156194799762 21.906664866378932 a43.821042665130946,43.821042665130946 0 0,0 -0.7222647386915965,-0.2176124409397825 l 6.771295907931605 -21.793337056333424" fill="#fff216" stroke="none" /><path d="M 93.42475214034765 119.94407469862007 l -2.8754234263696534 8.721748720315242 a30.18351570049488,30.18351570049488 0 0,0 -0.49203480907827857,-0.16692492182709917 l 3.0251279683851577 -8.67096081159002" fill="#ff2d04" stroke="none" /><path d="M 93.08242187328487 119.8279376855182 l -10.549865389143395 30.239206510541045 a53.02669620982148,53.02669620982148 0 0,0 -0.8592355945062887,-0.30809131405178425 l 11.06882054427941 -30.053127655449302" fill="#97ff23" stroke="none" /><path d="M 92.06813273071674 119.44442032107085 l -7.754259840067396 19.00902807501148 a41.52977579088132,41.52977579088132 0 0,0 -0.6595888336633462,-0.275708185965518 l 8.080320133228204 -18.872734846025985" fill="#ffd313" stroke="none" /><path d="M 91.40352486487194 119.15986991738527 l -10.23355533977962 22.808603063518348 a45.99916055793615,45.99916055793615 0 0,0 -0.7196284005292872,-0.3303461031388402 l 10.624651736076327 -22.629069890045432" fill="#efff19" stroke="none" /><path d="M 90.42595943632237 118.69057910512821 l -20.3588422821055 39.744823476740635 a65.65572138332243,65.65572138332243 0 0,0 -1.0014345171554224,-0.5239032086574821 l 21.03996770178742 -39.388490849138435" fill="#34ff5d" stroke="none" /><line stroke="#e1ed5e" stroke-width="0.3" x1="58.666819895761336" x2="56.23545636021788" y1="174.27360380694188" y2="178.64263932499728" /><path d="M 58.180547188652646 175.14741091055294 a86.0,86.0 0 0,1 -31.652253787137756,-30.449443065178592" fill="none" id="id8" stroke="none" /><text fill="#e1ed5e" style="font-size:6.75px; font-family:Arial;" text-anchor="middle"><textPath startOffset="22.20632615414155" xlink:href="#id8">August</textPath></text><path d="M 86.79598089348748 116.32954008644616 l -16.060342461923806 19.861983227870866 a46.54276762096262,46.54276762096262 0 0,0 -0.6186417496768437,-0.5091000430681465 l 16.39985434014534 -19.58258806594554" fill="#e8ff1a" stroke="none" /><path d="M 85.97065885151581 115.62618273729859 l -22.192046174193035 24.717979637267288 a54.218450155687215,54.218450155687215 0 0,0 -0.6890918463696097,-0.6294690634486537 l 22.6142375700295 -24.332317807232055" fill="#88ff25" stroke="none" /><path d="M 84.43433777217949 114.09645910891817 l -4.703473978141703 4.259525077206998 a27.345567062636043,27.345567062636043 0 0,0 -0.3129650021358313,-0.3516194976188179 l 4.776097829925873 -4.177931409847316" fill="#ff0000" stroke="none" /><path d="M 82.44556493220864 111.52570212397912 l -26.750855574808813 17.563788964222393 a53.0014836650431,53.0014836650431 0 0,0 -0.49416346359125696,-0.7669526694248947 l 27.04922390177712 -17.10071469487605" fill="#97ff23" stroke="none" /><path d="M 82.24976979558568 111.22182372390057 l -27.88138776547322 17.626814699228404 a53.98600279163291,53.98600279163291 0 0,0 -0.4898210711805008,-0.7897475291673676 l 28.180673476321676 -17.14427083869577" fill="#8bff24" stroke="none" /><line stroke="#e1ed5e" stroke-width="0.3" x1="26.63291911575756" x2="22.317208475507996" y1="142.92168965132927" y2="145.44649492493687" /><path d="M 25.769776987707644 143.4266507060508 a86.0,86.0 0 0,1 -11.730757126820373,-40.83630448921669" fill="none" id="id9" stroke="none" /><text fill="#e1ed5e" style="font-size:6.75px; font-family:Arial;" text-anchor="middle"><textPath startOffset="21.46611528233685" xlink:href="#id9">September</textPath></text><path d="M 81.35079622478065 109.6543875284942 l -28.428981741072217 14.717218497740854 a53.012552587140924,53.012552587140924 0 0,0 -0.4125419934198123,-0.8139844908863582 l 28.678102404278295 -14.22567979515181" fill="#97ff23" stroke="none" /><path d="M 79.50377843672027 104.57218783832718 l -49.70937418234001 11.08890218549049 a71.93118527267225,71.93118527267225 0 0,0 -0.25917820377843315,-1.2107942831859622 l 49.89288642484288 -10.231594082888364" fill="#3dffa9" stroke="none" /><path d="M 79.35854240842038 103.8639653848113 l -30.883911281957687 5.781295415385212 a52.420365254907324,52.420365254907324 0 0,0 -0.15839326996681194,-0.8883535749494124 l 30.978850994263688 -5.248823089702586" fill="#9eff22" stroke="none" /><path d="M 79.1416061653843 102.43462659150553 l -49.86884468431221 5.820774903319527 a71.20740075549787,71.20740075549787 0 0,0 -0.13162416254384224,-1.2186762733595373 l 49.9616511483571 -4.961502308075207" fill="#3cffa1" stroke="none" /><path d="M 79.10278846688536 102.07522291339032 l -19.3890076260404 1.9254488968395624 a40.48437759275347,40.48437759275347 0 0,0 -0.06289615063975747,-0.6940537812580307 l 19.41927837295723 -1.5914137270329656" fill="#ffc512" stroke="none" /><path d="M 79.07016306316243 101.71520430193888 l -32.26903662977975 2.644453973236948 a53.37721207625258,53.37721207625258 0 0,0 -0.06716236342658052,-0.916377088209456 l 32.309775551870665 -2.088603748530731" fill="#92ff23" stroke="none" /><line stroke="#e1ed5e" stroke-width="0.3" x1="15.007084014347285" x2="10.007500721073583" y1="101.09737516637583" y2="101.16192664675087" /><path d="M 14.007167355692545 101.11028546245083 a86.0,86.0 0 0,1 10.666146001902534,-42.60595125391555" fill="none" id="id10" stroke="none" /><text fill="#e1ed5e" style="font-size:6.75px; font-family:Arial;" text-anchor="middle"><textPath startOffset="22.20632615414155" xlink:href="#id10">October</textPath></text><path d="M 79.16333360222342 97.38593545837743 l -31.308998512502114 -3.927871247868068 a52.554422200314306,52.554422200314306 0 0,0 0.12033461364737667,-0.8966326437029752 l 31.236747899796907 4.466222233635703" fill="#9cff22" stroke="none" /><path d="M 79.54389044137918 95.25157060432595 l -36.27565536297628 -8.420583971711526 a58.24015851789671,58.24015851789671 0 0,0 0.23508834047277907,-0.9745929435088896 l 36.125334222242685 9.043762146879812" fill="#5aff2a" stroke="none" /><path d="M 80.38941819471856 92.48833698450439 l -40.91559567081091 -15.672363513184004 a64.81448330388778,64.81448330388778 0 0,0 0.4080425120885431,-1.038423685940951 l 40.63975960884067 16.374336204020718" fill="#33ff52" stroke="none" /><path d="M 80.52162464483688 92.15188598940014 l -58.435126065489385 -23.544342031799562 a84.0,84.0 0 0,0 0.5519132524552011,-1.336501718186755 l 58.02119112614798 24.546718320439627" fill="#4dd2ff" stroke="none" /><path d="M 80.803312248108 91.48605970444005 l -39.468550413449854 -17.504732384850648 a64.17617546291325,64.17617546291325 0 0,0 0.4565605676339354,-1.0059706913847886 l 39.16138752885257 18.181525085077507" fill="#32ff4a" stroke="none" /><line stroke="#e1ed5e" stroke-width="0.3" x1="26.266209847984243" x2="21.928928074336255" y1="57.711370442889674" y2="55.22380399835377" /><path d="M 25.398753493254645 57.213857153982495 a86.0,86.0 0 0,1 29.58750427330803,-30.492523968695096" fill="none" id="id11" stroke="none" /><text fill="#e1ed5e" style="font-size:6.75px; font-family:Arial;" text-anchor="middle"><textPath startOffset="21.46611528233685" xlink:href="#id11">November</textPath></text><path d="M 81.78341655067845 89.55222093294921 l -17.890299828890846 -10.260645228867515 a41.62386162871283,41.62386162871283 0 0,0 0.3618111072146376,-0.6184524650233939 l 17.711029047205884 10.567077106244803" fill="#ffd513" stroke="none" /><path d="M 84.5562425177563 85.77008943001954 l -22.925272029420885 -21.123393781999425 a52.17315932805592,52.17315932805592 0 0,0 0.6142338048541597,-0.655221796804885 l 22.55827090259627 21.514884995682362" fill="#a1ff22" stroke="none" /><path d="M 84.80347519578584 85.50635884689758 l -4.652451468381117 -4.437262001259722 a27.42919891848627,27.42919891848627 0 0,0 0.32880521837041765,-0.3388626803253888 l 4.5753819863075815 4.516688877135234" fill="#ff0100" stroke="none" /><path d="M 85.05521093208273 85.24692304244772 l -23.028766225105457 -22.733352663090415 a53.35937881287275,53.35937881287275 0 0,0 0.6508934560556556,-0.6480983127020935 l 22.634036968882487 23.126386826442616" fill="#93ff23" stroke="none" /><path d="M 86.10567301691215 84.25364557470407 l -24.824095078111217 -28.132992685645966 a58.5193413308085,58.5193413308085 0 0,0 0.761047381740475,-0.6599727899599043 l 24.336153897723968 28.55613046902555" fill="#57ff2a" stroke="none" /><path d="M 86.65592168130627 83.78471172551755 l -25.73888780326863 -31.27705605638392 a61.50610547687142,61.50610547687142 0 0,0 0.8232932008134247,-0.6657125121867575 l 25.1966912038907 31.71547466583481" fill="#36ff2e" stroke="none" /><line stroke="#e1ed5e" stroke-width="0.3" x1="56.762969772571076" x2="54.21961505331055" y1="26.818313649435495" y2="22.513508569990535" /><path d="M 56.25429882871897 25.957352633546506 a86.0,86.0 0 0,1 42.265352541879196,-11.944610805530505" fill="none" id="id12" stroke="none" /><text fill="#e1ed5e" style="font-size:6.75px; font-family:Arial;" text-anchor="middle"><textPath startOffset="22.20632615414155" xlink:href="#id12">December</textPath></text><path d="M 90.26544431104013 81.39251694778311 l -5.240463209572717 -10.017080745501337 a32.30505910257787,32.30505910257787 0 0,0 0.49494352209902737,-0.25352929572981553 l 5.0672591998849255 10.105802566543659" fill="#ff4d07" stroke="none" /><path d="M 91.90106846888425 80.62456947434976 l -7.129026593485724 -17.055084235113455 a39.48509990336655,39.48509990336655 0 0,0 0.6293476118367174,-0.2567266928456476 l 6.834395112060626 17.17527181414268" fill="#ffb710" stroke="none" /><path d="M 93.25333710446033 80.11325718540243 l -6.344493325284607 -18.701291142363125 a40.74818690275161,40.74818690275161 0 0,0 0.6661691679138811,-0.21962550089100563 l 6.021641335128317 18.807730367513365" fill="#ffc812" stroke="none" /><path d="M 93.59665428221793 80.00007090966166 l -11.39844164915972 -35.60139257989568 a58.38159474470224,58.38159474470224 0 0,0 0.9597228795402697,-0.2981905703647541 l 10.78393339690872 35.792323285142956" fill="#59ff2a" stroke="none" /><path d="M 94.98787191387505 79.60689891045804 l -3.9436953510774346 -16.045914345947516 a37.52344093158547,37.52344093158547 0 0,0 0.6285646525424893,-0.14876094514738356 l 3.6669070115724116 16.11142120323577" fill="#ff9b0e" stroke="none" /><path d="M 97.47563105711357 79.15227682838746 l -2.8183764024665177 -23.27580966229259 a44.445821823541465,44.445821823541465 0 0,0 0.7603056708995485,-0.08542920095823413 l 2.4173040280572513 23.32087481672142" fill="#fffb17" stroke="none" /></svg>