<?xml version="1.0" encoding="utf-8" ?>
<svg baseProfile="full" height="200mm" version="1.1" viewBox="0,0,200,200" width="200mm" xmlns="http://www.w3.org/2000/svg" xmlns:ev="http://www.w3.org/2001/xml-events" xmlns:xlink="http://www.w3.org/1999/xlink"><defs /><rect fill="#1a1a1a" height="200" width="200" x="0" y="0" /><text alignment-baseline="middle" fill="#e1ed5e" style="dominant-baseline: central; font-size:9.0px; font-family:Arial;" text-anchor="middle" x="100.0" y="100.0">2024</text><line stroke="#e1ed5e" stroke-width="0.3" x1="100.0" x2="100.0" y1="15.0" y2="10.0" /><path d="M 100.0 14.0 a86.0,86.0 0 0,1 42.35913384403234,11.155469271406648" fill="none" id="id13" stroke="none" /><text fill="#e1ed5e" style="font-size:6.75px; font-family:Arial;" text-anchor="middle"><textPath startOffset="22.145653131862478" xlink:href="#id13">January</textPath></text><path d="M 100.36049292484886 79.00309439819443 l 0.2234070099051377 -13.012338313509398 a34.01425599399748,34.01425599399748 0 0,0 0.5837278567631511,0.015034758964962248 l -0.44674818073903017 13.00658583719439" fill="#ff9c0e" stroke="none" /><path d="M 101.08105385017728 79.02784411241856 l 0.6699778035301581 -12.997390402476016 a34.01464665412007,34.01464665412007 0 0,0 0.5828744147001785,0.03506427738350791 l -0.892996570362799 12.983974147267817" fill="#ff9c0e" stroke="none" /><path d="M 105.3480935250658 79.69241777938227 l 5.0549300972924645 -19.194392934438977 a40.84885483875969,40.84885483875969 0 0,0 0.6765710220685472,0.18440244064248051 l -5.383682520295705 19.104789999652354" fill="#fff417" stroke="none" /><line stroke="#e1ed5e" stroke-width="0.3" x1="143.13028292997686" x2="145.6673583964461" y1="26.7553504044142" y2="22.446841604673864" /><path d="M 143.63769802327073 25.89364864446614 a86.0,86.0 0 0,1 29.32050498858742,28.57503671076993" fill="none" id="id14" stroke="none" /><text fill="#e1ed5e" style="font-size:6.75px; font-family:Arial;" text-anchor="middle"><textPath startOffset="20.669276256404974" xlink:href="#id14">February</textPath></text><line stroke="#e1ed5e" stroke-width="0.3" x1="172.87174338648825" x2="177.1583165268699" y1="56.24261187166439" y2="53.66864786411523" /><path d="M 173.72905801456457 55.72781907015455 a86.0,86.0 0 0,1 12.242430191666344,42.057860355516425" fill="none" id="id15" stroke="none" /><text fill="#e1ed5e" style="font-size:6.75px; font-family:Arial;" text-anchor="middle"><textPath startOffset="22.145653131862474" xlink:href="#id15">March</textPath></text><path d="M 120.05942366710727 93.78553927170692 l 2.131691980585125 -0.6604036246507933 a23.23164595031175,23.23164595031175 0 0,0 0.11474627668281728,0.38195303587316665 l -2.14271457727157 0.6237129851869032" fill="#ff0400" stroke="none" /><line stroke="#e1ed5e" stroke-width="0.3" x1="184.99686870605535" x2="189.99668451229388" y1="99.2704041080226" y2="99.22748670261217" /><path d="M 185.99683186730306 99.26182062694052 a86.0,86.0 0 0,1 -10.086455211305974,41.156179273409016" fill="none" id="id16" stroke="none" /><text fill="#e1ed5e" style="font-size:6.75px; font-family:Arial;" text-anchor="middle"><textPath startOffset="21.40746469413373" xlink:href="#id16">April</textPath></text><path d="M 119.58574465831526 107.57618678355244 l 1.918854142572666 0.7422540040289893 a23.057411535635335,23.057411535635335 0 0,0 -0.14596584959041567,0.36792929291807774 l -1.9058296180161258 -0.7750843141606312" fill="#ff0100" stroke="none" /><line stroke="#e1ed5e" stroke-width="0.3" x1="174.33088141563837" x2="178.70328620479359" y1="141.23008692659167" y2="143.65538615756765" /><path d="M 175.20536237346943 141.71514677278685 a86.0,86.0 0 0,1 -30.301960400862466,31.631185727798858" fill="none" id="id17" stroke="none" /><text fill="#e1ed5e" style="font-size:6.75px; font-family:Arial;" text-anchor="middle"><textPath startOffset="22.145653131862474" xlink:href="#id17">May</textPath></text><line stroke="#e1ed5e" stroke-width="0.3" x1="143.1302829299769" x2="145.66735839644613" y1="173.24464959558577" y2="177.55315839532614" /><path d="M 143.63769802327073 174.10635135553383 a86.0,86.0 0 0,1 -40.68552437913181,11.842963189579606" fill="none" id="id18" stroke="none" /><text fill="#e1ed5e" style="font-size:6.75px; font-family:Arial;" text-anchor="middle"><textPath startOffset="21.407464694133747" xlink:href="#id18">June</textPath></text><path d="M 107.06938296918513 119.77432235084164 l 2.551374552405988 7.1366487085118 a28.579001708362917,28.579001708362917 0 0,0 -0.46338024392443017,0.16118770276016356 l -2.4284885364365363 -7.179394843840555" fill="#ff5107" stroke="none" /><line stroke="#e1ed5e" stroke-width="0.3" x1="101.45913802915013" x2="101.54496967792366" y1="184.9874750549273" y2="189.98673829345242" /><path d="M 101.47630435890484 185.9873277026323 a86.0,86.0 0 0,1 -42.54439059252881,-10.42667462771756" fill="none" id="id19" stroke="none" /><text fill="#e1ed5e" style="font-size:6.75px; font-family:Arial;" text-anchor="middle"><textPath startOffset="22.145653131862474" xlink:href="#id19">July</textPath></text><path d="M 97.84075906011543 120.88869738790638 l -0.7161965694734806 6.9285521285030685 a27.96546998583082,27.96546998583082 0 0,0 -0.47709637575159936,-0.0534596440307767 l 0.8350288468258793 -6.915236723965321" fill="#ff4806" stroke="none" /><path d="M 92.93061703081489 119.77432235084164 l -3.325446901853761 9.301866836822953 a30.87842718994453,30.87842718994453 0 0,0 -0.4975997495683644,-0.18272552051621316 l 3.484635803076244 -9.24341046729802" fill="#ff710a" stroke="none" /><line stroke="#e1ed5e" stroke-width="0.3" x1="58.13341422392154" x2="55.67067388415222" y1="173.97424548756322" y2="178.32567169271397" /><path d="M 57.64086615596768 174.84453072859336 a86.0,86.0 0 0,1 -31.369924170532247,-30.572349798747897" fill="none" id="id20" stroke="none" /><text fill="#e1ed5e" style="font-size:6.75px; font-family:Arial;" text-anchor="middle"><textPath startOffset="22.145653131862474" xlink:href="#id20">August</textPath></text><path d="M 89.03521579738668 117.91015095944536 l -4.117467168996824 6.725573180885505 a28.88586523465961,28.88586523465961 0 0,0 -0.420682559985956,-0.2625370309788451 l 4.232313857772493 -6.6539003530651115" fill="#ff5507" stroke="none" /><path d="M 86.13680546590413 115.77377054828092 l -12.940016011090908 14.72336285464534 a40.6015669811584,40.6015669811584 0 0,0 -0.5195743339814625,-0.4646065733005538 l 13.19085537189574 -14.499060751461403" fill="#fff116" stroke="none" /><path d="M 85.60350026404147 115.28858382429668 l -5.428900406118144 5.765304098563883 a28.919071345080006,28.919071345080006 0 0,0 -0.358496664492776,-0.34343169506144644 l 5.527069556476234 -5.671260273196855" fill="#ff5607" stroke="none" /><line stroke="#e1ed5e" stroke-width="0.3" x1="26.387840678322732" x2="22.057713659400548" y1="142.50000000000003" y2="145.00000000000006" /><path d="M 25.521815274538298 143.00000000000003 a86.0,86.0 0 0,1 -11.493303480769221,-40.785679425670985" fill="none" id="id21" stroke="none" /><text fill="#e1ed5e" style="font-size:6.75px; font-family:Arial;" text-anchor="middle"><textPath startOffset="21.40746469413373" xlink:href="#id21">September</textPath></text><path d="M 79.48165901384964 104.47187691870673 l -9.588110285242735 2.0896840103950387 a30.813186949471522,30.813186949471522 0 0,0 -0.10820166392622742,-0.5177841313302681 l 9.622569659993328 -1.9247834277793612" fill="#ff700a" stroke="none" /><line stroke="#e1ed5e" stroke-width="0.3" x1="15.003131293944662" x2="10.003315487706104" y1="100.72959589197737" y2="100.7725132973878" /><path d="M 14.003168132696942 100.73817937305945 a86.0,86.0 0 0,1 10.791469493833604,-42.45332614584628" fill="none" id="id22" stroke="none" /><text fill="#e1ed5e" style="font-size:6.75px; font-family:Arial;" text-anchor="middle"><textPath startOffset="22.145653131862435" xlink:href="#id22">October</textPath></text><path d="M 79.03789590574601 98.7389718711861 l -9.796453284599288 -0.5893303028619835 a30.814163599778006,30.814163599778006 0 0,0 0.036296207022389886,-0.527738884183076 l 9.784893116411835 0.7574126111993845" fill="#ff700a" stroke="none" /><path d="M 79.06263194458094 98.37931529534042 l -11.809682817298189 -0.9141441397130381 a32.84501024707703,32.84501024707703 0 0,0 0.04833906091393599,-0.5617731609276269 l 11.79225013368651 1.1167383480163455" fill="#ff8c0c" stroke="none" /><path d="M 79.34024301695615 96.23510406497455 l -11.762823211840846 -2.1435782294549455 a32.95654371207729,32.95654371207729 0 0,0 0.10620435745530292,-0.5557060758959055 l 11.724292562103384 2.3451868703841656" fill="#ff8d0d" stroke="none" /><path d="M 80.16572619554312 93.10060997987247 l -10.18830224863159 -3.544020393650928 a31.787102635095543,31.787102635095543 0 0,0 0.1836989224090914,-0.5138385801212778 l 10.125963156178557 3.7183939301531272" fill="#ff7e0b" stroke="none" /><path d="M 80.83023694016515 91.42560881287825 l -1.8126612133371474 -0.8107803046058796 a22.985725403139543,22.985725403139543 0 0,0 0.16420075700223452,-0.3588082875684408 l 1.7984759914798663 0.8417775743889918" fill="#ff0000" stroke="none" /><path d="M 80.9802524753101 91.09779779509293 l -8.990787759492255 -4.208142642929662 a30.92686904514605,30.92686904514605 0 0,0 0.2291839195134511,-0.47890624589294045 l 8.9172245820189 4.3618613908876895" fill="#ff720a" stroke="none" /><line stroke="#e1ed5e" stroke-width="0.3" x1="26.387840678322718" x2="22.05771365940052" y1="57.49999999999999" y2="54.99999999999999" /><path d="M 25.521815274538284 56.99999999999999 a86.0,86.0 0 0,1 29.574782752854787,-30.34633250058573" fill="none" id="id23" stroke="none" /><text fill="#e1ed5e" style="font-size:6.75px; font-family:Arial;" text-anchor="middle"><textPath startOffset="21.40746469413373" xlink:href="#id23">November</textPath></text><path d="M 81.81346652052679 89.5 l -6.84475325639946 -3.9518201351187967 a28.90364027023759,28.90364027023759 0 0,0 0.2517731275418126,-0.42756581342915 l 6.7759064187278675 4.068737116841519" fill="#ff5607" stroke="none" /><path d="M 81.99639281039701 89.18935116829357 l -5.526827359407223 -3.3187010306758635 a27.44667334302749,27.44667334302749 0 0,0 0.246016342489808,-0.4018492066111839 l 5.469043052462022 3.41308735341159" fill="#ff4106" stroke="none" /><path d="M 82.37810715431573 88.57770195909679 l -13.845378788472585 -8.97440725556701 a37.49953027770974,37.49953027770974 0 0,0 0.35477334372062347,-0.5371720600175575 l 13.689281005831232 9.210759193923629" fill="#ffc912" stroke="none" /><path d="M 84.58840730492382 85.73525988315684 l -5.044912101948178 -4.669495325398749 a27.874250847205385,27.874250847205385 0 0,0 0.3280456421837428,-0.34837310392847615 l 4.964010626028164 4.7554098892717365" fill="#ff4706" stroke="none" /><path d="M 86.40962598614128 83.9905735841838 l -11.087541617359843 -13.061096146023063 a38.13259500637148,38.13259500637148 0 0,0 0.5026705239415737,-0.4193456291687671 l 10.86169675925636 13.249503959103711" fill="#ffd213" stroke="none" /><path d="M 86.96720088162412 83.53348406188908 l -20.23514291682761 -25.566442045445807 a53.60527515184587,53.60527515184587 0 0,0 0.7264537249193695,-0.5648948104133759 l 19.793279247272995 25.91003790747999" fill="#76ff27" stroke="none" /><path d="M 88.72937992617638 82.28071324371311 l -17.8192867560798 -28.01487848541814 a54.20181315904517,54.20181315904517 0 0,0 0.7893742261273601,-0.4926278989688145 l 17.335748401162743 28.31664218122849" fill="#70ff27" stroke="none" /><line stroke="#e1ed5e" stroke-width="0.3" x1="56.869717070023135" x2="54.33264160355391" y1="26.7553504044142" y2="22.446841604673864" /><path d="M 56.362301976729285 25.89364864446614 a86.0,86.0 0 0,1 42.16139366436587,-11.88097634709845" fill="none" id="id24" stroke="none" /><text fill="#e1ed5e" style="font-size:6.75px; font-family:Arial;" text-anchor="middle"><textPath startOffset="22.145653131862474" xlink:href="#id24">December</textPath></text><path d="M 89.97174638481275 81.54914285379989 l -5.673020794485558 -10.437719296204811 a32.87977899798779,32.87977899798779 0 0,0 0.4982244481726585,-0.2652764560482932 l 5.493007530526338 10.53356621997568" fill="#ff8c0c" stroke="none" /><path d="M 91.5904679813234 80.7573450057729 l -8.067134002767238 -18.459181326938715 a41.14497521168508,41.14497521168508 0 0,0 0.649630029198897,-0.2772884300756606 l 7.74906889839791 18.59494440667378" fill="#fff817" stroke="none" /><path d="M 93.27111125876988 80.10723608172694 l -1.3983477457041047 -4.133966640063032 a25.364064229484917,25.364064229484917 0 0,0 0.4136483466400165,-0.1359744276407228 l 1.3271766614163272 4.157361989105783" fill="#ff2303" stroke="none" /><path d="M 95.00130118170881 79.60360301121753 l -9.701286132192807 -39.58455799135685 a61.75600794962345,61.75600794962345 0 0,0 1.0318189287097919,-0.24350645767822696 l 9.020335049743109 39.74526059268131" fill="#31ff3f" stroke="none" /><path d="M 97.48249496171623 79.15144685158666 l -7.5525151148513325 -62.54565944524002 a84.0,84.0 0 0,0 1.4330563935968028,-0.16057695797211657 l 6.477722819653731 62.666092163719114" fill="#4dd2ff" stroke="none" /></svg>