<?xml version="1.0" encoding="utf-8" ?>
<svg baseProfile="full" height="200mm" version="1.1" viewBox="0,0,200,200" width="200mm" xmlns="http://www.w3.org/2000/svg" xmlns:ev="http://www.w3.org/2001/xml-events" xmlns:xlink="http://www.w3.org/1999/xlink"><defs /><rect fill="#1a1a1a" height="200" width="200" x="0" y="0" /><text alignment-baseline="middle" fill="#e1ed5e" style="dominant-baseline: central; font-size:9.0px; font-family:Arial;" text-anchor="middle" x="100.0" y="100.0">2024</text><line stroke="#e1ed5e" stroke-width="0.3" x1="100.0" x2="100.0" y1="15.0" y2="10.0" /><path d="M 100.0 14.0 a86.0,86.0 0 0,1 42.35913384403234,11.155469271406648" fill="none" id="id13" stroke="none" /><text fill="#e1ed5e" style="font-size:6.75px; font-family:Arial;" text-anchor="middle"><textPath startOffset="22.145653131862478" xlink:href="#id13">January</textPath></text><path d="M 100.36049292484886 79.00309439819443 l 0.42391183748316813 -24.690739322703518 a45.694378095988895,45.694378095988895 0 0,0 0.7841735946481879,0.0201975301428989 l -0.8476987462020974 24.679824075210576" fill="#ddff1b" stroke="none" /><path d="M 101.08105385017728 79.02784411241856 l 1.2712739939897242 -24.66237585982298 a45.695119368388845,45.695119368388845 0 0,0 0.7830307992712398,0.047105188447154264 l -1.6944491453934263 24.636918693551134" fill="#ddff1b" stroke="none" /><path d="M 105.3480935250658 79.69241777938227 l 9.591662798772992 -36.42110595216755 a58.66293873324784,58.66293873324784 0 0,0 0.9716219603453434,0.264819885903065 l -10.215466160053028 36.251085572120346" fill="#49ff2c" stroke="none" /><line stroke="#e1ed5e" stroke-width="0.3" x1="143.13028292997686" x2="145.6673583964461" y1="26.7553504044142" y2="22.446841604673864" /><path d="M 143.63769802327073 25.89364864446614 a86.0,86.0 0 0,1 29.32050498858742,28.57503671076993" fill="none" id="id14" stroke="none" /><text fill="#e1ed5e" style="font-size:6.75px; font-family:Arial;" text-anchor="middle"><textPath startOffset="20.669276256404974" xlink:href="#id14">February</textPath></text><line stroke="#e1ed5e" stroke-width="0.3" x1="172.87174338648825" x2="177.1583165268699" y1="56.24261187166439" y2="53.66864786411523" /><path d="M 173.72905801456457 55.72781907015455 a86.0,86.0 0 0,1 12.242430191666344,42.057860355516425" fill="none" id="id15" stroke="none" /><text fill="#e1ed5e" style="font-size:6.75px; font-family:Arial;" text-anchor="middle"><textPath startOffset="22.145653131862474" xlink:href="#id15">March</textPath></text><path d="M 120.05942366710727 93.78553927170692 l 4.044857253233369 -1.2531071165812353 a25.23451858475803,25.23451858475803 0 0,0 0.12463891097847431,0.4148823980384753 l -4.06577248421547 1.1834871149520365" fill="#ff0701" stroke="none" /><line stroke="#e1ed5e" stroke-width="0.3" x1="184.99686870605535" x2="189.99668451229388" y1="99.2704041080226" y2="99.22748670261217" /><path d="M 185.99683186730306 99.26182062694052 a86.0,86.0 0 0,1 -10.086455211305974,41.156179273409016" fill="none" id="id16" stroke="none" /><text fill="#e1ed5e" style="font-size:6.75px; font-family:Arial;" text-anchor="middle"><textPath startOffset="21.40746469413373" xlink:href="#id16">April</textPath></text><path d="M 119.58574465831526 107.57618678355244 l 3.641000279201451 1.4084171255896283 a24.90391109437692,24.90391109437692 0 0,0 -0.157655187591062,0.3973940607204543 l -3.6162864166442645 -1.4707122035236468" fill="#ff0200" stroke="none" /><line stroke="#e1ed5e" stroke-width="0.3" x1="174.33088141563837" x2="178.70328620479359" y1="141.23008692659167" y2="143.65538615756765" /><path d="M 175.20536237346943 141.71514677278685 a86.0,86.0 0 0,1 -30.301960400862466,31.631185727798858" fill="none" id="id17" stroke="none" /><text fill="#e1ed5e" style="font-size:6.75px; font-family:Arial;" text-anchor="middle"><textPath startOffset="22.145653131862474" xlink:href="#id17">May</textPath></text><line stroke="#e1ed5e" stroke-width="0.3" x1="143.1302829299769" x2="145.66735839644613" y1="173.24464959558577" y2="177.55315839532614" /><path d="M 143.63769802327073 174.10635135553383 a86.0,86.0 0 0,1 -40.68552437913181,11.842963189579606" fill="none" id="id18" stroke="none" /><text fill="#e1ed5e" style="font-size:6.75px; font-family:Arial;" text-anchor="middle"><textPath startOffset="21.407464694133747" xlink:href="#id18">June</textPath></text><path d="M 107.06938296918513 119.77432235084164 l 4.841199365577049 13.541696246602616 a35.381055195378224,35.381055195378224 0 0,0 -0.5736688129991799,0.19955179212941968 l -4.608024780532848 -13.622806471300626" fill="#ff9a0e" stroke="none" /><line stroke="#e1ed5e" stroke-width="0.3" x1="101.45913802915013" x2="101.54496967792366" y1="184.9874750549273" y2="189.98673829345242" /><path d="M 101.47630435890484 185.9873277026323 a86.0,86.0 0 0,1 -42.54439059252881,-10.42667462771756" fill="none" id="id19" stroke="none" /><text fill="#e1ed5e" style="font-size:6.75px; font-family:Arial;" text-anchor="middle"><textPath startOffset="22.145653131862474" xlink:href="#id19">July</textPath></text><path d="M 97.84075906011543 120.88869738790638 l -1.358973489209493 13.146835746733244 a34.21688689124475,34.21688689124475 0 0,0 -0.5837467681961538,-0.06541004295561993 l 1.584456159006446 -13.121569943270652" fill="#ff8a0c" stroke="none" /><path d="M 92.93061703081489 119.77432235084164 l -6.309991379483202 17.650168920374075 a39.74418454152891,39.74418454152891 0 0,0 -0.6404696765482882,-0.2351893366579319 l 6.612050207685609 -17.539248734707424" fill="#ffd513" stroke="none" /><line stroke="#e1ed5e" stroke-width="0.3" x1="58.13341422392154" x2="55.67067388415222" y1="173.97424548756322" y2="178.32567169271397" /><path d="M 57.64086615596768 174.84453072859336 a86.0,86.0 0 0,1 -31.369924170532247,-30.572349798747897" fill="none" id="id20" stroke="none" /><text fill="#e1ed5e" style="font-size:6.75px; font-family:Arial;" text-anchor="middle"><textPath startOffset="22.145653131862474" xlink:href="#id20">August</textPath></text><path d="M 89.03521579738668 117.91015095944536 l -7.812839329111503 12.76168588643344 a35.96332466554495,35.96332466554495 0 0,0 -0.5237559395573981,-0.32686244310561674 l 8.030759397458613 -12.625687646486275" fill="#ffa20f" stroke="none" /><path d="M 86.13680546590413 115.77377054828092 l -24.553508713322678 27.937385690334143 a58.19371330407465,58.19371330407465 0 0,0 -0.7446993325628068,-0.6659147352216203 l 25.029473072708853 -27.51177542522914" fill="#4eff2b" stroke="none" /><path d="M 85.60350026404147 115.28858382429668 l -10.301266498521523 10.939588042063727 a36.02633281954135,36.02633281954135 0 0,0 -0.4466021745857161,-0.42783478070321407 l 10.487541158972553 -10.76114113105493" fill="#ffa30f" stroke="none" /><line stroke="#e1ed5e" stroke-width="0.3" x1="26.387840678322732" x2="22.057713659400548" y1="142.50000000000003" y2="145.00000000000006" /><path d="M 25.521815274538298 143.00000000000003 a86.0,86.0 0 0,1 -11.493303480769221,-40.785679425670985" fill="none" id="id21" stroke="none" /><text fill="#e1ed5e" style="font-size:6.75px; font-family:Arial;" text-anchor="middle"><textPath startOffset="21.40746469413373" xlink:href="#id21">September</textPath></text><path d="M 79.48165901384964 104.47187691870673 l -18.19331206632402 3.9651476870931655 a39.62039205073597,39.62039205073597 0 0,0 -0.13912849561225385,-0.6657802165870037 l 18.25869827276064 -3.6522510192207527" fill="#ffd413" stroke="none" /><line stroke="#e1ed5e" stroke-width="0.3" x1="15.003131293944662" x2="10.003315487706104" y1="100.72959589197737" y2="100.7725132973878" /><path d="M 14.003168132696942 100.73817937305945 a86.0,86.0 0 0,1 10.791469493833604,-42.45332614584628" fill="none" id="id22" stroke="none" /><text fill="#e1ed5e" style="font-size:6.75px; font-family:Arial;" text-anchor="middle"><textPath startOffset="22.145653131862435" xlink:href="#id22">October</textPath></text><path d="M 79.03789590574601 98.7389718711861 l -18.588640143636788 -1.1182464313756981 a39.622245231735874,39.622245231735874 0 0,0 0.04667130460855172,-0.6785905260649404 l 18.56670487786317 1.4371803815949635" fill="#ffd413" stroke="none" /><path d="M 79.06263194458094 98.37931529534042 l -22.40871647357894 -1.734576377682911 a43.47574980291567,43.47574980291567 0 0,0 0.06398466318606817,-0.7435987751794385 l 22.37563818769513 2.1189962002380303" fill="#f9ff18" stroke="none" /><path d="M 79.34024301695615 96.23510406497455 l -22.319800993882964 -4.067411252775846 a43.687383073103575,43.687383073103575 0 0,0 0.14078510443078834,-0.7366471565044271 l 22.24668959717002 4.449960974313588" fill="#f6ff19" stroke="none" /><path d="M 80.16572619554312 93.10060997987247 l -19.332168354454076 -6.724731680479987 a41.46838414383038,41.46838414383038 0 0,0 0.23964743086893786,-0.6703365158189564 l 19.213880753541194 7.055603152679865" fill="#ffec16" stroke="none" /><path d="M 80.83023694016515 91.42560881287825 l -3.4395006047773458 -1.5384448718354082 a24.767887608984694,24.767887608984694 0 0,0 0.17693180543199502,-0.38662792597590007 l 3.4125843344903037 1.5972617800259796" fill="#ff0000" stroke="none" /><path d="M 80.9802524753101 91.09779779509293 l -17.05990049804561 -7.984894837959895 a39.836102319123654,39.836102319123654 0 0,0 0.2952058953755797,-0.6168667828873808 l 16.920315344710126 8.276574122912363" fill="#ffd614" stroke="none" /><line stroke="#e1ed5e" stroke-width="0.3" x1="26.387840678322718" x2="22.05771365940052" y1="57.49999999999999" y2="54.99999999999999" /><path d="M 25.521815274538284 56.99999999999999 a86.0,86.0 0 0,1 29.574782752854787,-30.34633250058573" fill="none" id="id23" stroke="none" /><text fill="#e1ed5e" style="font-size:6.75px; font-family:Arial;" text-anchor="middle"><textPath startOffset="21.40746469413373" xlink:href="#id23">November</textPath></text><path d="M 81.81346652052679 89.5 l -12.987828498627902 -7.498526279871514 a35.997052559743025,35.997052559743025 0 0,0 0.31356225100081525,-0.5324972534551917 l 12.857192537497307 7.720374701620279" fill="#ffa30f" stroke="none" /><path d="M 81.99639281039701 89.18935116829357 l -10.487081593247195 -6.29719117841672 a33.232477144101004,33.232477144101004 0 0,0 0.2978769913820838,-0.4865596790976431 l 10.377436637409717 6.4762879736389065" fill="#ff7c0b" stroke="none" /><path d="M 82.37810715431573 88.57770195909679 l -26.271422572479096 -17.02881870915815 a52.307639812210994,52.307639812210994 0 0,0 0.4948690327820682,-0.7492947891478994 l 25.9752291007763 17.477293376645108" fill="#8fff24" stroke="none" /><path d="M 84.58840730492382 85.73525988315684 l -9.572653785510175 -8.860305432445285 a34.043799785854645,34.043799785854645 0 0,0 0.40065364354877814,-0.4254802852255607 l 9.419144308225125 9.023327177615357" fill="#ff880c" stroke="none" /><path d="M 86.40962598614128 83.9905735841838 l -21.038463126926356 -24.78325666305619 a53.50887173634236,53.50887173634236 0 0,0 0.7053632879360943,-0.5884391419109588 l 20.60992550482835 25.14075798887903" fill="#81ff25" stroke="none" /><path d="M 86.96720088162412 83.53348406188908 l -38.39591523672079 -48.511984606005974 a82.8680770452647,82.8680770452647 0 0,0 1.1230205063944139,-0.8732675383011048 l 37.55748478569113 49.16395319592788" fill="#4cddff" stroke="none" /><path d="M 88.72937992617638 82.28071324371311 l -33.811860221470866 -53.157860268860674 a84.0,84.0 0 0,0 1.2233434848412057,-0.7634568126338559 l 32.89435260783996 53.73045287833607" fill="#4dd2ff" stroke="none" /><line stroke="#e1ed5e" stroke-width="0.3" x1="56.869717070023135" x2="54.33264160355391" y1="26.7553504044142" y2="22.446841604673864" /><path d="M 56.362301976729285 25.89364864446614 a86.0,86.0 0 0,1 42.16139366436587,-11.88097634709845" fill="none" id="id24" stroke="none" /><text fill="#e1ed5e" style="font-size:6.75px; font-family:Arial;" text-anchor="middle"><textPath startOffset="22.145653131862474" xlink:href="#id24">December</textPath></text><path d="M 89.97174638481275 81.54914285379989 l -10.764481696844426 -19.805433893352284 a43.541723046511905,43.541723046511905 0 0,0 0.659783964444005,-0.35129779858684135 l 10.422908916613858 19.9873021596617" fill="#f8ff18" stroke="none" /><path d="M 91.5904679813234 80.7573450057729 l -15.307279748241067 -35.02605168056378 a59.22482321241572,59.22482321241572 0 0,0 0.9350892407842439,-0.3991339930474763 l 14.70375543228639 35.28366032327066" fill="#43ff2d" stroke="none" /><path d="M 93.27111125876988 80.10723608172694 l -2.653346296401244 -7.844146856570673 a29.280753979926814,29.280753979926814 0 0,0 0.47752345060260765,-0.1569714430340022 l 2.5183001081508753 7.888539221006704" fill="#ff4406" stroke="none" /></svg>